<?xml version="1.0" encoding="utf-8" standalone="no"?>
<!DOCTYPE svg PUBLIC "-//W3C//DTD SVG 1.1//EN"
  "http://www.w3.org/Graphics/SVG/1.1/DTD/svg11.dtd">
<!-- Created with matplotlib (http://matplotlib.org/) -->
<svg height="216pt" version="1.1" viewBox="0 0 864 216" width="864pt" xmlns="http://www.w3.org/2000/svg" xmlns:xlink="http://www.w3.org/1999/xlink">
 <defs>
  <style type="text/css">
*{stroke-linecap:butt;stroke-linejoin:round;stroke-miterlimit:100000;}
  </style>
 </defs>
 <g id="figure_1">
  <g id="patch_1">
   <path d="M 0 216 
L 864 216 
L 864 0 
L 0 0 
z
" style="fill:#ffffff;"/>
  </g>
  <g id="axes_1">
   <g id="patch_2">
    <path d="M 42.4125 171 
L 284.4 171 
L 284.4 28.4 
L 42.4125 28.4 
z
" style="fill:#ffffff;"/>
   </g>
   <g id="line2d_1">
    <path clip-path="url(#p8e9e953e99)" d="M -1 171 
L 88.268625 170.977928 
L 90.70875 170.836638 
L 93.148875 169.977159 
L 95.589 165.745597 
L 98.029125 149.779517 
L 100.46925 107.660893 
L 102.909375 43.273194 
L 105.3495 13.825179 
L 107.789625 40.329566 
L 110.22975 90.710918 
L 112.669875 132.216029 
L 115.11 155.62888 
L 117.550125 165.846412 
L 119.99025 169.504591 
L 122.430375 170.617823 
L 124.8705 170.912776 
L 129.75075 170.996623 
L 227.35575 171 
L 393.28425 171 
L 393.28425 171 
" style="fill:none;stroke:#0000ff;stroke-linecap:square;stroke-width:2.0;"/>
   </g>
   <g id="line2d_2">
    <path clip-path="url(#p8e9e953e99)" d="M -1 171 
L 83.388375 170.959491 
L 88.268625 170.703228 
L 90.70875 170.278577 
L 93.148875 169.372919 
L 95.589 167.602807 
L 98.029125 164.445989 
L 100.46925 159.333381 
L 102.909375 151.855696 
L 105.3495 142.0495 
L 110.22975 119.08973 
L 112.669875 109.30451 
L 115.11 103.119442 
L 117.550125 101.706943 
L 119.99025 105.212034 
L 122.430375 112.758158 
L 124.8705 122.793994 
L 127.310625 133.598407 
L 129.75075 143.727301 
L 132.190875 152.262635 
L 134.631 158.84142 
L 137.071125 163.531117 
L 139.51125 166.64707 
L 141.951375 168.588068 
L 144.3915 169.726907 
L 146.831625 170.358683 
L 149.27175 170.69114 
L 154.152 170.936993 
L 163.9125 170.998366 
L 393.28425 171 
L 393.28425 171 
" style="fill:none;stroke:#2a00d4;stroke-linecap:square;stroke-width:2.0;"/>
   </g>
   <g id="line2d_3">
    <path clip-path="url(#p8e9e953e99)" d="M -1 171 
L 85.8285 170.930973 
L 90.70875 170.708957 
L 93.148875 170.440068 
L 95.589 169.969119 
L 98.029125 169.184334 
L 100.46925 167.941446 
L 102.909375 166.072952 
L 105.3495 163.410256 
L 107.789625 159.819582 
L 110.22975 155.247788 
L 112.669875 149.768543 
L 117.550125 137.184477 
L 119.99025 131.005773 
L 122.430375 125.669261 
L 124.8705 121.732108 
L 127.310625 119.620073 
L 129.75075 119.550462 
L 132.190875 121.495794 
L 134.631 125.196346 
L 137.071125 130.216178 
L 141.951375 142.092937 
L 144.3915 147.953143 
L 146.831625 153.262017 
L 149.27175 157.810849 
L 151.711875 161.518424 
L 154.152 164.404908 
L 156.592125 166.558217 
L 159.03225 168.101305 
L 161.472375 169.165737 
L 163.9125 169.873756 
L 166.352625 170.328564 
L 168.79275 170.611081 
L 173.673 170.880021 
L 180.993375 170.983186 
L 217.59525 171 
L 393.28425 171 
L 393.28425 171 
" style="fill:none;stroke:#5500aa;stroke-linecap:square;stroke-width:2.0;"/>
   </g>
   <g id="line2d_4">
    <path clip-path="url(#p8e9e953e99)" d="M -1 171 
L 90.70875 170.900496 
L 95.589 170.684274 
L 98.029125 170.462862 
L 100.46925 170.113852 
L 102.909375 169.582405 
L 105.3495 168.80104 
L 107.789625 167.692439 
L 110.22975 166.175592 
L 112.669875 164.175691 
L 115.11 161.637375 
L 117.550125 158.539975 
L 119.99025 154.912354 
L 122.430375 150.844218 
L 129.75075 137.834337 
L 132.190875 134.073127 
L 134.631 131.053424 
L 137.071125 129.001583 
L 139.51125 128.071909 
L 141.951375 128.327356 
L 144.3915 129.732783 
L 146.831625 132.161688 
L 149.27175 135.414767 
L 151.711875 139.246572 
L 159.03225 151.679769 
L 161.472375 155.434135 
L 163.9125 158.763849 
L 166.352625 161.611709 
L 168.79275 163.966737 
L 171.232875 165.853487 
L 173.673 167.320313 
L 176.113125 168.428395 
L 178.55325 169.242703 
L 180.993375 169.825417 
L 183.4335 170.231812 
L 188.31375 170.691788 
L 193.194 170.886204 
L 202.9545 170.987791 
L 256.63725 171 
L 393.28425 171 
L 393.28425 171 
" style="fill:none;stroke:#800080;stroke-linecap:square;stroke-width:2.0;"/>
   </g>
   <g id="line2d_5">
    <path clip-path="url(#p8e9e953e99)" d="M -1 171 
L 95.589 170.907113 
L 100.46925 170.747091 
L 105.3495 170.372412 
L 107.789625 170.045194 
L 110.22975 169.580655 
L 112.669875 168.938384 
L 115.11 168.073871 
L 117.550125 166.941457 
L 119.99025 165.498667 
L 122.430375 163.71177 
L 124.8705 161.562156 
L 127.310625 159.052828 
L 129.75075 156.214074 
L 134.631 149.825739 
L 139.51125 143.252071 
L 141.951375 140.263404 
L 144.3915 137.684084 
L 146.831625 135.657829 
L 149.27175 134.300728 
L 151.711875 133.690107 
L 154.152 133.857208 
L 156.592125 134.784657 
L 159.03225 136.40899 
L 161.472375 138.627744 
L 163.9125 141.310052 
L 168.79275 147.47564 
L 173.673 153.76523 
L 176.113125 156.667641 
L 178.55325 159.305102 
L 180.993375 161.634468 
L 183.4335 163.637651 
L 185.873625 165.317511 
L 188.31375 166.69286 
L 190.753875 167.79331 
L 193.194 168.654521 
L 195.634125 169.314219 
L 198.07425 169.809161 
L 202.9545 170.435388 
L 207.83475 170.749615 
L 215.155125 170.934551 
L 232.236 170.99834 
L 393.28425 171 
L 393.28425 171 
" style="fill:none;stroke:#aa0055;stroke-linecap:square;stroke-width:2.0;"/>
   </g>
   <g id="line2d_6">
    <path clip-path="url(#p8e9e953e99)" d="M -1 171 
L 100.46925 170.921003 
L 107.789625 170.699785 
L 112.669875 170.334444 
L 117.550125 169.631085 
L 119.99025 169.091039 
L 122.430375 168.387088 
L 124.8705 167.489398 
L 127.310625 166.369889 
L 129.75075 165.00511 
L 132.190875 163.379555 
L 134.631 161.489122 
L 137.071125 159.344361 
L 139.51125 156.973055 
L 144.3915 151.755454 
L 149.27175 146.419787 
L 151.711875 143.94882 
L 154.152 141.747882 
L 156.592125 139.915211 
L 159.03225 138.535524 
L 161.472375 137.673452 
L 163.9125 137.368478 
L 166.352625 137.631953 
L 168.79275 138.446485 
L 171.232875 139.767735 
L 173.673 141.528386 
L 176.113125 143.643768 
L 178.55325 146.018519 
L 188.31375 156.204517 
L 190.753875 158.52279 
L 193.194 160.639787 
L 195.634125 162.528853 
L 198.07425 164.178222 
L 200.514375 165.588794 
L 202.9545 166.771453 
L 205.394625 167.744274 
L 207.83475 168.529851 
L 210.274875 169.152962 
L 212.715 169.638668 
L 217.59525 170.291435 
L 222.4755 170.651317 
L 229.795875 170.891404 
L 241.9965 170.988089 
L 307.879875 171 
L 393.28425 171 
L 393.28425 171 
" style="fill:none;stroke:#d4002b;stroke-linecap:square;stroke-width:2.0;"/>
   </g>
   <g id="line2d_7">
    <path clip-path="url(#p8e9e953e99)" d="M -1 171 
L 107.789625 170.904142 
L 115.11 170.682537 
L 119.99025 170.348079 
L 124.8705 169.742747 
L 127.310625 169.294537 
L 129.75075 168.722353 
L 132.190875 168.005166 
L 134.631 167.122778 
L 137.071125 166.057455 
L 139.51125 164.795814 
L 141.951375 163.33086 
L 144.3915 161.663995 
L 146.831625 159.806805 
L 151.711875 155.626006 
L 161.472375 146.774293 
L 163.9125 144.845335 
L 166.352625 143.174065 
L 168.79275 141.82481 
L 171.232875 140.850711 
L 173.673 140.290213 
L 176.113125 140.164545 
L 178.55325 140.476389 
L 180.993375 141.209891 
L 183.4335 142.331953 
L 185.873625 143.794695 
L 188.31375 145.538815 
L 190.753875 147.497526 
L 195.634125 151.778972 
L 200.514375 156.107356 
L 205.394625 160.059643 
L 207.83475 161.806307 
L 210.274875 163.374117 
L 212.715 164.755841 
L 215.155125 165.952419 
L 217.59525 166.971345 
L 220.035375 167.824981 
L 222.4755 168.528938 
L 224.915625 169.100611 
L 229.795875 169.918517 
L 234.676125 170.413465 
L 239.556375 170.696775 
L 246.87675 170.896801 
L 261.5175 170.991219 
L 351.802125 171 
L 393.28425 171 
L 393.28425 171 
" style="fill:none;stroke:#ff0000;stroke-linecap:square;stroke-width:2.0;"/>
   </g>
   <g id="patch_3">
    <path d="M 42.4125 28.4 
L 284.4 28.4 
" style="fill:none;stroke:#000000;stroke-linecap:square;stroke-linejoin:miter;"/>
   </g>
   <g id="patch_4">
    <path d="M 284.4 171 
L 284.4 28.4 
" style="fill:none;stroke:#000000;stroke-linecap:square;stroke-linejoin:miter;"/>
   </g>
   <g id="patch_5">
    <path d="M 42.4125 171 
L 284.4 171 
" style="fill:none;stroke:#000000;stroke-linecap:square;stroke-linejoin:miter;"/>
   </g>
   <g id="patch_6">
    <path d="M 42.4125 171 
L 42.4125 28.4 
" style="fill:none;stroke:#000000;stroke-linecap:square;stroke-linejoin:miter;"/>
   </g>
   <g id="matplotlib.axis_1">
    <g id="xtick_1">
     <g id="line2d_8">
      <defs>
       <path d="M 0 0 
L 0 -4 
" id="m2c223267bb" style="stroke:#000000;stroke-width:0.5;"/>
      </defs>
      <g>
       <use style="stroke:#000000;stroke-width:0.5;" x="54.511875" xlink:href="#m2c223267bb" y="171.0"/>
      </g>
     </g>
     <g id="line2d_9">
      <defs>
       <path d="M 0 0 
L 0 4 
" id="mcd97aee54e" style="stroke:#000000;stroke-width:0.5;"/>
      </defs>
      <g>
       <use style="stroke:#000000;stroke-width:0.5;" x="54.511875" xlink:href="#mcd97aee54e" y="28.4"/>
      </g>
     </g>
     <g id="text_1">
      <!-- −20 -->
      <defs>
       <path d="M 10.59375 35.5 
L 73.1875 35.5 
L 73.1875 27.203125 
L 10.59375 27.203125 
z
" id="BitstreamVeraSans-Roman-2212"/>
       <path d="M 19.1875 8.296875 
L 53.609375 8.296875 
L 53.609375 0 
L 7.328125 0 
L 7.328125 8.296875 
Q 12.9375 14.109375 22.625 23.890625 
Q 32.328125 33.6875 34.8125 36.53125 
Q 39.546875 41.84375 41.421875 45.53125 
Q 43.3125 49.21875 43.3125 52.78125 
Q 43.3125 58.59375 39.234375 62.25 
Q 35.15625 65.921875 28.609375 65.921875 
Q 23.96875 65.921875 18.8125 64.3125 
Q 13.671875 62.703125 7.8125 59.421875 
L 7.8125 69.390625 
Q 13.765625 71.78125 18.9375 73 
Q 24.125 74.21875 28.421875 74.21875 
Q 39.75 74.21875 46.484375 68.546875 
Q 53.21875 62.890625 53.21875 53.421875 
Q 53.21875 48.921875 51.53125 44.890625 
Q 49.859375 40.875 45.40625 35.40625 
Q 44.1875 33.984375 37.640625 27.21875 
Q 31.109375 20.453125 19.1875 8.296875 
" id="BitstreamVeraSans-Roman-32"/>
       <path d="M 31.78125 66.40625 
Q 24.171875 66.40625 20.328125 58.90625 
Q 16.5 51.421875 16.5 36.375 
Q 16.5 21.390625 20.328125 13.890625 
Q 24.171875 6.390625 31.78125 6.390625 
Q 39.453125 6.390625 43.28125 13.890625 
Q 47.125 21.390625 47.125 36.375 
Q 47.125 51.421875 43.28125 58.90625 
Q 39.453125 66.40625 31.78125 66.40625 
M 31.78125 74.21875 
Q 44.046875 74.21875 50.515625 64.515625 
Q 56.984375 54.828125 56.984375 36.375 
Q 56.984375 17.96875 50.515625 8.265625 
Q 44.046875 -1.421875 31.78125 -1.421875 
Q 19.53125 -1.421875 13.0625 8.265625 
Q 6.59375 17.96875 6.59375 36.375 
Q 6.59375 54.828125 13.0625 64.515625 
Q 19.53125 74.21875 31.78125 74.21875 
" id="BitstreamVeraSans-Roman-30"/>
      </defs>
      <g transform="translate(43.95953125 182.5984375)scale(0.1 -0.1)">
       <use xlink:href="#BitstreamVeraSans-Roman-2212"/>
       <use x="83.7890625" xlink:href="#BitstreamVeraSans-Roman-32"/>
       <use x="147.412109375" xlink:href="#BitstreamVeraSans-Roman-30"/>
      </g>
     </g>
    </g>
    <g id="xtick_2">
     <g id="line2d_10">
      <g>
       <use style="stroke:#000000;stroke-width:0.5;" x="102.909375" xlink:href="#m2c223267bb" y="171.0"/>
      </g>
     </g>
     <g id="line2d_11">
      <g>
       <use style="stroke:#000000;stroke-width:0.5;" x="102.909375" xlink:href="#mcd97aee54e" y="28.4"/>
      </g>
     </g>
     <g id="text_2">
      <!-- 0 -->
      <g transform="translate(99.728125 182.5984375)scale(0.1 -0.1)">
       <use xlink:href="#BitstreamVeraSans-Roman-30"/>
      </g>
     </g>
    </g>
    <g id="xtick_3">
     <g id="line2d_12">
      <g>
       <use style="stroke:#000000;stroke-width:0.5;" x="151.306875" xlink:href="#m2c223267bb" y="171.0"/>
      </g>
     </g>
     <g id="line2d_13">
      <g>
       <use style="stroke:#000000;stroke-width:0.5;" x="151.306875" xlink:href="#mcd97aee54e" y="28.4"/>
      </g>
     </g>
     <g id="text_3">
      <!-- 20 -->
      <g transform="translate(144.944375 182.5984375)scale(0.1 -0.1)">
       <use xlink:href="#BitstreamVeraSans-Roman-32"/>
       <use x="63.623046875" xlink:href="#BitstreamVeraSans-Roman-30"/>
      </g>
     </g>
    </g>
    <g id="xtick_4">
     <g id="line2d_14">
      <g>
       <use style="stroke:#000000;stroke-width:0.5;" x="199.704375" xlink:href="#m2c223267bb" y="171.0"/>
      </g>
     </g>
     <g id="line2d_15">
      <g>
       <use style="stroke:#000000;stroke-width:0.5;" x="199.704375" xlink:href="#mcd97aee54e" y="28.4"/>
      </g>
     </g>
     <g id="text_4">
      <!-- 40 -->
      <defs>
       <path d="M 37.796875 64.3125 
L 12.890625 25.390625 
L 37.796875 25.390625 
z
M 35.203125 72.90625 
L 47.609375 72.90625 
L 47.609375 25.390625 
L 58.015625 25.390625 
L 58.015625 17.1875 
L 47.609375 17.1875 
L 47.609375 0 
L 37.796875 0 
L 37.796875 17.1875 
L 4.890625 17.1875 
L 4.890625 26.703125 
z
" id="BitstreamVeraSans-Roman-34"/>
      </defs>
      <g transform="translate(193.341875 182.5984375)scale(0.1 -0.1)">
       <use xlink:href="#BitstreamVeraSans-Roman-34"/>
       <use x="63.623046875" xlink:href="#BitstreamVeraSans-Roman-30"/>
      </g>
     </g>
    </g>
    <g id="xtick_5">
     <g id="line2d_16">
      <g>
       <use style="stroke:#000000;stroke-width:0.5;" x="248.101875" xlink:href="#m2c223267bb" y="171.0"/>
      </g>
     </g>
     <g id="line2d_17">
      <g>
       <use style="stroke:#000000;stroke-width:0.5;" x="248.101875" xlink:href="#mcd97aee54e" y="28.4"/>
      </g>
     </g>
     <g id="text_5">
      <!-- 60 -->
      <defs>
       <path d="M 33.015625 40.375 
Q 26.375 40.375 22.484375 35.828125 
Q 18.609375 31.296875 18.609375 23.390625 
Q 18.609375 15.53125 22.484375 10.953125 
Q 26.375 6.390625 33.015625 6.390625 
Q 39.65625 6.390625 43.53125 10.953125 
Q 47.40625 15.53125 47.40625 23.390625 
Q 47.40625 31.296875 43.53125 35.828125 
Q 39.65625 40.375 33.015625 40.375 
M 52.59375 71.296875 
L 52.59375 62.3125 
Q 48.875 64.0625 45.09375 64.984375 
Q 41.3125 65.921875 37.59375 65.921875 
Q 27.828125 65.921875 22.671875 59.328125 
Q 17.53125 52.734375 16.796875 39.40625 
Q 19.671875 43.65625 24.015625 45.921875 
Q 28.375 48.1875 33.59375 48.1875 
Q 44.578125 48.1875 50.953125 41.515625 
Q 57.328125 34.859375 57.328125 23.390625 
Q 57.328125 12.15625 50.6875 5.359375 
Q 44.046875 -1.421875 33.015625 -1.421875 
Q 20.359375 -1.421875 13.671875 8.265625 
Q 6.984375 17.96875 6.984375 36.375 
Q 6.984375 53.65625 15.1875 63.9375 
Q 23.390625 74.21875 37.203125 74.21875 
Q 40.921875 74.21875 44.703125 73.484375 
Q 48.484375 72.75 52.59375 71.296875 
" id="BitstreamVeraSans-Roman-36"/>
      </defs>
      <g transform="translate(241.739375 182.5984375)scale(0.1 -0.1)">
       <use xlink:href="#BitstreamVeraSans-Roman-36"/>
       <use x="63.623046875" xlink:href="#BitstreamVeraSans-Roman-30"/>
      </g>
     </g>
    </g>
    <g id="text_6">
     <!-- position -->
     <defs>
      <path d="M 54.890625 33.015625 
L 54.890625 0 
L 45.90625 0 
L 45.90625 32.71875 
Q 45.90625 40.484375 42.875 44.328125 
Q 39.84375 48.1875 33.796875 48.1875 
Q 26.515625 48.1875 22.3125 43.546875 
Q 18.109375 38.921875 18.109375 30.90625 
L 18.109375 0 
L 9.078125 0 
L 9.078125 54.6875 
L 18.109375 54.6875 
L 18.109375 46.1875 
Q 21.34375 51.125 25.703125 53.5625 
Q 30.078125 56 35.796875 56 
Q 45.21875 56 50.046875 50.171875 
Q 54.890625 44.34375 54.890625 33.015625 
" id="BitstreamVeraSans-Roman-6e"/>
      <path d="M 30.609375 48.390625 
Q 23.390625 48.390625 19.1875 42.75 
Q 14.984375 37.109375 14.984375 27.296875 
Q 14.984375 17.484375 19.15625 11.84375 
Q 23.34375 6.203125 30.609375 6.203125 
Q 37.796875 6.203125 41.984375 11.859375 
Q 46.1875 17.53125 46.1875 27.296875 
Q 46.1875 37.015625 41.984375 42.703125 
Q 37.796875 48.390625 30.609375 48.390625 
M 30.609375 56 
Q 42.328125 56 49.015625 48.375 
Q 55.71875 40.765625 55.71875 27.296875 
Q 55.71875 13.875 49.015625 6.21875 
Q 42.328125 -1.421875 30.609375 -1.421875 
Q 18.84375 -1.421875 12.171875 6.21875 
Q 5.515625 13.875 5.515625 27.296875 
Q 5.515625 40.765625 12.171875 48.375 
Q 18.84375 56 30.609375 56 
" id="BitstreamVeraSans-Roman-6f"/>
      <path d="M 9.421875 54.6875 
L 18.40625 54.6875 
L 18.40625 0 
L 9.421875 0 
z
M 9.421875 75.984375 
L 18.40625 75.984375 
L 18.40625 64.59375 
L 9.421875 64.59375 
z
" id="BitstreamVeraSans-Roman-69"/>
      <path d="M 18.3125 70.21875 
L 18.3125 54.6875 
L 36.8125 54.6875 
L 36.8125 47.703125 
L 18.3125 47.703125 
L 18.3125 18.015625 
Q 18.3125 11.328125 20.140625 9.421875 
Q 21.96875 7.515625 27.59375 7.515625 
L 36.8125 7.515625 
L 36.8125 0 
L 27.59375 0 
Q 17.1875 0 13.234375 3.875 
Q 9.28125 7.765625 9.28125 18.015625 
L 9.28125 47.703125 
L 2.6875 47.703125 
L 2.6875 54.6875 
L 9.28125 54.6875 
L 9.28125 70.21875 
z
" id="BitstreamVeraSans-Roman-74"/>
      <path d="M 44.28125 53.078125 
L 44.28125 44.578125 
Q 40.484375 46.53125 36.375 47.5 
Q 32.28125 48.484375 27.875 48.484375 
Q 21.1875 48.484375 17.84375 46.4375 
Q 14.5 44.390625 14.5 40.28125 
Q 14.5 37.15625 16.890625 35.375 
Q 19.28125 33.59375 26.515625 31.984375 
L 29.59375 31.296875 
Q 39.15625 29.25 43.1875 25.515625 
Q 47.21875 21.78125 47.21875 15.09375 
Q 47.21875 7.46875 41.1875 3.015625 
Q 35.15625 -1.421875 24.609375 -1.421875 
Q 20.21875 -1.421875 15.453125 -0.5625 
Q 10.6875 0.296875 5.421875 2 
L 5.421875 11.28125 
Q 10.40625 8.6875 15.234375 7.390625 
Q 20.0625 6.109375 24.8125 6.109375 
Q 31.15625 6.109375 34.5625 8.28125 
Q 37.984375 10.453125 37.984375 14.40625 
Q 37.984375 18.0625 35.515625 20.015625 
Q 33.0625 21.96875 24.703125 23.78125 
L 21.578125 24.515625 
Q 13.234375 26.265625 9.515625 29.90625 
Q 5.8125 33.546875 5.8125 39.890625 
Q 5.8125 47.609375 11.28125 51.796875 
Q 16.75 56 26.8125 56 
Q 31.78125 56 36.171875 55.265625 
Q 40.578125 54.546875 44.28125 53.078125 
" id="BitstreamVeraSans-Roman-73"/>
      <path d="M 18.109375 8.203125 
L 18.109375 -20.796875 
L 9.078125 -20.796875 
L 9.078125 54.6875 
L 18.109375 54.6875 
L 18.109375 46.390625 
Q 20.953125 51.265625 25.265625 53.625 
Q 29.59375 56 35.59375 56 
Q 45.5625 56 51.78125 48.09375 
Q 58.015625 40.1875 58.015625 27.296875 
Q 58.015625 14.40625 51.78125 6.484375 
Q 45.5625 -1.421875 35.59375 -1.421875 
Q 29.59375 -1.421875 25.265625 0.953125 
Q 20.953125 3.328125 18.109375 8.203125 
M 48.6875 27.296875 
Q 48.6875 37.203125 44.609375 42.84375 
Q 40.53125 48.484375 33.40625 48.484375 
Q 26.265625 48.484375 22.1875 42.84375 
Q 18.109375 37.203125 18.109375 27.296875 
Q 18.109375 17.390625 22.1875 11.75 
Q 26.265625 6.109375 33.40625 6.109375 
Q 40.53125 6.109375 44.609375 11.75 
Q 48.6875 17.390625 48.6875 27.296875 
" id="BitstreamVeraSans-Roman-70"/>
     </defs>
     <g transform="translate(133.69921875 201.07578125)scale(0.15 -0.15)">
      <use xlink:href="#BitstreamVeraSans-Roman-70"/>
      <use x="63.4765625" xlink:href="#BitstreamVeraSans-Roman-6f"/>
      <use x="124.658203125" xlink:href="#BitstreamVeraSans-Roman-73"/>
      <use x="176.7578125" xlink:href="#BitstreamVeraSans-Roman-69"/>
      <use x="204.541015625" xlink:href="#BitstreamVeraSans-Roman-74"/>
      <use x="243.75" xlink:href="#BitstreamVeraSans-Roman-69"/>
      <use x="271.533203125" xlink:href="#BitstreamVeraSans-Roman-6f"/>
      <use x="332.71484375" xlink:href="#BitstreamVeraSans-Roman-6e"/>
     </g>
    </g>
   </g>
   <g id="matplotlib.axis_2">
    <g id="ytick_1">
     <g id="line2d_18">
      <defs>
       <path d="M 0 0 
L 4 0 
" id="md58b3fb074" style="stroke:#000000;stroke-width:0.5;"/>
      </defs>
      <g>
       <use style="stroke:#000000;stroke-width:0.5;" x="42.4125" xlink:href="#md58b3fb074" y="171.0"/>
      </g>
     </g>
     <g id="line2d_19">
      <defs>
       <path d="M 0 0 
L -4 0 
" id="m8b3d1f3a64" style="stroke:#000000;stroke-width:0.5;"/>
      </defs>
      <g>
       <use style="stroke:#000000;stroke-width:0.5;" x="284.4" xlink:href="#m8b3d1f3a64" y="171.0"/>
      </g>
     </g>
     <g id="text_7">
      <!-- 0 -->
      <g transform="translate(32.05 173.759375)scale(0.1 -0.1)">
       <use xlink:href="#BitstreamVeraSans-Roman-30"/>
      </g>
     </g>
    </g>
    <g id="ytick_2">
     <g id="line2d_20">
      <g>
       <use style="stroke:#000000;stroke-width:0.5;" x="42.4125" xlink:href="#md58b3fb074" y="41.3636363636"/>
      </g>
     </g>
     <g id="line2d_21">
      <g>
       <use style="stroke:#000000;stroke-width:0.5;" x="284.4" xlink:href="#m8b3d1f3a64" y="41.3636363636"/>
      </g>
     </g>
     <g id="text_8">
      <!-- 2 -->
      <g transform="translate(32.05 44.1230113636)scale(0.1 -0.1)">
       <use xlink:href="#BitstreamVeraSans-Roman-32"/>
      </g>
     </g>
    </g>
    <g id="text_9">
     <!-- concentration -->
     <defs>
      <path d="M 56.203125 29.59375 
L 56.203125 25.203125 
L 14.890625 25.203125 
Q 15.484375 15.921875 20.484375 11.0625 
Q 25.484375 6.203125 34.421875 6.203125 
Q 39.59375 6.203125 44.453125 7.46875 
Q 49.3125 8.734375 54.109375 11.28125 
L 54.109375 2.78125 
Q 49.265625 0.734375 44.1875 -0.34375 
Q 39.109375 -1.421875 33.890625 -1.421875 
Q 20.796875 -1.421875 13.15625 6.1875 
Q 5.515625 13.8125 5.515625 26.8125 
Q 5.515625 40.234375 12.765625 48.109375 
Q 20.015625 56 32.328125 56 
Q 43.359375 56 49.78125 48.890625 
Q 56.203125 41.796875 56.203125 29.59375 
M 47.21875 32.234375 
Q 47.125 39.59375 43.09375 43.984375 
Q 39.0625 48.390625 32.421875 48.390625 
Q 24.90625 48.390625 20.390625 44.140625 
Q 15.875 39.890625 15.1875 32.171875 
z
" id="BitstreamVeraSans-Roman-65"/>
      <path d="M 34.28125 27.484375 
Q 23.390625 27.484375 19.1875 25 
Q 14.984375 22.515625 14.984375 16.5 
Q 14.984375 11.71875 18.140625 8.90625 
Q 21.296875 6.109375 26.703125 6.109375 
Q 34.1875 6.109375 38.703125 11.40625 
Q 43.21875 16.703125 43.21875 25.484375 
L 43.21875 27.484375 
z
M 52.203125 31.203125 
L 52.203125 0 
L 43.21875 0 
L 43.21875 8.296875 
Q 40.140625 3.328125 35.546875 0.953125 
Q 30.953125 -1.421875 24.3125 -1.421875 
Q 15.921875 -1.421875 10.953125 3.296875 
Q 6 8.015625 6 15.921875 
Q 6 25.140625 12.171875 29.828125 
Q 18.359375 34.515625 30.609375 34.515625 
L 43.21875 34.515625 
L 43.21875 35.40625 
Q 43.21875 41.609375 39.140625 45 
Q 35.0625 48.390625 27.6875 48.390625 
Q 23 48.390625 18.546875 47.265625 
Q 14.109375 46.140625 10.015625 43.890625 
L 10.015625 52.203125 
Q 14.9375 54.109375 19.578125 55.046875 
Q 24.21875 56 28.609375 56 
Q 40.484375 56 46.34375 49.84375 
Q 52.203125 43.703125 52.203125 31.203125 
" id="BitstreamVeraSans-Roman-61"/>
      <path d="M 41.109375 46.296875 
Q 39.59375 47.171875 37.8125 47.578125 
Q 36.03125 48 33.890625 48 
Q 26.265625 48 22.1875 43.046875 
Q 18.109375 38.09375 18.109375 28.8125 
L 18.109375 0 
L 9.078125 0 
L 9.078125 54.6875 
L 18.109375 54.6875 
L 18.109375 46.1875 
Q 20.953125 51.171875 25.484375 53.578125 
Q 30.03125 56 36.53125 56 
Q 37.453125 56 38.578125 55.875 
Q 39.703125 55.765625 41.0625 55.515625 
z
" id="BitstreamVeraSans-Roman-72"/>
      <path d="M 48.78125 52.59375 
L 48.78125 44.1875 
Q 44.96875 46.296875 41.140625 47.34375 
Q 37.3125 48.390625 33.40625 48.390625 
Q 24.65625 48.390625 19.8125 42.84375 
Q 14.984375 37.3125 14.984375 27.296875 
Q 14.984375 17.28125 19.8125 11.734375 
Q 24.65625 6.203125 33.40625 6.203125 
Q 37.3125 6.203125 41.140625 7.25 
Q 44.96875 8.296875 48.78125 10.40625 
L 48.78125 2.09375 
Q 45.015625 0.34375 40.984375 -0.53125 
Q 36.96875 -1.421875 32.421875 -1.421875 
Q 20.0625 -1.421875 12.78125 6.34375 
Q 5.515625 14.109375 5.515625 27.296875 
Q 5.515625 40.671875 12.859375 48.328125 
Q 20.21875 56 33.015625 56 
Q 37.15625 56 41.109375 55.140625 
Q 45.0625 54.296875 48.78125 52.59375 
" id="BitstreamVeraSans-Roman-63"/>
     </defs>
     <g transform="translate(23.93046875 151.643359375)rotate(-90.0)scale(0.15 -0.15)">
      <use xlink:href="#BitstreamVeraSans-Roman-63"/>
      <use x="54.98046875" xlink:href="#BitstreamVeraSans-Roman-6f"/>
      <use x="116.162109375" xlink:href="#BitstreamVeraSans-Roman-6e"/>
      <use x="179.541015625" xlink:href="#BitstreamVeraSans-Roman-63"/>
      <use x="234.521484375" xlink:href="#BitstreamVeraSans-Roman-65"/>
      <use x="296.044921875" xlink:href="#BitstreamVeraSans-Roman-6e"/>
      <use x="359.423828125" xlink:href="#BitstreamVeraSans-Roman-74"/>
      <use x="398.6328125" xlink:href="#BitstreamVeraSans-Roman-72"/>
      <use x="439.74609375" xlink:href="#BitstreamVeraSans-Roman-61"/>
      <use x="501.025390625" xlink:href="#BitstreamVeraSans-Roman-74"/>
      <use x="540.234375" xlink:href="#BitstreamVeraSans-Roman-69"/>
      <use x="568.017578125" xlink:href="#BitstreamVeraSans-Roman-6f"/>
      <use x="629.19921875" xlink:href="#BitstreamVeraSans-Roman-6e"/>
     </g>
    </g>
   </g>
   <g id="text_10">
    <!-- k = 0.0 -->
    <defs>
     <path d="M 8.40625 75.984375 
L 25.875 75.984375 
L 25.875 34.625 
L 46 54.6875 
L 66.3125 54.6875 
L 39.59375 29.59375 
L 68.40625 0 
L 47.21875 0 
L 25.875 22.796875 
L 25.875 0 
L 8.40625 0 
z
" id="BitstreamVeraSans-Bold-6b"/>
     <path d="M 10.59375 48.1875 
L 73.1875 48.1875 
L 73.1875 36.71875 
L 10.59375 36.71875 
z
M 10.59375 25.984375 
L 73.1875 25.984375 
L 73.1875 14.40625 
L 10.59375 14.40625 
z
" id="BitstreamVeraSans-Bold-3d"/>
     <path d="M 10.203125 18.890625 
L 27.78125 18.890625 
L 27.78125 0 
L 10.203125 0 
z
" id="BitstreamVeraSans-Bold-2e"/>
     <path d="M 46 36.53125 
Q 46 50.203125 43.4375 55.78125 
Q 40.875 61.375 34.8125 61.375 
Q 28.765625 61.375 26.171875 55.78125 
Q 23.578125 50.203125 23.578125 36.53125 
Q 23.578125 22.703125 26.171875 17.03125 
Q 28.765625 11.375 34.8125 11.375 
Q 40.828125 11.375 43.40625 17.03125 
Q 46 22.703125 46 36.53125 
M 64.796875 36.375 
Q 64.796875 18.265625 56.984375 8.421875 
Q 49.171875 -1.421875 34.8125 -1.421875 
Q 20.40625 -1.421875 12.59375 8.421875 
Q 4.78125 18.265625 4.78125 36.375 
Q 4.78125 54.546875 12.59375 64.375 
Q 20.40625 74.21875 34.8125 74.21875 
Q 49.171875 74.21875 56.984375 64.375 
Q 64.796875 54.546875 64.796875 36.375 
" id="BitstreamVeraSans-Bold-30"/>
     <path id="BitstreamVeraSans-Bold-20"/>
    </defs>
    <g transform="translate(133.6265625 23.4)scale(0.15 -0.15)">
     <use xlink:href="#BitstreamVeraSans-Bold-6b"/>
     <use x="66.50390625" xlink:href="#BitstreamVeraSans-Bold-20"/>
     <use x="101.318359375" xlink:href="#BitstreamVeraSans-Bold-3d"/>
     <use x="185.107421875" xlink:href="#BitstreamVeraSans-Bold-20"/>
     <use x="219.921875" xlink:href="#BitstreamVeraSans-Bold-30"/>
     <use x="289.501953125" xlink:href="#BitstreamVeraSans-Bold-2e"/>
     <use x="327.490234375" xlink:href="#BitstreamVeraSans-Bold-30"/>
    </g>
   </g>
  </g>
  <g id="axes_2">
   <g id="patch_7">
    <path d="M 326.8125 171 
L 568.8 171 
L 568.8 28.4 
L 326.8125 28.4 
z
" style="fill:#ffffff;"/>
   </g>
   <g id="line2d_22">
    <path clip-path="url(#p072a762887)" d="M 96.9345 171 
L 367.788375 170.94115 
L 370.2285 170.758288 
L 372.668625 170.111692 
L 375.10875 168.112011 
L 377.548875 162.803669 
L 379.989 151.002362 
L 382.429125 129.766926 
L 387.309375 72.143187 
L 389.7495 58.506012 
L 392.189625 66.289773 
L 394.62975 90.072937 
L 397.069875 118.142543 
L 399.51 141.320672 
L 401.950125 156.45232 
L 404.39025 164.691882 
L 406.830375 168.552502 
L 409.2705 170.141981 
L 411.710625 170.725932 
L 414.15075 170.919659 
L 421.471125 170.998718 
L 677.68425 171 
L 677.68425 171 
" style="fill:none;stroke:#0000ff;stroke-linecap:square;stroke-width:2.0;"/>
   </g>
   <g id="line2d_23">
    <path clip-path="url(#p072a762887)" d="M 96.9345 171 
L 358.027875 170.905395 
L 362.908125 170.6498 
L 365.34825 170.36206 
L 367.788375 169.880246 
L 370.2285 169.107035 
L 372.668625 167.919273 
L 375.10875 166.175104 
L 377.548875 163.730549 
L 379.989 160.466508 
L 382.429125 156.324141 
L 384.86925 151.342652 
L 387.309375 145.68989 
L 392.189625 133.731071 
L 394.62975 128.372738 
L 397.069875 124.119917 
L 399.51 121.415448 
L 401.950125 120.547425 
L 404.39025 121.598012 
L 406.830375 124.431065 
L 409.2705 128.72098 
L 411.710625 134.014349 
L 416.590875 145.626936 
L 419.031 151.080644 
L 421.471125 155.89936 
L 423.91125 159.93915 
L 426.351375 163.16724 
L 428.7915 165.634165 
L 431.231625 167.44188 
L 433.67175 168.714773 
L 436.111875 169.57758 
L 438.552 170.141425 
L 440.992125 170.497148 
L 445.872375 170.84205 
L 453.19275 170.977497 
L 480.034125 170.999997 
L 677.68425 171 
L 677.68425 171 
" style="fill:none;stroke:#2a00d4;stroke-linecap:square;stroke-width:2.0;"/>
   </g>
   <g id="line2d_24">
    <path clip-path="url(#p072a762887)" d="M 96.9345 171 
L 355.58775 170.916563 
L 362.908125 170.645982 
L 367.788375 170.165932 
L 370.2285 169.760393 
L 372.668625 169.197052 
L 375.10875 168.433923 
L 377.548875 167.4263 
L 379.989 166.130238 
L 382.429125 164.507347 
L 384.86925 162.530652 
L 387.309375 160.19104 
L 389.7495 157.503484 
L 392.189625 154.51209 
L 397.069875 147.953507 
L 401.950125 141.473408 
L 404.39025 138.649145 
L 406.830375 136.312342 
L 409.2705 134.598882 
L 411.710625 133.611091 
L 414.15075 133.407526 
L 416.590875 133.997209 
L 419.031 135.339083 
L 421.471125 137.346726 
L 423.91125 139.897563 
L 426.351375 142.845209 
L 436.111875 155.591724 
L 438.552 158.398189 
L 440.992125 160.895736 
L 443.43225 163.055934 
L 445.872375 164.874767 
L 448.3125 166.36745 
L 450.752625 167.562736 
L 453.19275 168.497472 
L 455.632875 169.211877 
L 458.073 169.745855 
L 462.95325 170.416066 
L 467.8335 170.747029 
L 475.153875 170.936783 
L 489.794625 170.9975 
L 677.68425 171 
L 677.68425 171 
" style="fill:none;stroke:#5500aa;stroke-linecap:square;stroke-width:2.0;"/>
   </g>
   <g id="line2d_25">
    <path clip-path="url(#p072a762887)" d="M 96.9345 171 
L 358.027875 170.893703 
L 365.34825 170.656488 
L 370.2285 170.303259 
L 375.10875 169.669252 
L 377.548875 169.201976 
L 379.989 168.606995 
L 382.429125 167.862854 
L 384.86925 166.94897 
L 387.309375 165.84732 
L 389.7495 164.544392 
L 392.189625 163.033305 
L 394.62975 161.315915 
L 397.069875 159.404694 
L 401.950125 155.111538 
L 409.2705 148.233956 
L 411.710625 146.092234 
L 414.15075 144.153132 
L 416.590875 142.491154 
L 419.031 141.172994 
L 421.471125 140.253065 
L 423.91125 139.769742 
L 426.351375 139.742691 
L 428.7915 140.171547 
L 431.231625 141.03605 
L 433.67175 142.297632 
L 436.111875 143.902267 
L 438.552 145.784299 
L 443.43225 150.086545 
L 450.752625 156.803195 
L 453.19275 158.869746 
L 455.632875 160.779289 
L 458.073 162.507076 
L 460.513125 164.039638 
L 462.95325 165.373491 
L 465.393375 166.51344 
L 467.8335 167.470684 
L 470.273625 168.260914 
L 472.71375 168.902533 
L 477.594 169.818203 
L 482.47425 170.368274 
L 487.3545 170.679407 
L 494.674875 170.894694 
L 509.315625 170.991884 
L 604.4805 171 
L 677.68425 171 
L 677.68425 171 
" style="fill:none;stroke:#800080;stroke-linecap:square;stroke-width:2.0;"/>
   </g>
   <g id="line2d_26">
    <path clip-path="url(#p072a762887)" d="M 96.9345 171 
L 360.468 170.903589 
L 370.2285 170.631136 
L 375.10875 170.326042 
L 379.989 169.823427 
L 384.86925 169.037531 
L 389.7495 167.872664 
L 392.189625 167.119119 
L 394.62975 166.238608 
L 397.069875 165.224536 
L 399.51 164.073857 
L 401.950125 162.787967 
L 406.830375 159.842988 
L 411.710625 156.51512 
L 421.471125 149.686553 
L 423.91125 148.178646 
L 426.351375 146.837175 
L 428.7915 145.702229 
L 431.231625 144.808805 
L 433.67175 144.185006 
L 436.111875 143.850569 
L 438.552 143.815817 
L 440.992125 144.081135 
L 443.43225 144.636991 
L 445.872375 145.4645 
L 448.3125 146.536492 
L 450.752625 147.818987 
L 453.19275 149.272981 
L 458.073 152.526088 
L 467.8335 159.266702 
L 472.71375 162.230121 
L 475.153875 163.537608 
L 477.594 164.716734 
L 480.034125 165.764785 
L 482.47425 166.683377 
L 487.3545 168.155391 
L 492.23475 169.201222 
L 497.115 169.908134 
L 501.99525 170.363555 
L 509.315625 170.737268 
L 519.076125 170.929669 
L 538.597125 170.996825 
L 677.68425 171 
L 677.68425 171 
" style="fill:none;stroke:#aa0055;stroke-linecap:square;stroke-width:2.0;"/>
   </g>
   <g id="line2d_27">
    <path clip-path="url(#p072a762887)" d="M 96.9345 171 
L 365.34825 170.891385 
L 375.10875 170.642699 
L 382.429125 170.207926 
L 387.309375 169.714204 
L 392.189625 168.98855 
L 397.069875 167.967645 
L 401.950125 166.594523 
L 406.830375 164.831753 
L 411.710625 162.676501 
L 416.590875 160.174444 
L 423.91125 156.012319 
L 431.231625 151.892136 
L 436.111875 149.535982 
L 438.552 148.559471 
L 440.992125 147.750559 
L 443.43225 147.129784 
L 445.872375 146.713108 
L 448.3125 146.511233 
L 450.752625 146.529143 
L 453.19275 146.765898 
L 455.632875 147.214702 
L 458.073 147.863221 
L 460.513125 148.69415 
L 462.95325 149.685976 
L 467.8335 152.05087 
L 472.71375 154.738794 
L 482.47425 160.222198 
L 487.3545 162.672432 
L 492.23475 164.784251 
L 497.115 166.517188 
L 501.99525 167.875459 
L 506.8755 168.894767 
L 511.75575 169.628507 
L 516.636 170.135887 
L 523.956375 170.593886 
L 533.716875 170.867686 
L 548.357625 170.980676 
L 602.040375 170.999998 
L 677.68425 171 
L 677.68425 171 
" style="fill:none;stroke:#d4002b;stroke-linecap:square;stroke-width:2.0;"/>
   </g>
   <g id="line2d_28">
    <path clip-path="url(#p072a762887)" d="M 96.9345 171 
L 370.2285 170.890685 
L 379.989 170.675677 
L 387.309375 170.324322 
L 392.189625 169.939882 
L 397.069875 169.387666 
L 401.950125 168.622899 
L 406.830375 167.602651 
L 411.710625 166.293001 
L 416.590875 164.677711 
L 421.471125 162.767176 
L 426.351375 160.605855 
L 443.43225 152.562159 
L 448.3125 150.730673 
L 450.752625 149.989922 
L 453.19275 149.387499 
L 455.632875 148.93639 
L 458.073 148.646393 
L 460.513125 148.523761 
L 462.95325 148.570981 
L 465.393375 148.786687 
L 467.8335 149.165725 
L 470.273625 149.699356 
L 472.71375 150.375594 
L 477.594 152.094463 
L 482.47425 154.180443 
L 492.23475 158.822922 
L 499.555125 162.155189 
L 504.435375 164.110148 
L 509.315625 165.787109 
L 514.195875 167.168571 
L 519.076125 168.263951 
L 523.956375 169.101386 
L 528.836625 169.719528 
L 533.716875 170.160549 
L 541.03725 170.577316 
L 550.79775 170.846425 
L 565.4385 170.972635 
L 609.36075 170.999963 
L 677.68425 171 
L 677.68425 171 
" style="fill:none;stroke:#ff0000;stroke-linecap:square;stroke-width:2.0;"/>
   </g>
   <g id="patch_8">
    <path d="M 326.8125 28.4 
L 568.8 28.4 
" style="fill:none;stroke:#000000;stroke-linecap:square;stroke-linejoin:miter;"/>
   </g>
   <g id="patch_9">
    <path d="M 568.8 171 
L 568.8 28.4 
" style="fill:none;stroke:#000000;stroke-linecap:square;stroke-linejoin:miter;"/>
   </g>
   <g id="patch_10">
    <path d="M 326.8125 171 
L 568.8 171 
" style="fill:none;stroke:#000000;stroke-linecap:square;stroke-linejoin:miter;"/>
   </g>
   <g id="patch_11">
    <path d="M 326.8125 171 
L 326.8125 28.4 
" style="fill:none;stroke:#000000;stroke-linecap:square;stroke-linejoin:miter;"/>
   </g>
   <g id="matplotlib.axis_3">
    <g id="xtick_6">
     <g id="line2d_29">
      <g>
       <use style="stroke:#000000;stroke-width:0.5;" x="338.911875" xlink:href="#m2c223267bb" y="171.0"/>
      </g>
     </g>
     <g id="line2d_30">
      <g>
       <use style="stroke:#000000;stroke-width:0.5;" x="338.911875" xlink:href="#mcd97aee54e" y="28.4"/>
      </g>
     </g>
     <g id="text_11">
      <!-- −20 -->
      <g transform="translate(328.35953125 182.5984375)scale(0.1 -0.1)">
       <use xlink:href="#BitstreamVeraSans-Roman-2212"/>
       <use x="83.7890625" xlink:href="#BitstreamVeraSans-Roman-32"/>
       <use x="147.412109375" xlink:href="#BitstreamVeraSans-Roman-30"/>
      </g>
     </g>
    </g>
    <g id="xtick_7">
     <g id="line2d_31">
      <g>
       <use style="stroke:#000000;stroke-width:0.5;" x="387.309375" xlink:href="#m2c223267bb" y="171.0"/>
      </g>
     </g>
     <g id="line2d_32">
      <g>
       <use style="stroke:#000000;stroke-width:0.5;" x="387.309375" xlink:href="#mcd97aee54e" y="28.4"/>
      </g>
     </g>
     <g id="text_12">
      <!-- 0 -->
      <g transform="translate(384.128125 182.5984375)scale(0.1 -0.1)">
       <use xlink:href="#BitstreamVeraSans-Roman-30"/>
      </g>
     </g>
    </g>
    <g id="xtick_8">
     <g id="line2d_33">
      <g>
       <use style="stroke:#000000;stroke-width:0.5;" x="435.706875" xlink:href="#m2c223267bb" y="171.0"/>
      </g>
     </g>
     <g id="line2d_34">
      <g>
       <use style="stroke:#000000;stroke-width:0.5;" x="435.706875" xlink:href="#mcd97aee54e" y="28.4"/>
      </g>
     </g>
     <g id="text_13">
      <!-- 20 -->
      <g transform="translate(429.344375 182.5984375)scale(0.1 -0.1)">
       <use xlink:href="#BitstreamVeraSans-Roman-32"/>
       <use x="63.623046875" xlink:href="#BitstreamVeraSans-Roman-30"/>
      </g>
     </g>
    </g>
    <g id="xtick_9">
     <g id="line2d_35">
      <g>
       <use style="stroke:#000000;stroke-width:0.5;" x="484.104375" xlink:href="#m2c223267bb" y="171.0"/>
      </g>
     </g>
     <g id="line2d_36">
      <g>
       <use style="stroke:#000000;stroke-width:0.5;" x="484.104375" xlink:href="#mcd97aee54e" y="28.4"/>
      </g>
     </g>
     <g id="text_14">
      <!-- 40 -->
      <g transform="translate(477.741875 182.5984375)scale(0.1 -0.1)">
       <use xlink:href="#BitstreamVeraSans-Roman-34"/>
       <use x="63.623046875" xlink:href="#BitstreamVeraSans-Roman-30"/>
      </g>
     </g>
    </g>
    <g id="xtick_10">
     <g id="line2d_37">
      <g>
       <use style="stroke:#000000;stroke-width:0.5;" x="532.501875" xlink:href="#m2c223267bb" y="171.0"/>
      </g>
     </g>
     <g id="line2d_38">
      <g>
       <use style="stroke:#000000;stroke-width:0.5;" x="532.501875" xlink:href="#mcd97aee54e" y="28.4"/>
      </g>
     </g>
     <g id="text_15">
      <!-- 60 -->
      <g transform="translate(526.139375 182.5984375)scale(0.1 -0.1)">
       <use xlink:href="#BitstreamVeraSans-Roman-36"/>
       <use x="63.623046875" xlink:href="#BitstreamVeraSans-Roman-30"/>
      </g>
     </g>
    </g>
    <g id="text_16">
     <!-- position -->
     <g transform="translate(418.09921875 201.07578125)scale(0.15 -0.15)">
      <use xlink:href="#BitstreamVeraSans-Roman-70"/>
      <use x="63.4765625" xlink:href="#BitstreamVeraSans-Roman-6f"/>
      <use x="124.658203125" xlink:href="#BitstreamVeraSans-Roman-73"/>
      <use x="176.7578125" xlink:href="#BitstreamVeraSans-Roman-69"/>
      <use x="204.541015625" xlink:href="#BitstreamVeraSans-Roman-74"/>
      <use x="243.75" xlink:href="#BitstreamVeraSans-Roman-69"/>
      <use x="271.533203125" xlink:href="#BitstreamVeraSans-Roman-6f"/>
      <use x="332.71484375" xlink:href="#BitstreamVeraSans-Roman-6e"/>
     </g>
    </g>
   </g>
   <g id="matplotlib.axis_4">
    <g id="ytick_3">
     <g id="line2d_39">
      <g>
       <use style="stroke:#000000;stroke-width:0.5;" x="326.8125" xlink:href="#md58b3fb074" y="171.0"/>
      </g>
     </g>
     <g id="line2d_40">
      <g>
       <use style="stroke:#000000;stroke-width:0.5;" x="568.8" xlink:href="#m8b3d1f3a64" y="171.0"/>
      </g>
     </g>
     <g id="text_17">
      <!-- 0 -->
      <g transform="translate(316.45 173.759375)scale(0.1 -0.1)">
       <use xlink:href="#BitstreamVeraSans-Roman-30"/>
      </g>
     </g>
    </g>
    <g id="ytick_4">
     <g id="line2d_41">
      <g>
       <use style="stroke:#000000;stroke-width:0.5;" x="326.8125" xlink:href="#md58b3fb074" y="41.3636363636"/>
      </g>
     </g>
     <g id="line2d_42">
      <g>
       <use style="stroke:#000000;stroke-width:0.5;" x="568.8" xlink:href="#m8b3d1f3a64" y="41.3636363636"/>
      </g>
     </g>
     <g id="text_18">
      <!-- 2 -->
      <g transform="translate(316.45 44.1230113636)scale(0.1 -0.1)">
       <use xlink:href="#BitstreamVeraSans-Roman-32"/>
      </g>
     </g>
    </g>
    <g id="text_19">
     <!-- concentration -->
     <g transform="translate(308.33046875 151.643359375)rotate(-90.0)scale(0.15 -0.15)">
      <use xlink:href="#BitstreamVeraSans-Roman-63"/>
      <use x="54.98046875" xlink:href="#BitstreamVeraSans-Roman-6f"/>
      <use x="116.162109375" xlink:href="#BitstreamVeraSans-Roman-6e"/>
      <use x="179.541015625" xlink:href="#BitstreamVeraSans-Roman-63"/>
      <use x="234.521484375" xlink:href="#BitstreamVeraSans-Roman-65"/>
      <use x="296.044921875" xlink:href="#BitstreamVeraSans-Roman-6e"/>
      <use x="359.423828125" xlink:href="#BitstreamVeraSans-Roman-74"/>
      <use x="398.6328125" xlink:href="#BitstreamVeraSans-Roman-72"/>
      <use x="439.74609375" xlink:href="#BitstreamVeraSans-Roman-61"/>
      <use x="501.025390625" xlink:href="#BitstreamVeraSans-Roman-74"/>
      <use x="540.234375" xlink:href="#BitstreamVeraSans-Roman-69"/>
      <use x="568.017578125" xlink:href="#BitstreamVeraSans-Roman-6f"/>
      <use x="629.19921875" xlink:href="#BitstreamVeraSans-Roman-6e"/>
     </g>
    </g>
   </g>
   <g id="text_20">
    <!-- k = 0.3 -->
    <defs>
     <path d="M 46.578125 39.3125 
Q 53.953125 37.40625 57.78125 32.6875 
Q 61.625 27.984375 61.625 20.703125 
Q 61.625 9.859375 53.3125 4.21875 
Q 45.015625 -1.421875 29.109375 -1.421875 
Q 23.484375 -1.421875 17.84375 -0.515625 
Q 12.203125 0.390625 6.6875 2.203125 
L 6.6875 16.703125 
Q 11.96875 14.0625 17.15625 12.71875 
Q 22.359375 11.375 27.390625 11.375 
Q 34.859375 11.375 38.84375 13.953125 
Q 42.828125 16.546875 42.828125 21.390625 
Q 42.828125 26.375 38.75 28.9375 
Q 34.671875 31.5 26.703125 31.5 
L 19.1875 31.5 
L 19.1875 43.609375 
L 27.09375 43.609375 
Q 34.1875 43.609375 37.640625 45.828125 
Q 41.109375 48.046875 41.109375 52.59375 
Q 41.109375 56.78125 37.734375 59.078125 
Q 34.375 61.375 28.21875 61.375 
Q 23.6875 61.375 19.046875 60.34375 
Q 14.40625 59.328125 9.8125 57.328125 
L 9.8125 71.09375 
Q 15.375 72.65625 20.84375 73.4375 
Q 26.3125 74.21875 31.59375 74.21875 
Q 45.796875 74.21875 52.84375 69.546875 
Q 59.90625 64.890625 59.90625 55.515625 
Q 59.90625 49.125 56.53125 45.046875 
Q 53.171875 40.96875 46.578125 39.3125 
" id="BitstreamVeraSans-Bold-33"/>
    </defs>
    <g transform="translate(418.0265625 23.4)scale(0.15 -0.15)">
     <use xlink:href="#BitstreamVeraSans-Bold-6b"/>
     <use x="66.50390625" xlink:href="#BitstreamVeraSans-Bold-20"/>
     <use x="101.318359375" xlink:href="#BitstreamVeraSans-Bold-3d"/>
     <use x="185.107421875" xlink:href="#BitstreamVeraSans-Bold-20"/>
     <use x="219.921875" xlink:href="#BitstreamVeraSans-Bold-30"/>
     <use x="289.501953125" xlink:href="#BitstreamVeraSans-Bold-2e"/>
     <use x="327.490234375" xlink:href="#BitstreamVeraSans-Bold-33"/>
    </g>
   </g>
  </g>
  <g id="axes_3">
   <g id="patch_12">
    <path d="M 611.2125 171 
L 853.2 171 
L 853.2 28.4 
L 611.2125 28.4 
z
" style="fill:#ffffff;"/>
   </g>
   <g id="line2d_43">
    <path clip-path="url(#pa9b553cd02)" d="M 381.3345 171 
L 649.74825 170.948841 
L 652.188375 170.812322 
L 654.6285 170.374104 
L 657.068625 169.117576 
L 659.50875 165.939972 
L 661.948875 158.96445 
L 664.389 145.941661 
L 666.829125 125.838885 
L 669.26925 101.276685 
L 671.709375 79.508719 
L 674.1495 69.270377 
L 676.589625 74.860144 
L 679.02975 93.167588 
L 681.469875 116.45643 
L 683.91 137.542 
L 686.350125 152.839247 
L 688.79025 162.189762 
L 691.230375 167.145493 
L 693.6705 169.466972 
L 696.110625 170.441784 
L 698.55075 170.812743 
L 703.431 170.983165 
L 727.83225 171 
L 865 171 
L 865 171 
" style="fill:none;stroke:#0000ff;stroke-linecap:square;stroke-width:2.0;"/>
   </g>
   <g id="line2d_44">
    <path clip-path="url(#pa9b553cd02)" d="M 381.3345 171 
L 637.547625 170.916068 
L 642.427875 170.723917 
L 644.868 170.521177 
L 647.308125 170.194305 
L 649.74825 169.685098 
L 652.188375 168.91926 
L 654.6285 167.808248 
L 657.068625 166.255141 
L 659.50875 164.165476 
L 661.948875 161.46316 
L 664.389 158.110211 
L 666.829125 154.127476 
L 669.26925 149.612027 
L 676.589625 135.081445 
L 679.02975 130.963693 
L 681.469875 127.780263 
L 683.91 125.80865 
L 686.350125 125.223799 
L 688.79025 126.072222 
L 691.230375 128.26605 
L 693.6705 131.59802 
L 696.110625 135.773876 
L 705.871125 154.369793 
L 708.31125 158.197556 
L 710.751375 161.424635 
L 713.1915 164.039351 
L 715.631625 166.080236 
L 718.07175 167.617717 
L 720.511875 168.737339 
L 722.952 169.52651 
L 725.392125 170.065524 
L 727.83225 170.422626 
L 732.7125 170.795855 
L 740.032875 170.964354 
L 759.553875 170.999877 
L 865 171 
L 865 171 
" style="fill:none;stroke:#2a00d4;stroke-linecap:square;stroke-width:2.0;"/>
   </g>
   <g id="line2d_45">
    <path clip-path="url(#pa9b553cd02)" d="M 381.3345 171 
L 635.1075 170.899772 
L 642.427875 170.638875 
L 647.308125 170.221994 
L 649.74825 169.887686 
L 652.188375 169.437469 
L 654.6285 168.843419 
L 657.068625 168.07571 
L 659.50875 167.104381 
L 661.948875 165.901761 
L 664.389 164.445488 
L 666.829125 162.721949 
L 669.26925 160.729842 
L 671.709375 158.483477 
L 674.1495 156.015352 
L 679.02975 150.64137 
L 683.91 145.241325 
L 686.350125 142.787804 
L 688.79025 140.643504 
L 691.230375 138.908952 
L 693.6705 137.668712 
L 696.110625 136.984491 
L 698.55075 136.890014 
L 700.990875 137.388264 
L 703.431 138.45139 
L 705.871125 140.023284 
L 708.31125 142.024499 
L 710.751375 144.358888 
L 715.631625 149.604917 
L 720.511875 154.944651 
L 722.952 157.437897 
L 725.392125 159.73338 
L 727.83225 161.794159 
L 730.272375 163.600855 
L 732.7125 165.149487 
L 735.152625 166.448568 
L 737.59275 167.515891 
L 740.032875 168.375334 
L 742.473 169.053992 
L 744.913125 169.579785 
L 749.793375 170.278239 
L 754.673625 170.65517 
L 761.994 170.898365 
L 774.194625 170.990123 
L 847.398375 171 
L 865 171 
L 865 171 
" style="fill:none;stroke:#5500aa;stroke-linecap:square;stroke-width:2.0;"/>
   </g>
   <g id="line2d_46">
    <path clip-path="url(#pa9b553cd02)" d="M 381.3345 171 
L 635.1075 170.901804 
L 642.427875 170.715493 
L 647.308125 170.455968 
L 652.188375 170.009402 
L 657.068625 169.282672 
L 661.948875 168.1657 
L 664.389 167.42546 
L 666.829125 166.547105 
L 669.26925 165.520884 
L 671.709375 164.340784 
L 674.1495 163.00571 
L 676.589625 161.520592 
L 681.469875 158.155314 
L 688.79025 152.527356 
L 693.6705 148.866652 
L 696.110625 147.21414 
L 698.55075 145.749163 
L 700.990875 144.51949 
L 703.431 143.566586 
L 705.871125 142.923286 
L 708.31125 142.611898 
L 710.751375 142.642916 
L 713.1915 143.014435 
L 715.631625 143.712313 
L 718.07175 144.711061 
L 720.511875 145.975392 
L 722.952 147.46229 
L 727.83225 150.907747 
L 737.59275 158.296903 
L 742.473 161.58513 
L 744.913125 163.034742 
L 747.35325 164.33857 
L 749.793375 165.49271 
L 752.2335 166.498758 
L 754.673625 167.36276 
L 757.11375 168.094113 
L 761.994 169.206991 
L 766.87425 169.942149 
L 771.7545 170.402978 
L 779.074875 170.766862 
L 788.835375 170.942794 
L 810.7965 170.998688 
L 865 171 
L 865 171 
" style="fill:none;stroke:#800080;stroke-linecap:square;stroke-width:2.0;"/>
   </g>
   <g id="line2d_47">
    <path clip-path="url(#pa9b553cd02)" d="M 381.3345 171 
L 637.547625 170.896761 
L 647.308125 170.656719 
L 654.6285 170.233081 
L 659.50875 169.748837 
L 664.389 169.033369 
L 669.26925 168.021726 
L 674.1495 166.654556 
L 679.02975 164.891551 
L 683.91 162.727039 
L 688.79025 160.204681 
L 696.110625 155.991257 
L 703.431 151.803437 
L 708.31125 149.40262 
L 710.751375 148.406612 
L 713.1915 147.58129 
L 715.631625 146.947978 
L 718.07175 146.523283 
L 720.511875 146.31836 
L 722.952 146.338431 
L 725.392125 146.582559 
L 727.83225 147.043712 
L 730.272375 147.709096 
L 732.7125 148.560749 
L 735.152625 149.576342 
L 740.032875 151.994138 
L 747.35325 156.155354 
L 754.673625 160.30186 
L 759.553875 162.774018 
L 764.434125 164.8942 
L 769.314375 166.624161 
L 774.194625 167.971443 
L 779.074875 168.975302 
L 783.955125 169.692227 
L 788.835375 170.183696 
L 796.15575 170.622248 
L 805.91625 170.879774 
L 820.557 170.983149 
L 865 170.999992 
L 865 170.999992 
" style="fill:none;stroke:#aa0055;stroke-linecap:square;stroke-width:2.0;"/>
   </g>
   <g id="line2d_48">
    <path clip-path="url(#pa9b553cd02)" d="M 381.3345 171 
L 639.98775 170.905595 
L 649.74825 170.719924 
L 657.068625 170.415027 
L 664.389 169.858414 
L 669.26925 169.283291 
L 674.1495 168.49524 
L 679.02975 167.45418 
L 683.91 166.12975 
L 688.79025 164.509531 
L 693.6705 162.607332 
L 698.55075 160.469832 
L 715.631625 152.614401 
L 720.511875 150.846925 
L 722.952 150.135532 
L 725.392125 149.559528 
L 727.83225 149.131129 
L 730.272375 148.859499 
L 732.7125 148.75042 
L 735.152625 148.806087 
L 737.59275 149.025035 
L 740.032875 149.402201 
L 742.473 149.929121 
L 744.913125 150.594243 
L 749.793375 152.280064 
L 754.673625 154.323392 
L 764.434125 158.875778 
L 771.7545 162.154877 
L 776.63475 164.085912 
L 781.515 165.748367 
L 786.39525 167.123505 
L 791.2755 168.218829 
L 796.15575 169.060364 
L 801.036 169.68484 
L 805.91625 170.132907 
L 813.236625 170.559428 
L 822.997125 170.837831 
L 837.637875 170.970485 
L 865 170.999351 
L 865 170.999351 
" style="fill:none;stroke:#d4002b;stroke-linecap:square;stroke-width:2.0;"/>
   </g>
   <g id="line2d_49">
    <path clip-path="url(#pa9b553cd02)" d="M 381.3345 171 
L 644.868 170.895924 
L 657.068625 170.64948 
L 664.389 170.326935 
L 671.709375 169.779393 
L 676.589625 169.24156 
L 681.469875 168.530298 
L 686.350125 167.618341 
L 691.230375 166.485729 
L 696.110625 165.124777 
L 700.990875 163.544994 
L 708.31125 160.838545 
L 722.952 155.082614 
L 727.83225 153.422968 
L 732.7125 152.072168 
L 737.59275 151.122646 
L 740.032875 150.820622 
L 742.473 150.641719 
L 744.913125 150.589126 
L 747.35325 150.663677 
L 749.793375 150.863831 
L 752.2335 151.185727 
L 757.11375 152.168484 
L 761.994 153.54088 
L 766.87425 155.208648 
L 774.194625 158.029821 
L 783.955125 161.84423 
L 788.835375 163.584024 
L 793.715625 165.137401 
L 798.595875 166.476249 
L 803.476125 167.59252 
L 808.356375 168.494269 
L 813.236625 169.200948 
L 818.116875 169.738744 
L 825.43725 170.291838 
L 832.757625 170.622928 
L 842.518125 170.850063 
L 859.599 170.976108 
L 865 170.987309 
L 865 170.987309 
" style="fill:none;stroke:#ff0000;stroke-linecap:square;stroke-width:2.0;"/>
   </g>
   <g id="patch_13">
    <path d="M 611.2125 28.4 
L 853.2 28.4 
" style="fill:none;stroke:#000000;stroke-linecap:square;stroke-linejoin:miter;"/>
   </g>
   <g id="patch_14">
    <path d="M 853.2 171 
L 853.2 28.4 
" style="fill:none;stroke:#000000;stroke-linecap:square;stroke-linejoin:miter;"/>
   </g>
   <g id="patch_15">
    <path d="M 611.2125 171 
L 853.2 171 
" style="fill:none;stroke:#000000;stroke-linecap:square;stroke-linejoin:miter;"/>
   </g>
   <g id="patch_16">
    <path d="M 611.2125 171 
L 611.2125 28.4 
" style="fill:none;stroke:#000000;stroke-linecap:square;stroke-linejoin:miter;"/>
   </g>
   <g id="matplotlib.axis_5">
    <g id="xtick_11">
     <g id="line2d_50">
      <g>
       <use style="stroke:#000000;stroke-width:0.5;" x="623.311875" xlink:href="#m2c223267bb" y="171.0"/>
      </g>
     </g>
     <g id="line2d_51">
      <g>
       <use style="stroke:#000000;stroke-width:0.5;" x="623.311875" xlink:href="#mcd97aee54e" y="28.4"/>
      </g>
     </g>
     <g id="text_21">
      <!-- −20 -->
      <g transform="translate(612.75953125 182.5984375)scale(0.1 -0.1)">
       <use xlink:href="#BitstreamVeraSans-Roman-2212"/>
       <use x="83.7890625" xlink:href="#BitstreamVeraSans-Roman-32"/>
       <use x="147.412109375" xlink:href="#BitstreamVeraSans-Roman-30"/>
      </g>
     </g>
    </g>
    <g id="xtick_12">
     <g id="line2d_52">
      <g>
       <use style="stroke:#000000;stroke-width:0.5;" x="671.709375" xlink:href="#m2c223267bb" y="171.0"/>
      </g>
     </g>
     <g id="line2d_53">
      <g>
       <use style="stroke:#000000;stroke-width:0.5;" x="671.709375" xlink:href="#mcd97aee54e" y="28.4"/>
      </g>
     </g>
     <g id="text_22">
      <!-- 0 -->
      <g transform="translate(668.528125 182.5984375)scale(0.1 -0.1)">
       <use xlink:href="#BitstreamVeraSans-Roman-30"/>
      </g>
     </g>
    </g>
    <g id="xtick_13">
     <g id="line2d_54">
      <g>
       <use style="stroke:#000000;stroke-width:0.5;" x="720.106875" xlink:href="#m2c223267bb" y="171.0"/>
      </g>
     </g>
     <g id="line2d_55">
      <g>
       <use style="stroke:#000000;stroke-width:0.5;" x="720.106875" xlink:href="#mcd97aee54e" y="28.4"/>
      </g>
     </g>
     <g id="text_23">
      <!-- 20 -->
      <g transform="translate(713.744375 182.5984375)scale(0.1 -0.1)">
       <use xlink:href="#BitstreamVeraSans-Roman-32"/>
       <use x="63.623046875" xlink:href="#BitstreamVeraSans-Roman-30"/>
      </g>
     </g>
    </g>
    <g id="xtick_14">
     <g id="line2d_56">
      <g>
       <use style="stroke:#000000;stroke-width:0.5;" x="768.504375" xlink:href="#m2c223267bb" y="171.0"/>
      </g>
     </g>
     <g id="line2d_57">
      <g>
       <use style="stroke:#000000;stroke-width:0.5;" x="768.504375" xlink:href="#mcd97aee54e" y="28.4"/>
      </g>
     </g>
     <g id="text_24">
      <!-- 40 -->
      <g transform="translate(762.141875 182.5984375)scale(0.1 -0.1)">
       <use xlink:href="#BitstreamVeraSans-Roman-34"/>
       <use x="63.623046875" xlink:href="#BitstreamVeraSans-Roman-30"/>
      </g>
     </g>
    </g>
    <g id="xtick_15">
     <g id="line2d_58">
      <g>
       <use style="stroke:#000000;stroke-width:0.5;" x="816.901875" xlink:href="#m2c223267bb" y="171.0"/>
      </g>
     </g>
     <g id="line2d_59">
      <g>
       <use style="stroke:#000000;stroke-width:0.5;" x="816.901875" xlink:href="#mcd97aee54e" y="28.4"/>
      </g>
     </g>
     <g id="text_25">
      <!-- 60 -->
      <g transform="translate(810.539375 182.5984375)scale(0.1 -0.1)">
       <use xlink:href="#BitstreamVeraSans-Roman-36"/>
       <use x="63.623046875" xlink:href="#BitstreamVeraSans-Roman-30"/>
      </g>
     </g>
    </g>
    <g id="text_26">
     <!-- position -->
     <g transform="translate(702.49921875 201.07578125)scale(0.15 -0.15)">
      <use xlink:href="#BitstreamVeraSans-Roman-70"/>
      <use x="63.4765625" xlink:href="#BitstreamVeraSans-Roman-6f"/>
      <use x="124.658203125" xlink:href="#BitstreamVeraSans-Roman-73"/>
      <use x="176.7578125" xlink:href="#BitstreamVeraSans-Roman-69"/>
      <use x="204.541015625" xlink:href="#BitstreamVeraSans-Roman-74"/>
      <use x="243.75" xlink:href="#BitstreamVeraSans-Roman-69"/>
      <use x="271.533203125" xlink:href="#BitstreamVeraSans-Roman-6f"/>
      <use x="332.71484375" xlink:href="#BitstreamVeraSans-Roman-6e"/>
     </g>
    </g>
   </g>
   <g id="matplotlib.axis_6">
    <g id="ytick_5">
     <g id="line2d_60">
      <g>
       <use style="stroke:#000000;stroke-width:0.5;" x="611.2125" xlink:href="#md58b3fb074" y="171.0"/>
      </g>
     </g>
     <g id="line2d_61">
      <g>
       <use style="stroke:#000000;stroke-width:0.5;" x="853.2" xlink:href="#m8b3d1f3a64" y="171.0"/>
      </g>
     </g>
     <g id="text_27">
      <!-- 0 -->
      <g transform="translate(600.85 173.759375)scale(0.1 -0.1)">
       <use xlink:href="#BitstreamVeraSans-Roman-30"/>
      </g>
     </g>
    </g>
    <g id="ytick_6">
     <g id="line2d_62">
      <g>
       <use style="stroke:#000000;stroke-width:0.5;" x="611.2125" xlink:href="#md58b3fb074" y="41.3636363636"/>
      </g>
     </g>
     <g id="line2d_63">
      <g>
       <use style="stroke:#000000;stroke-width:0.5;" x="853.2" xlink:href="#m8b3d1f3a64" y="41.3636363636"/>
      </g>
     </g>
     <g id="text_28">
      <!-- 2 -->
      <g transform="translate(600.85 44.1230113636)scale(0.1 -0.1)">
       <use xlink:href="#BitstreamVeraSans-Roman-32"/>
      </g>
     </g>
    </g>
    <g id="text_29">
     <!-- concentration -->
     <g transform="translate(592.73046875 151.643359375)rotate(-90.0)scale(0.15 -0.15)">
      <use xlink:href="#BitstreamVeraSans-Roman-63"/>
      <use x="54.98046875" xlink:href="#BitstreamVeraSans-Roman-6f"/>
      <use x="116.162109375" xlink:href="#BitstreamVeraSans-Roman-6e"/>
      <use x="179.541015625" xlink:href="#BitstreamVeraSans-Roman-63"/>
      <use x="234.521484375" xlink:href="#BitstreamVeraSans-Roman-65"/>
      <use x="296.044921875" xlink:href="#BitstreamVeraSans-Roman-6e"/>
      <use x="359.423828125" xlink:href="#BitstreamVeraSans-Roman-74"/>
      <use x="398.6328125" xlink:href="#BitstreamVeraSans-Roman-72"/>
      <use x="439.74609375" xlink:href="#BitstreamVeraSans-Roman-61"/>
      <use x="501.025390625" xlink:href="#BitstreamVeraSans-Roman-74"/>
      <use x="540.234375" xlink:href="#BitstreamVeraSans-Roman-69"/>
      <use x="568.017578125" xlink:href="#BitstreamVeraSans-Roman-6f"/>
      <use x="629.19921875" xlink:href="#BitstreamVeraSans-Roman-6e"/>
     </g>
    </g>
   </g>
   <g id="text_30">
    <!-- k = 0.4 -->
    <defs>
     <path d="M 36.8125 57.421875 
L 16.21875 26.90625 
L 36.8125 26.90625 
z
M 33.6875 72.90625 
L 54.59375 72.90625 
L 54.59375 26.90625 
L 64.984375 26.90625 
L 64.984375 13.28125 
L 54.59375 13.28125 
L 54.59375 0 
L 36.8125 0 
L 36.8125 13.28125 
L 4.5 13.28125 
L 4.5 29.390625 
z
" id="BitstreamVeraSans-Bold-34"/>
    </defs>
    <g transform="translate(702.4265625 23.4)scale(0.15 -0.15)">
     <use xlink:href="#BitstreamVeraSans-Bold-6b"/>
     <use x="66.50390625" xlink:href="#BitstreamVeraSans-Bold-20"/>
     <use x="101.318359375" xlink:href="#BitstreamVeraSans-Bold-3d"/>
     <use x="185.107421875" xlink:href="#BitstreamVeraSans-Bold-20"/>
     <use x="219.921875" xlink:href="#BitstreamVeraSans-Bold-30"/>
     <use x="289.501953125" xlink:href="#BitstreamVeraSans-Bold-2e"/>
     <use x="327.490234375" xlink:href="#BitstreamVeraSans-Bold-34"/>
    </g>
   </g>
  </g>
 </g>
 <defs>
  <clipPath id="pa9b553cd02">
   <rect height="142.6" width="241.9875" x="611.2125" y="28.4"/>
  </clipPath>
  <clipPath id="p8e9e953e99">
   <rect height="142.6" width="241.9875" x="42.4125" y="28.4"/>
  </clipPath>
  <clipPath id="p072a762887">
   <rect height="142.6" width="241.9875" x="326.8125" y="28.4"/>
  </clipPath>
 </defs>
</svg>
