<?xml version="1.0" encoding="utf-8" standalone="no"?>
<!DOCTYPE svg PUBLIC "-//W3C//DTD SVG 1.1//EN"
  "http://www.w3.org/Graphics/SVG/1.1/DTD/svg11.dtd">
<!-- Created with matplotlib (http://matplotlib.org/) -->
<svg height="216pt" version="1.1" viewBox="0 0 864 216" width="864pt" xmlns="http://www.w3.org/2000/svg" xmlns:xlink="http://www.w3.org/1999/xlink">
 <defs>
  <style type="text/css">
*{stroke-linecap:butt;stroke-linejoin:round;}
  </style>
 </defs>
 <g id="figure_1">
  <g id="patch_1">
   <path d="
M0 216
L864 216
L864 0
L0 0
z
" style="fill:#ffffff;"/>
  </g>
  <g id="axes_1">
   <g id="patch_2">
    <path d="
M41.0063 171
L284.4 171
L284.4 28.4
L41.0063 28.4
z
" style="fill:#ffffff;"/>
   </g>
   <g id="line2d_1">
    <path clip-path="url(#p08db764a31)" d="
M40.4971 171
L42.9514 171
L45.4057 171
L47.86 171
L50.3143 171
L52.7686 171
L55.2229 171
L57.6772 171
L60.1315 171
L62.5858 171
L65.0401 171
L67.4944 171
L69.9487 171
L72.403 171
L74.8573 171
L77.3116 171
L79.7659 171
L82.2202 171
L84.6746 170.997
L87.1289 170.978
L89.5832 170.837
L92.0375 169.977
L94.4918 165.746
L96.9461 149.78
L99.4004 107.661
L101.855 43.2732
L104.309 13.8252
L106.763 40.3296
L109.218 90.7109
L111.672 132.216
L114.126 155.629
L116.581 165.846
L119.035 169.505
L121.489 170.618
L123.943 170.913
L126.398 170.982
L128.852 170.997
L131.306 170.999
L133.761 171
L136.215 171
L138.669 171
L141.124 171
L143.578 171
L146.032 171
L148.486 171
L150.941 171
L153.395 171
L155.849 171
L158.304 171
L160.758 171
L163.212 171
L165.667 171
L168.121 171
L170.575 171
L173.03 171
L175.484 171
L177.938 171
L180.392 171
L182.847 171
L185.301 171
L187.755 171
L190.21 171
L192.664 171
L195.118 171
L197.573 171
L200.027 171
L202.481 171
L204.936 171
L207.39 171
L209.844 171
L212.298 171
L214.753 171
L217.207 171
L219.661 171
L222.116 171
L224.57 171
L227.024 171
L229.479 171
L231.933 171
L234.387 171
L236.841 171
L239.296 171
L241.75 171
L244.204 171
L246.659 171
L249.113 171
L251.567 171
L254.022 171
L256.476 171
L258.93 171
L261.385 171
L263.839 171
L266.293 171
L268.747 171
L271.202 171
L273.656 171
L276.11 171
L278.565 171
L281.019 171
L283.473 171
L285.928 171" style="fill:none;stroke:#0000ff;stroke-linecap:square;stroke-width:2;"/>
   </g>
   <g id="line2d_2">
    <path clip-path="url(#p08db764a31)" d="
M40.4971 171
L42.9514 171
L45.4057 171
L47.86 171
L50.3143 171
L52.7686 171
L55.2229 171
L57.6772 171
L60.1315 171
L62.5858 171
L65.0401 171
L67.4944 171
L69.9487 171
L72.403 171
L74.8573 170.999
L77.3116 170.996
L79.7659 170.986
L82.2202 170.959
L84.6746 170.886
L87.1289 170.703
L89.5832 170.279
L92.0375 169.373
L94.4918 167.603
L96.9461 164.446
L99.4004 159.333
L101.855 151.856
L104.309 142.05
L106.763 130.642
L109.218 119.09
L111.672 109.305
L114.126 103.119
L116.581 101.707
L119.035 105.212
L121.489 112.758
L123.943 122.794
L126.398 133.598
L128.852 143.727
L131.306 152.263
L133.761 158.841
L136.215 163.531
L138.669 166.647
L141.124 168.588
L143.578 169.727
L146.032 170.359
L148.486 170.691
L150.941 170.858
L153.395 170.937
L155.849 170.973
L158.304 170.989
L160.758 170.996
L163.212 170.998
L165.667 170.999
L168.121 171
L170.575 171
L173.03 171
L175.484 171
L177.938 171
L180.392 171
L182.847 171
L185.301 171
L187.755 171
L190.21 171
L192.664 171
L195.118 171
L197.573 171
L200.027 171
L202.481 171
L204.936 171
L207.39 171
L209.844 171
L212.298 171
L214.753 171
L217.207 171
L219.661 171
L222.116 171
L224.57 171
L227.024 171
L229.479 171
L231.933 171
L234.387 171
L236.841 171
L239.296 171
L241.75 171
L244.204 171
L246.659 171
L249.113 171
L251.567 171
L254.022 171
L256.476 171
L258.93 171
L261.385 171
L263.839 171
L266.293 171
L268.747 171
L271.202 171
L273.656 171
L276.11 171
L278.565 171
L281.019 171
L283.473 171
L285.928 171" style="fill:none;stroke:#2a00d4;stroke-linecap:square;stroke-width:2;"/>
   </g>
   <g id="line2d_3">
    <path clip-path="url(#p08db764a31)" d="
M40.4971 171
L42.9514 171
L45.4057 171
L47.86 171
L50.3143 171
L52.7686 171
L55.2229 171
L57.6772 171
L60.1315 171
L62.5858 171
L65.0401 171
L67.4944 171
L69.9487 171
L72.403 170.999
L74.8573 170.998
L77.3116 170.994
L79.7659 170.986
L82.2202 170.968
L84.6746 170.931
L87.1289 170.855
L89.5832 170.709
L92.0375 170.44
L94.4918 169.969
L96.9461 169.184
L99.4004 167.941
L101.855 166.073
L104.309 163.41
L106.763 159.82
L109.218 155.248
L111.672 149.769
L114.126 143.615
L116.581 137.184
L119.035 131.006
L121.489 125.669
L123.943 121.732
L126.398 119.62
L128.852 119.55
L131.306 121.496
L133.761 125.196
L136.215 130.216
L138.669 136.026
L141.124 142.093
L143.578 147.953
L146.032 153.262
L148.486 157.811
L150.941 161.518
L153.395 164.405
L155.849 166.558
L158.304 168.101
L160.758 169.166
L163.212 169.874
L165.667 170.329
L168.121 170.611
L170.575 170.781
L173.03 170.88
L175.484 170.936
L177.938 170.967
L180.392 170.983
L182.847 170.992
L185.301 170.996
L187.755 170.998
L190.21 170.999
L192.664 171
L195.118 171
L197.573 171
L200.027 171
L202.481 171
L204.936 171
L207.39 171
L209.844 171
L212.298 171
L214.753 171
L217.207 171
L219.661 171
L222.116 171
L224.57 171
L227.024 171
L229.479 171
L231.933 171
L234.387 171
L236.841 171
L239.296 171
L241.75 171
L244.204 171
L246.659 171
L249.113 171
L251.567 171
L254.022 171
L256.476 171
L258.93 171
L261.385 171
L263.839 171
L266.293 171
L268.747 171
L271.202 171
L273.656 171
L276.11 171
L278.565 171
L281.019 171
L283.473 171
L285.928 171" style="fill:none;stroke:#5500aa;stroke-linecap:square;stroke-width:2;"/>
   </g>
   <g id="line2d_4">
    <path clip-path="url(#p08db764a31)" d="
M40.4971 171
L42.9514 171
L45.4057 171
L47.86 171
L50.3143 171
L52.7686 171
L55.2229 171
L57.6772 171
L60.1315 171
L62.5858 171
L65.0401 171
L67.4944 171
L69.9487 171
L72.403 170.999
L74.8573 170.998
L77.3116 170.997
L79.7659 170.993
L82.2202 170.986
L84.6746 170.972
L87.1289 170.947
L89.5832 170.9
L92.0375 170.82
L94.4918 170.684
L96.9461 170.463
L99.4004 170.114
L101.855 169.582
L104.309 168.801
L106.763 167.692
L109.218 166.176
L111.672 164.176
L114.126 161.637
L116.581 158.54
L119.035 154.912
L121.489 150.844
L123.943 146.491
L126.398 142.067
L128.852 137.834
L131.306 134.073
L133.761 131.053
L136.215 129.002
L138.669 128.072
L141.124 128.327
L143.578 129.733
L146.032 132.162
L148.486 135.415
L150.941 139.247
L153.395 143.395
L155.849 147.612
L158.304 151.68
L160.758 155.434
L163.212 158.764
L165.667 161.612
L168.121 163.967
L170.575 165.853
L173.03 167.32
L175.484 168.428
L177.938 169.243
L180.392 169.825
L182.847 170.232
L185.301 170.508
L187.755 170.692
L190.21 170.811
L192.664 170.886
L195.118 170.933
L197.573 170.961
L200.027 170.978
L202.481 170.988
L204.936 170.993
L207.39 170.996
L209.844 170.998
L212.298 170.999
L214.753 171
L217.207 171
L219.661 171
L222.116 171
L224.57 171
L227.024 171
L229.479 171
L231.933 171
L234.387 171
L236.841 171
L239.296 171
L241.75 171
L244.204 171
L246.659 171
L249.113 171
L251.567 171
L254.022 171
L256.476 171
L258.93 171
L261.385 171
L263.839 171
L266.293 171
L268.747 171
L271.202 171
L273.656 171
L276.11 171
L278.565 171
L281.019 171
L283.473 171
L285.928 171" style="fill:none;stroke:#800080;stroke-linecap:square;stroke-width:2;"/>
   </g>
   <g id="line2d_5">
    <path clip-path="url(#p08db764a31)" d="
M40.4971 171
L42.9514 171
L45.4057 171
L47.86 171
L50.3143 171
L52.7686 171
L55.2229 171
L57.6772 171
L60.1315 171
L62.5858 171
L65.0401 171
L67.4944 171
L69.9487 171
L72.403 171
L74.8573 170.999
L77.3116 170.999
L79.7659 170.997
L82.2202 170.995
L84.6746 170.991
L87.1289 170.983
L89.5832 170.969
L92.0375 170.946
L94.4918 170.907
L96.9461 170.845
L99.4004 170.747
L101.855 170.597
L104.309 170.372
L106.763 170.045
L109.218 169.581
L111.672 168.938
L114.126 168.074
L116.581 166.941
L119.035 165.499
L121.489 163.712
L123.943 161.562
L126.398 159.053
L128.852 156.214
L131.306 153.107
L133.761 149.826
L136.215 146.492
L138.669 143.252
L141.124 140.263
L143.578 137.684
L146.032 135.658
L148.486 134.301
L150.941 133.69
L153.395 133.857
L155.849 134.785
L158.304 136.409
L160.758 138.628
L163.212 141.31
L165.667 144.309
L168.121 147.476
L170.575 150.669
L173.03 153.765
L175.484 156.668
L177.938 159.305
L180.392 161.634
L182.847 163.638
L185.301 165.318
L187.755 166.693
L190.21 167.793
L192.664 168.655
L195.118 169.314
L197.573 169.809
L200.027 170.173
L202.481 170.435
L204.936 170.621
L207.39 170.75
L209.844 170.837
L212.298 170.896
L214.753 170.935
L217.207 170.959
L219.661 170.975
L222.116 170.985
L224.57 170.991
L227.024 170.995
L229.479 170.997
L231.933 170.998
L234.387 170.999
L236.841 170.999
L239.296 171
L241.75 171
L244.204 171
L246.659 171
L249.113 171
L251.567 171
L254.022 171
L256.476 171
L258.93 171
L261.385 171
L263.839 171
L266.293 171
L268.747 171
L271.202 171
L273.656 171
L276.11 171
L278.565 171
L281.019 171
L283.473 171
L285.928 171" style="fill:none;stroke:#aa0055;stroke-linecap:square;stroke-width:2;"/>
   </g>
   <g id="line2d_6">
    <path clip-path="url(#p08db764a31)" d="
M40.4971 171
L42.9514 171
L45.4057 171
L47.86 171
L50.3143 171
L52.7686 171
L55.2229 171
L57.6772 171
L60.1315 171
L62.5858 171
L65.0401 171
L67.4944 171
L69.9487 171
L72.403 171
L74.8573 171
L77.3116 170.999
L79.7659 170.999
L82.2202 170.998
L84.6746 170.997
L87.1289 170.994
L89.5832 170.99
L92.0375 170.982
L94.4918 170.97
L96.9461 170.951
L99.4004 170.921
L101.855 170.874
L104.309 170.804
L106.763 170.7
L109.218 170.549
L111.672 170.334
L114.126 170.037
L116.581 169.631
L119.035 169.091
L121.489 168.387
L123.943 167.489
L126.398 166.37
L128.852 165.005
L131.306 163.38
L133.761 161.489
L136.215 159.344
L138.669 156.973
L141.124 154.422
L143.578 151.755
L146.032 149.056
L148.486 146.42
L150.941 143.949
L153.395 141.748
L155.849 139.915
L158.304 138.536
L160.758 137.673
L163.212 137.368
L165.667 137.632
L168.121 138.446
L170.575 139.768
L173.03 141.528
L175.484 143.644
L177.938 146.019
L180.392 148.554
L182.847 151.153
L185.301 153.728
L187.755 156.205
L190.21 158.523
L192.664 160.64
L195.118 162.529
L197.573 164.178
L200.027 165.589
L202.481 166.771
L204.936 167.744
L207.39 168.53
L209.844 169.153
L212.298 169.639
L214.753 170.011
L217.207 170.291
L219.661 170.499
L222.116 170.651
L224.57 170.76
L227.024 170.838
L229.479 170.891
L231.933 170.928
L234.387 170.953
L236.841 170.97
L239.296 170.981
L241.75 170.988
L244.204 170.993
L246.659 170.996
L249.113 170.997
L251.567 170.998
L254.022 170.999
L256.476 170.999
L258.93 171
L261.385 171
L263.839 171
L266.293 171
L268.747 171
L271.202 171
L273.656 171
L276.11 171
L278.565 171
L281.019 171
L283.473 171
L285.928 171" style="fill:none;stroke:#d4002b;stroke-linecap:square;stroke-width:2;"/>
   </g>
   <g id="line2d_7">
    <path clip-path="url(#p08db764a31)" d="
M40.4971 171
L42.9514 171
L45.4057 171
L47.86 171
L50.3143 171
L52.7686 171
L55.2229 171
L57.6772 171
L60.1315 171
L62.5858 171
L65.0401 171
L67.4944 171
L69.9487 171
L72.403 171
L74.8573 171
L77.3116 171
L79.7659 171
L82.2202 170.999
L84.6746 170.999
L87.1289 170.998
L89.5832 170.997
L92.0375 170.994
L94.4918 170.991
L96.9461 170.984
L99.4004 170.975
L101.855 170.96
L104.309 170.938
L106.763 170.904
L109.218 170.855
L111.672 170.784
L114.126 170.683
L116.581 170.541
L119.035 170.348
L121.489 170.088
L123.943 169.743
L126.398 169.295
L128.852 168.722
L131.306 168.005
L133.761 167.123
L136.215 166.057
L138.669 164.796
L141.124 163.331
L143.578 161.664
L146.032 159.807
L148.486 157.782
L150.941 155.626
L153.395 153.385
L155.849 151.117
L158.304 148.89
L160.758 146.774
L163.212 144.845
L165.667 143.174
L168.121 141.825
L170.575 140.851
L173.03 140.29
L175.484 140.165
L177.938 140.476
L180.392 141.21
L182.847 142.332
L185.301 143.795
L187.755 145.539
L190.21 147.498
L192.664 149.601
L195.118 151.779
L197.573 153.967
L200.027 156.107
L202.481 158.151
L204.936 160.06
L207.39 161.806
L209.844 163.374
L212.298 164.756
L214.753 165.952
L217.207 166.971
L219.661 167.825
L222.116 168.529
L224.57 169.101
L227.024 169.558
L229.479 169.919
L231.933 170.199
L234.387 170.413
L236.841 170.576
L239.296 170.697
L241.75 170.786
L244.204 170.85
L246.659 170.897
L249.113 170.93
L251.567 170.953
L254.022 170.968
L256.476 170.979
L258.93 170.986
L261.385 170.991
L263.839 170.994
L266.293 170.996
L268.747 170.998
L271.202 170.999
L273.656 170.999
L276.11 170.999
L278.565 171
L281.019 171
L283.473 171
L285.928 171" style="fill:none;stroke:#ff0000;stroke-linecap:square;stroke-width:2;"/>
   </g>
   <g id="patch_3">
    <path d="
M41.0063 28.4
L284.4 28.4" style="fill:none;stroke:#000000;stroke-linecap:square;stroke-linejoin:miter;"/>
   </g>
   <g id="patch_4">
    <path d="
M284.4 171
L284.4 28.4" style="fill:none;stroke:#000000;stroke-linecap:square;stroke-linejoin:miter;"/>
   </g>
   <g id="patch_5">
    <path d="
M41.0063 171
L284.4 171" style="fill:none;stroke:#000000;stroke-linecap:square;stroke-linejoin:miter;"/>
   </g>
   <g id="patch_6">
    <path d="
M41.0063 171
L41.0063 28.4" style="fill:none;stroke:#000000;stroke-linecap:square;stroke-linejoin:miter;"/>
   </g>
   <g id="matplotlib.axis_1">
    <g id="xtick_1">
     <g id="line2d_8">
      <defs>
       <path d="
M0 0
L0 -4" id="m93b0483c22" style="stroke:#000000;stroke-width:0.5;"/>
      </defs>
      <g>
       <use style="stroke:#000000;stroke-width:0.5;" x="53.1759375" xlink:href="#m93b0483c22" y="171.0"/>
      </g>
     </g>
     <g id="line2d_9">
      <defs>
       <path d="
M0 0
L0 4" id="m741efc42ff" style="stroke:#000000;stroke-width:0.5;"/>
      </defs>
      <g>
       <use style="stroke:#000000;stroke-width:0.5;" x="53.1759375" xlink:href="#m741efc42ff" y="28.4"/>
      </g>
     </g>
     <g id="text_1">
      <!-- −20 -->
      <defs>
       <path d="
M10.5938 35.5
L73.1875 35.5
L73.1875 27.2031
L10.5938 27.2031
z
" id="BitstreamVeraSans-Roman-2212"/>
       <path d="
M19.1875 8.29688
L53.6094 8.29688
L53.6094 0
L7.32812 0
L7.32812 8.29688
Q12.9375 14.1094 22.625 23.8906
Q32.3281 33.6875 34.8125 36.5312
Q39.5469 41.8438 41.4219 45.5312
Q43.3125 49.2188 43.3125 52.7812
Q43.3125 58.5938 39.2344 62.25
Q35.1562 65.9219 28.6094 65.9219
Q23.9688 65.9219 18.8125 64.3125
Q13.6719 62.7031 7.8125 59.4219
L7.8125 69.3906
Q13.7656 71.7812 18.9375 73
Q24.125 74.2188 28.4219 74.2188
Q39.75 74.2188 46.4844 68.5469
Q53.2188 62.8906 53.2188 53.4219
Q53.2188 48.9219 51.5312 44.8906
Q49.8594 40.875 45.4062 35.4062
Q44.1875 33.9844 37.6406 27.2188
Q31.1094 20.4531 19.1875 8.29688" id="BitstreamVeraSans-Roman-32"/>
       <path d="
M31.7812 66.4062
Q24.1719 66.4062 20.3281 58.9062
Q16.5 51.4219 16.5 36.375
Q16.5 21.3906 20.3281 13.8906
Q24.1719 6.39062 31.7812 6.39062
Q39.4531 6.39062 43.2812 13.8906
Q47.125 21.3906 47.125 36.375
Q47.125 51.4219 43.2812 58.9062
Q39.4531 66.4062 31.7812 66.4062
M31.7812 74.2188
Q44.0469 74.2188 50.5156 64.5156
Q56.9844 54.8281 56.9844 36.375
Q56.9844 17.9688 50.5156 8.26562
Q44.0469 -1.42188 31.7812 -1.42188
Q19.5312 -1.42188 13.0625 8.26562
Q6.59375 17.9688 6.59375 36.375
Q6.59375 54.8281 13.0625 64.5156
Q19.5312 74.2188 31.7812 74.2188" id="BitstreamVeraSans-Roman-30"/>
      </defs>
      <g transform="translate(43.4853125 182.5984375)scale(0.1 -0.1)">
       <use xlink:href="#BitstreamVeraSans-Roman-2212"/>
       <use x="83.7890625" xlink:href="#BitstreamVeraSans-Roman-32"/>
       <use x="147.412109375" xlink:href="#BitstreamVeraSans-Roman-30"/>
      </g>
     </g>
    </g>
    <g id="xtick_2">
     <g id="line2d_10">
      <g>
       <use style="stroke:#000000;stroke-width:0.5;" x="101.8546875" xlink:href="#m93b0483c22" y="171.0"/>
      </g>
     </g>
     <g id="line2d_11">
      <g>
       <use style="stroke:#000000;stroke-width:0.5;" x="101.8546875" xlink:href="#m741efc42ff" y="28.4"/>
      </g>
     </g>
     <g id="text_2">
      <!-- 0 -->
      <g transform="translate(99.33515625 182.5984375)scale(0.1 -0.1)">
       <use xlink:href="#BitstreamVeraSans-Roman-30"/>
      </g>
     </g>
    </g>
    <g id="xtick_3">
     <g id="line2d_12">
      <g>
       <use style="stroke:#000000;stroke-width:0.5;" x="150.5334375" xlink:href="#m93b0483c22" y="171.0"/>
      </g>
     </g>
     <g id="line2d_13">
      <g>
       <use style="stroke:#000000;stroke-width:0.5;" x="150.5334375" xlink:href="#m741efc42ff" y="28.4"/>
      </g>
     </g>
     <g id="text_3">
      <!-- 20 -->
      <g transform="translate(144.869375 182.5984375)scale(0.1 -0.1)">
       <use xlink:href="#BitstreamVeraSans-Roman-32"/>
       <use x="63.623046875" xlink:href="#BitstreamVeraSans-Roman-30"/>
      </g>
     </g>
    </g>
    <g id="xtick_4">
     <g id="line2d_14">
      <g>
       <use style="stroke:#000000;stroke-width:0.5;" x="199.2121875" xlink:href="#m93b0483c22" y="171.0"/>
      </g>
     </g>
     <g id="line2d_15">
      <g>
       <use style="stroke:#000000;stroke-width:0.5;" x="199.2121875" xlink:href="#m741efc42ff" y="28.4"/>
      </g>
     </g>
     <g id="text_4">
      <!-- 40 -->
      <defs>
       <path d="
M37.7969 64.3125
L12.8906 25.3906
L37.7969 25.3906
z

M35.2031 72.9062
L47.6094 72.9062
L47.6094 25.3906
L58.0156 25.3906
L58.0156 17.1875
L47.6094 17.1875
L47.6094 0
L37.7969 0
L37.7969 17.1875
L4.89062 17.1875
L4.89062 26.7031
z
" id="BitstreamVeraSans-Roman-34"/>
      </defs>
      <g transform="translate(193.42625 182.5984375)scale(0.1 -0.1)">
       <use xlink:href="#BitstreamVeraSans-Roman-34"/>
       <use x="63.623046875" xlink:href="#BitstreamVeraSans-Roman-30"/>
      </g>
     </g>
    </g>
    <g id="xtick_5">
     <g id="line2d_16">
      <g>
       <use style="stroke:#000000;stroke-width:0.5;" x="247.8909375" xlink:href="#m93b0483c22" y="171.0"/>
      </g>
     </g>
     <g id="line2d_17">
      <g>
       <use style="stroke:#000000;stroke-width:0.5;" x="247.8909375" xlink:href="#m741efc42ff" y="28.4"/>
      </g>
     </g>
     <g id="text_5">
      <!-- 60 -->
      <defs>
       <path d="
M33.0156 40.375
Q26.375 40.375 22.4844 35.8281
Q18.6094 31.2969 18.6094 23.3906
Q18.6094 15.5312 22.4844 10.9531
Q26.375 6.39062 33.0156 6.39062
Q39.6562 6.39062 43.5312 10.9531
Q47.4062 15.5312 47.4062 23.3906
Q47.4062 31.2969 43.5312 35.8281
Q39.6562 40.375 33.0156 40.375
M52.5938 71.2969
L52.5938 62.3125
Q48.875 64.0625 45.0938 64.9844
Q41.3125 65.9219 37.5938 65.9219
Q27.8281 65.9219 22.6719 59.3281
Q17.5312 52.7344 16.7969 39.4062
Q19.6719 43.6562 24.0156 45.9219
Q28.375 48.1875 33.5938 48.1875
Q44.5781 48.1875 50.9531 41.5156
Q57.3281 34.8594 57.3281 23.3906
Q57.3281 12.1562 50.6875 5.35938
Q44.0469 -1.42188 33.0156 -1.42188
Q20.3594 -1.42188 13.6719 8.26562
Q6.98438 17.9688 6.98438 36.375
Q6.98438 53.6562 15.1875 63.9375
Q23.3906 74.2188 37.2031 74.2188
Q40.9219 74.2188 44.7031 73.4844
Q48.4844 72.75 52.5938 71.2969" id="BitstreamVeraSans-Roman-36"/>
      </defs>
      <g transform="translate(242.2096875 182.5984375)scale(0.1 -0.1)">
       <use xlink:href="#BitstreamVeraSans-Roman-36"/>
       <use x="63.623046875" xlink:href="#BitstreamVeraSans-Roman-30"/>
      </g>
     </g>
    </g>
    <g id="text_6">
     <!-- position -->
     <defs>
      <path d="
M54.8906 33.0156
L54.8906 0
L45.9062 0
L45.9062 32.7188
Q45.9062 40.4844 42.875 44.3281
Q39.8438 48.1875 33.7969 48.1875
Q26.5156 48.1875 22.3125 43.5469
Q18.1094 38.9219 18.1094 30.9062
L18.1094 0
L9.07812 0
L9.07812 54.6875
L18.1094 54.6875
L18.1094 46.1875
Q21.3438 51.125 25.7031 53.5625
Q30.0781 56 35.7969 56
Q45.2188 56 50.0469 50.1719
Q54.8906 44.3438 54.8906 33.0156" id="BitstreamVeraSans-Roman-6e"/>
      <path d="
M30.6094 48.3906
Q23.3906 48.3906 19.1875 42.75
Q14.9844 37.1094 14.9844 27.2969
Q14.9844 17.4844 19.1562 11.8438
Q23.3438 6.20312 30.6094 6.20312
Q37.7969 6.20312 41.9844 11.8594
Q46.1875 17.5312 46.1875 27.2969
Q46.1875 37.0156 41.9844 42.7031
Q37.7969 48.3906 30.6094 48.3906
M30.6094 56
Q42.3281 56 49.0156 48.375
Q55.7188 40.7656 55.7188 27.2969
Q55.7188 13.875 49.0156 6.21875
Q42.3281 -1.42188 30.6094 -1.42188
Q18.8438 -1.42188 12.1719 6.21875
Q5.51562 13.875 5.51562 27.2969
Q5.51562 40.7656 12.1719 48.375
Q18.8438 56 30.6094 56" id="BitstreamVeraSans-Roman-6f"/>
      <path d="
M9.42188 54.6875
L18.4062 54.6875
L18.4062 0
L9.42188 0
z

M9.42188 75.9844
L18.4062 75.9844
L18.4062 64.5938
L9.42188 64.5938
z
" id="BitstreamVeraSans-Roman-69"/>
      <path d="
M18.3125 70.2188
L18.3125 54.6875
L36.8125 54.6875
L36.8125 47.7031
L18.3125 47.7031
L18.3125 18.0156
Q18.3125 11.3281 20.1406 9.42188
Q21.9688 7.51562 27.5938 7.51562
L36.8125 7.51562
L36.8125 0
L27.5938 0
Q17.1875 0 13.2344 3.875
Q9.28125 7.76562 9.28125 18.0156
L9.28125 47.7031
L2.6875 47.7031
L2.6875 54.6875
L9.28125 54.6875
L9.28125 70.2188
z
" id="BitstreamVeraSans-Roman-74"/>
      <path d="
M44.2812 53.0781
L44.2812 44.5781
Q40.4844 46.5312 36.375 47.5
Q32.2812 48.4844 27.875 48.4844
Q21.1875 48.4844 17.8438 46.4375
Q14.5 44.3906 14.5 40.2812
Q14.5 37.1562 16.8906 35.375
Q19.2812 33.5938 26.5156 31.9844
L29.5938 31.2969
Q39.1562 29.25 43.1875 25.5156
Q47.2188 21.7812 47.2188 15.0938
Q47.2188 7.46875 41.1875 3.01562
Q35.1562 -1.42188 24.6094 -1.42188
Q20.2188 -1.42188 15.4531 -0.5625
Q10.6875 0.296875 5.42188 2
L5.42188 11.2812
Q10.4062 8.6875 15.2344 7.39062
Q20.0625 6.10938 24.8125 6.10938
Q31.1562 6.10938 34.5625 8.28125
Q37.9844 10.4531 37.9844 14.4062
Q37.9844 18.0625 35.5156 20.0156
Q33.0625 21.9688 24.7031 23.7812
L21.5781 24.5156
Q13.2344 26.2656 9.51562 29.9062
Q5.8125 33.5469 5.8125 39.8906
Q5.8125 47.6094 11.2812 51.7969
Q16.75 56 26.8125 56
Q31.7812 56 36.1719 55.2656
Q40.5781 54.5469 44.2812 53.0781" id="BitstreamVeraSans-Roman-73"/>
      <path d="
M18.1094 8.20312
L18.1094 -20.7969
L9.07812 -20.7969
L9.07812 54.6875
L18.1094 54.6875
L18.1094 46.3906
Q20.9531 51.2656 25.2656 53.625
Q29.5938 56 35.5938 56
Q45.5625 56 51.7812 48.0938
Q58.0156 40.1875 58.0156 27.2969
Q58.0156 14.4062 51.7812 6.48438
Q45.5625 -1.42188 35.5938 -1.42188
Q29.5938 -1.42188 25.2656 0.953125
Q20.9531 3.32812 18.1094 8.20312
M48.6875 27.2969
Q48.6875 37.2031 44.6094 42.8438
Q40.5312 48.4844 33.4062 48.4844
Q26.2656 48.4844 22.1875 42.8438
Q18.1094 37.2031 18.1094 27.2969
Q18.1094 17.3906 22.1875 11.75
Q26.2656 6.10938 33.4062 6.10938
Q40.5312 6.10938 44.6094 11.75
Q48.6875 17.3906 48.6875 27.2969" id="BitstreamVeraSans-Roman-70"/>
     </defs>
     <g transform="translate(134.31328125 201.07578125)scale(0.15 -0.15)">
      <use xlink:href="#BitstreamVeraSans-Roman-70"/>
      <use x="63.4765625" xlink:href="#BitstreamVeraSans-Roman-6f"/>
      <use x="124.658203125" xlink:href="#BitstreamVeraSans-Roman-73"/>
      <use x="176.7578125" xlink:href="#BitstreamVeraSans-Roman-69"/>
      <use x="204.541015625" xlink:href="#BitstreamVeraSans-Roman-74"/>
      <use x="243.75" xlink:href="#BitstreamVeraSans-Roman-69"/>
      <use x="271.533203125" xlink:href="#BitstreamVeraSans-Roman-6f"/>
      <use x="332.71484375" xlink:href="#BitstreamVeraSans-Roman-6e"/>
     </g>
    </g>
   </g>
   <g id="matplotlib.axis_2">
    <g id="ytick_1">
     <g id="line2d_18">
      <defs>
       <path d="
M0 0
L4 0" id="m728421d6d4" style="stroke:#000000;stroke-width:0.5;"/>
      </defs>
      <g>
       <use style="stroke:#000000;stroke-width:0.5;" x="41.00625" xlink:href="#m728421d6d4" y="171.0"/>
      </g>
     </g>
     <g id="line2d_19">
      <defs>
       <path d="
M0 0
L-4 0" id="mcb0005524f" style="stroke:#000000;stroke-width:0.5;"/>
      </defs>
      <g>
       <use style="stroke:#000000;stroke-width:0.5;" x="284.4" xlink:href="#mcb0005524f" y="171.0"/>
      </g>
     </g>
     <g id="text_7">
      <!-- 0 -->
      <g transform="translate(31.9671875 173.759375)scale(0.1 -0.1)">
       <use xlink:href="#BitstreamVeraSans-Roman-30"/>
      </g>
     </g>
    </g>
    <g id="ytick_2">
     <g id="line2d_20">
      <g>
       <use style="stroke:#000000;stroke-width:0.5;" x="41.00625" xlink:href="#m728421d6d4" y="41.3636363636"/>
      </g>
     </g>
     <g id="line2d_21">
      <g>
       <use style="stroke:#000000;stroke-width:0.5;" x="284.4" xlink:href="#mcb0005524f" y="41.3636363636"/>
      </g>
     </g>
     <g id="text_8">
      <!-- 2 -->
      <g transform="translate(32.378125 44.1230113636)scale(0.1 -0.1)">
       <use xlink:href="#BitstreamVeraSans-Roman-32"/>
      </g>
     </g>
    </g>
    <g id="text_9">
     <!-- concentration -->
     <defs>
      <path d="
M56.2031 29.5938
L56.2031 25.2031
L14.8906 25.2031
Q15.4844 15.9219 20.4844 11.0625
Q25.4844 6.20312 34.4219 6.20312
Q39.5938 6.20312 44.4531 7.46875
Q49.3125 8.73438 54.1094 11.2812
L54.1094 2.78125
Q49.2656 0.734375 44.1875 -0.34375
Q39.1094 -1.42188 33.8906 -1.42188
Q20.7969 -1.42188 13.1562 6.1875
Q5.51562 13.8125 5.51562 26.8125
Q5.51562 40.2344 12.7656 48.1094
Q20.0156 56 32.3281 56
Q43.3594 56 49.7812 48.8906
Q56.2031 41.7969 56.2031 29.5938
M47.2188 32.2344
Q47.125 39.5938 43.0938 43.9844
Q39.0625 48.3906 32.4219 48.3906
Q24.9062 48.3906 20.3906 44.1406
Q15.875 39.8906 15.1875 32.1719
z
" id="BitstreamVeraSans-Roman-65"/>
      <path d="
M34.2812 27.4844
Q23.3906 27.4844 19.1875 25
Q14.9844 22.5156 14.9844 16.5
Q14.9844 11.7188 18.1406 8.90625
Q21.2969 6.10938 26.7031 6.10938
Q34.1875 6.10938 38.7031 11.4062
Q43.2188 16.7031 43.2188 25.4844
L43.2188 27.4844
z

M52.2031 31.2031
L52.2031 0
L43.2188 0
L43.2188 8.29688
Q40.1406 3.32812 35.5469 0.953125
Q30.9531 -1.42188 24.3125 -1.42188
Q15.9219 -1.42188 10.9531 3.29688
Q6 8.01562 6 15.9219
Q6 25.1406 12.1719 29.8281
Q18.3594 34.5156 30.6094 34.5156
L43.2188 34.5156
L43.2188 35.4062
Q43.2188 41.6094 39.1406 45
Q35.0625 48.3906 27.6875 48.3906
Q23 48.3906 18.5469 47.2656
Q14.1094 46.1406 10.0156 43.8906
L10.0156 52.2031
Q14.9375 54.1094 19.5781 55.0469
Q24.2188 56 28.6094 56
Q40.4844 56 46.3438 49.8438
Q52.2031 43.7031 52.2031 31.2031" id="BitstreamVeraSans-Roman-61"/>
      <path d="
M41.1094 46.2969
Q39.5938 47.1719 37.8125 47.5781
Q36.0312 48 33.8906 48
Q26.2656 48 22.1875 43.0469
Q18.1094 38.0938 18.1094 28.8125
L18.1094 0
L9.07812 0
L9.07812 54.6875
L18.1094 54.6875
L18.1094 46.1875
Q20.9531 51.1719 25.4844 53.5781
Q30.0312 56 36.5312 56
Q37.4531 56 38.5781 55.875
Q39.7031 55.7656 41.0625 55.5156
z
" id="BitstreamVeraSans-Roman-72"/>
      <path d="
M48.7812 52.5938
L48.7812 44.1875
Q44.9688 46.2969 41.1406 47.3438
Q37.3125 48.3906 33.4062 48.3906
Q24.6562 48.3906 19.8125 42.8438
Q14.9844 37.3125 14.9844 27.2969
Q14.9844 17.2812 19.8125 11.7344
Q24.6562 6.20312 33.4062 6.20312
Q37.3125 6.20312 41.1406 7.25
Q44.9688 8.29688 48.7812 10.4062
L48.7812 2.09375
Q45.0156 0.34375 40.9844 -0.53125
Q36.9688 -1.42188 32.4219 -1.42188
Q20.0625 -1.42188 12.7812 6.34375
Q5.51562 14.1094 5.51562 27.2969
Q5.51562 40.6719 12.8594 48.3281
Q20.2188 56 33.0156 56
Q37.1562 56 41.1094 55.1406
Q45.0625 54.2969 48.7812 52.5938" id="BitstreamVeraSans-Roman-63"/>
     </defs>
     <g transform="translate(23.84765625 150.593359375)rotate(-90.0)scale(0.15 -0.15)">
      <use xlink:href="#BitstreamVeraSans-Roman-63"/>
      <use x="54.98046875" xlink:href="#BitstreamVeraSans-Roman-6f"/>
      <use x="116.162109375" xlink:href="#BitstreamVeraSans-Roman-6e"/>
      <use x="179.541015625" xlink:href="#BitstreamVeraSans-Roman-63"/>
      <use x="234.521484375" xlink:href="#BitstreamVeraSans-Roman-65"/>
      <use x="296.044921875" xlink:href="#BitstreamVeraSans-Roman-6e"/>
      <use x="359.423828125" xlink:href="#BitstreamVeraSans-Roman-74"/>
      <use x="398.6328125" xlink:href="#BitstreamVeraSans-Roman-72"/>
      <use x="439.74609375" xlink:href="#BitstreamVeraSans-Roman-61"/>
      <use x="501.025390625" xlink:href="#BitstreamVeraSans-Roman-74"/>
      <use x="540.234375" xlink:href="#BitstreamVeraSans-Roman-69"/>
      <use x="568.017578125" xlink:href="#BitstreamVeraSans-Roman-6f"/>
      <use x="629.19921875" xlink:href="#BitstreamVeraSans-Roman-6e"/>
     </g>
    </g>
   </g>
   <g id="text_10">
    <!-- k = 0.0 -->
    <defs>
     <path d="
M8.40625 75.9844
L25.875 75.9844
L25.875 34.625
L46 54.6875
L66.3125 54.6875
L39.5938 29.5938
L68.4062 0
L47.2188 0
L25.875 22.7969
L25.875 0
L8.40625 0
z
" id="BitstreamVeraSans-Bold-6b"/>
     <path d="
M10.5938 48.1875
L73.1875 48.1875
L73.1875 36.7188
L10.5938 36.7188
z

M10.5938 25.9844
L73.1875 25.9844
L73.1875 14.4062
L10.5938 14.4062
z
" id="BitstreamVeraSans-Bold-3d"/>
     <path d="
M10.2031 18.8906
L27.7812 18.8906
L27.7812 0
L10.2031 0
z
" id="BitstreamVeraSans-Bold-2e"/>
     <path d="
M46 36.5312
Q46 50.2031 43.4375 55.7812
Q40.875 61.375 34.8125 61.375
Q28.7656 61.375 26.1719 55.7812
Q23.5781 50.2031 23.5781 36.5312
Q23.5781 22.7031 26.1719 17.0312
Q28.7656 11.375 34.8125 11.375
Q40.8281 11.375 43.4062 17.0312
Q46 22.7031 46 36.5312
M64.7969 36.375
Q64.7969 18.2656 56.9844 8.42188
Q49.1719 -1.42188 34.8125 -1.42188
Q20.4062 -1.42188 12.5938 8.42188
Q4.78125 18.2656 4.78125 36.375
Q4.78125 54.5469 12.5938 64.375
Q20.4062 74.2188 34.8125 74.2188
Q49.1719 74.2188 56.9844 64.375
Q64.7969 54.5469 64.7969 36.375" id="BitstreamVeraSans-Bold-30"/>
     <path id="BitstreamVeraSans-Bold-20"/>
    </defs>
    <g transform="translate(133.28203125 23.4)scale(0.15 -0.15)">
     <use xlink:href="#BitstreamVeraSans-Bold-6b"/>
     <use x="66.50390625" xlink:href="#BitstreamVeraSans-Bold-20"/>
     <use x="101.318359375" xlink:href="#BitstreamVeraSans-Bold-3d"/>
     <use x="185.107421875" xlink:href="#BitstreamVeraSans-Bold-20"/>
     <use x="219.921875" xlink:href="#BitstreamVeraSans-Bold-30"/>
     <use x="289.501953125" xlink:href="#BitstreamVeraSans-Bold-2e"/>
     <use x="327.490234375" xlink:href="#BitstreamVeraSans-Bold-30"/>
    </g>
   </g>
  </g>
  <g id="axes_2">
   <g id="patch_7">
    <path d="
M325.406 171
L568.8 171
L568.8 28.4
L325.406 28.4
z
" style="fill:#ffffff;"/>
   </g>
   <g id="line2d_22">
    <path clip-path="url(#p145414460c)" d="
M324.897 171
L327.351 171
L329.806 171
L332.26 171
L334.714 171
L337.169 171
L339.623 171
L342.077 171
L344.531 171
L346.986 171
L349.44 171
L351.894 171
L354.349 171
L356.803 171
L359.257 171
L361.712 170.997
L364.166 170.987
L366.62 170.941
L369.075 170.758
L371.529 170.112
L373.983 168.112
L376.437 162.804
L378.892 151.002
L381.346 129.767
L383.8 100.408
L386.255 72.1432
L388.709 58.506
L391.163 66.2898
L393.618 90.0729
L396.072 118.143
L398.526 141.321
L400.981 156.452
L403.435 164.692
L405.889 168.553
L408.343 170.142
L410.798 170.726
L413.252 170.92
L415.706 170.978
L418.161 170.995
L420.615 170.999
L423.069 171
L425.524 171
L427.978 171
L430.432 171
L432.886 171
L435.341 171
L437.795 171
L440.249 171
L442.704 171
L445.158 171
L447.612 171
L450.067 171
L452.521 171
L454.975 171
L457.43 171
L459.884 171
L462.338 171
L464.792 171
L467.247 171
L469.701 171
L472.155 171
L474.61 171
L477.064 171
L479.518 171
L481.973 171
L484.427 171
L486.881 171
L489.336 171
L491.79 171
L494.244 171
L496.698 171
L499.153 171
L501.607 171
L504.061 171
L506.516 171
L508.97 171
L511.424 171
L513.879 171
L516.333 171
L518.787 171
L521.241 171
L523.696 171
L526.15 171
L528.604 171
L531.059 171
L533.513 171
L535.967 171
L538.422 171
L540.876 171
L543.33 171
L545.785 171
L548.239 171
L550.693 171
L553.147 171
L555.602 171
L558.056 171
L560.51 171
L562.965 171
L565.419 171
L567.873 171
L570.328 171" style="fill:none;stroke:#0000ff;stroke-linecap:square;stroke-width:2;"/>
   </g>
   <g id="line2d_23">
    <path clip-path="url(#p145414460c)" d="
M324.897 171
L327.351 171
L329.806 171
L332.26 171
L334.714 171
L337.169 171
L339.623 171
L342.077 170.999
L344.531 170.998
L346.986 170.995
L349.44 170.99
L351.894 170.978
L354.349 170.953
L356.803 170.905
L359.257 170.815
L361.712 170.65
L364.166 170.362
L366.62 169.88
L369.075 169.107
L371.529 167.919
L373.983 166.175
L376.437 163.731
L378.892 160.467
L381.346 156.324
L383.8 151.343
L386.255 145.69
L388.709 139.675
L391.163 133.731
L393.618 128.373
L396.072 124.12
L398.526 121.415
L400.981 120.547
L403.435 121.598
L405.889 124.431
L408.343 128.721
L410.798 134.014
L413.252 139.808
L415.706 145.627
L418.161 151.081
L420.615 155.899
L423.069 159.939
L425.524 163.167
L427.978 165.634
L430.432 167.442
L432.886 168.715
L435.341 169.578
L437.795 170.141
L440.249 170.497
L442.704 170.714
L445.158 170.842
L447.612 170.915
L450.067 170.956
L452.521 170.977
L454.975 170.989
L457.43 170.995
L459.884 170.997
L462.338 170.999
L464.792 170.999
L467.247 171
L469.701 171
L472.155 171
L474.61 171
L477.064 171
L479.518 171
L481.973 171
L484.427 171
L486.881 171
L489.336 171
L491.79 171
L494.244 171
L496.698 171
L499.153 171
L501.607 171
L504.061 171
L506.516 171
L508.97 171
L511.424 171
L513.879 171
L516.333 171
L518.787 171
L521.241 171
L523.696 171
L526.15 171
L528.604 171
L531.059 171
L533.513 171
L535.967 171
L538.422 171
L540.876 171
L543.33 171
L545.785 171
L548.239 171
L550.693 171
L553.147 171
L555.602 171
L558.056 171
L560.51 171
L562.965 171
L565.419 171
L567.873 171
L570.328 171" style="fill:none;stroke:#2a00d4;stroke-linecap:square;stroke-width:2;"/>
   </g>
   <g id="line2d_24">
    <path clip-path="url(#p145414460c)" d="
M324.897 171
L327.351 171
L329.806 171
L332.26 171
L334.714 170.999
L337.169 170.999
L339.623 170.997
L342.077 170.995
L344.531 170.991
L346.986 170.984
L349.44 170.971
L351.894 170.951
L354.349 170.917
L356.803 170.862
L359.257 170.777
L361.712 170.646
L364.166 170.451
L366.62 170.166
L369.075 169.76
L371.529 169.197
L373.983 168.434
L376.437 167.426
L378.892 166.13
L381.346 164.507
L383.8 162.531
L386.255 160.191
L388.709 157.503
L391.163 154.512
L393.618 151.293
L396.072 147.954
L398.526 144.629
L400.981 141.473
L403.435 138.649
L405.889 136.312
L408.343 134.599
L410.798 133.611
L413.252 133.408
L415.706 133.997
L418.161 135.339
L420.615 137.347
L423.069 139.898
L425.524 142.845
L427.978 146.033
L430.432 149.309
L432.886 152.533
L435.341 155.592
L437.795 158.398
L440.249 160.896
L442.704 163.056
L445.158 164.875
L447.612 166.367
L450.067 167.563
L452.521 168.497
L454.975 169.212
L457.43 169.746
L459.884 170.136
L462.338 170.416
L464.792 170.612
L467.247 170.747
L469.701 170.838
L472.155 170.898
L474.61 170.937
L477.064 170.962
L479.518 170.977
L481.973 170.986
L484.427 170.992
L486.881 170.996
L489.336 170.997
L491.79 170.999
L494.244 170.999
L496.698 171
L499.153 171
L501.607 171
L504.061 171
L506.516 171
L508.97 171
L511.424 171
L513.879 171
L516.333 171
L518.787 171
L521.241 171
L523.696 171
L526.15 171
L528.604 171
L531.059 171
L533.513 171
L535.967 171
L538.422 171
L540.876 171
L543.33 171
L545.785 171
L548.239 171
L550.693 171
L553.147 171
L555.602 171
L558.056 171
L560.51 171
L562.965 171
L565.419 171
L567.873 171
L570.328 171" style="fill:none;stroke:#5500aa;stroke-linecap:square;stroke-width:2;"/>
   </g>
   <g id="line2d_25">
    <path clip-path="url(#p145414460c)" d="
M324.897 171
L327.351 171
L329.806 171
L332.26 170.999
L334.714 170.999
L337.169 170.998
L339.623 170.996
L342.077 170.993
L344.531 170.989
L346.986 170.982
L349.44 170.971
L351.894 170.955
L354.349 170.93
L356.803 170.894
L359.257 170.84
L361.712 170.764
L364.166 170.656
L366.62 170.507
L369.075 170.303
L371.529 170.03
L373.983 169.669
L376.437 169.202
L378.892 168.607
L381.346 167.863
L383.8 166.949
L386.255 165.847
L388.709 164.544
L391.163 163.033
L393.618 161.316
L396.072 159.405
L398.526 157.324
L400.981 155.112
L403.435 152.817
L405.889 150.501
L408.343 148.234
L410.798 146.092
L413.252 144.153
L415.706 142.491
L418.161 141.173
L420.615 140.253
L423.069 139.77
L425.524 139.743
L427.978 140.172
L430.432 141.036
L432.886 142.298
L435.341 143.902
L437.795 145.784
L440.249 147.871
L442.704 150.087
L445.158 152.358
L447.612 154.616
L450.067 156.803
L452.521 158.87
L454.975 160.779
L457.43 162.507
L459.884 164.04
L462.338 165.373
L464.792 166.513
L467.247 167.471
L469.701 168.261
L472.155 168.903
L474.61 169.415
L477.064 169.818
L479.518 170.13
L481.973 170.368
L484.427 170.547
L486.881 170.679
L489.336 170.776
L491.79 170.845
L494.244 170.895
L496.698 170.929
L499.153 170.953
L501.607 170.969
L504.061 170.98
L506.516 170.987
L508.97 170.992
L511.424 170.995
L513.879 170.997
L516.333 170.998
L518.787 170.999
L521.241 170.999
L523.696 171
L526.15 171
L528.604 171
L531.059 171
L533.513 171
L535.967 171
L538.422 171
L540.876 171
L543.33 171
L545.785 171
L548.239 171
L550.693 171
L553.147 171
L555.602 171
L558.056 171
L560.51 171
L562.965 171
L565.419 171
L567.873 171
L570.328 171" style="fill:none;stroke:#800080;stroke-linecap:square;stroke-width:2;"/>
   </g>
   <g id="line2d_26">
    <path clip-path="url(#p145414460c)" d="
M324.897 171
L327.351 171
L329.806 170.999
L332.26 170.999
L334.714 170.998
L337.169 170.998
L339.623 170.996
L342.077 170.994
L344.531 170.991
L346.986 170.986
L349.44 170.979
L351.894 170.969
L354.349 170.954
L356.803 170.933
L359.257 170.904
L361.712 170.863
L364.166 170.807
L366.62 170.732
L369.075 170.631
L371.529 170.499
L373.983 170.326
L376.437 170.104
L378.892 169.823
L381.346 169.472
L383.8 169.038
L386.255 168.508
L388.709 167.873
L391.163 167.119
L393.618 166.239
L396.072 165.225
L398.526 164.074
L400.981 162.788
L403.435 161.374
L405.889 159.843
L408.343 158.215
L410.798 156.515
L413.252 154.774
L415.706 153.028
L418.161 151.318
L420.615 149.687
L423.069 148.179
L425.524 146.837
L427.978 145.702
L430.432 144.809
L432.886 144.185
L435.341 143.851
L437.795 143.816
L440.249 144.081
L442.704 144.637
L445.158 145.465
L447.612 146.536
L450.067 147.819
L452.521 149.273
L454.975 150.856
L457.43 152.526
L459.884 154.24
L462.338 155.957
L464.792 157.643
L467.247 159.267
L469.701 160.802
L472.155 162.23
L474.61 163.538
L477.064 164.717
L479.518 165.765
L481.973 166.683
L484.427 167.478
L486.881 168.155
L489.336 168.726
L491.79 169.201
L494.244 169.591
L496.698 169.908
L499.153 170.162
L501.607 170.364
L504.061 170.521
L506.516 170.644
L508.97 170.737
L511.424 170.808
L513.879 170.861
L516.333 170.901
L518.787 170.93
L521.241 170.951
L523.696 170.966
L526.15 170.976
L528.604 170.984
L531.059 170.989
L533.513 170.993
L535.967 170.995
L538.422 170.997
L540.876 170.998
L543.33 170.999
L545.785 170.999
L548.239 170.999
L550.693 171
L553.147 171
L555.602 171
L558.056 171
L560.51 171
L562.965 171
L565.419 171
L567.873 171
L570.328 171" style="fill:none;stroke:#aa0055;stroke-linecap:square;stroke-width:2;"/>
   </g>
   <g id="line2d_27">
    <path clip-path="url(#p145414460c)" d="
M324.897 171
L327.351 171
L329.806 170.999
L332.26 170.999
L334.714 170.999
L337.169 170.998
L339.623 170.997
L342.077 170.996
L344.531 170.994
L346.986 170.991
L349.44 170.986
L351.894 170.98
L354.349 170.972
L356.803 170.96
L359.257 170.943
L361.712 170.921
L364.166 170.891
L366.62 170.852
L369.075 170.799
L371.529 170.731
L373.983 170.643
L376.437 170.53
L378.892 170.387
L381.346 170.208
L383.8 169.986
L386.255 169.714
L388.709 169.384
L391.163 168.989
L393.618 168.519
L396.072 167.968
L398.526 167.328
L400.981 166.595
L403.435 165.763
L405.889 164.832
L408.343 163.802
L410.798 162.677
L413.252 161.464
L415.706 160.174
L418.161 158.823
L420.615 157.429
L423.069 156.012
L425.524 154.599
L427.978 153.216
L430.432 151.892
L432.886 150.656
L435.341 149.536
L437.795 148.559
L440.249 147.751
L442.704 147.13
L445.158 146.713
L447.612 146.511
L450.067 146.529
L452.521 146.766
L454.975 147.215
L457.43 147.863
L459.884 148.694
L462.338 149.686
L464.792 150.814
L467.247 152.051
L469.701 153.369
L472.155 154.739
L474.61 156.134
L477.064 157.528
L479.518 158.897
L481.973 160.222
L484.427 161.485
L486.881 162.672
L489.336 163.774
L491.79 164.784
L494.244 165.699
L496.698 166.517
L499.153 167.241
L501.607 167.875
L504.061 168.424
L506.516 168.895
L508.97 169.294
L511.424 169.629
L513.879 169.907
L516.333 170.136
L518.787 170.323
L521.241 170.473
L523.696 170.594
L526.15 170.689
L528.604 170.764
L531.059 170.823
L533.513 170.868
L535.967 170.902
L538.422 170.928
L540.876 170.948
L543.33 170.962
L545.785 170.973
L548.239 170.981
L550.693 170.986
L553.147 170.99
L555.602 170.993
L558.056 170.995
L560.51 170.997
L562.965 170.998
L565.419 170.999
L567.873 170.999
L570.328 170.999" style="fill:none;stroke:#d4002b;stroke-linecap:square;stroke-width:2;"/>
   </g>
   <g id="line2d_28">
    <path clip-path="url(#p145414460c)" d="
M324.897 171
L327.351 171
L329.806 171
L332.26 170.999
L334.714 170.999
L337.169 170.999
L339.623 170.998
L342.077 170.997
L344.531 170.996
L346.986 170.994
L349.44 170.991
L351.894 170.988
L354.349 170.983
L356.803 170.976
L359.257 170.967
L361.712 170.955
L364.166 170.939
L366.62 170.918
L369.075 170.891
L371.529 170.855
L373.983 170.809
L376.437 170.75
L378.892 170.676
L381.346 170.583
L383.8 170.467
L386.255 170.324
L388.709 170.15
L391.163 169.94
L393.618 169.688
L396.072 169.388
L398.526 169.035
L400.981 168.623
L403.435 168.147
L405.889 167.603
L408.343 166.986
L410.798 166.293
L413.252 165.524
L415.706 164.678
L418.161 163.757
L420.615 162.767
L423.069 161.714
L425.524 160.606
L427.978 159.455
L430.432 158.276
L432.886 157.084
L435.341 155.897
L437.795 154.734
L440.249 153.616
L442.704 152.562
L445.158 151.594
L447.612 150.731
L450.067 149.99
L452.521 149.387
L454.975 148.936
L457.43 148.646
L459.884 148.524
L462.338 148.571
L464.792 148.787
L467.247 149.166
L469.701 149.699
L472.155 150.376
L474.61 151.18
L477.064 152.094
L479.518 153.101
L481.973 154.18
L484.427 155.312
L486.881 156.475
L489.336 157.651
L491.79 158.823
L494.244 159.973
L496.698 161.088
L499.153 162.155
L501.607 163.165
L504.061 164.11
L506.516 164.985
L508.97 165.787
L511.424 166.515
L513.879 167.169
L516.333 167.751
L518.787 168.264
L521.241 168.713
L523.696 169.101
L526.15 169.435
L528.604 169.72
L531.059 169.96
L533.513 170.161
L535.967 170.327
L538.422 170.465
L540.876 170.577
L543.33 170.668
L545.785 170.742
L548.239 170.8
L550.693 170.846
L553.147 170.883
L555.602 170.911
L558.056 170.933
L560.51 170.95
L562.965 170.963
L565.419 170.973
L567.873 170.98
L570.328 170.985" style="fill:none;stroke:#ff0000;stroke-linecap:square;stroke-width:2;"/>
   </g>
   <g id="patch_8">
    <path d="
M325.406 28.4
L568.8 28.4" style="fill:none;stroke:#000000;stroke-linecap:square;stroke-linejoin:miter;"/>
   </g>
   <g id="patch_9">
    <path d="
M568.8 171
L568.8 28.4" style="fill:none;stroke:#000000;stroke-linecap:square;stroke-linejoin:miter;"/>
   </g>
   <g id="patch_10">
    <path d="
M325.406 171
L568.8 171" style="fill:none;stroke:#000000;stroke-linecap:square;stroke-linejoin:miter;"/>
   </g>
   <g id="patch_11">
    <path d="
M325.406 171
L325.406 28.4" style="fill:none;stroke:#000000;stroke-linecap:square;stroke-linejoin:miter;"/>
   </g>
   <g id="matplotlib.axis_3">
    <g id="xtick_6">
     <g id="line2d_29">
      <g>
       <use style="stroke:#000000;stroke-width:0.5;" x="337.5759375" xlink:href="#m93b0483c22" y="171.0"/>
      </g>
     </g>
     <g id="line2d_30">
      <g>
       <use style="stroke:#000000;stroke-width:0.5;" x="337.5759375" xlink:href="#m741efc42ff" y="28.4"/>
      </g>
     </g>
     <g id="text_11">
      <!-- −20 -->
      <g transform="translate(327.8853125 182.5984375)scale(0.1 -0.1)">
       <use xlink:href="#BitstreamVeraSans-Roman-2212"/>
       <use x="83.7890625" xlink:href="#BitstreamVeraSans-Roman-32"/>
       <use x="147.412109375" xlink:href="#BitstreamVeraSans-Roman-30"/>
      </g>
     </g>
    </g>
    <g id="xtick_7">
     <g id="line2d_31">
      <g>
       <use style="stroke:#000000;stroke-width:0.5;" x="386.2546875" xlink:href="#m93b0483c22" y="171.0"/>
      </g>
     </g>
     <g id="line2d_32">
      <g>
       <use style="stroke:#000000;stroke-width:0.5;" x="386.2546875" xlink:href="#m741efc42ff" y="28.4"/>
      </g>
     </g>
     <g id="text_12">
      <!-- 0 -->
      <g transform="translate(383.73515625 182.5984375)scale(0.1 -0.1)">
       <use xlink:href="#BitstreamVeraSans-Roman-30"/>
      </g>
     </g>
    </g>
    <g id="xtick_8">
     <g id="line2d_33">
      <g>
       <use style="stroke:#000000;stroke-width:0.5;" x="434.9334375" xlink:href="#m93b0483c22" y="171.0"/>
      </g>
     </g>
     <g id="line2d_34">
      <g>
       <use style="stroke:#000000;stroke-width:0.5;" x="434.9334375" xlink:href="#m741efc42ff" y="28.4"/>
      </g>
     </g>
     <g id="text_13">
      <!-- 20 -->
      <g transform="translate(429.269375 182.5984375)scale(0.1 -0.1)">
       <use xlink:href="#BitstreamVeraSans-Roman-32"/>
       <use x="63.623046875" xlink:href="#BitstreamVeraSans-Roman-30"/>
      </g>
     </g>
    </g>
    <g id="xtick_9">
     <g id="line2d_35">
      <g>
       <use style="stroke:#000000;stroke-width:0.5;" x="483.6121875" xlink:href="#m93b0483c22" y="171.0"/>
      </g>
     </g>
     <g id="line2d_36">
      <g>
       <use style="stroke:#000000;stroke-width:0.5;" x="483.6121875" xlink:href="#m741efc42ff" y="28.4"/>
      </g>
     </g>
     <g id="text_14">
      <!-- 40 -->
      <g transform="translate(477.82625 182.5984375)scale(0.1 -0.1)">
       <use xlink:href="#BitstreamVeraSans-Roman-34"/>
       <use x="63.623046875" xlink:href="#BitstreamVeraSans-Roman-30"/>
      </g>
     </g>
    </g>
    <g id="xtick_10">
     <g id="line2d_37">
      <g>
       <use style="stroke:#000000;stroke-width:0.5;" x="532.2909375" xlink:href="#m93b0483c22" y="171.0"/>
      </g>
     </g>
     <g id="line2d_38">
      <g>
       <use style="stroke:#000000;stroke-width:0.5;" x="532.2909375" xlink:href="#m741efc42ff" y="28.4"/>
      </g>
     </g>
     <g id="text_15">
      <!-- 60 -->
      <g transform="translate(526.6096875 182.5984375)scale(0.1 -0.1)">
       <use xlink:href="#BitstreamVeraSans-Roman-36"/>
       <use x="63.623046875" xlink:href="#BitstreamVeraSans-Roman-30"/>
      </g>
     </g>
    </g>
    <g id="text_16">
     <!-- position -->
     <g transform="translate(418.71328125 201.07578125)scale(0.15 -0.15)">
      <use xlink:href="#BitstreamVeraSans-Roman-70"/>
      <use x="63.4765625" xlink:href="#BitstreamVeraSans-Roman-6f"/>
      <use x="124.658203125" xlink:href="#BitstreamVeraSans-Roman-73"/>
      <use x="176.7578125" xlink:href="#BitstreamVeraSans-Roman-69"/>
      <use x="204.541015625" xlink:href="#BitstreamVeraSans-Roman-74"/>
      <use x="243.75" xlink:href="#BitstreamVeraSans-Roman-69"/>
      <use x="271.533203125" xlink:href="#BitstreamVeraSans-Roman-6f"/>
      <use x="332.71484375" xlink:href="#BitstreamVeraSans-Roman-6e"/>
     </g>
    </g>
   </g>
   <g id="matplotlib.axis_4">
    <g id="ytick_3">
     <g id="line2d_39">
      <g>
       <use style="stroke:#000000;stroke-width:0.5;" x="325.40625" xlink:href="#m728421d6d4" y="171.0"/>
      </g>
     </g>
     <g id="line2d_40">
      <g>
       <use style="stroke:#000000;stroke-width:0.5;" x="568.8" xlink:href="#mcb0005524f" y="171.0"/>
      </g>
     </g>
     <g id="text_17">
      <!-- 0 -->
      <g transform="translate(316.3671875 173.759375)scale(0.1 -0.1)">
       <use xlink:href="#BitstreamVeraSans-Roman-30"/>
      </g>
     </g>
    </g>
    <g id="ytick_4">
     <g id="line2d_41">
      <g>
       <use style="stroke:#000000;stroke-width:0.5;" x="325.40625" xlink:href="#m728421d6d4" y="41.3636363636"/>
      </g>
     </g>
     <g id="line2d_42">
      <g>
       <use style="stroke:#000000;stroke-width:0.5;" x="568.8" xlink:href="#mcb0005524f" y="41.3636363636"/>
      </g>
     </g>
     <g id="text_18">
      <!-- 2 -->
      <g transform="translate(316.778125 44.1230113636)scale(0.1 -0.1)">
       <use xlink:href="#BitstreamVeraSans-Roman-32"/>
      </g>
     </g>
    </g>
    <g id="text_19">
     <!-- concentration -->
     <g transform="translate(308.24765625 150.593359375)rotate(-90.0)scale(0.15 -0.15)">
      <use xlink:href="#BitstreamVeraSans-Roman-63"/>
      <use x="54.98046875" xlink:href="#BitstreamVeraSans-Roman-6f"/>
      <use x="116.162109375" xlink:href="#BitstreamVeraSans-Roman-6e"/>
      <use x="179.541015625" xlink:href="#BitstreamVeraSans-Roman-63"/>
      <use x="234.521484375" xlink:href="#BitstreamVeraSans-Roman-65"/>
      <use x="296.044921875" xlink:href="#BitstreamVeraSans-Roman-6e"/>
      <use x="359.423828125" xlink:href="#BitstreamVeraSans-Roman-74"/>
      <use x="398.6328125" xlink:href="#BitstreamVeraSans-Roman-72"/>
      <use x="439.74609375" xlink:href="#BitstreamVeraSans-Roman-61"/>
      <use x="501.025390625" xlink:href="#BitstreamVeraSans-Roman-74"/>
      <use x="540.234375" xlink:href="#BitstreamVeraSans-Roman-69"/>
      <use x="568.017578125" xlink:href="#BitstreamVeraSans-Roman-6f"/>
      <use x="629.19921875" xlink:href="#BitstreamVeraSans-Roman-6e"/>
     </g>
    </g>
   </g>
   <g id="text_20">
    <!-- k = 0.3 -->
    <defs>
     <path d="
M46.5781 39.3125
Q53.9531 37.4062 57.7812 32.6875
Q61.625 27.9844 61.625 20.7031
Q61.625 9.85938 53.3125 4.21875
Q45.0156 -1.42188 29.1094 -1.42188
Q23.4844 -1.42188 17.8438 -0.515625
Q12.2031 0.390625 6.6875 2.20312
L6.6875 16.7031
Q11.9688 14.0625 17.1562 12.7188
Q22.3594 11.375 27.3906 11.375
Q34.8594 11.375 38.8438 13.9531
Q42.8281 16.5469 42.8281 21.3906
Q42.8281 26.375 38.75 28.9375
Q34.6719 31.5 26.7031 31.5
L19.1875 31.5
L19.1875 43.6094
L27.0938 43.6094
Q34.1875 43.6094 37.6406 45.8281
Q41.1094 48.0469 41.1094 52.5938
Q41.1094 56.7812 37.7344 59.0781
Q34.375 61.375 28.2188 61.375
Q23.6875 61.375 19.0469 60.3438
Q14.4062 59.3281 9.8125 57.3281
L9.8125 71.0938
Q15.375 72.6562 20.8438 73.4375
Q26.3125 74.2188 31.5938 74.2188
Q45.7969 74.2188 52.8438 69.5469
Q59.9062 64.8906 59.9062 55.5156
Q59.9062 49.125 56.5312 45.0469
Q53.1719 40.9688 46.5781 39.3125" id="BitstreamVeraSans-Bold-33"/>
    </defs>
    <g transform="translate(417.919921875 23.4)scale(0.15 -0.15)">
     <use xlink:href="#BitstreamVeraSans-Bold-6b"/>
     <use x="66.50390625" xlink:href="#BitstreamVeraSans-Bold-20"/>
     <use x="101.318359375" xlink:href="#BitstreamVeraSans-Bold-3d"/>
     <use x="185.107421875" xlink:href="#BitstreamVeraSans-Bold-20"/>
     <use x="219.921875" xlink:href="#BitstreamVeraSans-Bold-30"/>
     <use x="289.501953125" xlink:href="#BitstreamVeraSans-Bold-2e"/>
     <use x="327.490234375" xlink:href="#BitstreamVeraSans-Bold-33"/>
    </g>
   </g>
  </g>
  <g id="axes_3">
   <g id="patch_12">
    <path d="
M609.806 171
L853.2 171
L853.2 28.4
L609.806 28.4
z
" style="fill:#ffffff;"/>
   </g>
   <g id="line2d_43">
    <path clip-path="url(#p392b408d26)" d="
M609.297 171
L611.751 171
L614.206 171
L616.66 171
L619.114 171
L621.569 171
L624.023 171
L626.477 171
L628.931 171
L631.386 171
L633.84 171
L636.294 171
L638.749 171
L641.203 170.999
L643.657 170.997
L646.112 170.987
L648.566 170.949
L651.02 170.812
L653.475 170.374
L655.929 169.118
L658.383 165.94
L660.837 158.964
L663.292 145.942
L665.746 125.839
L668.2 101.277
L670.655 79.5087
L673.109 69.2704
L675.563 74.8601
L678.018 93.1676
L680.472 116.456
L682.926 137.542
L685.381 152.839
L687.835 162.19
L690.289 167.145
L692.743 169.467
L695.198 170.442
L697.652 170.813
L700.106 170.942
L702.561 170.983
L705.015 170.995
L707.469 170.999
L709.924 171
L712.378 171
L714.832 171
L717.286 171
L719.741 171
L722.195 171
L724.649 171
L727.104 171
L729.558 171
L732.012 171
L734.467 171
L736.921 171
L739.375 171
L741.83 171
L744.284 171
L746.738 171
L749.192 171
L751.647 171
L754.101 171
L756.555 171
L759.01 171
L761.464 171
L763.918 171
L766.373 171
L768.827 171
L771.281 171
L773.736 171
L776.19 171
L778.644 171
L781.098 171
L783.553 171
L786.007 171
L788.461 171
L790.916 171
L793.37 171
L795.824 171
L798.279 171
L800.733 171
L803.187 171
L805.641 171
L808.096 171
L810.55 171
L813.004 171
L815.459 171
L817.913 171
L820.367 171
L822.822 171
L825.276 171
L827.73 171
L830.185 171
L832.639 171
L835.093 171
L837.547 171
L840.002 171
L842.456 171
L844.91 171
L847.365 171
L849.819 171
L852.273 171
L854.728 171" style="fill:none;stroke:#0000ff;stroke-linecap:square;stroke-width:2;"/>
   </g>
   <g id="line2d_44">
    <path clip-path="url(#p392b408d26)" d="
M609.297 171
L611.751 171
L614.206 171
L616.66 171
L619.114 170.999
L621.569 170.999
L624.023 170.997
L626.477 170.995
L628.931 170.989
L631.386 170.977
L633.84 170.956
L636.294 170.916
L638.749 170.846
L641.203 170.724
L643.657 170.521
L646.112 170.194
L648.566 169.685
L651.02 168.919
L653.475 167.808
L655.929 166.255
L658.383 164.165
L660.837 161.463
L663.292 158.11
L665.746 154.127
L668.2 149.612
L670.655 144.746
L673.109 139.794
L675.563 135.081
L678.018 130.964
L680.472 127.78
L682.926 125.809
L685.381 125.224
L687.835 126.072
L690.289 128.266
L692.743 131.598
L695.198 135.774
L697.652 140.455
L700.106 145.304
L702.561 150.02
L705.015 154.37
L707.469 158.198
L709.924 161.425
L712.378 164.039
L714.832 166.08
L717.286 167.618
L719.741 168.737
L722.195 169.527
L724.649 170.066
L727.104 170.423
L729.558 170.652
L732.012 170.796
L734.467 170.883
L736.921 170.935
L739.375 170.964
L741.83 170.981
L744.284 170.99
L746.738 170.995
L749.192 170.997
L751.647 170.999
L754.101 170.999
L756.555 171
L759.01 171
L761.464 171
L763.918 171
L766.373 171
L768.827 171
L771.281 171
L773.736 171
L776.19 171
L778.644 171
L781.098 171
L783.553 171
L786.007 171
L788.461 171
L790.916 171
L793.37 171
L795.824 171
L798.279 171
L800.733 171
L803.187 171
L805.641 171
L808.096 171
L810.55 171
L813.004 171
L815.459 171
L817.913 171
L820.367 171
L822.822 171
L825.276 171
L827.73 171
L830.185 171
L832.639 171
L835.093 171
L837.547 171
L840.002 171
L842.456 171
L844.91 171
L847.365 171
L849.819 171
L852.273 171
L854.728 171" style="fill:none;stroke:#2a00d4;stroke-linecap:square;stroke-width:2;"/>
   </g>
   <g id="line2d_45">
    <path clip-path="url(#p392b408d26)" d="
M609.297 171
L611.751 170.999
L614.206 170.998
L616.66 170.997
L619.114 170.995
L621.569 170.992
L624.023 170.986
L626.477 170.976
L628.931 170.961
L631.386 170.937
L633.84 170.9
L636.294 170.844
L638.749 170.76
L641.203 170.639
L643.657 170.465
L646.112 170.222
L648.566 169.888
L651.02 169.437
L653.475 168.843
L655.929 168.076
L658.383 167.104
L660.837 165.902
L663.292 164.445
L665.746 162.722
L668.2 160.73
L670.655 158.483
L673.109 156.015
L675.563 153.378
L678.018 150.641
L680.472 147.895
L682.926 145.241
L685.381 142.788
L687.835 140.644
L690.289 138.909
L692.743 137.669
L695.198 136.984
L697.652 136.89
L700.106 137.388
L702.561 138.451
L705.015 140.023
L707.469 142.024
L709.924 144.359
L712.378 146.921
L714.832 149.605
L717.286 152.309
L719.741 154.945
L722.195 157.438
L724.649 159.733
L727.104 161.794
L729.558 163.601
L732.012 165.149
L734.467 166.449
L736.921 167.516
L739.375 168.375
L741.83 169.054
L744.284 169.58
L746.738 169.98
L749.192 170.278
L751.647 170.497
L754.101 170.655
L756.555 170.767
L759.01 170.845
L761.464 170.898
L763.918 170.934
L766.373 170.958
L768.827 170.974
L771.281 170.984
L773.736 170.99
L776.19 170.994
L778.644 170.996
L781.098 170.998
L783.553 170.999
L786.007 170.999
L788.461 171
L790.916 171
L793.37 171
L795.824 171
L798.279 171
L800.733 171
L803.187 171
L805.641 171
L808.096 171
L810.55 171
L813.004 171
L815.459 171
L817.913 171
L820.367 171
L822.822 171
L825.276 171
L827.73 171
L830.185 171
L832.639 171
L835.093 171
L837.547 171
L840.002 171
L842.456 171
L844.91 171
L847.365 171
L849.819 171
L852.273 171
L854.728 171" style="fill:none;stroke:#5500aa;stroke-linecap:square;stroke-width:2;"/>
   </g>
   <g id="line2d_46">
    <path clip-path="url(#p392b408d26)" d="
M609.297 170.999
L611.751 170.998
L614.206 170.997
L616.66 170.995
L619.114 170.992
L621.569 170.987
L624.023 170.98
L626.477 170.97
L628.931 170.955
L631.386 170.933
L633.84 170.902
L636.294 170.858
L638.749 170.798
L641.203 170.715
L643.657 170.604
L646.112 170.456
L648.566 170.261
L651.02 170.009
L653.475 169.688
L655.929 169.283
L658.383 168.78
L660.837 168.166
L663.292 167.425
L665.746 166.547
L668.2 165.521
L670.655 164.341
L673.109 163.006
L675.563 161.521
L678.018 159.897
L680.472 158.155
L682.926 156.322
L685.381 154.432
L687.835 152.527
L690.289 150.655
L692.743 148.867
L695.198 147.214
L697.652 145.749
L700.106 144.519
L702.561 143.567
L705.015 142.923
L707.469 142.612
L709.924 142.643
L712.378 143.014
L714.832 143.712
L717.286 144.711
L719.741 145.975
L722.195 147.462
L724.649 149.123
L727.104 150.908
L729.558 152.764
L732.012 154.643
L734.467 156.501
L736.921 158.297
L739.375 160
L741.83 161.585
L744.284 163.035
L746.738 164.339
L749.192 165.493
L751.647 166.499
L754.101 167.363
L756.555 168.094
L759.01 168.705
L761.464 169.207
L763.918 169.615
L766.373 169.942
L768.827 170.201
L771.281 170.403
L773.736 170.559
L776.19 170.678
L778.644 170.767
L781.098 170.833
L783.553 170.882
L786.007 170.917
L788.461 170.943
L790.916 170.961
L793.37 170.973
L795.824 170.982
L798.279 170.988
L800.733 170.992
L803.187 170.995
L805.641 170.997
L808.096 170.998
L810.55 170.999
L813.004 170.999
L815.459 170.999
L817.913 171
L820.367 171
L822.822 171
L825.276 171
L827.73 171
L830.185 171
L832.639 171
L835.093 171
L837.547 171
L840.002 171
L842.456 171
L844.91 171
L847.365 171
L849.819 171
L852.273 171
L854.728 171" style="fill:none;stroke:#800080;stroke-linecap:square;stroke-width:2;"/>
   </g>
   <g id="line2d_47">
    <path clip-path="url(#p392b408d26)" d="
M609.297 170.998
L611.751 170.997
L614.206 170.996
L616.66 170.994
L619.114 170.991
L621.569 170.987
L624.023 170.981
L626.477 170.973
L628.931 170.962
L631.386 170.946
L633.84 170.925
L636.294 170.897
L638.749 170.859
L641.203 170.808
L643.657 170.742
L646.112 170.657
L648.566 170.547
L651.02 170.408
L653.475 170.233
L655.929 170.016
L658.383 169.749
L660.837 169.424
L663.292 169.033
L665.746 168.569
L668.2 168.022
L670.655 167.386
L673.109 166.655
L675.563 165.824
L678.018 164.892
L680.472 163.858
L682.926 162.727
L685.381 161.506
L687.835 160.205
L690.289 158.839
L692.743 157.427
L695.198 155.991
L697.652 154.557
L700.106 153.151
L702.561 151.803
L705.015 150.544
L707.469 149.403
L709.924 148.407
L712.378 147.581
L714.832 146.948
L717.286 146.523
L719.741 146.318
L722.195 146.338
L724.649 146.583
L727.104 147.044
L729.558 147.709
L732.012 148.561
L734.467 149.576
L736.921 150.73
L739.375 151.994
L741.83 153.339
L744.284 154.736
L746.738 156.155
L749.192 157.572
L751.647 158.961
L754.101 160.302
L756.555 161.577
L759.01 162.774
L761.464 163.882
L763.918 164.894
L766.373 165.808
L768.827 166.624
L771.281 167.344
L773.736 167.971
L776.19 168.513
L778.644 168.975
L781.098 169.366
L783.553 169.692
L786.007 169.962
L788.461 170.184
L790.916 170.363
L793.37 170.507
L795.824 170.622
L798.279 170.713
L800.733 170.783
L803.187 170.838
L805.641 170.88
L808.096 170.912
L810.55 170.935
L813.004 170.953
L815.459 170.966
L817.913 170.976
L820.367 170.983
L822.822 170.988
L825.276 170.992
L827.73 170.994
L830.185 170.996
L832.639 170.997
L835.093 170.998
L837.547 170.999
L840.002 170.999
L842.456 170.999
L844.91 171
L847.365 171
L849.819 171
L852.273 171
L854.728 171" style="fill:none;stroke:#aa0055;stroke-linecap:square;stroke-width:2;"/>
   </g>
   <g id="line2d_48">
    <path clip-path="url(#p392b408d26)" d="
M609.297 170.998
L611.751 170.997
L614.206 170.996
L616.66 170.995
L619.114 170.993
L621.569 170.989
L624.023 170.985
L626.477 170.98
L628.931 170.972
L631.386 170.961
L633.84 170.948
L636.294 170.929
L638.749 170.906
L641.203 170.875
L643.657 170.835
L646.112 170.784
L648.566 170.72
L651.02 170.639
L653.475 170.539
L655.929 170.415
L658.383 170.263
L660.837 170.08
L663.292 169.858
L665.746 169.595
L668.2 169.283
L670.655 168.919
L673.109 168.495
L675.563 168.009
L678.018 167.454
L680.472 166.829
L682.926 166.13
L685.381 165.356
L687.835 164.51
L690.289 163.592
L692.743 162.607
L695.198 161.564
L697.652 160.47
L700.106 159.337
L702.561 158.18
L705.015 157.013
L707.469 155.854
L709.924 154.721
L712.378 153.635
L714.832 152.614
L717.286 151.679
L719.741 150.847
L722.195 150.136
L724.649 149.56
L727.104 149.131
L729.558 148.859
L732.012 148.75
L734.467 148.806
L736.921 149.025
L739.375 149.402
L741.83 149.929
L744.284 150.594
L746.738 151.383
L749.192 152.28
L751.647 153.266
L754.101 154.323
L756.555 155.432
L759.01 156.572
L761.464 157.726
L763.918 158.876
L766.373 160.006
L768.827 161.103
L771.281 162.155
L773.736 163.152
L776.19 164.086
L778.644 164.953
L781.098 165.748
L783.553 166.472
L786.007 167.124
L788.461 167.705
L790.916 168.219
L793.37 168.669
L795.824 169.06
L798.279 169.397
L800.733 169.685
L803.187 169.928
L805.641 170.133
L808.096 170.303
L810.55 170.444
L813.004 170.559
L815.459 170.653
L817.913 170.729
L820.367 170.79
L822.822 170.838
L825.276 170.876
L827.73 170.906
L830.185 170.929
L832.639 170.946
L835.093 170.96
L837.547 170.97
L840.002 170.978
L842.456 170.984
L844.91 170.989
L847.365 170.992
L849.819 170.994
L852.273 170.996
L854.728 170.997" style="fill:none;stroke:#d4002b;stroke-linecap:square;stroke-width:2;"/>
   </g>
   <g id="line2d_49">
    <path clip-path="url(#p392b408d26)" d="
M609.297 170.999
L611.751 170.998
L614.206 170.997
L616.66 170.996
L619.114 170.994
L621.569 170.992
L624.023 170.989
L626.477 170.985
L628.931 170.98
L631.386 170.974
L633.84 170.965
L636.294 170.953
L638.749 170.939
L641.203 170.92
L643.657 170.896
L646.112 170.866
L648.566 170.828
L651.02 170.78
L653.475 170.722
L655.929 170.649
L658.383 170.562
L660.837 170.455
L663.292 170.327
L665.746 170.174
L668.2 169.993
L670.655 169.779
L673.109 169.53
L675.563 169.242
L678.018 168.909
L680.472 168.53
L682.926 168.101
L685.381 167.618
L687.835 167.08
L690.289 166.486
L692.743 165.834
L695.198 165.125
L697.652 164.361
L700.106 163.545
L702.561 162.682
L705.015 161.777
L707.469 160.839
L709.924 159.875
L712.378 158.897
L714.832 157.916
L717.286 156.944
L719.741 155.995
L722.195 155.083
L724.649 154.221
L727.104 153.423
L729.558 152.703
L732.012 152.072
L734.467 151.542
L736.921 151.123
L739.375 150.821
L741.83 150.642
L744.284 150.589
L746.738 150.664
L749.192 150.864
L751.647 151.186
L754.101 151.623
L756.555 152.168
L759.01 152.811
L761.464 153.541
L763.918 154.344
L766.373 155.209
L768.827 156.12
L771.281 157.065
L773.736 158.03
L776.19 159.002
L778.644 159.969
L781.098 160.919
L783.553 161.844
L786.007 162.735
L788.461 163.584
L790.916 164.386
L793.37 165.137
L795.824 165.835
L798.279 166.476
L800.733 167.062
L803.187 167.593
L805.641 168.069
L808.096 168.494
L810.55 168.87
L813.004 169.201
L815.459 169.489
L817.913 169.739
L820.367 169.953
L822.822 170.137
L825.276 170.292
L827.73 170.423
L830.185 170.532
L832.639 170.623
L835.093 170.698
L837.547 170.759
L840.002 170.81
L842.456 170.85
L844.91 170.883
L847.365 170.909
L849.819 170.929
L852.273 170.946
L854.728 170.958" style="fill:none;stroke:#ff0000;stroke-linecap:square;stroke-width:2;"/>
   </g>
   <g id="patch_13">
    <path d="
M609.806 28.4
L853.2 28.4" style="fill:none;stroke:#000000;stroke-linecap:square;stroke-linejoin:miter;"/>
   </g>
   <g id="patch_14">
    <path d="
M853.2 171
L853.2 28.4" style="fill:none;stroke:#000000;stroke-linecap:square;stroke-linejoin:miter;"/>
   </g>
   <g id="patch_15">
    <path d="
M609.806 171
L853.2 171" style="fill:none;stroke:#000000;stroke-linecap:square;stroke-linejoin:miter;"/>
   </g>
   <g id="patch_16">
    <path d="
M609.806 171
L609.806 28.4" style="fill:none;stroke:#000000;stroke-linecap:square;stroke-linejoin:miter;"/>
   </g>
   <g id="matplotlib.axis_5">
    <g id="xtick_11">
     <g id="line2d_50">
      <g>
       <use style="stroke:#000000;stroke-width:0.5;" x="621.9759375" xlink:href="#m93b0483c22" y="171.0"/>
      </g>
     </g>
     <g id="line2d_51">
      <g>
       <use style="stroke:#000000;stroke-width:0.5;" x="621.9759375" xlink:href="#m741efc42ff" y="28.4"/>
      </g>
     </g>
     <g id="text_21">
      <!-- −20 -->
      <g transform="translate(612.2853125 182.5984375)scale(0.1 -0.1)">
       <use xlink:href="#BitstreamVeraSans-Roman-2212"/>
       <use x="83.7890625" xlink:href="#BitstreamVeraSans-Roman-32"/>
       <use x="147.412109375" xlink:href="#BitstreamVeraSans-Roman-30"/>
      </g>
     </g>
    </g>
    <g id="xtick_12">
     <g id="line2d_52">
      <g>
       <use style="stroke:#000000;stroke-width:0.5;" x="670.6546875" xlink:href="#m93b0483c22" y="171.0"/>
      </g>
     </g>
     <g id="line2d_53">
      <g>
       <use style="stroke:#000000;stroke-width:0.5;" x="670.6546875" xlink:href="#m741efc42ff" y="28.4"/>
      </g>
     </g>
     <g id="text_22">
      <!-- 0 -->
      <g transform="translate(668.13515625 182.5984375)scale(0.1 -0.1)">
       <use xlink:href="#BitstreamVeraSans-Roman-30"/>
      </g>
     </g>
    </g>
    <g id="xtick_13">
     <g id="line2d_54">
      <g>
       <use style="stroke:#000000;stroke-width:0.5;" x="719.3334375" xlink:href="#m93b0483c22" y="171.0"/>
      </g>
     </g>
     <g id="line2d_55">
      <g>
       <use style="stroke:#000000;stroke-width:0.5;" x="719.3334375" xlink:href="#m741efc42ff" y="28.4"/>
      </g>
     </g>
     <g id="text_23">
      <!-- 20 -->
      <g transform="translate(713.669375 182.5984375)scale(0.1 -0.1)">
       <use xlink:href="#BitstreamVeraSans-Roman-32"/>
       <use x="63.623046875" xlink:href="#BitstreamVeraSans-Roman-30"/>
      </g>
     </g>
    </g>
    <g id="xtick_14">
     <g id="line2d_56">
      <g>
       <use style="stroke:#000000;stroke-width:0.5;" x="768.0121875" xlink:href="#m93b0483c22" y="171.0"/>
      </g>
     </g>
     <g id="line2d_57">
      <g>
       <use style="stroke:#000000;stroke-width:0.5;" x="768.0121875" xlink:href="#m741efc42ff" y="28.4"/>
      </g>
     </g>
     <g id="text_24">
      <!-- 40 -->
      <g transform="translate(762.22625 182.5984375)scale(0.1 -0.1)">
       <use xlink:href="#BitstreamVeraSans-Roman-34"/>
       <use x="63.623046875" xlink:href="#BitstreamVeraSans-Roman-30"/>
      </g>
     </g>
    </g>
    <g id="xtick_15">
     <g id="line2d_58">
      <g>
       <use style="stroke:#000000;stroke-width:0.5;" x="816.6909375" xlink:href="#m93b0483c22" y="171.0"/>
      </g>
     </g>
     <g id="line2d_59">
      <g>
       <use style="stroke:#000000;stroke-width:0.5;" x="816.6909375" xlink:href="#m741efc42ff" y="28.4"/>
      </g>
     </g>
     <g id="text_25">
      <!-- 60 -->
      <g transform="translate(811.0096875 182.5984375)scale(0.1 -0.1)">
       <use xlink:href="#BitstreamVeraSans-Roman-36"/>
       <use x="63.623046875" xlink:href="#BitstreamVeraSans-Roman-30"/>
      </g>
     </g>
    </g>
    <g id="text_26">
     <!-- position -->
     <g transform="translate(703.11328125 201.07578125)scale(0.15 -0.15)">
      <use xlink:href="#BitstreamVeraSans-Roman-70"/>
      <use x="63.4765625" xlink:href="#BitstreamVeraSans-Roman-6f"/>
      <use x="124.658203125" xlink:href="#BitstreamVeraSans-Roman-73"/>
      <use x="176.7578125" xlink:href="#BitstreamVeraSans-Roman-69"/>
      <use x="204.541015625" xlink:href="#BitstreamVeraSans-Roman-74"/>
      <use x="243.75" xlink:href="#BitstreamVeraSans-Roman-69"/>
      <use x="271.533203125" xlink:href="#BitstreamVeraSans-Roman-6f"/>
      <use x="332.71484375" xlink:href="#BitstreamVeraSans-Roman-6e"/>
     </g>
    </g>
   </g>
   <g id="matplotlib.axis_6">
    <g id="ytick_5">
     <g id="line2d_60">
      <g>
       <use style="stroke:#000000;stroke-width:0.5;" x="609.80625" xlink:href="#m728421d6d4" y="171.0"/>
      </g>
     </g>
     <g id="line2d_61">
      <g>
       <use style="stroke:#000000;stroke-width:0.5;" x="853.2" xlink:href="#mcb0005524f" y="171.0"/>
      </g>
     </g>
     <g id="text_27">
      <!-- 0 -->
      <g transform="translate(600.7671875 173.759375)scale(0.1 -0.1)">
       <use xlink:href="#BitstreamVeraSans-Roman-30"/>
      </g>
     </g>
    </g>
    <g id="ytick_6">
     <g id="line2d_62">
      <g>
       <use style="stroke:#000000;stroke-width:0.5;" x="609.80625" xlink:href="#m728421d6d4" y="41.3636363636"/>
      </g>
     </g>
     <g id="line2d_63">
      <g>
       <use style="stroke:#000000;stroke-width:0.5;" x="853.2" xlink:href="#mcb0005524f" y="41.3636363636"/>
      </g>
     </g>
     <g id="text_28">
      <!-- 2 -->
      <g transform="translate(601.178125 44.1230113636)scale(0.1 -0.1)">
       <use xlink:href="#BitstreamVeraSans-Roman-32"/>
      </g>
     </g>
    </g>
    <g id="text_29">
     <!-- concentration -->
     <g transform="translate(592.64765625 150.593359375)rotate(-90.0)scale(0.15 -0.15)">
      <use xlink:href="#BitstreamVeraSans-Roman-63"/>
      <use x="54.98046875" xlink:href="#BitstreamVeraSans-Roman-6f"/>
      <use x="116.162109375" xlink:href="#BitstreamVeraSans-Roman-6e"/>
      <use x="179.541015625" xlink:href="#BitstreamVeraSans-Roman-63"/>
      <use x="234.521484375" xlink:href="#BitstreamVeraSans-Roman-65"/>
      <use x="296.044921875" xlink:href="#BitstreamVeraSans-Roman-6e"/>
      <use x="359.423828125" xlink:href="#BitstreamVeraSans-Roman-74"/>
      <use x="398.6328125" xlink:href="#BitstreamVeraSans-Roman-72"/>
      <use x="439.74609375" xlink:href="#BitstreamVeraSans-Roman-61"/>
      <use x="501.025390625" xlink:href="#BitstreamVeraSans-Roman-74"/>
      <use x="540.234375" xlink:href="#BitstreamVeraSans-Roman-69"/>
      <use x="568.017578125" xlink:href="#BitstreamVeraSans-Roman-6f"/>
      <use x="629.19921875" xlink:href="#BitstreamVeraSans-Roman-6e"/>
     </g>
    </g>
   </g>
   <g id="text_30">
    <!-- k = 0.4 -->
    <defs>
     <path d="
M36.8125 57.4219
L16.2188 26.9062
L36.8125 26.9062
z

M33.6875 72.9062
L54.5938 72.9062
L54.5938 26.9062
L64.9844 26.9062
L64.9844 13.2812
L54.5938 13.2812
L54.5938 0
L36.8125 0
L36.8125 13.2812
L4.5 13.2812
L4.5 29.3906
z
" id="BitstreamVeraSans-Bold-34"/>
    </defs>
    <g transform="translate(702.06796875 23.4)scale(0.15 -0.15)">
     <use xlink:href="#BitstreamVeraSans-Bold-6b"/>
     <use x="66.50390625" xlink:href="#BitstreamVeraSans-Bold-20"/>
     <use x="101.318359375" xlink:href="#BitstreamVeraSans-Bold-3d"/>
     <use x="185.107421875" xlink:href="#BitstreamVeraSans-Bold-20"/>
     <use x="219.921875" xlink:href="#BitstreamVeraSans-Bold-30"/>
     <use x="289.501953125" xlink:href="#BitstreamVeraSans-Bold-2e"/>
     <use x="327.490234375" xlink:href="#BitstreamVeraSans-Bold-34"/>
    </g>
   </g>
  </g>
 </g>
 <defs>
  <clipPath id="p392b408d26">
   <rect height="142.6" width="243.39375" x="609.80625" y="28.4"/>
  </clipPath>
  <clipPath id="p08db764a31">
   <rect height="142.6" width="243.39375" x="41.00625" y="28.4"/>
  </clipPath>
  <clipPath id="p145414460c">
   <rect height="142.6" width="243.39375" x="325.40625" y="28.4"/>
  </clipPath>
 </defs>
</svg>
