<?xml version="1.0" encoding="utf-8" standalone="no"?>
<!DOCTYPE svg PUBLIC "-//W3C//DTD SVG 1.1//EN"
  "http://www.w3.org/Graphics/SVG/1.1/DTD/svg11.dtd">
<!-- Created with matplotlib (http://matplotlib.org/) -->
<svg height="216pt" version="1.1" viewBox="0 0 864 216" width="864pt" xmlns="http://www.w3.org/2000/svg" xmlns:xlink="http://www.w3.org/1999/xlink">
 <defs>
  <style type="text/css">
*{stroke-linecap:butt;stroke-linejoin:round;stroke-miterlimit:100000;}
  </style>
 </defs>
 <g id="figure_1">
  <g id="patch_1">
   <path d="M 0 216 
L 864 216 
L 864 0 
L 0 0 
z
" style="fill:#ffffff;"/>
  </g>
  <g id="axes_1">
   <g id="patch_2">
    <path d="M 42.4125 171 
L 284.4 171 
L 284.4 28.4 
L 42.4125 28.4 
z
" style="fill:#ffffff;"/>
   </g>
   <g id="line2d_1">
    <path clip-path="url(#p4cebe82c12)" d="M -1 171 
L 90.70875 171 
L 93.148875 169.055586 
L 95.589 166.463034 
L 98.029125 145.722617 
L 100.46925 99.704817 
L 102.909375 66.001639 
L 105.3495 40.724256 
L 107.789625 23.224529 
L 110.22975 60.168397 
L 112.669875 133.407994 
L 115.11 157.389101 
L 117.550125 171 
L 393.28425 171 
L 393.28425 171 
" style="fill:none;stroke:#0000ff;stroke-linecap:square;stroke-width:2.0;"/>
   </g>
   <g id="line2d_2">
    <path clip-path="url(#p4cebe82c12)" d="M -1 171 
L 85.8285 171 
L 88.268625 170.351862 
L 90.70875 171 
L 93.148875 169.703724 
L 95.589 165.814896 
L 98.029125 160.629792 
L 100.46925 160.629792 
L 102.909375 156.092825 
L 105.3495 143.130065 
L 107.789625 129.519166 
L 110.22975 122.389648 
L 112.669875 112.667577 
L 115.11 107.482473 
L 117.550125 101.649231 
L 119.99025 101.649231 
L 122.430375 108.778749 
L 124.8705 116.556405 
L 127.310625 128.871028 
L 129.75075 144.426341 
L 132.190875 150.259583 
L 134.631 160.629792 
L 137.071125 166.463034 
L 139.51125 167.75931 
L 141.951375 168.407448 
L 144.3915 171 
L 393.28425 171 
L 393.28425 171 
" style="fill:none;stroke:#2a00d4;stroke-linecap:square;stroke-width:2.0;"/>
   </g>
   <g id="line2d_3">
    <path clip-path="url(#p4cebe82c12)" d="M -1 171 
L 83.388375 171 
L 88.268625 169.703724 
L 90.70875 171 
L 93.148875 171 
L 95.589 168.407448 
L 100.46925 168.407448 
L 102.909375 167.75931 
L 105.3495 159.333515 
L 107.789625 159.981653 
L 110.22975 152.852135 
L 112.669875 150.907721 
L 115.11 143.778203 
L 117.550125 141.185651 
L 119.99025 129.519166 
L 122.430375 131.46358 
L 124.8705 119.148958 
L 127.310625 113.315715 
L 129.75075 117.204543 
L 132.190875 119.797096 
L 134.631 123.037786 
L 137.071125 130.167304 
L 139.51125 137.94496 
L 141.951375 148.315169 
L 144.3915 148.315169 
L 146.831625 145.722617 
L 149.27175 160.629792 
L 151.711875 164.51862 
L 154.152 167.75931 
L 156.592125 165.166758 
L 159.03225 169.055586 
L 161.472375 169.703724 
L 163.9125 171 
L 393.28425 171 
L 393.28425 171 
" style="fill:none;stroke:#5500aa;stroke-linecap:square;stroke-width:2.0;"/>
   </g>
   <g id="line2d_4">
    <path clip-path="url(#p4cebe82c12)" d="M -1 171 
L 88.268625 171 
L 90.70875 169.703724 
L 93.148875 171 
L 95.589 171 
L 98.029125 169.703724 
L 100.46925 170.351862 
L 102.909375 170.351862 
L 105.3495 166.463034 
L 107.789625 169.055586 
L 110.22975 164.51862 
L 112.669875 162.574206 
L 115.11 152.852135 
L 117.550125 154.796549 
L 119.99025 164.51862 
L 122.430375 152.203997 
L 124.8705 148.963307 
L 127.310625 143.130065 
L 129.75075 138.593098 
L 132.190875 132.111718 
L 134.631 132.111718 
L 137.071125 126.926614 
L 139.51125 125.630338 
L 141.951375 128.22289 
L 144.3915 123.685924 
L 149.27175 134.056132 
L 151.711875 136.000546 
L 154.152 141.833789 
L 156.592125 153.500273 
L 159.03225 152.203997 
L 161.472375 158.685377 
L 163.9125 158.685377 
L 166.352625 165.814896 
L 168.79275 169.703724 
L 171.232875 166.463034 
L 173.673 168.407448 
L 176.113125 169.703724 
L 178.55325 169.055586 
L 180.993375 169.703724 
L 183.4335 169.703724 
L 185.873625 171 
L 393.28425 171 
L 393.28425 171 
" style="fill:none;stroke:#800080;stroke-linecap:square;stroke-width:2.0;"/>
   </g>
   <g id="line2d_5">
    <path clip-path="url(#p4cebe82c12)" d="M -1 171 
L 90.70875 171 
L 93.148875 170.351862 
L 95.589 171 
L 105.3495 171 
L 107.789625 169.055586 
L 112.669875 166.463034 
L 115.11 166.463034 
L 117.550125 169.055586 
L 119.99025 163.870482 
L 122.430375 159.981653 
L 124.8705 159.981653 
L 127.310625 158.685377 
L 129.75075 162.574206 
L 132.190875 148.963307 
L 134.631 150.907721 
L 137.071125 147.018893 
L 139.51125 141.833789 
L 141.951375 141.833789 
L 144.3915 136.000546 
L 146.831625 128.22289 
L 149.27175 130.815442 
L 151.711875 143.130065 
L 154.152 129.519166 
L 156.592125 126.926614 
L 159.03225 136.000546 
L 161.472375 132.759856 
L 163.9125 147.018893 
L 166.352625 152.852135 
L 168.79275 150.907721 
L 171.232875 152.852135 
L 173.673 158.037239 
L 178.55325 159.333515 
L 180.993375 161.926068 
L 183.4335 163.870482 
L 185.873625 163.222344 
L 188.31375 165.166758 
L 190.753875 168.407448 
L 193.194 170.351862 
L 195.634125 169.703724 
L 198.07425 171 
L 200.514375 170.351862 
L 202.9545 171 
L 393.28425 171 
L 393.28425 171 
" style="fill:none;stroke:#aa0055;stroke-linecap:square;stroke-width:2.0;"/>
   </g>
   <g id="line2d_6">
    <path clip-path="url(#p4cebe82c12)" d="M -1 171 
L 102.909375 171 
L 105.3495 170.351862 
L 107.789625 171 
L 110.22975 170.351862 
L 112.669875 170.351862 
L 115.11 169.703724 
L 117.550125 170.351862 
L 119.99025 167.75931 
L 124.8705 165.166758 
L 127.310625 166.463034 
L 129.75075 161.27793 
L 132.190875 163.222344 
L 134.631 163.870482 
L 137.071125 161.27793 
L 139.51125 157.389101 
L 141.951375 152.852135 
L 144.3915 143.778203 
L 146.831625 149.611445 
L 149.27175 143.130065 
L 151.711875 140.537513 
L 154.152 148.315169 
L 156.592125 134.70427 
L 159.03225 143.778203 
L 161.472375 139.889375 
L 163.9125 137.94496 
L 166.352625 141.833789 
L 168.79275 139.889375 
L 171.232875 143.778203 
L 173.673 132.111718 
L 176.113125 141.833789 
L 178.55325 145.722617 
L 180.993375 147.018893 
L 183.4335 159.333515 
L 185.873625 153.500273 
L 188.31375 156.740963 
L 190.753875 158.685377 
L 193.194 161.926068 
L 195.634125 162.574206 
L 198.07425 167.75931 
L 200.514375 162.574206 
L 202.9545 167.75931 
L 205.394625 166.463034 
L 207.83475 167.75931 
L 210.274875 171 
L 212.715 169.703724 
L 217.59525 171 
L 393.28425 171 
L 393.28425 171 
" style="fill:none;stroke:#d4002b;stroke-linecap:square;stroke-width:2.0;"/>
   </g>
   <g id="line2d_7">
    <path clip-path="url(#p4cebe82c12)" d="M -1 171 
L 112.669875 171 
L 115.11 170.351862 
L 117.550125 170.351862 
L 119.99025 171 
L 122.430375 169.055586 
L 124.8705 169.055586 
L 127.310625 168.407448 
L 129.75075 168.407448 
L 132.190875 167.75931 
L 134.631 165.814896 
L 137.071125 159.981653 
L 139.51125 163.870482 
L 141.951375 165.814896 
L 144.3915 158.685377 
L 146.831625 161.926068 
L 149.27175 161.27793 
L 151.711875 155.444687 
L 154.152 153.500273 
L 156.592125 154.796549 
L 161.472375 147.018893 
L 163.9125 145.722617 
L 166.352625 142.481927 
L 168.79275 139.889375 
L 171.232875 140.537513 
L 173.673 144.426341 
L 176.113125 141.185651 
L 178.55325 141.185651 
L 180.993375 139.241237 
L 183.4335 137.94496 
L 185.873625 143.778203 
L 188.31375 143.130065 
L 190.753875 145.074479 
L 193.194 148.963307 
L 195.634125 153.500273 
L 198.07425 150.907721 
L 200.514375 156.740963 
L 202.9545 158.685377 
L 205.394625 158.685377 
L 207.83475 160.629792 
L 210.274875 164.51862 
L 212.715 167.111172 
L 215.155125 166.463034 
L 217.59525 169.703724 
L 220.035375 168.407448 
L 222.4755 169.055586 
L 227.35575 169.055586 
L 229.795875 171 
L 232.236 170.351862 
L 234.676125 171 
L 393.28425 171 
L 393.28425 171 
" style="fill:none;stroke:#ff0000;stroke-linecap:square;stroke-width:2.0;"/>
   </g>
   <g id="patch_3">
    <path d="M 42.4125 28.4 
L 284.4 28.4 
" style="fill:none;stroke:#000000;stroke-linecap:square;stroke-linejoin:miter;"/>
   </g>
   <g id="patch_4">
    <path d="M 284.4 171 
L 284.4 28.4 
" style="fill:none;stroke:#000000;stroke-linecap:square;stroke-linejoin:miter;"/>
   </g>
   <g id="patch_5">
    <path d="M 42.4125 171 
L 284.4 171 
" style="fill:none;stroke:#000000;stroke-linecap:square;stroke-linejoin:miter;"/>
   </g>
   <g id="patch_6">
    <path d="M 42.4125 171 
L 42.4125 28.4 
" style="fill:none;stroke:#000000;stroke-linecap:square;stroke-linejoin:miter;"/>
   </g>
   <g id="matplotlib.axis_1">
    <g id="xtick_1">
     <g id="line2d_8">
      <defs>
       <path d="M 0 0 
L 0 -4 
" id="md1279ceef9" style="stroke:#000000;stroke-width:0.5;"/>
      </defs>
      <g>
       <use style="stroke:#000000;stroke-width:0.5;" x="54.511875" xlink:href="#md1279ceef9" y="171.0"/>
      </g>
     </g>
     <g id="line2d_9">
      <defs>
       <path d="M 0 0 
L 0 4 
" id="m23e9eb6201" style="stroke:#000000;stroke-width:0.5;"/>
      </defs>
      <g>
       <use style="stroke:#000000;stroke-width:0.5;" x="54.511875" xlink:href="#m23e9eb6201" y="28.4"/>
      </g>
     </g>
     <g id="text_1">
      <!-- −20 -->
      <defs>
       <path d="M 10.59375 35.5 
L 73.1875 35.5 
L 73.1875 27.203125 
L 10.59375 27.203125 
z
" id="BitstreamVeraSans-Roman-2212"/>
       <path d="M 19.1875 8.296875 
L 53.609375 8.296875 
L 53.609375 0 
L 7.328125 0 
L 7.328125 8.296875 
Q 12.9375 14.109375 22.625 23.890625 
Q 32.328125 33.6875 34.8125 36.53125 
Q 39.546875 41.84375 41.421875 45.53125 
Q 43.3125 49.21875 43.3125 52.78125 
Q 43.3125 58.59375 39.234375 62.25 
Q 35.15625 65.921875 28.609375 65.921875 
Q 23.96875 65.921875 18.8125 64.3125 
Q 13.671875 62.703125 7.8125 59.421875 
L 7.8125 69.390625 
Q 13.765625 71.78125 18.9375 73 
Q 24.125 74.21875 28.421875 74.21875 
Q 39.75 74.21875 46.484375 68.546875 
Q 53.21875 62.890625 53.21875 53.421875 
Q 53.21875 48.921875 51.53125 44.890625 
Q 49.859375 40.875 45.40625 35.40625 
Q 44.1875 33.984375 37.640625 27.21875 
Q 31.109375 20.453125 19.1875 8.296875 
" id="BitstreamVeraSans-Roman-32"/>
       <path d="M 31.78125 66.40625 
Q 24.171875 66.40625 20.328125 58.90625 
Q 16.5 51.421875 16.5 36.375 
Q 16.5 21.390625 20.328125 13.890625 
Q 24.171875 6.390625 31.78125 6.390625 
Q 39.453125 6.390625 43.28125 13.890625 
Q 47.125 21.390625 47.125 36.375 
Q 47.125 51.421875 43.28125 58.90625 
Q 39.453125 66.40625 31.78125 66.40625 
M 31.78125 74.21875 
Q 44.046875 74.21875 50.515625 64.515625 
Q 56.984375 54.828125 56.984375 36.375 
Q 56.984375 17.96875 50.515625 8.265625 
Q 44.046875 -1.421875 31.78125 -1.421875 
Q 19.53125 -1.421875 13.0625 8.265625 
Q 6.59375 17.96875 6.59375 36.375 
Q 6.59375 54.828125 13.0625 64.515625 
Q 19.53125 74.21875 31.78125 74.21875 
" id="BitstreamVeraSans-Roman-30"/>
      </defs>
      <g transform="translate(43.95953125 182.5984375)scale(0.1 -0.1)">
       <use xlink:href="#BitstreamVeraSans-Roman-2212"/>
       <use x="83.7890625" xlink:href="#BitstreamVeraSans-Roman-32"/>
       <use x="147.412109375" xlink:href="#BitstreamVeraSans-Roman-30"/>
      </g>
     </g>
    </g>
    <g id="xtick_2">
     <g id="line2d_10">
      <g>
       <use style="stroke:#000000;stroke-width:0.5;" x="102.909375" xlink:href="#md1279ceef9" y="171.0"/>
      </g>
     </g>
     <g id="line2d_11">
      <g>
       <use style="stroke:#000000;stroke-width:0.5;" x="102.909375" xlink:href="#m23e9eb6201" y="28.4"/>
      </g>
     </g>
     <g id="text_2">
      <!-- 0 -->
      <g transform="translate(99.728125 182.5984375)scale(0.1 -0.1)">
       <use xlink:href="#BitstreamVeraSans-Roman-30"/>
      </g>
     </g>
    </g>
    <g id="xtick_3">
     <g id="line2d_12">
      <g>
       <use style="stroke:#000000;stroke-width:0.5;" x="151.306875" xlink:href="#md1279ceef9" y="171.0"/>
      </g>
     </g>
     <g id="line2d_13">
      <g>
       <use style="stroke:#000000;stroke-width:0.5;" x="151.306875" xlink:href="#m23e9eb6201" y="28.4"/>
      </g>
     </g>
     <g id="text_3">
      <!-- 20 -->
      <g transform="translate(144.944375 182.5984375)scale(0.1 -0.1)">
       <use xlink:href="#BitstreamVeraSans-Roman-32"/>
       <use x="63.623046875" xlink:href="#BitstreamVeraSans-Roman-30"/>
      </g>
     </g>
    </g>
    <g id="xtick_4">
     <g id="line2d_14">
      <g>
       <use style="stroke:#000000;stroke-width:0.5;" x="199.704375" xlink:href="#md1279ceef9" y="171.0"/>
      </g>
     </g>
     <g id="line2d_15">
      <g>
       <use style="stroke:#000000;stroke-width:0.5;" x="199.704375" xlink:href="#m23e9eb6201" y="28.4"/>
      </g>
     </g>
     <g id="text_4">
      <!-- 40 -->
      <defs>
       <path d="M 37.796875 64.3125 
L 12.890625 25.390625 
L 37.796875 25.390625 
z
M 35.203125 72.90625 
L 47.609375 72.90625 
L 47.609375 25.390625 
L 58.015625 25.390625 
L 58.015625 17.1875 
L 47.609375 17.1875 
L 47.609375 0 
L 37.796875 0 
L 37.796875 17.1875 
L 4.890625 17.1875 
L 4.890625 26.703125 
z
" id="BitstreamVeraSans-Roman-34"/>
      </defs>
      <g transform="translate(193.341875 182.5984375)scale(0.1 -0.1)">
       <use xlink:href="#BitstreamVeraSans-Roman-34"/>
       <use x="63.623046875" xlink:href="#BitstreamVeraSans-Roman-30"/>
      </g>
     </g>
    </g>
    <g id="xtick_5">
     <g id="line2d_16">
      <g>
       <use style="stroke:#000000;stroke-width:0.5;" x="248.101875" xlink:href="#md1279ceef9" y="171.0"/>
      </g>
     </g>
     <g id="line2d_17">
      <g>
       <use style="stroke:#000000;stroke-width:0.5;" x="248.101875" xlink:href="#m23e9eb6201" y="28.4"/>
      </g>
     </g>
     <g id="text_5">
      <!-- 60 -->
      <defs>
       <path d="M 33.015625 40.375 
Q 26.375 40.375 22.484375 35.828125 
Q 18.609375 31.296875 18.609375 23.390625 
Q 18.609375 15.53125 22.484375 10.953125 
Q 26.375 6.390625 33.015625 6.390625 
Q 39.65625 6.390625 43.53125 10.953125 
Q 47.40625 15.53125 47.40625 23.390625 
Q 47.40625 31.296875 43.53125 35.828125 
Q 39.65625 40.375 33.015625 40.375 
M 52.59375 71.296875 
L 52.59375 62.3125 
Q 48.875 64.0625 45.09375 64.984375 
Q 41.3125 65.921875 37.59375 65.921875 
Q 27.828125 65.921875 22.671875 59.328125 
Q 17.53125 52.734375 16.796875 39.40625 
Q 19.671875 43.65625 24.015625 45.921875 
Q 28.375 48.1875 33.59375 48.1875 
Q 44.578125 48.1875 50.953125 41.515625 
Q 57.328125 34.859375 57.328125 23.390625 
Q 57.328125 12.15625 50.6875 5.359375 
Q 44.046875 -1.421875 33.015625 -1.421875 
Q 20.359375 -1.421875 13.671875 8.265625 
Q 6.984375 17.96875 6.984375 36.375 
Q 6.984375 53.65625 15.1875 63.9375 
Q 23.390625 74.21875 37.203125 74.21875 
Q 40.921875 74.21875 44.703125 73.484375 
Q 48.484375 72.75 52.59375 71.296875 
" id="BitstreamVeraSans-Roman-36"/>
      </defs>
      <g transform="translate(241.739375 182.5984375)scale(0.1 -0.1)">
       <use xlink:href="#BitstreamVeraSans-Roman-36"/>
       <use x="63.623046875" xlink:href="#BitstreamVeraSans-Roman-30"/>
      </g>
     </g>
    </g>
    <g id="text_6">
     <!-- position -->
     <defs>
      <path d="M 54.890625 33.015625 
L 54.890625 0 
L 45.90625 0 
L 45.90625 32.71875 
Q 45.90625 40.484375 42.875 44.328125 
Q 39.84375 48.1875 33.796875 48.1875 
Q 26.515625 48.1875 22.3125 43.546875 
Q 18.109375 38.921875 18.109375 30.90625 
L 18.109375 0 
L 9.078125 0 
L 9.078125 54.6875 
L 18.109375 54.6875 
L 18.109375 46.1875 
Q 21.34375 51.125 25.703125 53.5625 
Q 30.078125 56 35.796875 56 
Q 45.21875 56 50.046875 50.171875 
Q 54.890625 44.34375 54.890625 33.015625 
" id="BitstreamVeraSans-Roman-6e"/>
      <path d="M 30.609375 48.390625 
Q 23.390625 48.390625 19.1875 42.75 
Q 14.984375 37.109375 14.984375 27.296875 
Q 14.984375 17.484375 19.15625 11.84375 
Q 23.34375 6.203125 30.609375 6.203125 
Q 37.796875 6.203125 41.984375 11.859375 
Q 46.1875 17.53125 46.1875 27.296875 
Q 46.1875 37.015625 41.984375 42.703125 
Q 37.796875 48.390625 30.609375 48.390625 
M 30.609375 56 
Q 42.328125 56 49.015625 48.375 
Q 55.71875 40.765625 55.71875 27.296875 
Q 55.71875 13.875 49.015625 6.21875 
Q 42.328125 -1.421875 30.609375 -1.421875 
Q 18.84375 -1.421875 12.171875 6.21875 
Q 5.515625 13.875 5.515625 27.296875 
Q 5.515625 40.765625 12.171875 48.375 
Q 18.84375 56 30.609375 56 
" id="BitstreamVeraSans-Roman-6f"/>
      <path d="M 9.421875 54.6875 
L 18.40625 54.6875 
L 18.40625 0 
L 9.421875 0 
z
M 9.421875 75.984375 
L 18.40625 75.984375 
L 18.40625 64.59375 
L 9.421875 64.59375 
z
" id="BitstreamVeraSans-Roman-69"/>
      <path d="M 18.3125 70.21875 
L 18.3125 54.6875 
L 36.8125 54.6875 
L 36.8125 47.703125 
L 18.3125 47.703125 
L 18.3125 18.015625 
Q 18.3125 11.328125 20.140625 9.421875 
Q 21.96875 7.515625 27.59375 7.515625 
L 36.8125 7.515625 
L 36.8125 0 
L 27.59375 0 
Q 17.1875 0 13.234375 3.875 
Q 9.28125 7.765625 9.28125 18.015625 
L 9.28125 47.703125 
L 2.6875 47.703125 
L 2.6875 54.6875 
L 9.28125 54.6875 
L 9.28125 70.21875 
z
" id="BitstreamVeraSans-Roman-74"/>
      <path d="M 44.28125 53.078125 
L 44.28125 44.578125 
Q 40.484375 46.53125 36.375 47.5 
Q 32.28125 48.484375 27.875 48.484375 
Q 21.1875 48.484375 17.84375 46.4375 
Q 14.5 44.390625 14.5 40.28125 
Q 14.5 37.15625 16.890625 35.375 
Q 19.28125 33.59375 26.515625 31.984375 
L 29.59375 31.296875 
Q 39.15625 29.25 43.1875 25.515625 
Q 47.21875 21.78125 47.21875 15.09375 
Q 47.21875 7.46875 41.1875 3.015625 
Q 35.15625 -1.421875 24.609375 -1.421875 
Q 20.21875 -1.421875 15.453125 -0.5625 
Q 10.6875 0.296875 5.421875 2 
L 5.421875 11.28125 
Q 10.40625 8.6875 15.234375 7.390625 
Q 20.0625 6.109375 24.8125 6.109375 
Q 31.15625 6.109375 34.5625 8.28125 
Q 37.984375 10.453125 37.984375 14.40625 
Q 37.984375 18.0625 35.515625 20.015625 
Q 33.0625 21.96875 24.703125 23.78125 
L 21.578125 24.515625 
Q 13.234375 26.265625 9.515625 29.90625 
Q 5.8125 33.546875 5.8125 39.890625 
Q 5.8125 47.609375 11.28125 51.796875 
Q 16.75 56 26.8125 56 
Q 31.78125 56 36.171875 55.265625 
Q 40.578125 54.546875 44.28125 53.078125 
" id="BitstreamVeraSans-Roman-73"/>
      <path d="M 18.109375 8.203125 
L 18.109375 -20.796875 
L 9.078125 -20.796875 
L 9.078125 54.6875 
L 18.109375 54.6875 
L 18.109375 46.390625 
Q 20.953125 51.265625 25.265625 53.625 
Q 29.59375 56 35.59375 56 
Q 45.5625 56 51.78125 48.09375 
Q 58.015625 40.1875 58.015625 27.296875 
Q 58.015625 14.40625 51.78125 6.484375 
Q 45.5625 -1.421875 35.59375 -1.421875 
Q 29.59375 -1.421875 25.265625 0.953125 
Q 20.953125 3.328125 18.109375 8.203125 
M 48.6875 27.296875 
Q 48.6875 37.203125 44.609375 42.84375 
Q 40.53125 48.484375 33.40625 48.484375 
Q 26.265625 48.484375 22.1875 42.84375 
Q 18.109375 37.203125 18.109375 27.296875 
Q 18.109375 17.390625 22.1875 11.75 
Q 26.265625 6.109375 33.40625 6.109375 
Q 40.53125 6.109375 44.609375 11.75 
Q 48.6875 17.390625 48.6875 27.296875 
" id="BitstreamVeraSans-Roman-70"/>
     </defs>
     <g transform="translate(133.69921875 201.07578125)scale(0.15 -0.15)">
      <use xlink:href="#BitstreamVeraSans-Roman-70"/>
      <use x="63.4765625" xlink:href="#BitstreamVeraSans-Roman-6f"/>
      <use x="124.658203125" xlink:href="#BitstreamVeraSans-Roman-73"/>
      <use x="176.7578125" xlink:href="#BitstreamVeraSans-Roman-69"/>
      <use x="204.541015625" xlink:href="#BitstreamVeraSans-Roman-74"/>
      <use x="243.75" xlink:href="#BitstreamVeraSans-Roman-69"/>
      <use x="271.533203125" xlink:href="#BitstreamVeraSans-Roman-6f"/>
      <use x="332.71484375" xlink:href="#BitstreamVeraSans-Roman-6e"/>
     </g>
    </g>
   </g>
   <g id="matplotlib.axis_2">
    <g id="ytick_1">
     <g id="line2d_18">
      <defs>
       <path d="M 0 0 
L 4 0 
" id="mdcacee111e" style="stroke:#000000;stroke-width:0.5;"/>
      </defs>
      <g>
       <use style="stroke:#000000;stroke-width:0.5;" x="42.4125" xlink:href="#mdcacee111e" y="171.0"/>
      </g>
     </g>
     <g id="line2d_19">
      <defs>
       <path d="M 0 0 
L -4 0 
" id="m2c9cd8897a" style="stroke:#000000;stroke-width:0.5;"/>
      </defs>
      <g>
       <use style="stroke:#000000;stroke-width:0.5;" x="284.4" xlink:href="#m2c9cd8897a" y="171.0"/>
      </g>
     </g>
     <g id="text_7">
      <!-- 0 -->
      <g transform="translate(32.05 173.759375)scale(0.1 -0.1)">
       <use xlink:href="#BitstreamVeraSans-Roman-30"/>
      </g>
     </g>
    </g>
    <g id="ytick_2">
     <g id="line2d_20">
      <g>
       <use style="stroke:#000000;stroke-width:0.5;" x="42.4125" xlink:href="#mdcacee111e" y="41.3636363636"/>
      </g>
     </g>
     <g id="line2d_21">
      <g>
       <use style="stroke:#000000;stroke-width:0.5;" x="284.4" xlink:href="#m2c9cd8897a" y="41.3636363636"/>
      </g>
     </g>
     <g id="text_8">
      <!-- 2 -->
      <g transform="translate(32.05 44.1230113636)scale(0.1 -0.1)">
       <use xlink:href="#BitstreamVeraSans-Roman-32"/>
      </g>
     </g>
    </g>
    <g id="text_9">
     <!-- concentration -->
     <defs>
      <path d="M 56.203125 29.59375 
L 56.203125 25.203125 
L 14.890625 25.203125 
Q 15.484375 15.921875 20.484375 11.0625 
Q 25.484375 6.203125 34.421875 6.203125 
Q 39.59375 6.203125 44.453125 7.46875 
Q 49.3125 8.734375 54.109375 11.28125 
L 54.109375 2.78125 
Q 49.265625 0.734375 44.1875 -0.34375 
Q 39.109375 -1.421875 33.890625 -1.421875 
Q 20.796875 -1.421875 13.15625 6.1875 
Q 5.515625 13.8125 5.515625 26.8125 
Q 5.515625 40.234375 12.765625 48.109375 
Q 20.015625 56 32.328125 56 
Q 43.359375 56 49.78125 48.890625 
Q 56.203125 41.796875 56.203125 29.59375 
M 47.21875 32.234375 
Q 47.125 39.59375 43.09375 43.984375 
Q 39.0625 48.390625 32.421875 48.390625 
Q 24.90625 48.390625 20.390625 44.140625 
Q 15.875 39.890625 15.1875 32.171875 
z
" id="BitstreamVeraSans-Roman-65"/>
      <path d="M 34.28125 27.484375 
Q 23.390625 27.484375 19.1875 25 
Q 14.984375 22.515625 14.984375 16.5 
Q 14.984375 11.71875 18.140625 8.90625 
Q 21.296875 6.109375 26.703125 6.109375 
Q 34.1875 6.109375 38.703125 11.40625 
Q 43.21875 16.703125 43.21875 25.484375 
L 43.21875 27.484375 
z
M 52.203125 31.203125 
L 52.203125 0 
L 43.21875 0 
L 43.21875 8.296875 
Q 40.140625 3.328125 35.546875 0.953125 
Q 30.953125 -1.421875 24.3125 -1.421875 
Q 15.921875 -1.421875 10.953125 3.296875 
Q 6 8.015625 6 15.921875 
Q 6 25.140625 12.171875 29.828125 
Q 18.359375 34.515625 30.609375 34.515625 
L 43.21875 34.515625 
L 43.21875 35.40625 
Q 43.21875 41.609375 39.140625 45 
Q 35.0625 48.390625 27.6875 48.390625 
Q 23 48.390625 18.546875 47.265625 
Q 14.109375 46.140625 10.015625 43.890625 
L 10.015625 52.203125 
Q 14.9375 54.109375 19.578125 55.046875 
Q 24.21875 56 28.609375 56 
Q 40.484375 56 46.34375 49.84375 
Q 52.203125 43.703125 52.203125 31.203125 
" id="BitstreamVeraSans-Roman-61"/>
      <path d="M 41.109375 46.296875 
Q 39.59375 47.171875 37.8125 47.578125 
Q 36.03125 48 33.890625 48 
Q 26.265625 48 22.1875 43.046875 
Q 18.109375 38.09375 18.109375 28.8125 
L 18.109375 0 
L 9.078125 0 
L 9.078125 54.6875 
L 18.109375 54.6875 
L 18.109375 46.1875 
Q 20.953125 51.171875 25.484375 53.578125 
Q 30.03125 56 36.53125 56 
Q 37.453125 56 38.578125 55.875 
Q 39.703125 55.765625 41.0625 55.515625 
z
" id="BitstreamVeraSans-Roman-72"/>
      <path d="M 48.78125 52.59375 
L 48.78125 44.1875 
Q 44.96875 46.296875 41.140625 47.34375 
Q 37.3125 48.390625 33.40625 48.390625 
Q 24.65625 48.390625 19.8125 42.84375 
Q 14.984375 37.3125 14.984375 27.296875 
Q 14.984375 17.28125 19.8125 11.734375 
Q 24.65625 6.203125 33.40625 6.203125 
Q 37.3125 6.203125 41.140625 7.25 
Q 44.96875 8.296875 48.78125 10.40625 
L 48.78125 2.09375 
Q 45.015625 0.34375 40.984375 -0.53125 
Q 36.96875 -1.421875 32.421875 -1.421875 
Q 20.0625 -1.421875 12.78125 6.34375 
Q 5.515625 14.109375 5.515625 27.296875 
Q 5.515625 40.671875 12.859375 48.328125 
Q 20.21875 56 33.015625 56 
Q 37.15625 56 41.109375 55.140625 
Q 45.0625 54.296875 48.78125 52.59375 
" id="BitstreamVeraSans-Roman-63"/>
     </defs>
     <g transform="translate(23.93046875 151.643359375)rotate(-90.0)scale(0.15 -0.15)">
      <use xlink:href="#BitstreamVeraSans-Roman-63"/>
      <use x="54.98046875" xlink:href="#BitstreamVeraSans-Roman-6f"/>
      <use x="116.162109375" xlink:href="#BitstreamVeraSans-Roman-6e"/>
      <use x="179.541015625" xlink:href="#BitstreamVeraSans-Roman-63"/>
      <use x="234.521484375" xlink:href="#BitstreamVeraSans-Roman-65"/>
      <use x="296.044921875" xlink:href="#BitstreamVeraSans-Roman-6e"/>
      <use x="359.423828125" xlink:href="#BitstreamVeraSans-Roman-74"/>
      <use x="398.6328125" xlink:href="#BitstreamVeraSans-Roman-72"/>
      <use x="439.74609375" xlink:href="#BitstreamVeraSans-Roman-61"/>
      <use x="501.025390625" xlink:href="#BitstreamVeraSans-Roman-74"/>
      <use x="540.234375" xlink:href="#BitstreamVeraSans-Roman-69"/>
      <use x="568.017578125" xlink:href="#BitstreamVeraSans-Roman-6f"/>
      <use x="629.19921875" xlink:href="#BitstreamVeraSans-Roman-6e"/>
     </g>
    </g>
   </g>
   <g id="text_10">
    <!-- k = 0.0 -->
    <defs>
     <path d="M 8.40625 75.984375 
L 25.875 75.984375 
L 25.875 34.625 
L 46 54.6875 
L 66.3125 54.6875 
L 39.59375 29.59375 
L 68.40625 0 
L 47.21875 0 
L 25.875 22.796875 
L 25.875 0 
L 8.40625 0 
z
" id="BitstreamVeraSans-Bold-6b"/>
     <path d="M 10.59375 48.1875 
L 73.1875 48.1875 
L 73.1875 36.71875 
L 10.59375 36.71875 
z
M 10.59375 25.984375 
L 73.1875 25.984375 
L 73.1875 14.40625 
L 10.59375 14.40625 
z
" id="BitstreamVeraSans-Bold-3d"/>
     <path d="M 10.203125 18.890625 
L 27.78125 18.890625 
L 27.78125 0 
L 10.203125 0 
z
" id="BitstreamVeraSans-Bold-2e"/>
     <path d="M 46 36.53125 
Q 46 50.203125 43.4375 55.78125 
Q 40.875 61.375 34.8125 61.375 
Q 28.765625 61.375 26.171875 55.78125 
Q 23.578125 50.203125 23.578125 36.53125 
Q 23.578125 22.703125 26.171875 17.03125 
Q 28.765625 11.375 34.8125 11.375 
Q 40.828125 11.375 43.40625 17.03125 
Q 46 22.703125 46 36.53125 
M 64.796875 36.375 
Q 64.796875 18.265625 56.984375 8.421875 
Q 49.171875 -1.421875 34.8125 -1.421875 
Q 20.40625 -1.421875 12.59375 8.421875 
Q 4.78125 18.265625 4.78125 36.375 
Q 4.78125 54.546875 12.59375 64.375 
Q 20.40625 74.21875 34.8125 74.21875 
Q 49.171875 74.21875 56.984375 64.375 
Q 64.796875 54.546875 64.796875 36.375 
" id="BitstreamVeraSans-Bold-30"/>
     <path id="BitstreamVeraSans-Bold-20"/>
    </defs>
    <g transform="translate(133.6265625 23.4)scale(0.15 -0.15)">
     <use xlink:href="#BitstreamVeraSans-Bold-6b"/>
     <use x="66.50390625" xlink:href="#BitstreamVeraSans-Bold-20"/>
     <use x="101.318359375" xlink:href="#BitstreamVeraSans-Bold-3d"/>
     <use x="185.107421875" xlink:href="#BitstreamVeraSans-Bold-20"/>
     <use x="219.921875" xlink:href="#BitstreamVeraSans-Bold-30"/>
     <use x="289.501953125" xlink:href="#BitstreamVeraSans-Bold-2e"/>
     <use x="327.490234375" xlink:href="#BitstreamVeraSans-Bold-30"/>
    </g>
   </g>
  </g>
  <g id="axes_2">
   <g id="patch_7">
    <path d="M 326.8125 171 
L 568.8 171 
L 568.8 28.4 
L 326.8125 28.4 
z
" style="fill:#ffffff;"/>
   </g>
   <g id="line2d_22">
    <path clip-path="url(#p0dbb87f5ac)" d="M 96.9345 171 
L 372.668625 171 
L 375.10875 163.870482 
L 377.548875 160.629792 
L 379.989 145.722617 
L 382.429125 137.296822 
L 384.86925 111.371301 
L 387.309375 82.20509 
L 389.7495 55.631431 
L 392.189625 77.668124 
L 394.62975 53.687016 
L 397.069875 118.50082 
L 399.51 126.278476 
L 401.950125 171 
L 677.68425 171 
L 677.68425 171 
" style="fill:none;stroke:#0000ff;stroke-linecap:square;stroke-width:2.0;"/>
   </g>
   <g id="line2d_23">
    <path clip-path="url(#p0dbb87f5ac)" d="M 96.9345 171 
L 358.027875 171 
L 360.468 169.703724 
L 365.34825 171 
L 367.788375 169.055586 
L 372.668625 167.75931 
L 375.10875 166.463034 
L 377.548875 164.51862 
L 379.989 159.981653 
L 382.429125 154.796549 
L 384.86925 150.259583 
L 387.309375 144.426341 
L 389.7495 141.185651 
L 392.189625 136.648684 
L 394.62975 133.407994 
L 397.069875 115.908267 
L 399.51 128.871028 
L 401.950125 117.204543 
L 404.39025 126.278476 
L 406.830375 119.148958 
L 409.2705 132.759856 
L 411.710625 139.889375 
L 414.15075 132.111718 
L 416.590875 149.611445 
L 419.031 145.074479 
L 421.471125 157.389101 
L 423.91125 156.740963 
L 426.351375 161.926068 
L 428.7915 163.870482 
L 431.231625 169.055586 
L 438.552 171 
L 677.68425 171 
L 677.68425 171 
" style="fill:none;stroke:#2a00d4;stroke-linecap:square;stroke-width:2.0;"/>
   </g>
   <g id="line2d_24">
    <path clip-path="url(#p0dbb87f5ac)" d="M 96.9345 171 
L 355.58775 171 
L 358.027875 170.351862 
L 360.468 171 
L 362.908125 171 
L 365.34825 170.351862 
L 367.788375 170.351862 
L 370.2285 171 
L 372.668625 168.407448 
L 375.10875 169.703724 
L 377.548875 167.111172 
L 379.989 167.111172 
L 382.429125 163.870482 
L 384.86925 159.981653 
L 389.7495 162.574206 
L 392.189625 158.037239 
L 394.62975 151.555859 
L 397.069875 145.722617 
L 399.51 143.778203 
L 401.950125 139.889375 
L 406.830375 139.889375 
L 409.2705 135.352408 
L 411.710625 132.759856 
L 416.590875 134.056132 
L 419.031 137.296822 
L 421.471125 137.296822 
L 423.91125 138.593098 
L 426.351375 145.074479 
L 428.7915 141.833789 
L 431.231625 147.667031 
L 433.67175 147.667031 
L 436.111875 154.148411 
L 438.552 159.981653 
L 440.992125 157.389101 
L 443.43225 160.629792 
L 445.872375 164.51862 
L 448.3125 169.703724 
L 450.752625 166.463034 
L 453.19275 169.703724 
L 455.632875 169.055586 
L 460.513125 170.351862 
L 462.95325 170.351862 
L 465.393375 171 
L 677.68425 171 
L 677.68425 171 
" style="fill:none;stroke:#5500aa;stroke-linecap:square;stroke-width:2.0;"/>
   </g>
   <g id="line2d_25">
    <path clip-path="url(#p0dbb87f5ac)" d="M 96.9345 171 
L 355.58775 171 
L 358.027875 170.351862 
L 360.468 171 
L 362.908125 170.351862 
L 365.34825 171 
L 367.788375 169.703724 
L 370.2285 170.351862 
L 372.668625 170.351862 
L 375.10875 169.703724 
L 377.548875 170.351862 
L 379.989 169.703724 
L 382.429125 166.463034 
L 387.309375 165.166758 
L 389.7495 165.814896 
L 392.189625 164.51862 
L 394.62975 162.574206 
L 397.069875 155.444687 
L 399.51 159.981653 
L 401.950125 152.203997 
L 404.39025 152.203997 
L 406.830375 151.555859 
L 409.2705 153.500273 
L 416.590875 143.778203 
L 419.031 141.833789 
L 421.471125 142.481927 
L 423.91125 138.593098 
L 426.351375 138.593098 
L 428.7915 135.352408 
L 431.231625 147.667031 
L 433.67175 132.759856 
L 436.111875 145.074479 
L 438.552 142.481927 
L 440.992125 149.611445 
L 443.43225 153.500273 
L 445.872375 156.092825 
L 448.3125 148.963307 
L 450.752625 158.037239 
L 453.19275 157.389101 
L 455.632875 158.685377 
L 458.073 160.629792 
L 460.513125 160.629792 
L 465.393375 167.111172 
L 467.8335 165.814896 
L 470.273625 170.351862 
L 472.71375 169.055586 
L 475.153875 170.351862 
L 477.594 169.055586 
L 480.034125 171 
L 484.914375 171 
L 487.3545 170.351862 
L 489.794625 171 
L 492.23475 170.351862 
L 494.674875 171 
L 677.68425 171 
L 677.68425 171 
" style="fill:none;stroke:#800080;stroke-linecap:square;stroke-width:2.0;"/>
   </g>
   <g id="line2d_26">
    <path clip-path="url(#p0dbb87f5ac)" d="M 96.9345 171 
L 367.788375 171 
L 370.2285 170.351862 
L 372.668625 170.351862 
L 375.10875 167.75931 
L 377.548875 169.703724 
L 379.989 171 
L 382.429125 170.351862 
L 384.86925 169.055586 
L 387.309375 166.463034 
L 389.7495 169.055586 
L 392.189625 169.703724 
L 394.62975 168.407448 
L 397.069875 166.463034 
L 399.51 166.463034 
L 401.950125 157.389101 
L 406.830375 161.27793 
L 409.2705 154.796549 
L 411.710625 159.981653 
L 414.15075 152.203997 
L 416.590875 156.092825 
L 419.031 155.444687 
L 421.471125 147.018893 
L 423.91125 156.740963 
L 428.7915 143.778203 
L 431.231625 138.593098 
L 433.67175 145.074479 
L 436.111875 140.537513 
L 438.552 144.426341 
L 440.992125 141.833789 
L 443.43225 148.315169 
L 445.872375 144.426341 
L 448.3125 146.370755 
L 450.752625 144.426341 
L 453.19275 148.963307 
L 455.632875 148.315169 
L 458.073 158.685377 
L 460.513125 151.555859 
L 462.95325 159.333515 
L 465.393375 156.740963 
L 467.8335 156.740963 
L 470.273625 158.685377 
L 472.71375 158.037239 
L 475.153875 165.166758 
L 477.594 164.51862 
L 480.034125 163.222344 
L 482.47425 166.463034 
L 484.914375 168.407448 
L 487.3545 169.055586 
L 492.23475 169.055586 
L 494.674875 170.351862 
L 497.115 171 
L 499.555125 169.703724 
L 501.99525 171 
L 504.435375 170.351862 
L 506.8755 171 
L 677.68425 171 
L 677.68425 171 
" style="fill:none;stroke:#aa0055;stroke-linecap:square;stroke-width:2.0;"/>
   </g>
   <g id="line2d_27">
    <path clip-path="url(#p0dbb87f5ac)" d="M 96.9345 171 
L 367.788375 171 
L 370.2285 169.703724 
L 375.10875 171 
L 379.989 171 
L 382.429125 169.055586 
L 384.86925 169.703724 
L 387.309375 169.055586 
L 389.7495 170.351862 
L 392.189625 168.407448 
L 394.62975 167.111172 
L 397.069875 169.055586 
L 399.51 169.055586 
L 401.950125 166.463034 
L 404.39025 165.166758 
L 406.830375 164.51862 
L 409.2705 165.166758 
L 411.710625 161.27793 
L 414.15075 163.222344 
L 416.590875 156.740963 
L 419.031 161.926068 
L 421.471125 156.740963 
L 423.91125 156.740963 
L 426.351375 158.685377 
L 428.7915 152.852135 
L 436.111875 148.963307 
L 438.552 154.796549 
L 440.992125 150.907721 
L 443.43225 149.611445 
L 445.872375 144.426341 
L 450.752625 150.907721 
L 453.19275 147.018893 
L 455.632875 148.315169 
L 458.073 141.185651 
L 460.513125 147.667031 
L 462.95325 143.130065 
L 465.393375 148.963307 
L 467.8335 156.092825 
L 470.273625 151.555859 
L 472.71375 153.500273 
L 475.153875 158.037239 
L 477.594 155.444687 
L 480.034125 159.981653 
L 482.47425 154.796549 
L 484.914375 159.333515 
L 487.3545 161.27793 
L 489.794625 165.814896 
L 494.674875 163.222344 
L 497.115 167.111172 
L 499.555125 165.814896 
L 501.99525 168.407448 
L 504.435375 167.75931 
L 506.8755 170.351862 
L 511.75575 170.351862 
L 514.195875 171 
L 516.636 169.055586 
L 519.076125 170.351862 
L 521.51625 171 
L 677.68425 171 
L 677.68425 171 
" style="fill:none;stroke:#d4002b;stroke-linecap:square;stroke-width:2.0;"/>
   </g>
   <g id="line2d_28">
    <path clip-path="url(#p0dbb87f5ac)" d="M 96.9345 171 
L 362.908125 171 
L 365.34825 170.351862 
L 367.788375 171 
L 370.2285 170.351862 
L 372.668625 171 
L 375.10875 170.351862 
L 379.989 170.351862 
L 382.429125 171 
L 384.86925 169.703724 
L 387.309375 169.703724 
L 389.7495 171 
L 394.62975 169.703724 
L 397.069875 170.351862 
L 399.51 169.055586 
L 401.950125 167.111172 
L 404.39025 169.055586 
L 406.830375 167.111172 
L 409.2705 167.75931 
L 411.710625 169.055586 
L 414.15075 165.814896 
L 416.590875 163.222344 
L 419.031 165.166758 
L 421.471125 165.166758 
L 423.91125 161.926068 
L 426.351375 157.389101 
L 428.7915 156.092825 
L 431.231625 160.629792 
L 433.67175 152.852135 
L 436.111875 156.740963 
L 438.552 157.389101 
L 440.992125 152.852135 
L 443.43225 152.852135 
L 445.872375 148.963307 
L 448.3125 154.148411 
L 450.752625 152.203997 
L 453.19275 149.611445 
L 455.632875 145.722617 
L 458.073 150.259583 
L 460.513125 149.611445 
L 462.95325 147.018893 
L 465.393375 148.315169 
L 467.8335 147.667031 
L 470.273625 154.148411 
L 472.71375 154.148411 
L 475.153875 148.963307 
L 477.594 153.500273 
L 480.034125 148.963307 
L 482.47425 157.389101 
L 484.914375 154.148411 
L 487.3545 160.629792 
L 492.23475 155.444687 
L 494.674875 160.629792 
L 497.115 156.092825 
L 499.555125 163.870482 
L 501.99525 165.166758 
L 504.435375 161.27793 
L 506.8755 161.926068 
L 511.75575 165.814896 
L 514.195875 166.463034 
L 516.636 168.407448 
L 519.076125 169.055586 
L 523.956375 169.055586 
L 526.3965 169.703724 
L 528.836625 169.055586 
L 531.27675 171 
L 533.716875 170.351862 
L 536.157 171 
L 538.597125 170.351862 
L 541.03725 171 
L 677.68425 171 
L 677.68425 171 
" style="fill:none;stroke:#ff0000;stroke-linecap:square;stroke-width:2.0;"/>
   </g>
   <g id="patch_8">
    <path d="M 326.8125 28.4 
L 568.8 28.4 
" style="fill:none;stroke:#000000;stroke-linecap:square;stroke-linejoin:miter;"/>
   </g>
   <g id="patch_9">
    <path d="M 568.8 171 
L 568.8 28.4 
" style="fill:none;stroke:#000000;stroke-linecap:square;stroke-linejoin:miter;"/>
   </g>
   <g id="patch_10">
    <path d="M 326.8125 171 
L 568.8 171 
" style="fill:none;stroke:#000000;stroke-linecap:square;stroke-linejoin:miter;"/>
   </g>
   <g id="patch_11">
    <path d="M 326.8125 171 
L 326.8125 28.4 
" style="fill:none;stroke:#000000;stroke-linecap:square;stroke-linejoin:miter;"/>
   </g>
   <g id="matplotlib.axis_3">
    <g id="xtick_6">
     <g id="line2d_29">
      <g>
       <use style="stroke:#000000;stroke-width:0.5;" x="338.911875" xlink:href="#md1279ceef9" y="171.0"/>
      </g>
     </g>
     <g id="line2d_30">
      <g>
       <use style="stroke:#000000;stroke-width:0.5;" x="338.911875" xlink:href="#m23e9eb6201" y="28.4"/>
      </g>
     </g>
     <g id="text_11">
      <!-- −20 -->
      <g transform="translate(328.35953125 182.5984375)scale(0.1 -0.1)">
       <use xlink:href="#BitstreamVeraSans-Roman-2212"/>
       <use x="83.7890625" xlink:href="#BitstreamVeraSans-Roman-32"/>
       <use x="147.412109375" xlink:href="#BitstreamVeraSans-Roman-30"/>
      </g>
     </g>
    </g>
    <g id="xtick_7">
     <g id="line2d_31">
      <g>
       <use style="stroke:#000000;stroke-width:0.5;" x="387.309375" xlink:href="#md1279ceef9" y="171.0"/>
      </g>
     </g>
     <g id="line2d_32">
      <g>
       <use style="stroke:#000000;stroke-width:0.5;" x="387.309375" xlink:href="#m23e9eb6201" y="28.4"/>
      </g>
     </g>
     <g id="text_12">
      <!-- 0 -->
      <g transform="translate(384.128125 182.5984375)scale(0.1 -0.1)">
       <use xlink:href="#BitstreamVeraSans-Roman-30"/>
      </g>
     </g>
    </g>
    <g id="xtick_8">
     <g id="line2d_33">
      <g>
       <use style="stroke:#000000;stroke-width:0.5;" x="435.706875" xlink:href="#md1279ceef9" y="171.0"/>
      </g>
     </g>
     <g id="line2d_34">
      <g>
       <use style="stroke:#000000;stroke-width:0.5;" x="435.706875" xlink:href="#m23e9eb6201" y="28.4"/>
      </g>
     </g>
     <g id="text_13">
      <!-- 20 -->
      <g transform="translate(429.344375 182.5984375)scale(0.1 -0.1)">
       <use xlink:href="#BitstreamVeraSans-Roman-32"/>
       <use x="63.623046875" xlink:href="#BitstreamVeraSans-Roman-30"/>
      </g>
     </g>
    </g>
    <g id="xtick_9">
     <g id="line2d_35">
      <g>
       <use style="stroke:#000000;stroke-width:0.5;" x="484.104375" xlink:href="#md1279ceef9" y="171.0"/>
      </g>
     </g>
     <g id="line2d_36">
      <g>
       <use style="stroke:#000000;stroke-width:0.5;" x="484.104375" xlink:href="#m23e9eb6201" y="28.4"/>
      </g>
     </g>
     <g id="text_14">
      <!-- 40 -->
      <g transform="translate(477.741875 182.5984375)scale(0.1 -0.1)">
       <use xlink:href="#BitstreamVeraSans-Roman-34"/>
       <use x="63.623046875" xlink:href="#BitstreamVeraSans-Roman-30"/>
      </g>
     </g>
    </g>
    <g id="xtick_10">
     <g id="line2d_37">
      <g>
       <use style="stroke:#000000;stroke-width:0.5;" x="532.501875" xlink:href="#md1279ceef9" y="171.0"/>
      </g>
     </g>
     <g id="line2d_38">
      <g>
       <use style="stroke:#000000;stroke-width:0.5;" x="532.501875" xlink:href="#m23e9eb6201" y="28.4"/>
      </g>
     </g>
     <g id="text_15">
      <!-- 60 -->
      <g transform="translate(526.139375 182.5984375)scale(0.1 -0.1)">
       <use xlink:href="#BitstreamVeraSans-Roman-36"/>
       <use x="63.623046875" xlink:href="#BitstreamVeraSans-Roman-30"/>
      </g>
     </g>
    </g>
    <g id="text_16">
     <!-- position -->
     <g transform="translate(418.09921875 201.07578125)scale(0.15 -0.15)">
      <use xlink:href="#BitstreamVeraSans-Roman-70"/>
      <use x="63.4765625" xlink:href="#BitstreamVeraSans-Roman-6f"/>
      <use x="124.658203125" xlink:href="#BitstreamVeraSans-Roman-73"/>
      <use x="176.7578125" xlink:href="#BitstreamVeraSans-Roman-69"/>
      <use x="204.541015625" xlink:href="#BitstreamVeraSans-Roman-74"/>
      <use x="243.75" xlink:href="#BitstreamVeraSans-Roman-69"/>
      <use x="271.533203125" xlink:href="#BitstreamVeraSans-Roman-6f"/>
      <use x="332.71484375" xlink:href="#BitstreamVeraSans-Roman-6e"/>
     </g>
    </g>
   </g>
   <g id="matplotlib.axis_4">
    <g id="ytick_3">
     <g id="line2d_39">
      <g>
       <use style="stroke:#000000;stroke-width:0.5;" x="326.8125" xlink:href="#mdcacee111e" y="171.0"/>
      </g>
     </g>
     <g id="line2d_40">
      <g>
       <use style="stroke:#000000;stroke-width:0.5;" x="568.8" xlink:href="#m2c9cd8897a" y="171.0"/>
      </g>
     </g>
     <g id="text_17">
      <!-- 0 -->
      <g transform="translate(316.45 173.759375)scale(0.1 -0.1)">
       <use xlink:href="#BitstreamVeraSans-Roman-30"/>
      </g>
     </g>
    </g>
    <g id="ytick_4">
     <g id="line2d_41">
      <g>
       <use style="stroke:#000000;stroke-width:0.5;" x="326.8125" xlink:href="#mdcacee111e" y="41.3636363636"/>
      </g>
     </g>
     <g id="line2d_42">
      <g>
       <use style="stroke:#000000;stroke-width:0.5;" x="568.8" xlink:href="#m2c9cd8897a" y="41.3636363636"/>
      </g>
     </g>
     <g id="text_18">
      <!-- 2 -->
      <g transform="translate(316.45 44.1230113636)scale(0.1 -0.1)">
       <use xlink:href="#BitstreamVeraSans-Roman-32"/>
      </g>
     </g>
    </g>
    <g id="text_19">
     <!-- concentration -->
     <g transform="translate(308.33046875 151.643359375)rotate(-90.0)scale(0.15 -0.15)">
      <use xlink:href="#BitstreamVeraSans-Roman-63"/>
      <use x="54.98046875" xlink:href="#BitstreamVeraSans-Roman-6f"/>
      <use x="116.162109375" xlink:href="#BitstreamVeraSans-Roman-6e"/>
      <use x="179.541015625" xlink:href="#BitstreamVeraSans-Roman-63"/>
      <use x="234.521484375" xlink:href="#BitstreamVeraSans-Roman-65"/>
      <use x="296.044921875" xlink:href="#BitstreamVeraSans-Roman-6e"/>
      <use x="359.423828125" xlink:href="#BitstreamVeraSans-Roman-74"/>
      <use x="398.6328125" xlink:href="#BitstreamVeraSans-Roman-72"/>
      <use x="439.74609375" xlink:href="#BitstreamVeraSans-Roman-61"/>
      <use x="501.025390625" xlink:href="#BitstreamVeraSans-Roman-74"/>
      <use x="540.234375" xlink:href="#BitstreamVeraSans-Roman-69"/>
      <use x="568.017578125" xlink:href="#BitstreamVeraSans-Roman-6f"/>
      <use x="629.19921875" xlink:href="#BitstreamVeraSans-Roman-6e"/>
     </g>
    </g>
   </g>
   <g id="text_20">
    <!-- k = 0.3 -->
    <defs>
     <path d="M 46.578125 39.3125 
Q 53.953125 37.40625 57.78125 32.6875 
Q 61.625 27.984375 61.625 20.703125 
Q 61.625 9.859375 53.3125 4.21875 
Q 45.015625 -1.421875 29.109375 -1.421875 
Q 23.484375 -1.421875 17.84375 -0.515625 
Q 12.203125 0.390625 6.6875 2.203125 
L 6.6875 16.703125 
Q 11.96875 14.0625 17.15625 12.71875 
Q 22.359375 11.375 27.390625 11.375 
Q 34.859375 11.375 38.84375 13.953125 
Q 42.828125 16.546875 42.828125 21.390625 
Q 42.828125 26.375 38.75 28.9375 
Q 34.671875 31.5 26.703125 31.5 
L 19.1875 31.5 
L 19.1875 43.609375 
L 27.09375 43.609375 
Q 34.1875 43.609375 37.640625 45.828125 
Q 41.109375 48.046875 41.109375 52.59375 
Q 41.109375 56.78125 37.734375 59.078125 
Q 34.375 61.375 28.21875 61.375 
Q 23.6875 61.375 19.046875 60.34375 
Q 14.40625 59.328125 9.8125 57.328125 
L 9.8125 71.09375 
Q 15.375 72.65625 20.84375 73.4375 
Q 26.3125 74.21875 31.59375 74.21875 
Q 45.796875 74.21875 52.84375 69.546875 
Q 59.90625 64.890625 59.90625 55.515625 
Q 59.90625 49.125 56.53125 45.046875 
Q 53.171875 40.96875 46.578125 39.3125 
" id="BitstreamVeraSans-Bold-33"/>
    </defs>
    <g transform="translate(418.0265625 23.4)scale(0.15 -0.15)">
     <use xlink:href="#BitstreamVeraSans-Bold-6b"/>
     <use x="66.50390625" xlink:href="#BitstreamVeraSans-Bold-20"/>
     <use x="101.318359375" xlink:href="#BitstreamVeraSans-Bold-3d"/>
     <use x="185.107421875" xlink:href="#BitstreamVeraSans-Bold-20"/>
     <use x="219.921875" xlink:href="#BitstreamVeraSans-Bold-30"/>
     <use x="289.501953125" xlink:href="#BitstreamVeraSans-Bold-2e"/>
     <use x="327.490234375" xlink:href="#BitstreamVeraSans-Bold-33"/>
    </g>
   </g>
  </g>
  <g id="axes_3">
   <g id="patch_12">
    <path d="M 611.2125 171 
L 853.2 171 
L 853.2 28.4 
L 611.2125 28.4 
z
" style="fill:#ffffff;"/>
   </g>
   <g id="line2d_43">
    <path clip-path="url(#pa393172fb4)" d="M 381.3345 171 
L 657.068625 171 
L 659.50875 158.685377 
L 661.948875 159.981653 
L 664.389 143.778203 
L 666.829125 141.833789 
L 669.26925 114.611991 
L 671.709375 76.371848 
L 674.1495 69.242329 
L 676.589625 71.186743 
L 679.02975 69.890467 
L 681.469875 113.315715 
L 683.91 113.963853 
L 686.350125 171 
L 865 171 
L 865 171 
" style="fill:none;stroke:#0000ff;stroke-linecap:square;stroke-width:2.0;"/>
   </g>
   <g id="line2d_44">
    <path clip-path="url(#pa393172fb4)" d="M 381.3345 171 
L 627.787125 171 
L 630.22725 170.351862 
L 632.667375 171 
L 637.547625 171 
L 639.98775 169.703724 
L 642.427875 169.055586 
L 644.868 171 
L 647.308125 171 
L 652.188375 168.407448 
L 654.6285 165.166758 
L 657.068625 167.111172 
L 659.50875 164.51862 
L 661.948875 160.629792 
L 664.389 158.037239 
L 666.829125 157.389101 
L 669.26925 144.426341 
L 671.709375 154.796549 
L 674.1495 148.963307 
L 676.589625 145.722617 
L 679.02975 134.70427 
L 681.469875 124.9822 
L 683.91 117.852682 
L 686.350125 119.797096 
L 688.79025 122.389648 
L 691.230375 132.111718 
L 693.6705 128.871028 
L 696.110625 141.185651 
L 698.55075 129.519166 
L 700.990875 139.889375 
L 703.431 152.203997 
L 705.871125 150.259583 
L 710.751375 161.926068 
L 713.1915 163.222344 
L 715.631625 167.111172 
L 718.07175 168.407448 
L 720.511875 171 
L 722.952 171 
L 725.392125 170.351862 
L 727.83225 171 
L 865 171 
L 865 171 
" style="fill:none;stroke:#2a00d4;stroke-linecap:square;stroke-width:2.0;"/>
   </g>
   <g id="line2d_45">
    <path clip-path="url(#pa393172fb4)" d="M 381.3345 171 
L 627.787125 171 
L 630.22725 169.703724 
L 632.667375 171 
L 639.98775 171 
L 642.427875 169.703724 
L 644.868 171 
L 647.308125 167.75931 
L 649.74825 169.703724 
L 652.188375 169.703724 
L 654.6285 170.351862 
L 657.068625 165.814896 
L 659.50875 167.75931 
L 661.948875 165.166758 
L 664.389 160.629792 
L 666.829125 161.926068 
L 669.26925 159.333515 
L 671.709375 159.333515 
L 674.1495 155.444687 
L 676.589625 155.444687 
L 679.02975 158.685377 
L 681.469875 150.259583 
L 683.91 149.611445 
L 686.350125 141.185651 
L 688.79025 138.593098 
L 691.230375 138.593098 
L 693.6705 140.537513 
L 696.110625 140.537513 
L 698.55075 136.648684 
L 700.990875 136.000546 
L 703.431 141.833789 
L 705.871125 140.537513 
L 708.31125 132.759856 
L 710.751375 141.833789 
L 713.1915 149.611445 
L 715.631625 141.833789 
L 718.07175 151.555859 
L 720.511875 156.092825 
L 722.952 154.796549 
L 725.392125 161.926068 
L 727.83225 161.926068 
L 730.272375 165.814896 
L 732.7125 165.814896 
L 735.152625 167.111172 
L 737.59275 167.111172 
L 742.473 168.407448 
L 744.913125 171 
L 747.35325 170.351862 
L 749.793375 170.351862 
L 752.2335 171 
L 865 171 
L 865 171 
" style="fill:none;stroke:#5500aa;stroke-linecap:square;stroke-width:2.0;"/>
   </g>
   <g id="line2d_46">
    <path clip-path="url(#pa393172fb4)" d="M 381.3345 171 
L 618.026625 171 
L 620.46675 170.351862 
L 622.906875 171 
L 625.347 171 
L 627.787125 170.351862 
L 630.22725 171 
L 635.1075 171 
L 637.547625 170.351862 
L 639.98775 170.351862 
L 642.427875 171 
L 647.308125 171 
L 649.74825 169.055586 
L 652.188375 170.351862 
L 654.6285 170.351862 
L 657.068625 169.055586 
L 659.50875 168.407448 
L 661.948875 167.111172 
L 664.389 167.75931 
L 666.829125 166.463034 
L 669.26925 165.814896 
L 671.709375 158.685377 
L 674.1495 160.629792 
L 676.589625 161.27793 
L 679.02975 156.740963 
L 681.469875 160.629792 
L 683.91 158.037239 
L 686.350125 158.037239 
L 688.79025 154.796549 
L 691.230375 156.740963 
L 693.6705 150.259583 
L 696.110625 153.500273 
L 698.55075 145.722617 
L 700.990875 147.667031 
L 703.431 142.481927 
L 705.871125 141.833789 
L 708.31125 139.889375 
L 710.751375 144.426341 
L 713.1915 141.185651 
L 715.631625 139.241237 
L 718.07175 144.426341 
L 720.511875 145.074479 
L 722.952 146.370755 
L 725.392125 148.963307 
L 727.83225 152.203997 
L 730.272375 147.667031 
L 732.7125 154.148411 
L 735.152625 155.444687 
L 737.59275 161.926068 
L 740.032875 157.389101 
L 742.473 161.27793 
L 744.913125 163.870482 
L 747.35325 167.111172 
L 749.793375 162.574206 
L 752.2335 166.463034 
L 754.673625 165.814896 
L 759.553875 171 
L 761.994 167.75931 
L 764.434125 169.703724 
L 766.87425 169.703724 
L 769.314375 171 
L 865 171 
L 865 171 
" style="fill:none;stroke:#800080;stroke-linecap:square;stroke-width:2.0;"/>
   </g>
   <g id="line2d_47">
    <path clip-path="url(#pa393172fb4)" d="M 381.3345 171 
L 620.46675 171 
L 622.906875 170.351862 
L 625.347 171 
L 632.667375 171 
L 635.1075 170.351862 
L 637.547625 171 
L 649.74825 171 
L 652.188375 169.055586 
L 654.6285 171 
L 657.068625 168.407448 
L 659.50875 169.055586 
L 661.948875 170.351862 
L 664.389 169.055586 
L 666.829125 167.111172 
L 669.26925 167.75931 
L 671.709375 164.51862 
L 674.1495 167.75931 
L 676.589625 167.75931 
L 679.02975 163.870482 
L 681.469875 159.333515 
L 683.91 164.51862 
L 686.350125 160.629792 
L 688.79025 165.166758 
L 691.230375 159.333515 
L 696.110625 154.148411 
L 698.55075 157.389101 
L 700.990875 153.500273 
L 703.431 157.389101 
L 705.871125 153.500273 
L 708.31125 145.722617 
L 710.751375 148.315169 
L 713.1915 154.796549 
L 715.631625 142.481927 
L 718.07175 139.889375 
L 720.511875 146.370755 
L 722.952 144.426341 
L 725.392125 150.907721 
L 727.83225 150.907721 
L 730.272375 152.203997 
L 732.7125 141.185651 
L 737.59275 148.963307 
L 740.032875 148.963307 
L 742.473 154.148411 
L 744.913125 154.796549 
L 747.35325 161.926068 
L 749.793375 157.389101 
L 752.2335 161.27793 
L 754.673625 161.27793 
L 757.11375 160.629792 
L 759.553875 163.870482 
L 761.994 158.037239 
L 764.434125 165.814896 
L 766.87425 165.814896 
L 771.7545 168.407448 
L 774.194625 167.111172 
L 776.63475 166.463034 
L 779.074875 170.351862 
L 781.515 168.407448 
L 783.955125 171 
L 786.39525 171 
L 788.835375 169.703724 
L 791.2755 170.351862 
L 796.15575 170.351862 
L 798.595875 171 
L 865 171 
L 865 171 
" style="fill:none;stroke:#aa0055;stroke-linecap:square;stroke-width:2.0;"/>
   </g>
   <g id="line2d_48">
    <path clip-path="url(#pa393172fb4)" d="M 381.3345 171 
L 620.46675 171 
L 622.906875 170.351862 
L 625.347 171 
L 649.74825 171 
L 652.188375 168.407448 
L 654.6285 171 
L 657.068625 169.055586 
L 661.948875 170.351862 
L 664.389 170.351862 
L 666.829125 169.055586 
L 669.26925 168.407448 
L 671.709375 169.703724 
L 674.1495 169.703724 
L 676.589625 166.463034 
L 679.02975 167.75931 
L 681.469875 166.463034 
L 683.91 166.463034 
L 686.350125 167.75931 
L 688.79025 165.166758 
L 691.230375 161.27793 
L 693.6705 159.981653 
L 696.110625 160.629792 
L 698.55075 163.870482 
L 700.990875 161.27793 
L 703.431 159.981653 
L 705.871125 159.981653 
L 710.751375 154.796549 
L 713.1915 150.907721 
L 715.631625 148.963307 
L 718.07175 150.259583 
L 720.511875 152.203997 
L 722.952 147.018893 
L 725.392125 154.796549 
L 727.83225 149.611445 
L 730.272375 152.852135 
L 732.7125 146.370755 
L 735.152625 147.667031 
L 737.59275 145.722617 
L 740.032875 148.963307 
L 742.473 150.259583 
L 744.913125 153.500273 
L 747.35325 148.963307 
L 752.2335 151.555859 
L 754.673625 154.148411 
L 757.11375 156.092825 
L 759.553875 155.444687 
L 761.994 159.333515 
L 764.434125 161.926068 
L 766.87425 157.389101 
L 769.314375 162.574206 
L 771.7545 161.27793 
L 774.194625 164.51862 
L 776.63475 162.574206 
L 779.074875 168.407448 
L 781.515 164.51862 
L 783.955125 165.166758 
L 786.39525 165.166758 
L 788.835375 168.407448 
L 791.2755 169.055586 
L 793.715625 169.055586 
L 796.15575 169.703724 
L 798.595875 169.703724 
L 801.036 170.351862 
L 803.476125 168.407448 
L 805.91625 170.351862 
L 808.356375 171 
L 810.7965 170.351862 
L 813.236625 170.351862 
L 815.67675 171 
L 818.116875 170.351862 
L 820.557 171 
L 865 171 
L 865 171 
" style="fill:none;stroke:#d4002b;stroke-linecap:square;stroke-width:2.0;"/>
   </g>
   <g id="line2d_49">
    <path clip-path="url(#pa393172fb4)" d="M 381.3345 171 
L 637.547625 171 
L 639.98775 169.703724 
L 642.427875 171 
L 644.868 171 
L 647.308125 170.351862 
L 649.74825 171 
L 657.068625 171 
L 659.50875 169.703724 
L 664.389 169.703724 
L 666.829125 170.351862 
L 669.26925 170.351862 
L 671.709375 171 
L 674.1495 167.111172 
L 676.589625 167.75931 
L 679.02975 169.055586 
L 681.469875 169.703724 
L 683.91 169.055586 
L 686.350125 169.703724 
L 688.79025 164.51862 
L 691.230375 168.407448 
L 693.6705 167.111172 
L 696.110625 165.166758 
L 698.55075 165.166758 
L 700.990875 163.870482 
L 703.431 161.926068 
L 705.871125 164.51862 
L 708.31125 158.037239 
L 710.751375 161.27793 
L 713.1915 155.444687 
L 715.631625 159.981653 
L 718.07175 158.685377 
L 720.511875 161.926068 
L 722.952 151.555859 
L 725.392125 152.203997 
L 727.83225 154.148411 
L 730.272375 152.203997 
L 732.7125 154.796549 
L 735.152625 150.907721 
L 737.59275 150.259583 
L 740.032875 151.555859 
L 742.473 151.555859 
L 744.913125 147.018893 
L 747.35325 150.259583 
L 749.793375 150.907721 
L 752.2335 150.259583 
L 754.673625 150.259583 
L 757.11375 152.852135 
L 759.553875 152.203997 
L 761.994 156.740963 
L 766.87425 156.740963 
L 769.314375 152.203997 
L 771.7545 158.685377 
L 774.194625 156.092825 
L 776.63475 159.333515 
L 779.074875 158.685377 
L 781.515 154.148411 
L 783.955125 158.037239 
L 788.835375 167.111172 
L 791.2755 165.814896 
L 793.715625 167.111172 
L 796.15575 163.870482 
L 798.595875 165.814896 
L 801.036 167.111172 
L 803.476125 169.055586 
L 808.356375 170.351862 
L 810.7965 169.055586 
L 815.67675 169.055586 
L 818.116875 169.703724 
L 820.557 169.703724 
L 822.997125 170.351862 
L 830.3175 170.351862 
L 832.757625 169.703724 
L 835.19775 171 
L 865 171 
L 865 171 
" style="fill:none;stroke:#ff0000;stroke-linecap:square;stroke-width:2.0;"/>
   </g>
   <g id="patch_13">
    <path d="M 611.2125 28.4 
L 853.2 28.4 
" style="fill:none;stroke:#000000;stroke-linecap:square;stroke-linejoin:miter;"/>
   </g>
   <g id="patch_14">
    <path d="M 853.2 171 
L 853.2 28.4 
" style="fill:none;stroke:#000000;stroke-linecap:square;stroke-linejoin:miter;"/>
   </g>
   <g id="patch_15">
    <path d="M 611.2125 171 
L 853.2 171 
" style="fill:none;stroke:#000000;stroke-linecap:square;stroke-linejoin:miter;"/>
   </g>
   <g id="patch_16">
    <path d="M 611.2125 171 
L 611.2125 28.4 
" style="fill:none;stroke:#000000;stroke-linecap:square;stroke-linejoin:miter;"/>
   </g>
   <g id="matplotlib.axis_5">
    <g id="xtick_11">
     <g id="line2d_50">
      <g>
       <use style="stroke:#000000;stroke-width:0.5;" x="623.311875" xlink:href="#md1279ceef9" y="171.0"/>
      </g>
     </g>
     <g id="line2d_51">
      <g>
       <use style="stroke:#000000;stroke-width:0.5;" x="623.311875" xlink:href="#m23e9eb6201" y="28.4"/>
      </g>
     </g>
     <g id="text_21">
      <!-- −20 -->
      <g transform="translate(612.75953125 182.5984375)scale(0.1 -0.1)">
       <use xlink:href="#BitstreamVeraSans-Roman-2212"/>
       <use x="83.7890625" xlink:href="#BitstreamVeraSans-Roman-32"/>
       <use x="147.412109375" xlink:href="#BitstreamVeraSans-Roman-30"/>
      </g>
     </g>
    </g>
    <g id="xtick_12">
     <g id="line2d_52">
      <g>
       <use style="stroke:#000000;stroke-width:0.5;" x="671.709375" xlink:href="#md1279ceef9" y="171.0"/>
      </g>
     </g>
     <g id="line2d_53">
      <g>
       <use style="stroke:#000000;stroke-width:0.5;" x="671.709375" xlink:href="#m23e9eb6201" y="28.4"/>
      </g>
     </g>
     <g id="text_22">
      <!-- 0 -->
      <g transform="translate(668.528125 182.5984375)scale(0.1 -0.1)">
       <use xlink:href="#BitstreamVeraSans-Roman-30"/>
      </g>
     </g>
    </g>
    <g id="xtick_13">
     <g id="line2d_54">
      <g>
       <use style="stroke:#000000;stroke-width:0.5;" x="720.106875" xlink:href="#md1279ceef9" y="171.0"/>
      </g>
     </g>
     <g id="line2d_55">
      <g>
       <use style="stroke:#000000;stroke-width:0.5;" x="720.106875" xlink:href="#m23e9eb6201" y="28.4"/>
      </g>
     </g>
     <g id="text_23">
      <!-- 20 -->
      <g transform="translate(713.744375 182.5984375)scale(0.1 -0.1)">
       <use xlink:href="#BitstreamVeraSans-Roman-32"/>
       <use x="63.623046875" xlink:href="#BitstreamVeraSans-Roman-30"/>
      </g>
     </g>
    </g>
    <g id="xtick_14">
     <g id="line2d_56">
      <g>
       <use style="stroke:#000000;stroke-width:0.5;" x="768.504375" xlink:href="#md1279ceef9" y="171.0"/>
      </g>
     </g>
     <g id="line2d_57">
      <g>
       <use style="stroke:#000000;stroke-width:0.5;" x="768.504375" xlink:href="#m23e9eb6201" y="28.4"/>
      </g>
     </g>
     <g id="text_24">
      <!-- 40 -->
      <g transform="translate(762.141875 182.5984375)scale(0.1 -0.1)">
       <use xlink:href="#BitstreamVeraSans-Roman-34"/>
       <use x="63.623046875" xlink:href="#BitstreamVeraSans-Roman-30"/>
      </g>
     </g>
    </g>
    <g id="xtick_15">
     <g id="line2d_58">
      <g>
       <use style="stroke:#000000;stroke-width:0.5;" x="816.901875" xlink:href="#md1279ceef9" y="171.0"/>
      </g>
     </g>
     <g id="line2d_59">
      <g>
       <use style="stroke:#000000;stroke-width:0.5;" x="816.901875" xlink:href="#m23e9eb6201" y="28.4"/>
      </g>
     </g>
     <g id="text_25">
      <!-- 60 -->
      <g transform="translate(810.539375 182.5984375)scale(0.1 -0.1)">
       <use xlink:href="#BitstreamVeraSans-Roman-36"/>
       <use x="63.623046875" xlink:href="#BitstreamVeraSans-Roman-30"/>
      </g>
     </g>
    </g>
    <g id="text_26">
     <!-- position -->
     <g transform="translate(702.49921875 201.07578125)scale(0.15 -0.15)">
      <use xlink:href="#BitstreamVeraSans-Roman-70"/>
      <use x="63.4765625" xlink:href="#BitstreamVeraSans-Roman-6f"/>
      <use x="124.658203125" xlink:href="#BitstreamVeraSans-Roman-73"/>
      <use x="176.7578125" xlink:href="#BitstreamVeraSans-Roman-69"/>
      <use x="204.541015625" xlink:href="#BitstreamVeraSans-Roman-74"/>
      <use x="243.75" xlink:href="#BitstreamVeraSans-Roman-69"/>
      <use x="271.533203125" xlink:href="#BitstreamVeraSans-Roman-6f"/>
      <use x="332.71484375" xlink:href="#BitstreamVeraSans-Roman-6e"/>
     </g>
    </g>
   </g>
   <g id="matplotlib.axis_6">
    <g id="ytick_5">
     <g id="line2d_60">
      <g>
       <use style="stroke:#000000;stroke-width:0.5;" x="611.2125" xlink:href="#mdcacee111e" y="171.0"/>
      </g>
     </g>
     <g id="line2d_61">
      <g>
       <use style="stroke:#000000;stroke-width:0.5;" x="853.2" xlink:href="#m2c9cd8897a" y="171.0"/>
      </g>
     </g>
     <g id="text_27">
      <!-- 0 -->
      <g transform="translate(600.85 173.759375)scale(0.1 -0.1)">
       <use xlink:href="#BitstreamVeraSans-Roman-30"/>
      </g>
     </g>
    </g>
    <g id="ytick_6">
     <g id="line2d_62">
      <g>
       <use style="stroke:#000000;stroke-width:0.5;" x="611.2125" xlink:href="#mdcacee111e" y="41.3636363636"/>
      </g>
     </g>
     <g id="line2d_63">
      <g>
       <use style="stroke:#000000;stroke-width:0.5;" x="853.2" xlink:href="#m2c9cd8897a" y="41.3636363636"/>
      </g>
     </g>
     <g id="text_28">
      <!-- 2 -->
      <g transform="translate(600.85 44.1230113636)scale(0.1 -0.1)">
       <use xlink:href="#BitstreamVeraSans-Roman-32"/>
      </g>
     </g>
    </g>
    <g id="text_29">
     <!-- concentration -->
     <g transform="translate(592.73046875 151.643359375)rotate(-90.0)scale(0.15 -0.15)">
      <use xlink:href="#BitstreamVeraSans-Roman-63"/>
      <use x="54.98046875" xlink:href="#BitstreamVeraSans-Roman-6f"/>
      <use x="116.162109375" xlink:href="#BitstreamVeraSans-Roman-6e"/>
      <use x="179.541015625" xlink:href="#BitstreamVeraSans-Roman-63"/>
      <use x="234.521484375" xlink:href="#BitstreamVeraSans-Roman-65"/>
      <use x="296.044921875" xlink:href="#BitstreamVeraSans-Roman-6e"/>
      <use x="359.423828125" xlink:href="#BitstreamVeraSans-Roman-74"/>
      <use x="398.6328125" xlink:href="#BitstreamVeraSans-Roman-72"/>
      <use x="439.74609375" xlink:href="#BitstreamVeraSans-Roman-61"/>
      <use x="501.025390625" xlink:href="#BitstreamVeraSans-Roman-74"/>
      <use x="540.234375" xlink:href="#BitstreamVeraSans-Roman-69"/>
      <use x="568.017578125" xlink:href="#BitstreamVeraSans-Roman-6f"/>
      <use x="629.19921875" xlink:href="#BitstreamVeraSans-Roman-6e"/>
     </g>
    </g>
   </g>
   <g id="text_30">
    <!-- k = 0.4 -->
    <defs>
     <path d="M 36.8125 57.421875 
L 16.21875 26.90625 
L 36.8125 26.90625 
z
M 33.6875 72.90625 
L 54.59375 72.90625 
L 54.59375 26.90625 
L 64.984375 26.90625 
L 64.984375 13.28125 
L 54.59375 13.28125 
L 54.59375 0 
L 36.8125 0 
L 36.8125 13.28125 
L 4.5 13.28125 
L 4.5 29.390625 
z
" id="BitstreamVeraSans-Bold-34"/>
    </defs>
    <g transform="translate(702.4265625 23.4)scale(0.15 -0.15)">
     <use xlink:href="#BitstreamVeraSans-Bold-6b"/>
     <use x="66.50390625" xlink:href="#BitstreamVeraSans-Bold-20"/>
     <use x="101.318359375" xlink:href="#BitstreamVeraSans-Bold-3d"/>
     <use x="185.107421875" xlink:href="#BitstreamVeraSans-Bold-20"/>
     <use x="219.921875" xlink:href="#BitstreamVeraSans-Bold-30"/>
     <use x="289.501953125" xlink:href="#BitstreamVeraSans-Bold-2e"/>
     <use x="327.490234375" xlink:href="#BitstreamVeraSans-Bold-34"/>
    </g>
   </g>
  </g>
 </g>
 <defs>
  <clipPath id="pa393172fb4">
   <rect height="142.6" width="241.9875" x="611.2125" y="28.4"/>
  </clipPath>
  <clipPath id="p4cebe82c12">
   <rect height="142.6" width="241.9875" x="42.4125" y="28.4"/>
  </clipPath>
  <clipPath id="p0dbb87f5ac">
   <rect height="142.6" width="241.9875" x="326.8125" y="28.4"/>
  </clipPath>
 </defs>
</svg>
