<?xml version="1.0" encoding="utf-8" standalone="no"?>
<!DOCTYPE svg PUBLIC "-//W3C//DTD SVG 1.1//EN"
  "http://www.w3.org/Graphics/SVG/1.1/DTD/svg11.dtd">
<!-- Created with matplotlib (http://matplotlib.org/) -->
<svg height="216pt" version="1.1" viewBox="0 0 864 216" width="864pt" xmlns="http://www.w3.org/2000/svg" xmlns:xlink="http://www.w3.org/1999/xlink">
 <defs>
  <style type="text/css">
*{stroke-linecap:butt;stroke-linejoin:round;stroke-miterlimit:100000;}
  </style>
 </defs>
 <g id="figure_1">
  <g id="patch_1">
   <path d="M 0 216 
L 864 216 
L 864 0 
L 0 0 
z
" style="fill:#ffffff;"/>
  </g>
  <g id="axes_1">
   <g id="patch_2">
    <path d="M 48.825 171 
L 274.78125 171 
L 274.78125 28.4 
L 48.825 28.4 
z
" style="fill:#ffffff;"/>
   </g>
   <g id="line2d_1">
    <path clip-path="url(#pe99838410a)" d="M 48.825 158.036364 
L 50.707969 155.443636 
L 52.590938 155.443636 
L 54.473906 152.850909 
L 56.356875 150.258182 
L 58.239844 150.258182 
L 60.122813 150.258182 
L 62.005781 150.258182 
L 63.88875 150.258182 
L 65.771719 152.850909 
L 67.654688 152.850909 
L 69.537656 155.443636 
L 71.420625 155.443636 
L 73.303594 158.036364 
L 75.186563 155.443636 
L 77.069531 155.443636 
L 78.9525 155.443636 
L 80.835469 152.850909 
L 82.718438 152.850909 
L 84.601406 150.258182 
L 86.484375 147.665455 
L 88.367344 147.665455 
L 90.250313 145.072727 
L 92.133281 142.48 
L 94.01625 142.48 
L 95.899219 142.48 
L 97.782188 145.072727 
L 99.665156 147.665455 
L 101.548125 147.665455 
L 103.431094 147.665455 
L 105.314063 147.665455 
L 107.197031 150.258182 
L 109.08 147.665455 
L 110.962969 147.665455 
L 112.845938 150.258182 
L 114.728906 147.665455 
L 116.611875 145.072727 
L 118.494844 147.665455 
L 120.377813 150.258182 
L 122.260781 152.850909 
L 124.14375 150.258182 
L 126.026719 150.258182 
L 127.909688 147.665455 
L 129.792656 145.072727 
L 131.675625 145.072727 
L 133.558594 145.072727 
L 135.441563 142.48 
L 137.324531 139.887273 
L 139.2075 139.887273 
L 141.090469 139.887273 
L 142.973437 139.887273 
L 144.856406 139.887273 
L 146.739375 137.294545 
L 148.622344 139.887273 
L 150.505313 139.887273 
L 152.388281 142.48 
L 154.27125 139.887273 
L 156.154219 137.294545 
L 158.037188 134.701818 
L 159.920156 132.109091 
L 161.803125 132.109091 
L 163.686094 129.516364 
L 165.569063 126.923636 
L 167.452031 124.330909 
L 169.335 126.923636 
L 171.217969 124.330909 
L 173.100938 121.738182 
L 174.983906 119.145455 
L 176.866875 119.145455 
L 178.749844 121.738182 
L 180.632812 121.738182 
L 182.515781 119.145455 
L 184.39875 119.145455 
L 186.281719 119.145455 
L 188.164688 119.145455 
L 190.047656 119.145455 
L 191.930625 116.552727 
L 193.813594 113.96 
L 195.696563 111.367273 
L 197.579531 111.367273 
L 199.4625 113.96 
L 201.345469 111.367273 
L 203.228437 111.367273 
L 205.111406 108.774545 
L 206.994375 108.774545 
L 208.877344 106.181818 
L 210.760312 106.181818 
L 212.643281 108.774545 
L 214.52625 108.774545 
L 216.409219 108.774545 
L 218.292188 106.181818 
L 220.175156 106.181818 
L 222.058125 103.589091 
L 223.941094 103.589091 
L 225.824063 100.996364 
L 227.707031 98.403636 
L 229.59 95.810909 
L 231.472969 93.218182 
L 233.355938 90.625455 
L 235.238906 88.032727 
L 237.121875 88.032727 
L 239.004844 88.032727 
L 240.887812 90.625455 
L 242.770781 88.032727 
L 244.65375 85.44 
L 246.536719 85.44 
L 248.419688 88.032727 
L 250.302656 88.032727 
L 252.185625 88.032727 
L 254.068594 85.44 
L 255.951563 82.847273 
L 257.834531 82.847273 
L 259.7175 85.44 
L 261.600469 85.44 
L 263.483438 82.847273 
L 265.366406 80.254545 
L 267.249375 77.661818 
L 269.132344 77.661818 
L 271.015312 80.254545 
L 272.898281 80.254545 
L 274.78125 80.254545 
" style="fill:none;stroke:#0000ff;stroke-linecap:square;"/>
   </g>
   <g id="line2d_2">
    <path clip-path="url(#pe99838410a)" d="M 48.825 158.036364 
L 50.707969 155.443636 
L 52.590938 152.850909 
L 54.473906 155.443636 
L 56.356875 158.036364 
L 58.239844 158.036364 
L 60.122813 155.443636 
L 62.005781 155.443636 
L 63.88875 152.850909 
L 65.771719 150.258182 
L 67.654688 150.258182 
L 69.537656 147.665455 
L 71.420625 150.258182 
L 73.303594 147.665455 
L 75.186563 145.072727 
L 77.069531 145.072727 
L 78.9525 145.072727 
L 80.835469 145.072727 
L 82.718438 142.48 
L 84.601406 142.48 
L 86.484375 139.887273 
L 88.367344 137.294545 
L 90.250313 139.887273 
L 92.133281 142.48 
L 94.01625 139.887273 
L 95.899219 142.48 
L 97.782188 142.48 
L 99.665156 139.887273 
L 101.548125 139.887273 
L 103.431094 137.294545 
L 105.314063 139.887273 
L 107.197031 137.294545 
L 109.08 134.701818 
L 110.962969 137.294545 
L 112.845938 134.701818 
L 114.728906 134.701818 
L 116.611875 134.701818 
L 118.494844 132.109091 
L 120.377813 134.701818 
L 122.260781 132.109091 
L 124.14375 129.516364 
L 126.026719 132.109091 
L 127.909688 129.516364 
L 129.792656 126.923636 
L 131.675625 126.923636 
L 133.558594 124.330909 
L 135.441563 126.923636 
L 137.324531 129.516364 
L 139.2075 126.923636 
L 141.090469 129.516364 
L 142.973437 132.109091 
L 144.856406 129.516364 
L 146.739375 129.516364 
L 148.622344 132.109091 
L 150.505313 132.109091 
L 152.388281 134.701818 
L 154.27125 134.701818 
L 156.154219 132.109091 
L 158.037188 132.109091 
L 159.920156 132.109091 
L 161.803125 129.516364 
L 163.686094 132.109091 
L 165.569063 129.516364 
L 167.452031 129.516364 
L 169.335 126.923636 
L 171.217969 124.330909 
L 173.100938 124.330909 
L 174.983906 126.923636 
L 176.866875 124.330909 
L 178.749844 124.330909 
L 180.632812 121.738182 
L 182.515781 121.738182 
L 184.39875 119.145455 
L 186.281719 116.552727 
L 188.164688 116.552727 
L 190.047656 113.96 
L 191.930625 111.367273 
L 193.813594 113.96 
L 195.696563 116.552727 
L 197.579531 116.552727 
L 199.4625 119.145455 
L 201.345469 119.145455 
L 203.228437 119.145455 
L 205.111406 119.145455 
L 206.994375 121.738182 
L 208.877344 119.145455 
L 210.760312 119.145455 
L 212.643281 116.552727 
L 214.52625 116.552727 
L 216.409219 113.96 
L 218.292188 113.96 
L 220.175156 113.96 
L 222.058125 113.96 
L 223.941094 111.367273 
L 225.824063 108.774545 
L 227.707031 108.774545 
L 229.59 111.367273 
L 231.472969 108.774545 
L 233.355938 111.367273 
L 235.238906 111.367273 
L 237.121875 108.774545 
L 239.004844 106.181818 
L 240.887812 106.181818 
L 242.770781 108.774545 
L 244.65375 111.367273 
L 246.536719 111.367273 
L 248.419688 113.96 
L 250.302656 113.96 
L 252.185625 113.96 
L 254.068594 116.552727 
L 255.951563 116.552727 
L 257.834531 116.552727 
L 259.7175 119.145455 
L 261.600469 116.552727 
L 263.483438 113.96 
L 265.366406 116.552727 
L 267.249375 113.96 
L 269.132344 111.367273 
L 271.015312 111.367273 
L 272.898281 113.96 
L 274.78125 116.552727 
" style="fill:none;stroke:#008000;stroke-linecap:square;"/>
   </g>
   <g id="line2d_3">
    <path clip-path="url(#pe99838410a)" d="M 48.825 158.036364 
L 50.707969 158.036364 
L 52.590938 158.036364 
L 54.473906 155.443636 
L 56.356875 158.036364 
L 58.239844 155.443636 
L 60.122813 155.443636 
L 62.005781 152.850909 
L 63.88875 150.258182 
L 65.771719 147.665455 
L 67.654688 145.072727 
L 69.537656 145.072727 
L 71.420625 145.072727 
L 73.303594 142.48 
L 75.186563 145.072727 
L 77.069531 147.665455 
L 78.9525 150.258182 
L 80.835469 147.665455 
L 82.718438 147.665455 
L 84.601406 145.072727 
L 86.484375 145.072727 
L 88.367344 147.665455 
L 90.250313 147.665455 
L 92.133281 147.665455 
L 94.01625 145.072727 
L 95.899219 142.48 
L 97.782188 139.887273 
L 99.665156 137.294545 
L 101.548125 139.887273 
L 103.431094 142.48 
L 105.314063 139.887273 
L 107.197031 142.48 
L 109.08 139.887273 
L 110.962969 139.887273 
L 112.845938 137.294545 
L 114.728906 139.887273 
L 116.611875 142.48 
L 118.494844 142.48 
L 120.377813 142.48 
L 122.260781 139.887273 
L 124.14375 137.294545 
L 126.026719 137.294545 
L 127.909688 139.887273 
L 129.792656 137.294545 
L 131.675625 139.887273 
L 133.558594 137.294545 
L 135.441563 139.887273 
L 137.324531 139.887273 
L 139.2075 137.294545 
L 141.090469 134.701818 
L 142.973437 134.701818 
L 144.856406 132.109091 
L 146.739375 132.109091 
L 148.622344 134.701818 
L 150.505313 132.109091 
L 152.388281 132.109091 
L 154.27125 129.516364 
L 156.154219 129.516364 
L 158.037188 129.516364 
L 159.920156 126.923636 
L 161.803125 129.516364 
L 163.686094 126.923636 
L 165.569063 124.330909 
L 167.452031 126.923636 
L 169.335 126.923636 
L 171.217969 126.923636 
L 173.100938 126.923636 
L 174.983906 126.923636 
L 176.866875 124.330909 
L 178.749844 126.923636 
L 180.632812 126.923636 
L 182.515781 124.330909 
L 184.39875 126.923636 
L 186.281719 124.330909 
L 188.164688 121.738182 
L 190.047656 121.738182 
L 191.930625 119.145455 
L 193.813594 119.145455 
L 195.696563 116.552727 
L 197.579531 116.552727 
L 199.4625 119.145455 
L 201.345469 119.145455 
L 203.228437 116.552727 
L 205.111406 116.552727 
L 206.994375 113.96 
L 208.877344 111.367273 
L 210.760312 111.367273 
L 212.643281 111.367273 
L 214.52625 108.774545 
L 216.409219 106.181818 
L 218.292188 103.589091 
L 220.175156 103.589091 
L 222.058125 103.589091 
L 223.941094 103.589091 
L 225.824063 103.589091 
L 227.707031 103.589091 
L 229.59 106.181818 
L 231.472969 106.181818 
L 233.355938 103.589091 
L 235.238906 100.996364 
L 237.121875 103.589091 
L 239.004844 100.996364 
L 240.887812 103.589091 
L 242.770781 100.996364 
L 244.65375 103.589091 
L 246.536719 100.996364 
L 248.419688 103.589091 
L 250.302656 100.996364 
L 252.185625 98.403636 
L 254.068594 95.810909 
L 255.951563 95.810909 
L 257.834531 95.810909 
L 259.7175 93.218182 
L 261.600469 93.218182 
L 263.483438 93.218182 
L 265.366406 95.810909 
L 267.249375 95.810909 
L 269.132344 93.218182 
L 271.015312 93.218182 
L 272.898281 95.810909 
L 274.78125 95.810909 
" style="fill:none;stroke:#ff0000;stroke-linecap:square;"/>
   </g>
   <g id="patch_3">
    <path d="M 48.825 28.4 
L 274.78125 28.4 
" style="fill:none;stroke:#000000;stroke-linecap:square;stroke-linejoin:miter;"/>
   </g>
   <g id="patch_4">
    <path d="M 274.78125 171 
L 274.78125 28.4 
" style="fill:none;stroke:#000000;stroke-linecap:square;stroke-linejoin:miter;"/>
   </g>
   <g id="patch_5">
    <path d="M 48.825 171 
L 274.78125 171 
" style="fill:none;stroke:#000000;stroke-linecap:square;stroke-linejoin:miter;"/>
   </g>
   <g id="patch_6">
    <path d="M 48.825 171 
L 48.825 28.4 
" style="fill:none;stroke:#000000;stroke-linecap:square;stroke-linejoin:miter;"/>
   </g>
   <g id="matplotlib.axis_1">
    <g id="xtick_1">
     <g id="line2d_4">
      <defs>
       <path d="M 0 0 
L 0 -4 
" id="maa36430388" style="stroke:#000000;stroke-width:0.5;"/>
      </defs>
      <g>
       <use style="stroke:#000000;stroke-width:0.5;" x="48.825" xlink:href="#maa36430388" y="171.0"/>
      </g>
     </g>
     <g id="line2d_5">
      <defs>
       <path d="M 0 0 
L 0 4 
" id="m1b9014e23e" style="stroke:#000000;stroke-width:0.5;"/>
      </defs>
      <g>
       <use style="stroke:#000000;stroke-width:0.5;" x="48.825" xlink:href="#m1b9014e23e" y="28.4"/>
      </g>
     </g>
     <g id="text_1">
      <!-- 0 -->
      <defs>
       <path d="M 31.78125 66.40625 
Q 24.171875 66.40625 20.328125 58.90625 
Q 16.5 51.421875 16.5 36.375 
Q 16.5 21.390625 20.328125 13.890625 
Q 24.171875 6.390625 31.78125 6.390625 
Q 39.453125 6.390625 43.28125 13.890625 
Q 47.125 21.390625 47.125 36.375 
Q 47.125 51.421875 43.28125 58.90625 
Q 39.453125 66.40625 31.78125 66.40625 
M 31.78125 74.21875 
Q 44.046875 74.21875 50.515625 64.515625 
Q 56.984375 54.828125 56.984375 36.375 
Q 56.984375 17.96875 50.515625 8.265625 
Q 44.046875 -1.421875 31.78125 -1.421875 
Q 19.53125 -1.421875 13.0625 8.265625 
Q 6.59375 17.96875 6.59375 36.375 
Q 6.59375 54.828125 13.0625 64.515625 
Q 19.53125 74.21875 31.78125 74.21875 
" id="BitstreamVeraSans-Roman-30"/>
      </defs>
      <g transform="translate(45.64375 182.5984375)scale(0.1 -0.1)">
       <use xlink:href="#BitstreamVeraSans-Roman-30"/>
      </g>
     </g>
    </g>
    <g id="xtick_2">
     <g id="line2d_6">
      <g>
       <use style="stroke:#000000;stroke-width:0.5;" x="124.14375" xlink:href="#maa36430388" y="171.0"/>
      </g>
     </g>
     <g id="line2d_7">
      <g>
       <use style="stroke:#000000;stroke-width:0.5;" x="124.14375" xlink:href="#m1b9014e23e" y="28.4"/>
      </g>
     </g>
     <g id="text_2">
      <!-- 40 -->
      <defs>
       <path d="M 37.796875 64.3125 
L 12.890625 25.390625 
L 37.796875 25.390625 
z
M 35.203125 72.90625 
L 47.609375 72.90625 
L 47.609375 25.390625 
L 58.015625 25.390625 
L 58.015625 17.1875 
L 47.609375 17.1875 
L 47.609375 0 
L 37.796875 0 
L 37.796875 17.1875 
L 4.890625 17.1875 
L 4.890625 26.703125 
z
" id="BitstreamVeraSans-Roman-34"/>
      </defs>
      <g transform="translate(117.78125 182.5984375)scale(0.1 -0.1)">
       <use xlink:href="#BitstreamVeraSans-Roman-34"/>
       <use x="63.623046875" xlink:href="#BitstreamVeraSans-Roman-30"/>
      </g>
     </g>
    </g>
    <g id="xtick_3">
     <g id="line2d_8">
      <g>
       <use style="stroke:#000000;stroke-width:0.5;" x="199.4625" xlink:href="#maa36430388" y="171.0"/>
      </g>
     </g>
     <g id="line2d_9">
      <g>
       <use style="stroke:#000000;stroke-width:0.5;" x="199.4625" xlink:href="#m1b9014e23e" y="28.4"/>
      </g>
     </g>
     <g id="text_3">
      <!-- 80 -->
      <defs>
       <path d="M 31.78125 34.625 
Q 24.75 34.625 20.71875 30.859375 
Q 16.703125 27.09375 16.703125 20.515625 
Q 16.703125 13.921875 20.71875 10.15625 
Q 24.75 6.390625 31.78125 6.390625 
Q 38.8125 6.390625 42.859375 10.171875 
Q 46.921875 13.96875 46.921875 20.515625 
Q 46.921875 27.09375 42.890625 30.859375 
Q 38.875 34.625 31.78125 34.625 
M 21.921875 38.8125 
Q 15.578125 40.375 12.03125 44.71875 
Q 8.5 49.078125 8.5 55.328125 
Q 8.5 64.0625 14.71875 69.140625 
Q 20.953125 74.21875 31.78125 74.21875 
Q 42.671875 74.21875 48.875 69.140625 
Q 55.078125 64.0625 55.078125 55.328125 
Q 55.078125 49.078125 51.53125 44.71875 
Q 48 40.375 41.703125 38.8125 
Q 48.828125 37.15625 52.796875 32.3125 
Q 56.78125 27.484375 56.78125 20.515625 
Q 56.78125 9.90625 50.3125 4.234375 
Q 43.84375 -1.421875 31.78125 -1.421875 
Q 19.734375 -1.421875 13.25 4.234375 
Q 6.78125 9.90625 6.78125 20.515625 
Q 6.78125 27.484375 10.78125 32.3125 
Q 14.796875 37.15625 21.921875 38.8125 
M 18.3125 54.390625 
Q 18.3125 48.734375 21.84375 45.5625 
Q 25.390625 42.390625 31.78125 42.390625 
Q 38.140625 42.390625 41.71875 45.5625 
Q 45.3125 48.734375 45.3125 54.390625 
Q 45.3125 60.0625 41.71875 63.234375 
Q 38.140625 66.40625 31.78125 66.40625 
Q 25.390625 66.40625 21.84375 63.234375 
Q 18.3125 60.0625 18.3125 54.390625 
" id="BitstreamVeraSans-Roman-38"/>
      </defs>
      <g transform="translate(193.1 182.5984375)scale(0.1 -0.1)">
       <use xlink:href="#BitstreamVeraSans-Roman-38"/>
       <use x="63.623046875" xlink:href="#BitstreamVeraSans-Roman-30"/>
      </g>
     </g>
    </g>
    <g id="xtick_4">
     <g id="line2d_10">
      <g>
       <use style="stroke:#000000;stroke-width:0.5;" x="274.78125" xlink:href="#maa36430388" y="171.0"/>
      </g>
     </g>
     <g id="line2d_11">
      <g>
       <use style="stroke:#000000;stroke-width:0.5;" x="274.78125" xlink:href="#m1b9014e23e" y="28.4"/>
      </g>
     </g>
     <g id="text_4">
      <!-- 120 -->
      <defs>
       <path d="M 19.1875 8.296875 
L 53.609375 8.296875 
L 53.609375 0 
L 7.328125 0 
L 7.328125 8.296875 
Q 12.9375 14.109375 22.625 23.890625 
Q 32.328125 33.6875 34.8125 36.53125 
Q 39.546875 41.84375 41.421875 45.53125 
Q 43.3125 49.21875 43.3125 52.78125 
Q 43.3125 58.59375 39.234375 62.25 
Q 35.15625 65.921875 28.609375 65.921875 
Q 23.96875 65.921875 18.8125 64.3125 
Q 13.671875 62.703125 7.8125 59.421875 
L 7.8125 69.390625 
Q 13.765625 71.78125 18.9375 73 
Q 24.125 74.21875 28.421875 74.21875 
Q 39.75 74.21875 46.484375 68.546875 
Q 53.21875 62.890625 53.21875 53.421875 
Q 53.21875 48.921875 51.53125 44.890625 
Q 49.859375 40.875 45.40625 35.40625 
Q 44.1875 33.984375 37.640625 27.21875 
Q 31.109375 20.453125 19.1875 8.296875 
" id="BitstreamVeraSans-Roman-32"/>
       <path d="M 12.40625 8.296875 
L 28.515625 8.296875 
L 28.515625 63.921875 
L 10.984375 60.40625 
L 10.984375 69.390625 
L 28.421875 72.90625 
L 38.28125 72.90625 
L 38.28125 8.296875 
L 54.390625 8.296875 
L 54.390625 0 
L 12.40625 0 
z
" id="BitstreamVeraSans-Roman-31"/>
      </defs>
      <g transform="translate(265.2375 182.5984375)scale(0.1 -0.1)">
       <use xlink:href="#BitstreamVeraSans-Roman-31"/>
       <use x="63.623046875" xlink:href="#BitstreamVeraSans-Roman-32"/>
       <use x="127.24609375" xlink:href="#BitstreamVeraSans-Roman-30"/>
      </g>
     </g>
    </g>
    <g id="text_5">
     <!-- time -->
     <defs>
      <path d="M 56.203125 29.59375 
L 56.203125 25.203125 
L 14.890625 25.203125 
Q 15.484375 15.921875 20.484375 11.0625 
Q 25.484375 6.203125 34.421875 6.203125 
Q 39.59375 6.203125 44.453125 7.46875 
Q 49.3125 8.734375 54.109375 11.28125 
L 54.109375 2.78125 
Q 49.265625 0.734375 44.1875 -0.34375 
Q 39.109375 -1.421875 33.890625 -1.421875 
Q 20.796875 -1.421875 13.15625 6.1875 
Q 5.515625 13.8125 5.515625 26.8125 
Q 5.515625 40.234375 12.765625 48.109375 
Q 20.015625 56 32.328125 56 
Q 43.359375 56 49.78125 48.890625 
Q 56.203125 41.796875 56.203125 29.59375 
M 47.21875 32.234375 
Q 47.125 39.59375 43.09375 43.984375 
Q 39.0625 48.390625 32.421875 48.390625 
Q 24.90625 48.390625 20.390625 44.140625 
Q 15.875 39.890625 15.1875 32.171875 
z
" id="BitstreamVeraSans-Roman-65"/>
      <path d="M 52 44.1875 
Q 55.375 50.25 60.0625 53.125 
Q 64.75 56 71.09375 56 
Q 79.640625 56 84.28125 50.015625 
Q 88.921875 44.046875 88.921875 33.015625 
L 88.921875 0 
L 79.890625 0 
L 79.890625 32.71875 
Q 79.890625 40.578125 77.09375 44.375 
Q 74.3125 48.1875 68.609375 48.1875 
Q 61.625 48.1875 57.5625 43.546875 
Q 53.515625 38.921875 53.515625 30.90625 
L 53.515625 0 
L 44.484375 0 
L 44.484375 32.71875 
Q 44.484375 40.625 41.703125 44.40625 
Q 38.921875 48.1875 33.109375 48.1875 
Q 26.21875 48.1875 22.15625 43.53125 
Q 18.109375 38.875 18.109375 30.90625 
L 18.109375 0 
L 9.078125 0 
L 9.078125 54.6875 
L 18.109375 54.6875 
L 18.109375 46.1875 
Q 21.1875 51.21875 25.484375 53.609375 
Q 29.78125 56 35.6875 56 
Q 41.65625 56 45.828125 52.96875 
Q 50 49.953125 52 44.1875 
" id="BitstreamVeraSans-Roman-6d"/>
      <path d="M 18.3125 70.21875 
L 18.3125 54.6875 
L 36.8125 54.6875 
L 36.8125 47.703125 
L 18.3125 47.703125 
L 18.3125 18.015625 
Q 18.3125 11.328125 20.140625 9.421875 
Q 21.96875 7.515625 27.59375 7.515625 
L 36.8125 7.515625 
L 36.8125 0 
L 27.59375 0 
Q 17.1875 0 13.234375 3.875 
Q 9.28125 7.765625 9.28125 18.015625 
L 9.28125 47.703125 
L 2.6875 47.703125 
L 2.6875 54.6875 
L 9.28125 54.6875 
L 9.28125 70.21875 
z
" id="BitstreamVeraSans-Roman-74"/>
      <path d="M 9.421875 54.6875 
L 18.40625 54.6875 
L 18.40625 0 
L 9.421875 0 
z
M 9.421875 75.984375 
L 18.40625 75.984375 
L 18.40625 64.59375 
L 9.421875 64.59375 
z
" id="BitstreamVeraSans-Roman-69"/>
     </defs>
     <g transform="translate(144.858984375 201.07578125)scale(0.15 -0.15)">
      <use xlink:href="#BitstreamVeraSans-Roman-74"/>
      <use x="39.208984375" xlink:href="#BitstreamVeraSans-Roman-69"/>
      <use x="66.9921875" xlink:href="#BitstreamVeraSans-Roman-6d"/>
      <use x="164.404296875" xlink:href="#BitstreamVeraSans-Roman-65"/>
     </g>
    </g>
   </g>
   <g id="matplotlib.axis_2">
    <g id="ytick_1">
     <g id="line2d_12">
      <defs>
       <path d="M 0 0 
L 4 0 
" id="m72340f3c17" style="stroke:#000000;stroke-width:0.5;"/>
      </defs>
      <g>
       <use style="stroke:#000000;stroke-width:0.5;" x="48.825" xlink:href="#m72340f3c17" y="158.036363636"/>
      </g>
     </g>
     <g id="line2d_13">
      <defs>
       <path d="M 0 0 
L -4 0 
" id="m81a517aa9c" style="stroke:#000000;stroke-width:0.5;"/>
      </defs>
      <g>
       <use style="stroke:#000000;stroke-width:0.5;" x="274.78125" xlink:href="#m81a517aa9c" y="158.036363636"/>
      </g>
     </g>
     <g id="text_6">
      <!-- 0 -->
      <g transform="translate(38.4625 160.795738636)scale(0.1 -0.1)">
       <use xlink:href="#BitstreamVeraSans-Roman-30"/>
      </g>
     </g>
    </g>
    <g id="ytick_2">
     <g id="line2d_14">
      <g>
       <use style="stroke:#000000;stroke-width:0.5;" x="48.825" xlink:href="#m72340f3c17" y="28.4"/>
      </g>
     </g>
     <g id="line2d_15">
      <g>
       <use style="stroke:#000000;stroke-width:0.5;" x="274.78125" xlink:href="#m81a517aa9c" y="28.4"/>
      </g>
     </g>
     <g id="text_7">
      <!-- 50 -->
      <defs>
       <path d="M 10.796875 72.90625 
L 49.515625 72.90625 
L 49.515625 64.59375 
L 19.828125 64.59375 
L 19.828125 46.734375 
Q 21.96875 47.46875 24.109375 47.828125 
Q 26.265625 48.1875 28.421875 48.1875 
Q 40.625 48.1875 47.75 41.5 
Q 54.890625 34.8125 54.890625 23.390625 
Q 54.890625 11.625 47.5625 5.09375 
Q 40.234375 -1.421875 26.90625 -1.421875 
Q 22.3125 -1.421875 17.546875 -0.640625 
Q 12.796875 0.140625 7.71875 1.703125 
L 7.71875 11.625 
Q 12.109375 9.234375 16.796875 8.0625 
Q 21.484375 6.890625 26.703125 6.890625 
Q 35.15625 6.890625 40.078125 11.328125 
Q 45.015625 15.765625 45.015625 23.390625 
Q 45.015625 31 40.078125 35.4375 
Q 35.15625 39.890625 26.703125 39.890625 
Q 22.75 39.890625 18.8125 39.015625 
Q 14.890625 38.140625 10.796875 36.28125 
z
" id="BitstreamVeraSans-Roman-35"/>
      </defs>
      <g transform="translate(32.1 31.159375)scale(0.1 -0.1)">
       <use xlink:href="#BitstreamVeraSans-Roman-35"/>
       <use x="63.623046875" xlink:href="#BitstreamVeraSans-Roman-30"/>
      </g>
     </g>
    </g>
    <g id="text_8">
     <!-- position -->
     <defs>
      <path d="M 54.890625 33.015625 
L 54.890625 0 
L 45.90625 0 
L 45.90625 32.71875 
Q 45.90625 40.484375 42.875 44.328125 
Q 39.84375 48.1875 33.796875 48.1875 
Q 26.515625 48.1875 22.3125 43.546875 
Q 18.109375 38.921875 18.109375 30.90625 
L 18.109375 0 
L 9.078125 0 
L 9.078125 54.6875 
L 18.109375 54.6875 
L 18.109375 46.1875 
Q 21.34375 51.125 25.703125 53.5625 
Q 30.078125 56 35.796875 56 
Q 45.21875 56 50.046875 50.171875 
Q 54.890625 44.34375 54.890625 33.015625 
" id="BitstreamVeraSans-Roman-6e"/>
      <path d="M 30.609375 48.390625 
Q 23.390625 48.390625 19.1875 42.75 
Q 14.984375 37.109375 14.984375 27.296875 
Q 14.984375 17.484375 19.15625 11.84375 
Q 23.34375 6.203125 30.609375 6.203125 
Q 37.796875 6.203125 41.984375 11.859375 
Q 46.1875 17.53125 46.1875 27.296875 
Q 46.1875 37.015625 41.984375 42.703125 
Q 37.796875 48.390625 30.609375 48.390625 
M 30.609375 56 
Q 42.328125 56 49.015625 48.375 
Q 55.71875 40.765625 55.71875 27.296875 
Q 55.71875 13.875 49.015625 6.21875 
Q 42.328125 -1.421875 30.609375 -1.421875 
Q 18.84375 -1.421875 12.171875 6.21875 
Q 5.515625 13.875 5.515625 27.296875 
Q 5.515625 40.765625 12.171875 48.375 
Q 18.84375 56 30.609375 56 
" id="BitstreamVeraSans-Roman-6f"/>
      <path d="M 44.28125 53.078125 
L 44.28125 44.578125 
Q 40.484375 46.53125 36.375 47.5 
Q 32.28125 48.484375 27.875 48.484375 
Q 21.1875 48.484375 17.84375 46.4375 
Q 14.5 44.390625 14.5 40.28125 
Q 14.5 37.15625 16.890625 35.375 
Q 19.28125 33.59375 26.515625 31.984375 
L 29.59375 31.296875 
Q 39.15625 29.25 43.1875 25.515625 
Q 47.21875 21.78125 47.21875 15.09375 
Q 47.21875 7.46875 41.1875 3.015625 
Q 35.15625 -1.421875 24.609375 -1.421875 
Q 20.21875 -1.421875 15.453125 -0.5625 
Q 10.6875 0.296875 5.421875 2 
L 5.421875 11.28125 
Q 10.40625 8.6875 15.234375 7.390625 
Q 20.0625 6.109375 24.8125 6.109375 
Q 31.15625 6.109375 34.5625 8.28125 
Q 37.984375 10.453125 37.984375 14.40625 
Q 37.984375 18.0625 35.515625 20.015625 
Q 33.0625 21.96875 24.703125 23.78125 
L 21.578125 24.515625 
Q 13.234375 26.265625 9.515625 29.90625 
Q 5.8125 33.546875 5.8125 39.890625 
Q 5.8125 47.609375 11.28125 51.796875 
Q 16.75 56 26.8125 56 
Q 31.78125 56 36.171875 55.265625 
Q 40.578125 54.546875 44.28125 53.078125 
" id="BitstreamVeraSans-Roman-73"/>
      <path d="M 18.109375 8.203125 
L 18.109375 -20.796875 
L 9.078125 -20.796875 
L 9.078125 54.6875 
L 18.109375 54.6875 
L 18.109375 46.390625 
Q 20.953125 51.265625 25.265625 53.625 
Q 29.59375 56 35.59375 56 
Q 45.5625 56 51.78125 48.09375 
Q 58.015625 40.1875 58.015625 27.296875 
Q 58.015625 14.40625 51.78125 6.484375 
Q 45.5625 -1.421875 35.59375 -1.421875 
Q 29.59375 -1.421875 25.265625 0.953125 
Q 20.953125 3.328125 18.109375 8.203125 
M 48.6875 27.296875 
Q 48.6875 37.203125 44.609375 42.84375 
Q 40.53125 48.484375 33.40625 48.484375 
Q 26.265625 48.484375 22.1875 42.84375 
Q 18.109375 37.203125 18.109375 27.296875 
Q 18.109375 17.390625 22.1875 11.75 
Q 26.265625 6.109375 33.40625 6.109375 
Q 40.53125 6.109375 44.609375 11.75 
Q 48.6875 17.390625 48.6875 27.296875 
" id="BitstreamVeraSans-Roman-70"/>
     </defs>
     <g transform="translate(23.98046875 129.40703125)rotate(-90.0)scale(0.15 -0.15)">
      <use xlink:href="#BitstreamVeraSans-Roman-70"/>
      <use x="63.4765625" xlink:href="#BitstreamVeraSans-Roman-6f"/>
      <use x="124.658203125" xlink:href="#BitstreamVeraSans-Roman-73"/>
      <use x="176.7578125" xlink:href="#BitstreamVeraSans-Roman-69"/>
      <use x="204.541015625" xlink:href="#BitstreamVeraSans-Roman-74"/>
      <use x="243.75" xlink:href="#BitstreamVeraSans-Roman-69"/>
      <use x="271.533203125" xlink:href="#BitstreamVeraSans-Roman-6f"/>
      <use x="332.71484375" xlink:href="#BitstreamVeraSans-Roman-6e"/>
     </g>
    </g>
   </g>
   <g id="text_9">
    <!-- k = 0.0 -->
    <defs>
     <path d="M 8.40625 75.984375 
L 25.875 75.984375 
L 25.875 34.625 
L 46 54.6875 
L 66.3125 54.6875 
L 39.59375 29.59375 
L 68.40625 0 
L 47.21875 0 
L 25.875 22.796875 
L 25.875 0 
L 8.40625 0 
z
" id="BitstreamVeraSans-Bold-6b"/>
     <path d="M 10.59375 48.1875 
L 73.1875 48.1875 
L 73.1875 36.71875 
L 10.59375 36.71875 
z
M 10.59375 25.984375 
L 73.1875 25.984375 
L 73.1875 14.40625 
L 10.59375 14.40625 
z
" id="BitstreamVeraSans-Bold-3d"/>
     <path d="M 10.203125 18.890625 
L 27.78125 18.890625 
L 27.78125 0 
L 10.203125 0 
z
" id="BitstreamVeraSans-Bold-2e"/>
     <path d="M 46 36.53125 
Q 46 50.203125 43.4375 55.78125 
Q 40.875 61.375 34.8125 61.375 
Q 28.765625 61.375 26.171875 55.78125 
Q 23.578125 50.203125 23.578125 36.53125 
Q 23.578125 22.703125 26.171875 17.03125 
Q 28.765625 11.375 34.8125 11.375 
Q 40.828125 11.375 43.40625 17.03125 
Q 46 22.703125 46 36.53125 
M 64.796875 36.375 
Q 64.796875 18.265625 56.984375 8.421875 
Q 49.171875 -1.421875 34.8125 -1.421875 
Q 20.40625 -1.421875 12.59375 8.421875 
Q 4.78125 18.265625 4.78125 36.375 
Q 4.78125 54.546875 12.59375 64.375 
Q 20.40625 74.21875 34.8125 74.21875 
Q 49.171875 74.21875 56.984375 64.375 
Q 64.796875 54.546875 64.796875 36.375 
" id="BitstreamVeraSans-Bold-30"/>
     <path id="BitstreamVeraSans-Bold-20"/>
    </defs>
    <g transform="translate(132.0234375 23.4)scale(0.15 -0.15)">
     <use xlink:href="#BitstreamVeraSans-Bold-6b"/>
     <use x="66.50390625" xlink:href="#BitstreamVeraSans-Bold-20"/>
     <use x="101.318359375" xlink:href="#BitstreamVeraSans-Bold-3d"/>
     <use x="185.107421875" xlink:href="#BitstreamVeraSans-Bold-20"/>
     <use x="219.921875" xlink:href="#BitstreamVeraSans-Bold-30"/>
     <use x="289.501953125" xlink:href="#BitstreamVeraSans-Bold-2e"/>
     <use x="327.490234375" xlink:href="#BitstreamVeraSans-Bold-30"/>
    </g>
   </g>
  </g>
  <g id="axes_2">
   <g id="patch_7">
    <path d="M 333.225 171 
L 559.18125 171 
L 559.18125 28.4 
L 333.225 28.4 
z
" style="fill:#ffffff;"/>
   </g>
   <g id="line2d_16">
    <path clip-path="url(#p2be65db06c)" d="M 333.225 158.036364 
L 335.107969 155.443636 
L 336.990938 152.850909 
L 338.873906 150.258182 
L 340.756875 147.665455 
L 342.639844 145.072727 
L 344.522813 145.072727 
L 346.405781 142.48 
L 348.28875 139.887273 
L 350.171719 142.48 
L 352.054688 142.48 
L 353.937656 139.887273 
L 355.820625 137.294545 
L 357.703594 139.887273 
L 359.586563 137.294545 
L 361.469531 137.294545 
L 363.3525 134.701818 
L 365.235469 132.109091 
L 367.118438 129.516364 
L 369.001406 129.516364 
L 370.884375 129.516364 
L 372.767344 129.516364 
L 374.650313 126.923636 
L 376.533281 124.330909 
L 378.41625 121.738182 
L 380.299219 119.145455 
L 382.182188 116.552727 
L 384.065156 116.552727 
L 385.948125 116.552727 
L 387.831094 119.145455 
L 389.714063 116.552727 
L 391.597031 113.96 
L 393.48 116.552727 
L 395.362969 116.552727 
L 397.245938 113.96 
L 399.128906 113.96 
L 401.011875 116.552727 
L 402.894844 119.145455 
L 404.777813 119.145455 
L 406.660781 119.145455 
L 408.54375 116.552727 
L 410.426719 119.145455 
L 412.309688 119.145455 
L 414.192656 119.145455 
L 416.075625 119.145455 
L 417.958594 116.552727 
L 419.841563 113.96 
L 421.724531 116.552727 
L 423.6075 113.96 
L 425.490469 111.367273 
L 427.373438 113.96 
L 429.256406 116.552727 
L 431.139375 113.96 
L 433.022344 111.367273 
L 434.905313 111.367273 
L 436.788281 111.367273 
L 438.67125 113.96 
L 440.554219 111.367273 
L 442.437188 108.774545 
L 444.320156 106.181818 
L 446.203125 103.589091 
L 448.086094 100.996364 
L 449.969063 100.996364 
L 451.852031 98.403636 
L 453.735 95.810909 
L 455.617969 93.218182 
L 457.500938 93.218182 
L 459.383906 90.625455 
L 461.266875 88.032727 
L 463.149844 85.44 
L 465.032813 88.032727 
L 466.915781 90.625455 
L 468.79875 88.032727 
L 470.681719 85.44 
L 472.564688 82.847273 
L 474.447656 85.44 
L 476.330625 88.032727 
L 478.213594 85.44 
L 480.096563 82.847273 
L 481.979531 80.254545 
L 483.8625 77.661818 
L 485.745469 80.254545 
L 487.628438 77.661818 
L 489.511406 75.069091 
L 491.394375 72.476364 
L 493.277344 69.883636 
L 495.160313 67.290909 
L 497.043281 64.698182 
L 498.92625 62.105455 
L 500.809219 59.512727 
L 502.692188 59.512727 
L 504.575156 56.92 
L 506.458125 54.327273 
L 508.341094 56.92 
L 510.224063 54.327273 
L 512.107031 51.734545 
L 513.99 51.734545 
L 515.872969 51.734545 
L 517.755938 51.734545 
L 519.638906 51.734545 
L 521.521875 51.734545 
L 523.404844 51.734545 
L 525.287813 49.141818 
L 527.170781 46.549091 
L 529.05375 43.956364 
L 530.936719 41.363636 
L 532.819688 38.770909 
L 534.702656 36.178182 
L 536.585625 38.770909 
L 538.468594 38.770909 
L 540.351563 36.178182 
L 542.234531 33.585455 
L 544.1175 30.992727 
L 546.000469 30.992727 
L 547.883438 30.992727 
L 549.766406 28.4 
L 551.649375 28.4 
L 553.532344 25.807273 
L 555.415313 23.214545 
L 557.298281 20.621818 
L 559.18125 23.214545 
" style="fill:none;stroke:#0000ff;stroke-linecap:square;"/>
   </g>
   <g id="line2d_17">
    <path clip-path="url(#p2be65db06c)" d="M 333.225 158.036364 
L 335.107969 160.629091 
L 336.990938 163.221818 
L 338.873906 165.814545 
L 340.756875 168.407273 
L 342.639844 168.407273 
L 344.522813 171 
L 346.405781 173.592727 
L 348.28875 171 
L 350.171719 168.407273 
L 352.054688 165.814545 
L 353.937656 165.814545 
L 355.820625 165.814545 
L 357.703594 165.814545 
L 359.586563 165.814545 
L 361.469531 165.814545 
L 363.3525 163.221818 
L 365.235469 165.814545 
L 367.118438 165.814545 
L 369.001406 165.814545 
L 370.884375 165.814545 
L 372.767344 165.814545 
L 374.650313 165.814545 
L 376.533281 165.814545 
L 378.41625 165.814545 
L 380.299219 165.814545 
L 382.182188 165.814545 
L 384.065156 163.221818 
L 385.948125 160.629091 
L 387.831094 160.629091 
L 389.714063 158.036364 
L 391.597031 155.443636 
L 393.48 155.443636 
L 395.362969 155.443636 
L 397.245938 155.443636 
L 399.128906 155.443636 
L 401.011875 155.443636 
L 402.894844 155.443636 
L 404.777813 155.443636 
L 406.660781 155.443636 
L 408.54375 152.850909 
L 410.426719 150.258182 
L 412.309688 150.258182 
L 414.192656 150.258182 
L 416.075625 150.258182 
L 417.958594 150.258182 
L 419.841563 150.258182 
L 421.724531 152.850909 
L 423.6075 155.443636 
L 425.490469 158.036364 
L 427.373438 155.443636 
L 429.256406 155.443636 
L 431.139375 155.443636 
L 433.022344 155.443636 
L 434.905313 152.850909 
L 436.788281 155.443636 
L 438.67125 155.443636 
L 440.554219 155.443636 
L 442.437188 155.443636 
L 444.320156 158.036364 
L 446.203125 158.036364 
L 448.086094 158.036364 
L 449.969063 158.036364 
L 451.852031 158.036364 
L 453.735 158.036364 
L 455.617969 160.629091 
L 457.500938 158.036364 
L 459.383906 155.443636 
L 461.266875 155.443636 
L 463.149844 155.443636 
L 465.032813 155.443636 
L 466.915781 155.443636 
L 468.79875 152.850909 
L 470.681719 150.258182 
L 472.564688 147.665455 
L 474.447656 147.665455 
L 476.330625 147.665455 
L 478.213594 145.072727 
L 480.096563 142.48 
L 481.979531 139.887273 
L 483.8625 139.887273 
L 485.745469 139.887273 
L 487.628438 139.887273 
L 489.511406 139.887273 
L 491.394375 139.887273 
L 493.277344 139.887273 
L 495.160313 139.887273 
L 497.043281 139.887273 
L 498.92625 142.48 
L 500.809219 139.887273 
L 502.692188 139.887273 
L 504.575156 142.48 
L 506.458125 139.887273 
L 508.341094 137.294545 
L 510.224063 134.701818 
L 512.107031 137.294545 
L 513.99 139.887273 
L 515.872969 142.48 
L 517.755938 145.072727 
L 519.638906 147.665455 
L 521.521875 147.665455 
L 523.404844 145.072727 
L 525.287813 142.48 
L 527.170781 139.887273 
L 529.05375 137.294545 
L 530.936719 137.294545 
L 532.819688 137.294545 
L 534.702656 137.294545 
L 536.585625 134.701818 
L 538.468594 137.294545 
L 540.351563 139.887273 
L 542.234531 142.48 
L 544.1175 142.48 
L 546.000469 142.48 
L 547.883438 142.48 
L 549.766406 139.887273 
L 551.649375 139.887273 
L 553.532344 139.887273 
L 555.415313 139.887273 
L 557.298281 137.294545 
L 559.18125 134.701818 
" style="fill:none;stroke:#008000;stroke-linecap:square;"/>
   </g>
   <g id="line2d_18">
    <path clip-path="url(#p2be65db06c)" d="M 333.225 158.036364 
L 335.107969 155.443636 
L 336.990938 158.036364 
L 338.873906 158.036364 
L 340.756875 155.443636 
L 342.639844 152.850909 
L 344.522813 150.258182 
L 346.405781 147.665455 
L 348.28875 145.072727 
L 350.171719 142.48 
L 352.054688 139.887273 
L 353.937656 137.294545 
L 355.820625 137.294545 
L 357.703594 137.294545 
L 359.586563 137.294545 
L 361.469531 137.294545 
L 363.3525 137.294545 
L 365.235469 137.294545 
L 367.118438 137.294545 
L 369.001406 137.294545 
L 370.884375 134.701818 
L 372.767344 132.109091 
L 374.650313 129.516364 
L 376.533281 126.923636 
L 378.41625 124.330909 
L 380.299219 121.738182 
L 382.182188 124.330909 
L 384.065156 124.330909 
L 385.948125 124.330909 
L 387.831094 126.923636 
L 389.714063 124.330909 
L 391.597031 124.330909 
L 393.48 121.738182 
L 395.362969 119.145455 
L 397.245938 121.738182 
L 399.128906 124.330909 
L 401.011875 126.923636 
L 402.894844 124.330909 
L 404.777813 126.923636 
L 406.660781 124.330909 
L 408.54375 121.738182 
L 410.426719 124.330909 
L 412.309688 126.923636 
L 414.192656 124.330909 
L 416.075625 121.738182 
L 417.958594 119.145455 
L 419.841563 116.552727 
L 421.724531 116.552727 
L 423.6075 119.145455 
L 425.490469 116.552727 
L 427.373438 113.96 
L 429.256406 111.367273 
L 431.139375 108.774545 
L 433.022344 106.181818 
L 434.905313 103.589091 
L 436.788281 100.996364 
L 438.67125 98.403636 
L 440.554219 98.403636 
L 442.437188 95.810909 
L 444.320156 93.218182 
L 446.203125 95.810909 
L 448.086094 98.403636 
L 449.969063 100.996364 
L 451.852031 100.996364 
L 453.735 100.996364 
L 455.617969 100.996364 
L 457.500938 98.403636 
L 459.383906 100.996364 
L 461.266875 103.589091 
L 463.149844 106.181818 
L 465.032813 106.181818 
L 466.915781 106.181818 
L 468.79875 103.589091 
L 470.681719 100.996364 
L 472.564688 98.403636 
L 474.447656 95.810909 
L 476.330625 95.810909 
L 478.213594 93.218182 
L 480.096563 90.625455 
L 481.979531 88.032727 
L 483.8625 88.032727 
L 485.745469 85.44 
L 487.628438 85.44 
L 489.511406 85.44 
L 491.394375 85.44 
L 493.277344 88.032727 
L 495.160313 90.625455 
L 497.043281 88.032727 
L 498.92625 85.44 
L 500.809219 82.847273 
L 502.692188 80.254545 
L 504.575156 80.254545 
L 506.458125 82.847273 
L 508.341094 85.44 
L 510.224063 85.44 
L 512.107031 85.44 
L 513.99 85.44 
L 515.872969 82.847273 
L 517.755938 82.847273 
L 519.638906 85.44 
L 521.521875 85.44 
L 523.404844 82.847273 
L 525.287813 80.254545 
L 527.170781 80.254545 
L 529.05375 80.254545 
L 530.936719 77.661818 
L 532.819688 75.069091 
L 534.702656 72.476364 
L 536.585625 69.883636 
L 538.468594 67.290909 
L 540.351563 67.290909 
L 542.234531 67.290909 
L 544.1175 67.290909 
L 546.000469 67.290909 
L 547.883438 67.290909 
L 549.766406 67.290909 
L 551.649375 67.290909 
L 553.532344 67.290909 
L 555.415313 67.290909 
L 557.298281 64.698182 
L 559.18125 64.698182 
" style="fill:none;stroke:#ff0000;stroke-linecap:square;"/>
   </g>
   <g id="patch_8">
    <path d="M 333.225 28.4 
L 559.18125 28.4 
" style="fill:none;stroke:#000000;stroke-linecap:square;stroke-linejoin:miter;"/>
   </g>
   <g id="patch_9">
    <path d="M 559.18125 171 
L 559.18125 28.4 
" style="fill:none;stroke:#000000;stroke-linecap:square;stroke-linejoin:miter;"/>
   </g>
   <g id="patch_10">
    <path d="M 333.225 171 
L 559.18125 171 
" style="fill:none;stroke:#000000;stroke-linecap:square;stroke-linejoin:miter;"/>
   </g>
   <g id="patch_11">
    <path d="M 333.225 171 
L 333.225 28.4 
" style="fill:none;stroke:#000000;stroke-linecap:square;stroke-linejoin:miter;"/>
   </g>
   <g id="matplotlib.axis_3">
    <g id="xtick_5">
     <g id="line2d_19">
      <g>
       <use style="stroke:#000000;stroke-width:0.5;" x="333.225" xlink:href="#maa36430388" y="171.0"/>
      </g>
     </g>
     <g id="line2d_20">
      <g>
       <use style="stroke:#000000;stroke-width:0.5;" x="333.225" xlink:href="#m1b9014e23e" y="28.4"/>
      </g>
     </g>
     <g id="text_10">
      <!-- 0 -->
      <g transform="translate(330.04375 182.5984375)scale(0.1 -0.1)">
       <use xlink:href="#BitstreamVeraSans-Roman-30"/>
      </g>
     </g>
    </g>
    <g id="xtick_6">
     <g id="line2d_21">
      <g>
       <use style="stroke:#000000;stroke-width:0.5;" x="408.54375" xlink:href="#maa36430388" y="171.0"/>
      </g>
     </g>
     <g id="line2d_22">
      <g>
       <use style="stroke:#000000;stroke-width:0.5;" x="408.54375" xlink:href="#m1b9014e23e" y="28.4"/>
      </g>
     </g>
     <g id="text_11">
      <!-- 40 -->
      <g transform="translate(402.18125 182.5984375)scale(0.1 -0.1)">
       <use xlink:href="#BitstreamVeraSans-Roman-34"/>
       <use x="63.623046875" xlink:href="#BitstreamVeraSans-Roman-30"/>
      </g>
     </g>
    </g>
    <g id="xtick_7">
     <g id="line2d_23">
      <g>
       <use style="stroke:#000000;stroke-width:0.5;" x="483.8625" xlink:href="#maa36430388" y="171.0"/>
      </g>
     </g>
     <g id="line2d_24">
      <g>
       <use style="stroke:#000000;stroke-width:0.5;" x="483.8625" xlink:href="#m1b9014e23e" y="28.4"/>
      </g>
     </g>
     <g id="text_12">
      <!-- 80 -->
      <g transform="translate(477.5 182.5984375)scale(0.1 -0.1)">
       <use xlink:href="#BitstreamVeraSans-Roman-38"/>
       <use x="63.623046875" xlink:href="#BitstreamVeraSans-Roman-30"/>
      </g>
     </g>
    </g>
    <g id="xtick_8">
     <g id="line2d_25">
      <g>
       <use style="stroke:#000000;stroke-width:0.5;" x="559.18125" xlink:href="#maa36430388" y="171.0"/>
      </g>
     </g>
     <g id="line2d_26">
      <g>
       <use style="stroke:#000000;stroke-width:0.5;" x="559.18125" xlink:href="#m1b9014e23e" y="28.4"/>
      </g>
     </g>
     <g id="text_13">
      <!-- 120 -->
      <g transform="translate(549.6375 182.5984375)scale(0.1 -0.1)">
       <use xlink:href="#BitstreamVeraSans-Roman-31"/>
       <use x="63.623046875" xlink:href="#BitstreamVeraSans-Roman-32"/>
       <use x="127.24609375" xlink:href="#BitstreamVeraSans-Roman-30"/>
      </g>
     </g>
    </g>
    <g id="text_14">
     <!-- time -->
     <g transform="translate(429.258984375 201.07578125)scale(0.15 -0.15)">
      <use xlink:href="#BitstreamVeraSans-Roman-74"/>
      <use x="39.208984375" xlink:href="#BitstreamVeraSans-Roman-69"/>
      <use x="66.9921875" xlink:href="#BitstreamVeraSans-Roman-6d"/>
      <use x="164.404296875" xlink:href="#BitstreamVeraSans-Roman-65"/>
     </g>
    </g>
   </g>
   <g id="matplotlib.axis_4">
    <g id="ytick_3">
     <g id="line2d_27">
      <g>
       <use style="stroke:#000000;stroke-width:0.5;" x="333.225" xlink:href="#m72340f3c17" y="158.036363636"/>
      </g>
     </g>
     <g id="line2d_28">
      <g>
       <use style="stroke:#000000;stroke-width:0.5;" x="559.18125" xlink:href="#m81a517aa9c" y="158.036363636"/>
      </g>
     </g>
     <g id="text_15">
      <!-- 0 -->
      <g transform="translate(322.8625 160.795738636)scale(0.1 -0.1)">
       <use xlink:href="#BitstreamVeraSans-Roman-30"/>
      </g>
     </g>
    </g>
    <g id="ytick_4">
     <g id="line2d_29">
      <g>
       <use style="stroke:#000000;stroke-width:0.5;" x="333.225" xlink:href="#m72340f3c17" y="28.4"/>
      </g>
     </g>
     <g id="line2d_30">
      <g>
       <use style="stroke:#000000;stroke-width:0.5;" x="559.18125" xlink:href="#m81a517aa9c" y="28.4"/>
      </g>
     </g>
     <g id="text_16">
      <!-- 50 -->
      <g transform="translate(316.5 31.159375)scale(0.1 -0.1)">
       <use xlink:href="#BitstreamVeraSans-Roman-35"/>
       <use x="63.623046875" xlink:href="#BitstreamVeraSans-Roman-30"/>
      </g>
     </g>
    </g>
    <g id="text_17">
     <!-- position -->
     <g transform="translate(308.38046875 129.40703125)rotate(-90.0)scale(0.15 -0.15)">
      <use xlink:href="#BitstreamVeraSans-Roman-70"/>
      <use x="63.4765625" xlink:href="#BitstreamVeraSans-Roman-6f"/>
      <use x="124.658203125" xlink:href="#BitstreamVeraSans-Roman-73"/>
      <use x="176.7578125" xlink:href="#BitstreamVeraSans-Roman-69"/>
      <use x="204.541015625" xlink:href="#BitstreamVeraSans-Roman-74"/>
      <use x="243.75" xlink:href="#BitstreamVeraSans-Roman-69"/>
      <use x="271.533203125" xlink:href="#BitstreamVeraSans-Roman-6f"/>
      <use x="332.71484375" xlink:href="#BitstreamVeraSans-Roman-6e"/>
     </g>
    </g>
   </g>
   <g id="text_18">
    <!-- k = 0.3 -->
    <defs>
     <path d="M 46.578125 39.3125 
Q 53.953125 37.40625 57.78125 32.6875 
Q 61.625 27.984375 61.625 20.703125 
Q 61.625 9.859375 53.3125 4.21875 
Q 45.015625 -1.421875 29.109375 -1.421875 
Q 23.484375 -1.421875 17.84375 -0.515625 
Q 12.203125 0.390625 6.6875 2.203125 
L 6.6875 16.703125 
Q 11.96875 14.0625 17.15625 12.71875 
Q 22.359375 11.375 27.390625 11.375 
Q 34.859375 11.375 38.84375 13.953125 
Q 42.828125 16.546875 42.828125 21.390625 
Q 42.828125 26.375 38.75 28.9375 
Q 34.671875 31.5 26.703125 31.5 
L 19.1875 31.5 
L 19.1875 43.609375 
L 27.09375 43.609375 
Q 34.1875 43.609375 37.640625 45.828125 
Q 41.109375 48.046875 41.109375 52.59375 
Q 41.109375 56.78125 37.734375 59.078125 
Q 34.375 61.375 28.21875 61.375 
Q 23.6875 61.375 19.046875 60.34375 
Q 14.40625 59.328125 9.8125 57.328125 
L 9.8125 71.09375 
Q 15.375 72.65625 20.84375 73.4375 
Q 26.3125 74.21875 31.59375 74.21875 
Q 45.796875 74.21875 52.84375 69.546875 
Q 59.90625 64.890625 59.90625 55.515625 
Q 59.90625 49.125 56.53125 45.046875 
Q 53.171875 40.96875 46.578125 39.3125 
" id="BitstreamVeraSans-Bold-33"/>
    </defs>
    <g transform="translate(416.4234375 23.4)scale(0.15 -0.15)">
     <use xlink:href="#BitstreamVeraSans-Bold-6b"/>
     <use x="66.50390625" xlink:href="#BitstreamVeraSans-Bold-20"/>
     <use x="101.318359375" xlink:href="#BitstreamVeraSans-Bold-3d"/>
     <use x="185.107421875" xlink:href="#BitstreamVeraSans-Bold-20"/>
     <use x="219.921875" xlink:href="#BitstreamVeraSans-Bold-30"/>
     <use x="289.501953125" xlink:href="#BitstreamVeraSans-Bold-2e"/>
     <use x="327.490234375" xlink:href="#BitstreamVeraSans-Bold-33"/>
    </g>
   </g>
  </g>
  <g id="axes_3">
   <g id="patch_12">
    <path d="M 617.625 171 
L 843.58125 171 
L 843.58125 28.4 
L 617.625 28.4 
z
" style="fill:#ffffff;"/>
   </g>
   <g id="line2d_31">
    <path clip-path="url(#p3b232b6b24)" d="M 617.625 158.036364 
L 619.507969 160.629091 
L 621.390938 163.221818 
L 623.273906 163.221818 
L 625.156875 163.221818 
L 627.039844 160.629091 
L 628.922813 158.036364 
L 630.805781 155.443636 
L 632.68875 155.443636 
L 634.571719 158.036364 
L 636.454688 160.629091 
L 638.337656 160.629091 
L 640.220625 160.629091 
L 642.103594 160.629091 
L 643.986563 160.629091 
L 645.869531 160.629091 
L 647.7525 158.036364 
L 649.635469 155.443636 
L 651.518438 152.850909 
L 653.401406 155.443636 
L 655.284375 152.850909 
L 657.167344 150.258182 
L 659.050313 150.258182 
L 660.933281 150.258182 
L 662.81625 147.665455 
L 664.699219 145.072727 
L 666.582188 145.072727 
L 668.465156 147.665455 
L 670.348125 150.258182 
L 672.231094 152.850909 
L 674.114063 155.443636 
L 675.997031 158.036364 
L 677.88 158.036364 
L 679.762969 160.629091 
L 681.645938 163.221818 
L 683.528906 165.814545 
L 685.411875 163.221818 
L 687.294844 165.814545 
L 689.177813 163.221818 
L 691.060781 160.629091 
L 692.94375 160.629091 
L 694.826719 160.629091 
L 696.709688 160.629091 
L 698.592656 163.221818 
L 700.475625 160.629091 
L 702.358594 163.221818 
L 704.241563 160.629091 
L 706.124531 158.036364 
L 708.0075 155.443636 
L 709.890469 152.850909 
L 711.773438 150.258182 
L 713.656406 147.665455 
L 715.539375 145.072727 
L 717.422344 142.48 
L 719.305313 142.48 
L 721.188281 142.48 
L 723.07125 142.48 
L 724.954219 142.48 
L 726.837188 139.887273 
L 728.720156 137.294545 
L 730.603125 139.887273 
L 732.486094 137.294545 
L 734.369063 139.887273 
L 736.252031 139.887273 
L 738.135 139.887273 
L 740.017969 137.294545 
L 741.900938 134.701818 
L 743.783906 132.109091 
L 745.666875 129.516364 
L 747.549844 129.516364 
L 749.432813 126.923636 
L 751.315781 124.330909 
L 753.19875 121.738182 
L 755.081719 119.145455 
L 756.964688 116.552727 
L 758.847656 113.96 
L 760.730625 111.367273 
L 762.613594 108.774545 
L 764.496563 108.774545 
L 766.379531 111.367273 
L 768.2625 111.367273 
L 770.145469 111.367273 
L 772.028438 113.96 
L 773.911406 113.96 
L 775.794375 113.96 
L 777.677344 113.96 
L 779.560313 111.367273 
L 781.443281 108.774545 
L 783.32625 106.181818 
L 785.209219 103.589091 
L 787.092188 100.996364 
L 788.975156 98.403636 
L 790.858125 95.810909 
L 792.741094 95.810909 
L 794.624063 93.218182 
L 796.507031 93.218182 
L 798.39 95.810909 
L 800.272969 95.810909 
L 802.155938 98.403636 
L 804.038906 100.996364 
L 805.921875 103.589091 
L 807.804844 100.996364 
L 809.687813 103.589091 
L 811.570781 106.181818 
L 813.45375 108.774545 
L 815.336719 111.367273 
L 817.219688 113.96 
L 819.102656 116.552727 
L 820.985625 113.96 
L 822.868594 111.367273 
L 824.751563 113.96 
L 826.634531 113.96 
L 828.5175 116.552727 
L 830.400469 119.145455 
L 832.283438 121.738182 
L 834.166406 121.738182 
L 836.049375 119.145455 
L 837.932344 116.552727 
L 839.815313 113.96 
L 841.698281 111.367273 
L 843.58125 111.367273 
" style="fill:none;stroke:#0000ff;stroke-linecap:square;"/>
   </g>
   <g id="line2d_32">
    <path clip-path="url(#p3b232b6b24)" d="M 617.625 158.036364 
L 619.507969 160.629091 
L 621.390938 163.221818 
L 623.273906 160.629091 
L 625.156875 158.036364 
L 627.039844 155.443636 
L 628.922813 155.443636 
L 630.805781 155.443636 
L 632.68875 152.850909 
L 634.571719 150.258182 
L 636.454688 150.258182 
L 638.337656 150.258182 
L 640.220625 150.258182 
L 642.103594 150.258182 
L 643.986563 150.258182 
L 645.869531 147.665455 
L 647.7525 147.665455 
L 649.635469 147.665455 
L 651.518438 145.072727 
L 653.401406 142.48 
L 655.284375 139.887273 
L 657.167344 142.48 
L 659.050313 139.887273 
L 660.933281 137.294545 
L 662.81625 134.701818 
L 664.699219 132.109091 
L 666.582188 132.109091 
L 668.465156 134.701818 
L 670.348125 132.109091 
L 672.231094 129.516364 
L 674.114063 126.923636 
L 675.997031 124.330909 
L 677.88 121.738182 
L 679.762969 119.145455 
L 681.645938 116.552727 
L 683.528906 113.96 
L 685.411875 111.367273 
L 687.294844 108.774545 
L 689.177813 111.367273 
L 691.060781 113.96 
L 692.94375 116.552727 
L 694.826719 119.145455 
L 696.709688 121.738182 
L 698.592656 119.145455 
L 700.475625 116.552727 
L 702.358594 113.96 
L 704.241563 111.367273 
L 706.124531 108.774545 
L 708.0075 106.181818 
L 709.890469 108.774545 
L 711.773438 111.367273 
L 713.656406 113.96 
L 715.539375 113.96 
L 717.422344 116.552727 
L 719.305313 113.96 
L 721.188281 111.367273 
L 723.07125 108.774545 
L 724.954219 106.181818 
L 726.837188 103.589091 
L 728.720156 100.996364 
L 730.603125 98.403636 
L 732.486094 98.403636 
L 734.369063 100.996364 
L 736.252031 103.589091 
L 738.135 106.181818 
L 740.017969 106.181818 
L 741.900938 106.181818 
L 743.783906 103.589091 
L 745.666875 103.589091 
L 747.549844 100.996364 
L 749.432813 98.403636 
L 751.315781 95.810909 
L 753.19875 95.810909 
L 755.081719 95.810909 
L 756.964688 93.218182 
L 758.847656 93.218182 
L 760.730625 90.625455 
L 762.613594 88.032727 
L 764.496563 85.44 
L 766.379531 82.847273 
L 768.2625 80.254545 
L 770.145469 77.661818 
L 772.028438 77.661818 
L 773.911406 77.661818 
L 775.794375 77.661818 
L 777.677344 77.661818 
L 779.560313 77.661818 
L 781.443281 77.661818 
L 783.32625 77.661818 
L 785.209219 75.069091 
L 787.092188 72.476364 
L 788.975156 75.069091 
L 790.858125 77.661818 
L 792.741094 75.069091 
L 794.624063 75.069091 
L 796.507031 75.069091 
L 798.39 75.069091 
L 800.272969 75.069091 
L 802.155938 72.476364 
L 804.038906 69.883636 
L 805.921875 67.290909 
L 807.804844 64.698182 
L 809.687813 62.105455 
L 811.570781 59.512727 
L 813.45375 62.105455 
L 815.336719 59.512727 
L 817.219688 56.92 
L 819.102656 54.327273 
L 820.985625 51.734545 
L 822.868594 49.141818 
L 824.751563 49.141818 
L 826.634531 49.141818 
L 828.5175 46.549091 
L 830.400469 49.141818 
L 832.283438 46.549091 
L 834.166406 43.956364 
L 836.049375 43.956364 
L 837.932344 41.363636 
L 839.815313 38.770909 
L 841.698281 36.178182 
L 843.58125 33.585455 
" style="fill:none;stroke:#008000;stroke-linecap:square;"/>
   </g>
   <g id="line2d_33">
    <path clip-path="url(#p3b232b6b24)" d="M 617.625 158.036364 
L 619.507969 155.443636 
L 621.390938 152.850909 
L 623.273906 150.258182 
L 625.156875 150.258182 
L 627.039844 150.258182 
L 628.922813 150.258182 
L 630.805781 147.665455 
L 632.68875 150.258182 
L 634.571719 147.665455 
L 636.454688 145.072727 
L 638.337656 147.665455 
L 640.220625 150.258182 
L 642.103594 147.665455 
L 643.986563 145.072727 
L 645.869531 142.48 
L 647.7525 139.887273 
L 649.635469 142.48 
L 651.518438 145.072727 
L 653.401406 145.072727 
L 655.284375 145.072727 
L 657.167344 142.48 
L 659.050313 139.887273 
L 660.933281 139.887273 
L 662.81625 139.887273 
L 664.699219 139.887273 
L 666.582188 137.294545 
L 668.465156 137.294545 
L 670.348125 134.701818 
L 672.231094 132.109091 
L 674.114063 132.109091 
L 675.997031 132.109091 
L 677.88 132.109091 
L 679.762969 129.516364 
L 681.645938 126.923636 
L 683.528906 124.330909 
L 685.411875 121.738182 
L 687.294844 121.738182 
L 689.177813 124.330909 
L 691.060781 126.923636 
L 692.94375 129.516364 
L 694.826719 129.516364 
L 696.709688 129.516364 
L 698.592656 129.516364 
L 700.475625 132.109091 
L 702.358594 134.701818 
L 704.241563 134.701818 
L 706.124531 134.701818 
L 708.0075 134.701818 
L 709.890469 134.701818 
L 711.773438 134.701818 
L 713.656406 134.701818 
L 715.539375 134.701818 
L 717.422344 137.294545 
L 719.305313 134.701818 
L 721.188281 132.109091 
L 723.07125 129.516364 
L 724.954219 126.923636 
L 726.837188 124.330909 
L 728.720156 126.923636 
L 730.603125 129.516364 
L 732.486094 132.109091 
L 734.369063 129.516364 
L 736.252031 132.109091 
L 738.135 134.701818 
L 740.017969 134.701818 
L 741.900938 132.109091 
L 743.783906 129.516364 
L 745.666875 126.923636 
L 747.549844 126.923636 
L 749.432813 126.923636 
L 751.315781 126.923636 
L 753.19875 126.923636 
L 755.081719 126.923636 
L 756.964688 126.923636 
L 758.847656 126.923636 
L 760.730625 126.923636 
L 762.613594 124.330909 
L 764.496563 124.330909 
L 766.379531 121.738182 
L 768.2625 119.145455 
L 770.145469 119.145455 
L 772.028438 121.738182 
L 773.911406 121.738182 
L 775.794375 121.738182 
L 777.677344 121.738182 
L 779.560313 121.738182 
L 781.443281 121.738182 
L 783.32625 119.145455 
L 785.209219 116.552727 
L 787.092188 116.552727 
L 788.975156 119.145455 
L 790.858125 119.145455 
L 792.741094 119.145455 
L 794.624063 116.552727 
L 796.507031 113.96 
L 798.39 111.367273 
L 800.272969 108.774545 
L 802.155938 106.181818 
L 804.038906 103.589091 
L 805.921875 106.181818 
L 807.804844 108.774545 
L 809.687813 111.367273 
L 811.570781 113.96 
L 813.45375 111.367273 
L 815.336719 108.774545 
L 817.219688 106.181818 
L 819.102656 106.181818 
L 820.985625 106.181818 
L 822.868594 103.589091 
L 824.751563 100.996364 
L 826.634531 98.403636 
L 828.5175 98.403636 
L 830.400469 95.810909 
L 832.283438 93.218182 
L 834.166406 90.625455 
L 836.049375 88.032727 
L 837.932344 85.44 
L 839.815313 82.847273 
L 841.698281 82.847273 
L 843.58125 82.847273 
" style="fill:none;stroke:#ff0000;stroke-linecap:square;"/>
   </g>
   <g id="patch_13">
    <path d="M 617.625 28.4 
L 843.58125 28.4 
" style="fill:none;stroke:#000000;stroke-linecap:square;stroke-linejoin:miter;"/>
   </g>
   <g id="patch_14">
    <path d="M 843.58125 171 
L 843.58125 28.4 
" style="fill:none;stroke:#000000;stroke-linecap:square;stroke-linejoin:miter;"/>
   </g>
   <g id="patch_15">
    <path d="M 617.625 171 
L 843.58125 171 
" style="fill:none;stroke:#000000;stroke-linecap:square;stroke-linejoin:miter;"/>
   </g>
   <g id="patch_16">
    <path d="M 617.625 171 
L 617.625 28.4 
" style="fill:none;stroke:#000000;stroke-linecap:square;stroke-linejoin:miter;"/>
   </g>
   <g id="matplotlib.axis_5">
    <g id="xtick_9">
     <g id="line2d_34">
      <g>
       <use style="stroke:#000000;stroke-width:0.5;" x="617.625" xlink:href="#maa36430388" y="171.0"/>
      </g>
     </g>
     <g id="line2d_35">
      <g>
       <use style="stroke:#000000;stroke-width:0.5;" x="617.625" xlink:href="#m1b9014e23e" y="28.4"/>
      </g>
     </g>
     <g id="text_19">
      <!-- 0 -->
      <g transform="translate(614.44375 182.5984375)scale(0.1 -0.1)">
       <use xlink:href="#BitstreamVeraSans-Roman-30"/>
      </g>
     </g>
    </g>
    <g id="xtick_10">
     <g id="line2d_36">
      <g>
       <use style="stroke:#000000;stroke-width:0.5;" x="692.94375" xlink:href="#maa36430388" y="171.0"/>
      </g>
     </g>
     <g id="line2d_37">
      <g>
       <use style="stroke:#000000;stroke-width:0.5;" x="692.94375" xlink:href="#m1b9014e23e" y="28.4"/>
      </g>
     </g>
     <g id="text_20">
      <!-- 40 -->
      <g transform="translate(686.58125 182.5984375)scale(0.1 -0.1)">
       <use xlink:href="#BitstreamVeraSans-Roman-34"/>
       <use x="63.623046875" xlink:href="#BitstreamVeraSans-Roman-30"/>
      </g>
     </g>
    </g>
    <g id="xtick_11">
     <g id="line2d_38">
      <g>
       <use style="stroke:#000000;stroke-width:0.5;" x="768.2625" xlink:href="#maa36430388" y="171.0"/>
      </g>
     </g>
     <g id="line2d_39">
      <g>
       <use style="stroke:#000000;stroke-width:0.5;" x="768.2625" xlink:href="#m1b9014e23e" y="28.4"/>
      </g>
     </g>
     <g id="text_21">
      <!-- 80 -->
      <g transform="translate(761.9 182.5984375)scale(0.1 -0.1)">
       <use xlink:href="#BitstreamVeraSans-Roman-38"/>
       <use x="63.623046875" xlink:href="#BitstreamVeraSans-Roman-30"/>
      </g>
     </g>
    </g>
    <g id="xtick_12">
     <g id="line2d_40">
      <g>
       <use style="stroke:#000000;stroke-width:0.5;" x="843.58125" xlink:href="#maa36430388" y="171.0"/>
      </g>
     </g>
     <g id="line2d_41">
      <g>
       <use style="stroke:#000000;stroke-width:0.5;" x="843.58125" xlink:href="#m1b9014e23e" y="28.4"/>
      </g>
     </g>
     <g id="text_22">
      <!-- 120 -->
      <g transform="translate(834.0375 182.5984375)scale(0.1 -0.1)">
       <use xlink:href="#BitstreamVeraSans-Roman-31"/>
       <use x="63.623046875" xlink:href="#BitstreamVeraSans-Roman-32"/>
       <use x="127.24609375" xlink:href="#BitstreamVeraSans-Roman-30"/>
      </g>
     </g>
    </g>
    <g id="text_23">
     <!-- time -->
     <g transform="translate(713.658984375 201.07578125)scale(0.15 -0.15)">
      <use xlink:href="#BitstreamVeraSans-Roman-74"/>
      <use x="39.208984375" xlink:href="#BitstreamVeraSans-Roman-69"/>
      <use x="66.9921875" xlink:href="#BitstreamVeraSans-Roman-6d"/>
      <use x="164.404296875" xlink:href="#BitstreamVeraSans-Roman-65"/>
     </g>
    </g>
   </g>
   <g id="matplotlib.axis_6">
    <g id="ytick_5">
     <g id="line2d_42">
      <g>
       <use style="stroke:#000000;stroke-width:0.5;" x="617.625" xlink:href="#m72340f3c17" y="158.036363636"/>
      </g>
     </g>
     <g id="line2d_43">
      <g>
       <use style="stroke:#000000;stroke-width:0.5;" x="843.58125" xlink:href="#m81a517aa9c" y="158.036363636"/>
      </g>
     </g>
     <g id="text_24">
      <!-- 0 -->
      <g transform="translate(607.2625 160.795738636)scale(0.1 -0.1)">
       <use xlink:href="#BitstreamVeraSans-Roman-30"/>
      </g>
     </g>
    </g>
    <g id="ytick_6">
     <g id="line2d_44">
      <g>
       <use style="stroke:#000000;stroke-width:0.5;" x="617.625" xlink:href="#m72340f3c17" y="28.4"/>
      </g>
     </g>
     <g id="line2d_45">
      <g>
       <use style="stroke:#000000;stroke-width:0.5;" x="843.58125" xlink:href="#m81a517aa9c" y="28.4"/>
      </g>
     </g>
     <g id="text_25">
      <!-- 50 -->
      <g transform="translate(600.9 31.159375)scale(0.1 -0.1)">
       <use xlink:href="#BitstreamVeraSans-Roman-35"/>
       <use x="63.623046875" xlink:href="#BitstreamVeraSans-Roman-30"/>
      </g>
     </g>
    </g>
    <g id="text_26">
     <!-- position -->
     <g transform="translate(592.78046875 129.40703125)rotate(-90.0)scale(0.15 -0.15)">
      <use xlink:href="#BitstreamVeraSans-Roman-70"/>
      <use x="63.4765625" xlink:href="#BitstreamVeraSans-Roman-6f"/>
      <use x="124.658203125" xlink:href="#BitstreamVeraSans-Roman-73"/>
      <use x="176.7578125" xlink:href="#BitstreamVeraSans-Roman-69"/>
      <use x="204.541015625" xlink:href="#BitstreamVeraSans-Roman-74"/>
      <use x="243.75" xlink:href="#BitstreamVeraSans-Roman-69"/>
      <use x="271.533203125" xlink:href="#BitstreamVeraSans-Roman-6f"/>
      <use x="332.71484375" xlink:href="#BitstreamVeraSans-Roman-6e"/>
     </g>
    </g>
   </g>
   <g id="text_27">
    <!-- k = 0.4 -->
    <defs>
     <path d="M 36.8125 57.421875 
L 16.21875 26.90625 
L 36.8125 26.90625 
z
M 33.6875 72.90625 
L 54.59375 72.90625 
L 54.59375 26.90625 
L 64.984375 26.90625 
L 64.984375 13.28125 
L 54.59375 13.28125 
L 54.59375 0 
L 36.8125 0 
L 36.8125 13.28125 
L 4.5 13.28125 
L 4.5 29.390625 
z
" id="BitstreamVeraSans-Bold-34"/>
    </defs>
    <g transform="translate(700.8234375 23.4)scale(0.15 -0.15)">
     <use xlink:href="#BitstreamVeraSans-Bold-6b"/>
     <use x="66.50390625" xlink:href="#BitstreamVeraSans-Bold-20"/>
     <use x="101.318359375" xlink:href="#BitstreamVeraSans-Bold-3d"/>
     <use x="185.107421875" xlink:href="#BitstreamVeraSans-Bold-20"/>
     <use x="219.921875" xlink:href="#BitstreamVeraSans-Bold-30"/>
     <use x="289.501953125" xlink:href="#BitstreamVeraSans-Bold-2e"/>
     <use x="327.490234375" xlink:href="#BitstreamVeraSans-Bold-34"/>
    </g>
   </g>
  </g>
 </g>
 <defs>
  <clipPath id="p3b232b6b24">
   <rect height="142.6" width="225.95625" x="617.625" y="28.4"/>
  </clipPath>
  <clipPath id="p2be65db06c">
   <rect height="142.6" width="225.95625" x="333.225" y="28.4"/>
  </clipPath>
  <clipPath id="pe99838410a">
   <rect height="142.6" width="225.95625" x="48.825" y="28.4"/>
  </clipPath>
 </defs>
</svg>
