<?xml version="1.0" encoding="utf-8" standalone="no"?>
<!DOCTYPE svg PUBLIC "-//W3C//DTD SVG 1.1//EN"
  "http://www.w3.org/Graphics/SVG/1.1/DTD/svg11.dtd">
<!-- Created with matplotlib (http://matplotlib.org/) -->
<svg height="216pt" version="1.1" viewBox="0 0 864 216" width="864pt" xmlns="http://www.w3.org/2000/svg" xmlns:xlink="http://www.w3.org/1999/xlink">
 <defs>
  <style type="text/css">
*{stroke-linecap:butt;stroke-linejoin:round;}
  </style>
 </defs>
 <g id="figure_1">
  <g id="patch_1">
   <path d="
M0 216
L864 216
L864 0
L0 0
z
" style="fill:#ffffff;"/>
  </g>
  <g id="axes_1">
   <g id="patch_2">
    <path d="
M47.3625 171
L275.674 171
L275.674 28.4
L47.3625 28.4
z
" style="fill:#ffffff;"/>
   </g>
   <g id="line2d_1">
    <path clip-path="url(#p8f49bcbbc7)" d="
M47.3625 158.036
L49.2651 155.444
L51.1677 155.444
L53.0703 152.851
L54.9729 150.258
L56.8755 150.258
L58.7781 150.258
L60.6807 150.258
L62.5833 150.258
L64.4859 152.851
L66.3885 152.851
L68.2911 155.444
L70.1937 155.444
L72.0963 158.036
L73.9989 155.444
L75.9015 155.444
L77.8041 155.444
L79.7067 152.851
L81.6093 152.851
L83.5119 150.258
L85.4145 147.665
L87.3171 147.665
L89.2196 145.073
L91.1222 142.48
L93.0248 142.48
L94.9274 142.48
L96.83 145.073
L98.7326 147.665
L100.635 147.665
L102.538 147.665
L104.44 147.665
L106.343 150.258
L108.246 147.665
L110.148 147.665
L112.051 150.258
L113.953 147.665
L115.856 145.073
L117.759 147.665
L119.661 150.258
L121.564 152.851
L123.466 150.258
L125.369 150.258
L127.272 147.665
L129.174 145.073
L131.077 145.073
L132.979 145.073
L134.882 142.48
L136.785 139.887
L138.687 139.887
L140.59 139.887
L142.492 139.887
L144.395 139.887
L146.298 137.295
L148.2 139.887
L150.103 139.887
L152.005 142.48
L153.908 139.887
L155.811 137.295
L157.713 134.702
L159.616 132.109
L161.518 132.109
L163.421 129.516
L165.324 126.924
L167.226 124.331
L169.129 126.924
L171.031 124.331
L172.934 121.738
L174.837 119.145
L176.739 119.145
L178.642 121.738
L180.544 121.738
L182.447 119.145
L184.35 119.145
L186.252 119.145
L188.155 119.145
L190.057 119.145
L191.96 116.553
L193.863 113.96
L195.765 111.367
L197.668 111.367
L199.57 113.96
L201.473 111.367
L203.376 111.367
L205.278 108.775
L207.181 108.775
L209.083 106.182
L210.986 106.182
L212.888 108.775
L214.791 108.775
L216.694 108.775
L218.596 106.182
L220.499 106.182
L222.401 103.589
L224.304 103.589
L226.207 100.996
L228.109 98.4036
L230.012 95.8109
L231.914 93.2182
L233.817 90.6255
L235.72 88.0327
L237.622 88.0327
L239.525 88.0327
L241.427 90.6255
L243.33 88.0327
L245.233 85.44
L247.135 85.44
L249.038 88.0327
L250.94 88.0327
L252.843 88.0327
L254.746 85.44
L256.648 82.8473
L258.551 82.8473
L260.453 85.44
L262.356 85.44
L264.259 82.8473
L266.161 80.2545
L268.064 77.6618
L269.966 77.6618
L271.869 80.2545
L273.772 80.2545
L275.674 80.2545" style="fill:none;stroke:#0000ff;stroke-linecap:square;"/>
   </g>
   <g id="line2d_2">
    <path clip-path="url(#p8f49bcbbc7)" d="
M47.3625 158.036
L49.2651 155.444
L51.1677 152.851
L53.0703 155.444
L54.9729 158.036
L56.8755 158.036
L58.7781 155.444
L60.6807 155.444
L62.5833 152.851
L64.4859 150.258
L66.3885 150.258
L68.2911 147.665
L70.1937 150.258
L72.0963 147.665
L73.9989 145.073
L75.9015 145.073
L77.8041 145.073
L79.7067 145.073
L81.6093 142.48
L83.5119 142.48
L85.4145 139.887
L87.3171 137.295
L89.2196 139.887
L91.1222 142.48
L93.0248 139.887
L94.9274 142.48
L96.83 142.48
L98.7326 139.887
L100.635 139.887
L102.538 137.295
L104.44 139.887
L106.343 137.295
L108.246 134.702
L110.148 137.295
L112.051 134.702
L113.953 134.702
L115.856 134.702
L117.759 132.109
L119.661 134.702
L121.564 132.109
L123.466 129.516
L125.369 132.109
L127.272 129.516
L129.174 126.924
L131.077 126.924
L132.979 124.331
L134.882 126.924
L136.785 129.516
L138.687 126.924
L140.59 129.516
L142.492 132.109
L144.395 129.516
L146.298 129.516
L148.2 132.109
L150.103 132.109
L152.005 134.702
L153.908 134.702
L155.811 132.109
L157.713 132.109
L159.616 132.109
L161.518 129.516
L163.421 132.109
L165.324 129.516
L167.226 129.516
L169.129 126.924
L171.031 124.331
L172.934 124.331
L174.837 126.924
L176.739 124.331
L178.642 124.331
L180.544 121.738
L182.447 121.738
L184.35 119.145
L186.252 116.553
L188.155 116.553
L190.057 113.96
L191.96 111.367
L193.863 113.96
L195.765 116.553
L197.668 116.553
L199.57 119.145
L201.473 119.145
L203.376 119.145
L205.278 119.145
L207.181 121.738
L209.083 119.145
L210.986 119.145
L212.888 116.553
L214.791 116.553
L216.694 113.96
L218.596 113.96
L220.499 113.96
L222.401 113.96
L224.304 111.367
L226.207 108.775
L228.109 108.775
L230.012 111.367
L231.914 108.775
L233.817 111.367
L235.72 111.367
L237.622 108.775
L239.525 106.182
L241.427 106.182
L243.33 108.775
L245.233 111.367
L247.135 111.367
L249.038 113.96
L250.94 113.96
L252.843 113.96
L254.746 116.553
L256.648 116.553
L258.551 116.553
L260.453 119.145
L262.356 116.553
L264.259 113.96
L266.161 116.553
L268.064 113.96
L269.966 111.367
L271.869 111.367
L273.772 113.96
L275.674 116.553" style="fill:none;stroke:#008000;stroke-linecap:square;"/>
   </g>
   <g id="line2d_3">
    <path clip-path="url(#p8f49bcbbc7)" d="
M47.3625 158.036
L49.2651 158.036
L51.1677 158.036
L53.0703 155.444
L54.9729 158.036
L56.8755 155.444
L58.7781 155.444
L60.6807 152.851
L62.5833 150.258
L64.4859 147.665
L66.3885 145.073
L68.2911 145.073
L70.1937 145.073
L72.0963 142.48
L73.9989 145.073
L75.9015 147.665
L77.8041 150.258
L79.7067 147.665
L81.6093 147.665
L83.5119 145.073
L85.4145 145.073
L87.3171 147.665
L89.2196 147.665
L91.1222 147.665
L93.0248 145.073
L94.9274 142.48
L96.83 139.887
L98.7326 137.295
L100.635 139.887
L102.538 142.48
L104.44 139.887
L106.343 142.48
L108.246 139.887
L110.148 139.887
L112.051 137.295
L113.953 139.887
L115.856 142.48
L117.759 142.48
L119.661 142.48
L121.564 139.887
L123.466 137.295
L125.369 137.295
L127.272 139.887
L129.174 137.295
L131.077 139.887
L132.979 137.295
L134.882 139.887
L136.785 139.887
L138.687 137.295
L140.59 134.702
L142.492 134.702
L144.395 132.109
L146.298 132.109
L148.2 134.702
L150.103 132.109
L152.005 132.109
L153.908 129.516
L155.811 129.516
L157.713 129.516
L159.616 126.924
L161.518 129.516
L163.421 126.924
L165.324 124.331
L167.226 126.924
L169.129 126.924
L171.031 126.924
L172.934 126.924
L174.837 126.924
L176.739 124.331
L178.642 126.924
L180.544 126.924
L182.447 124.331
L184.35 126.924
L186.252 124.331
L188.155 121.738
L190.057 121.738
L191.96 119.145
L193.863 119.145
L195.765 116.553
L197.668 116.553
L199.57 119.145
L201.473 119.145
L203.376 116.553
L205.278 116.553
L207.181 113.96
L209.083 111.367
L210.986 111.367
L212.888 111.367
L214.791 108.775
L216.694 106.182
L218.596 103.589
L220.499 103.589
L222.401 103.589
L224.304 103.589
L226.207 103.589
L228.109 103.589
L230.012 106.182
L231.914 106.182
L233.817 103.589
L235.72 100.996
L237.622 103.589
L239.525 100.996
L241.427 103.589
L243.33 100.996
L245.233 103.589
L247.135 100.996
L249.038 103.589
L250.94 100.996
L252.843 98.4036
L254.746 95.8109
L256.648 95.8109
L258.551 95.8109
L260.453 93.2182
L262.356 93.2182
L264.259 93.2182
L266.161 95.8109
L268.064 95.8109
L269.966 93.2182
L271.869 93.2182
L273.772 95.8109
L275.674 95.8109" style="fill:none;stroke:#ff0000;stroke-linecap:square;"/>
   </g>
   <g id="patch_3">
    <path d="
M47.3625 28.4
L275.674 28.4" style="fill:none;stroke:#000000;stroke-linecap:square;stroke-linejoin:miter;"/>
   </g>
   <g id="patch_4">
    <path d="
M275.674 171
L275.674 28.4" style="fill:none;stroke:#000000;stroke-linecap:square;stroke-linejoin:miter;"/>
   </g>
   <g id="patch_5">
    <path d="
M47.3625 171
L275.674 171" style="fill:none;stroke:#000000;stroke-linecap:square;stroke-linejoin:miter;"/>
   </g>
   <g id="patch_6">
    <path d="
M47.3625 171
L47.3625 28.4" style="fill:none;stroke:#000000;stroke-linecap:square;stroke-linejoin:miter;"/>
   </g>
   <g id="matplotlib.axis_1">
    <g id="xtick_1">
     <g id="line2d_4">
      <defs>
       <path d="
M0 0
L0 -4" id="m93b0483c22" style="stroke:#000000;stroke-width:0.5;"/>
      </defs>
      <g>
       <use style="stroke:#000000;stroke-width:0.5;" x="47.3625" xlink:href="#m93b0483c22" y="171.0"/>
      </g>
     </g>
     <g id="line2d_5">
      <defs>
       <path d="
M0 0
L0 4" id="m741efc42ff" style="stroke:#000000;stroke-width:0.5;"/>
      </defs>
      <g>
       <use style="stroke:#000000;stroke-width:0.5;" x="47.3625" xlink:href="#m741efc42ff" y="28.4"/>
      </g>
     </g>
     <g id="text_1">
      <!-- 0 -->
      <defs>
       <path d="
M31.7812 66.4062
Q24.1719 66.4062 20.3281 58.9062
Q16.5 51.4219 16.5 36.375
Q16.5 21.3906 20.3281 13.8906
Q24.1719 6.39062 31.7812 6.39062
Q39.4531 6.39062 43.2812 13.8906
Q47.125 21.3906 47.125 36.375
Q47.125 51.4219 43.2812 58.9062
Q39.4531 66.4062 31.7812 66.4062
M31.7812 74.2188
Q44.0469 74.2188 50.5156 64.5156
Q56.9844 54.8281 56.9844 36.375
Q56.9844 17.9688 50.5156 8.26562
Q44.0469 -1.42188 31.7812 -1.42188
Q19.5312 -1.42188 13.0625 8.26562
Q6.59375 17.9688 6.59375 36.375
Q6.59375 54.8281 13.0625 64.5156
Q19.5312 74.2188 31.7812 74.2188" id="BitstreamVeraSans-Roman-30"/>
      </defs>
      <g transform="translate(44.84296875 182.5984375)scale(0.1 -0.1)">
       <use xlink:href="#BitstreamVeraSans-Roman-30"/>
      </g>
     </g>
    </g>
    <g id="xtick_2">
     <g id="line2d_6">
      <g>
       <use style="stroke:#000000;stroke-width:0.5;" x="123.46640625" xlink:href="#m93b0483c22" y="171.0"/>
      </g>
     </g>
     <g id="line2d_7">
      <g>
       <use style="stroke:#000000;stroke-width:0.5;" x="123.46640625" xlink:href="#m741efc42ff" y="28.4"/>
      </g>
     </g>
     <g id="text_2">
      <!-- 40 -->
      <defs>
       <path d="
M37.7969 64.3125
L12.8906 25.3906
L37.7969 25.3906
z

M35.2031 72.9062
L47.6094 72.9062
L47.6094 25.3906
L58.0156 25.3906
L58.0156 17.1875
L47.6094 17.1875
L47.6094 0
L37.7969 0
L37.7969 17.1875
L4.89062 17.1875
L4.89062 26.7031
z
" id="BitstreamVeraSans-Roman-34"/>
      </defs>
      <g transform="translate(117.68046875 182.5984375)scale(0.1 -0.1)">
       <use xlink:href="#BitstreamVeraSans-Roman-34"/>
       <use x="63.623046875" xlink:href="#BitstreamVeraSans-Roman-30"/>
      </g>
     </g>
    </g>
    <g id="xtick_3">
     <g id="line2d_8">
      <g>
       <use style="stroke:#000000;stroke-width:0.5;" x="199.5703125" xlink:href="#m93b0483c22" y="171.0"/>
      </g>
     </g>
     <g id="line2d_9">
      <g>
       <use style="stroke:#000000;stroke-width:0.5;" x="199.5703125" xlink:href="#m741efc42ff" y="28.4"/>
      </g>
     </g>
     <g id="text_3">
      <!-- 80 -->
      <defs>
       <path d="
M31.7812 34.625
Q24.75 34.625 20.7188 30.8594
Q16.7031 27.0938 16.7031 20.5156
Q16.7031 13.9219 20.7188 10.1562
Q24.75 6.39062 31.7812 6.39062
Q38.8125 6.39062 42.8594 10.1719
Q46.9219 13.9688 46.9219 20.5156
Q46.9219 27.0938 42.8906 30.8594
Q38.875 34.625 31.7812 34.625
M21.9219 38.8125
Q15.5781 40.375 12.0312 44.7188
Q8.5 49.0781 8.5 55.3281
Q8.5 64.0625 14.7188 69.1406
Q20.9531 74.2188 31.7812 74.2188
Q42.6719 74.2188 48.875 69.1406
Q55.0781 64.0625 55.0781 55.3281
Q55.0781 49.0781 51.5312 44.7188
Q48 40.375 41.7031 38.8125
Q48.8281 37.1562 52.7969 32.3125
Q56.7812 27.4844 56.7812 20.5156
Q56.7812 9.90625 50.3125 4.23438
Q43.8438 -1.42188 31.7812 -1.42188
Q19.7344 -1.42188 13.25 4.23438
Q6.78125 9.90625 6.78125 20.5156
Q6.78125 27.4844 10.7812 32.3125
Q14.7969 37.1562 21.9219 38.8125
M18.3125 54.3906
Q18.3125 48.7344 21.8438 45.5625
Q25.3906 42.3906 31.7812 42.3906
Q38.1406 42.3906 41.7188 45.5625
Q45.3125 48.7344 45.3125 54.3906
Q45.3125 60.0625 41.7188 63.2344
Q38.1406 66.4062 31.7812 66.4062
Q25.3906 66.4062 21.8438 63.2344
Q18.3125 60.0625 18.3125 54.3906" id="BitstreamVeraSans-Roman-38"/>
      </defs>
      <g transform="translate(193.87890625 182.5984375)scale(0.1 -0.1)">
       <use xlink:href="#BitstreamVeraSans-Roman-38"/>
       <use x="63.623046875" xlink:href="#BitstreamVeraSans-Roman-30"/>
      </g>
     </g>
    </g>
    <g id="xtick_4">
     <g id="line2d_10">
      <g>
       <use style="stroke:#000000;stroke-width:0.5;" x="275.67421875" xlink:href="#m93b0483c22" y="171.0"/>
      </g>
     </g>
     <g id="line2d_11">
      <g>
       <use style="stroke:#000000;stroke-width:0.5;" x="275.67421875" xlink:href="#m741efc42ff" y="28.4"/>
      </g>
     </g>
     <g id="text_4">
      <!-- 120 -->
      <defs>
       <path d="
M19.1875 8.29688
L53.6094 8.29688
L53.6094 0
L7.32812 0
L7.32812 8.29688
Q12.9375 14.1094 22.625 23.8906
Q32.3281 33.6875 34.8125 36.5312
Q39.5469 41.8438 41.4219 45.5312
Q43.3125 49.2188 43.3125 52.7812
Q43.3125 58.5938 39.2344 62.25
Q35.1562 65.9219 28.6094 65.9219
Q23.9688 65.9219 18.8125 64.3125
Q13.6719 62.7031 7.8125 59.4219
L7.8125 69.3906
Q13.7656 71.7812 18.9375 73
Q24.125 74.2188 28.4219 74.2188
Q39.75 74.2188 46.4844 68.5469
Q53.2188 62.8906 53.2188 53.4219
Q53.2188 48.9219 51.5312 44.8906
Q49.8594 40.875 45.4062 35.4062
Q44.1875 33.9844 37.6406 27.2188
Q31.1094 20.4531 19.1875 8.29688" id="BitstreamVeraSans-Roman-32"/>
       <path d="
M12.4062 8.29688
L28.5156 8.29688
L28.5156 63.9219
L10.9844 60.4062
L10.9844 69.3906
L28.4219 72.9062
L38.2812 72.9062
L38.2812 8.29688
L54.3906 8.29688
L54.3906 0
L12.4062 0
z
" id="BitstreamVeraSans-Roman-31"/>
      </defs>
      <g transform="translate(267.01171875 182.5984375)scale(0.1 -0.1)">
       <use xlink:href="#BitstreamVeraSans-Roman-31"/>
       <use x="63.623046875" xlink:href="#BitstreamVeraSans-Roman-32"/>
       <use x="127.24609375" xlink:href="#BitstreamVeraSans-Roman-30"/>
      </g>
     </g>
    </g>
    <g id="text_5">
     <!-- time -->
     <defs>
      <path d="
M56.2031 29.5938
L56.2031 25.2031
L14.8906 25.2031
Q15.4844 15.9219 20.4844 11.0625
Q25.4844 6.20312 34.4219 6.20312
Q39.5938 6.20312 44.4531 7.46875
Q49.3125 8.73438 54.1094 11.2812
L54.1094 2.78125
Q49.2656 0.734375 44.1875 -0.34375
Q39.1094 -1.42188 33.8906 -1.42188
Q20.7969 -1.42188 13.1562 6.1875
Q5.51562 13.8125 5.51562 26.8125
Q5.51562 40.2344 12.7656 48.1094
Q20.0156 56 32.3281 56
Q43.3594 56 49.7812 48.8906
Q56.2031 41.7969 56.2031 29.5938
M47.2188 32.2344
Q47.125 39.5938 43.0938 43.9844
Q39.0625 48.3906 32.4219 48.3906
Q24.9062 48.3906 20.3906 44.1406
Q15.875 39.8906 15.1875 32.1719
z
" id="BitstreamVeraSans-Roman-65"/>
      <path d="
M52 44.1875
Q55.375 50.25 60.0625 53.125
Q64.75 56 71.0938 56
Q79.6406 56 84.2812 50.0156
Q88.9219 44.0469 88.9219 33.0156
L88.9219 0
L79.8906 0
L79.8906 32.7188
Q79.8906 40.5781 77.0938 44.375
Q74.3125 48.1875 68.6094 48.1875
Q61.625 48.1875 57.5625 43.5469
Q53.5156 38.9219 53.5156 30.9062
L53.5156 0
L44.4844 0
L44.4844 32.7188
Q44.4844 40.625 41.7031 44.4062
Q38.9219 48.1875 33.1094 48.1875
Q26.2188 48.1875 22.1562 43.5312
Q18.1094 38.875 18.1094 30.9062
L18.1094 0
L9.07812 0
L9.07812 54.6875
L18.1094 54.6875
L18.1094 46.1875
Q21.1875 51.2188 25.4844 53.6094
Q29.7812 56 35.6875 56
Q41.6562 56 45.8281 52.9688
Q50 49.9531 52 44.1875" id="BitstreamVeraSans-Roman-6d"/>
      <path d="
M18.3125 70.2188
L18.3125 54.6875
L36.8125 54.6875
L36.8125 47.7031
L18.3125 47.7031
L18.3125 18.0156
Q18.3125 11.3281 20.1406 9.42188
Q21.9688 7.51562 27.5938 7.51562
L36.8125 7.51562
L36.8125 0
L27.5938 0
Q17.1875 0 13.2344 3.875
Q9.28125 7.76562 9.28125 18.0156
L9.28125 47.7031
L2.6875 47.7031
L2.6875 54.6875
L9.28125 54.6875
L9.28125 70.2188
z
" id="BitstreamVeraSans-Roman-74"/>
      <path d="
M9.42188 54.6875
L18.4062 54.6875
L18.4062 0
L9.42188 0
z

M9.42188 75.9844
L18.4062 75.9844
L18.4062 64.5938
L9.42188 64.5938
z
" id="BitstreamVeraSans-Roman-69"/>
     </defs>
     <g transform="translate(145.175390625 201.07578125)scale(0.15 -0.15)">
      <use xlink:href="#BitstreamVeraSans-Roman-74"/>
      <use x="39.208984375" xlink:href="#BitstreamVeraSans-Roman-69"/>
      <use x="66.9921875" xlink:href="#BitstreamVeraSans-Roman-6d"/>
      <use x="164.404296875" xlink:href="#BitstreamVeraSans-Roman-65"/>
     </g>
    </g>
   </g>
   <g id="matplotlib.axis_2">
    <g id="ytick_1">
     <g id="line2d_12">
      <defs>
       <path d="
M0 0
L4 0" id="m728421d6d4" style="stroke:#000000;stroke-width:0.5;"/>
      </defs>
      <g>
       <use style="stroke:#000000;stroke-width:0.5;" x="47.3625" xlink:href="#m728421d6d4" y="158.036363636"/>
      </g>
     </g>
     <g id="line2d_13">
      <defs>
       <path d="
M0 0
L-4 0" id="mcb0005524f" style="stroke:#000000;stroke-width:0.5;"/>
      </defs>
      <g>
       <use style="stroke:#000000;stroke-width:0.5;" x="275.67421875" xlink:href="#mcb0005524f" y="158.036363636"/>
      </g>
     </g>
     <g id="text_6">
      <!-- 0 -->
      <g transform="translate(38.3234375 160.795738636)scale(0.1 -0.1)">
       <use xlink:href="#BitstreamVeraSans-Roman-30"/>
      </g>
     </g>
    </g>
    <g id="ytick_2">
     <g id="line2d_14">
      <g>
       <use style="stroke:#000000;stroke-width:0.5;" x="47.3625" xlink:href="#m728421d6d4" y="28.4"/>
      </g>
     </g>
     <g id="line2d_15">
      <g>
       <use style="stroke:#000000;stroke-width:0.5;" x="275.67421875" xlink:href="#mcb0005524f" y="28.4"/>
      </g>
     </g>
     <g id="text_7">
      <!-- 50 -->
      <defs>
       <path d="
M10.7969 72.9062
L49.5156 72.9062
L49.5156 64.5938
L19.8281 64.5938
L19.8281 46.7344
Q21.9688 47.4688 24.1094 47.8281
Q26.2656 48.1875 28.4219 48.1875
Q40.625 48.1875 47.75 41.5
Q54.8906 34.8125 54.8906 23.3906
Q54.8906 11.625 47.5625 5.09375
Q40.2344 -1.42188 26.9062 -1.42188
Q22.3125 -1.42188 17.5469 -0.640625
Q12.7969 0.140625 7.71875 1.70312
L7.71875 11.625
Q12.1094 9.23438 16.7969 8.0625
Q21.4844 6.89062 26.7031 6.89062
Q35.1562 6.89062 40.0781 11.3281
Q45.0156 15.7656 45.0156 23.3906
Q45.0156 31 40.0781 35.4375
Q35.1562 39.8906 26.7031 39.8906
Q22.75 39.8906 18.8125 39.0156
Q14.8906 38.1406 10.7969 36.2812
z
" id="BitstreamVeraSans-Roman-35"/>
      </defs>
      <g transform="translate(32.0734375 31.159375)scale(0.1 -0.1)">
       <use xlink:href="#BitstreamVeraSans-Roman-35"/>
       <use x="63.623046875" xlink:href="#BitstreamVeraSans-Roman-30"/>
      </g>
     </g>
    </g>
    <g id="text_8">
     <!-- position -->
     <defs>
      <path d="
M54.8906 33.0156
L54.8906 0
L45.9062 0
L45.9062 32.7188
Q45.9062 40.4844 42.875 44.3281
Q39.8438 48.1875 33.7969 48.1875
Q26.5156 48.1875 22.3125 43.5469
Q18.1094 38.9219 18.1094 30.9062
L18.1094 0
L9.07812 0
L9.07812 54.6875
L18.1094 54.6875
L18.1094 46.1875
Q21.3438 51.125 25.7031 53.5625
Q30.0781 56 35.7969 56
Q45.2188 56 50.0469 50.1719
Q54.8906 44.3438 54.8906 33.0156" id="BitstreamVeraSans-Roman-6e"/>
      <path d="
M30.6094 48.3906
Q23.3906 48.3906 19.1875 42.75
Q14.9844 37.1094 14.9844 27.2969
Q14.9844 17.4844 19.1562 11.8438
Q23.3438 6.20312 30.6094 6.20312
Q37.7969 6.20312 41.9844 11.8594
Q46.1875 17.5312 46.1875 27.2969
Q46.1875 37.0156 41.9844 42.7031
Q37.7969 48.3906 30.6094 48.3906
M30.6094 56
Q42.3281 56 49.0156 48.375
Q55.7188 40.7656 55.7188 27.2969
Q55.7188 13.875 49.0156 6.21875
Q42.3281 -1.42188 30.6094 -1.42188
Q18.8438 -1.42188 12.1719 6.21875
Q5.51562 13.875 5.51562 27.2969
Q5.51562 40.7656 12.1719 48.375
Q18.8438 56 30.6094 56" id="BitstreamVeraSans-Roman-6f"/>
      <path d="
M44.2812 53.0781
L44.2812 44.5781
Q40.4844 46.5312 36.375 47.5
Q32.2812 48.4844 27.875 48.4844
Q21.1875 48.4844 17.8438 46.4375
Q14.5 44.3906 14.5 40.2812
Q14.5 37.1562 16.8906 35.375
Q19.2812 33.5938 26.5156 31.9844
L29.5938 31.2969
Q39.1562 29.25 43.1875 25.5156
Q47.2188 21.7812 47.2188 15.0938
Q47.2188 7.46875 41.1875 3.01562
Q35.1562 -1.42188 24.6094 -1.42188
Q20.2188 -1.42188 15.4531 -0.5625
Q10.6875 0.296875 5.42188 2
L5.42188 11.2812
Q10.4062 8.6875 15.2344 7.39062
Q20.0625 6.10938 24.8125 6.10938
Q31.1562 6.10938 34.5625 8.28125
Q37.9844 10.4531 37.9844 14.4062
Q37.9844 18.0625 35.5156 20.0156
Q33.0625 21.9688 24.7031 23.7812
L21.5781 24.5156
Q13.2344 26.2656 9.51562 29.9062
Q5.8125 33.5469 5.8125 39.8906
Q5.8125 47.6094 11.2812 51.7969
Q16.75 56 26.8125 56
Q31.7812 56 36.1719 55.2656
Q40.5781 54.5469 44.2812 53.0781" id="BitstreamVeraSans-Roman-73"/>
      <path d="
M18.1094 8.20312
L18.1094 -20.7969
L9.07812 -20.7969
L9.07812 54.6875
L18.1094 54.6875
L18.1094 46.3906
Q20.9531 51.2656 25.2656 53.625
Q29.5938 56 35.5938 56
Q45.5625 56 51.7812 48.0938
Q58.0156 40.1875 58.0156 27.2969
Q58.0156 14.4062 51.7812 6.48438
Q45.5625 -1.42188 35.5938 -1.42188
Q29.5938 -1.42188 25.2656 0.953125
Q20.9531 3.32812 18.1094 8.20312
M48.6875 27.2969
Q48.6875 37.2031 44.6094 42.8438
Q40.5312 48.4844 33.4062 48.4844
Q26.2656 48.4844 22.1875 42.8438
Q18.1094 37.2031 18.1094 27.2969
Q18.1094 17.3906 22.1875 11.75
Q26.2656 6.10938 33.4062 6.10938
Q40.5312 6.10938 44.6094 11.75
Q48.6875 17.3906 48.6875 27.2969" id="BitstreamVeraSans-Roman-70"/>
     </defs>
     <g transform="translate(23.95390625 128.08984375)rotate(-90.0)scale(0.15 -0.15)">
      <use xlink:href="#BitstreamVeraSans-Roman-70"/>
      <use x="63.4765625" xlink:href="#BitstreamVeraSans-Roman-6f"/>
      <use x="124.658203125" xlink:href="#BitstreamVeraSans-Roman-73"/>
      <use x="176.7578125" xlink:href="#BitstreamVeraSans-Roman-69"/>
      <use x="204.541015625" xlink:href="#BitstreamVeraSans-Roman-74"/>
      <use x="243.75" xlink:href="#BitstreamVeraSans-Roman-69"/>
      <use x="271.533203125" xlink:href="#BitstreamVeraSans-Roman-6f"/>
      <use x="332.71484375" xlink:href="#BitstreamVeraSans-Roman-6e"/>
     </g>
    </g>
   </g>
   <g id="text_9">
    <!-- k = 0.0 -->
    <defs>
     <path d="
M8.40625 75.9844
L25.875 75.9844
L25.875 34.625
L46 54.6875
L66.3125 54.6875
L39.5938 29.5938
L68.4062 0
L47.2188 0
L25.875 22.7969
L25.875 0
L8.40625 0
z
" id="BitstreamVeraSans-Bold-6b"/>
     <path d="
M10.5938 48.1875
L73.1875 48.1875
L73.1875 36.7188
L10.5938 36.7188
z

M10.5938 25.9844
L73.1875 25.9844
L73.1875 14.4062
L10.5938 14.4062
z
" id="BitstreamVeraSans-Bold-3d"/>
     <path d="
M10.2031 18.8906
L27.7812 18.8906
L27.7812 0
L10.2031 0
z
" id="BitstreamVeraSans-Bold-2e"/>
     <path d="
M46 36.5312
Q46 50.2031 43.4375 55.7812
Q40.875 61.375 34.8125 61.375
Q28.7656 61.375 26.1719 55.7812
Q23.5781 50.2031 23.5781 36.5312
Q23.5781 22.7031 26.1719 17.0312
Q28.7656 11.375 34.8125 11.375
Q40.8281 11.375 43.4062 17.0312
Q46 22.7031 46 36.5312
M64.7969 36.375
Q64.7969 18.2656 56.9844 8.42188
Q49.1719 -1.42188 34.8125 -1.42188
Q20.4062 -1.42188 12.5938 8.42188
Q4.78125 18.2656 4.78125 36.375
Q4.78125 54.5469 12.5938 64.375
Q20.4062 74.2188 34.8125 74.2188
Q49.1719 74.2188 56.9844 64.375
Q64.7969 54.5469 64.7969 36.375" id="BitstreamVeraSans-Bold-30"/>
     <path id="BitstreamVeraSans-Bold-20"/>
    </defs>
    <g transform="translate(132.097265625 23.4)scale(0.15 -0.15)">
     <use xlink:href="#BitstreamVeraSans-Bold-6b"/>
     <use x="66.50390625" xlink:href="#BitstreamVeraSans-Bold-20"/>
     <use x="101.318359375" xlink:href="#BitstreamVeraSans-Bold-3d"/>
     <use x="185.107421875" xlink:href="#BitstreamVeraSans-Bold-20"/>
     <use x="219.921875" xlink:href="#BitstreamVeraSans-Bold-30"/>
     <use x="289.501953125" xlink:href="#BitstreamVeraSans-Bold-2e"/>
     <use x="327.490234375" xlink:href="#BitstreamVeraSans-Bold-30"/>
    </g>
   </g>
  </g>
  <g id="axes_2">
   <g id="patch_7">
    <path d="
M331.763 171
L560.074 171
L560.074 28.4
L331.763 28.4
z
" style="fill:#ffffff;"/>
   </g>
   <g id="line2d_16">
    <path clip-path="url(#p34b2455fee)" d="
M331.763 158.036
L333.665 155.444
L335.568 152.851
L337.47 150.258
L339.373 147.665
L341.275 145.073
L343.178 145.073
L345.081 142.48
L346.983 139.887
L348.886 142.48
L350.788 142.48
L352.691 139.887
L354.594 137.295
L356.496 139.887
L358.399 137.295
L360.301 137.295
L362.204 134.702
L364.107 132.109
L366.009 129.516
L367.912 129.516
L369.814 129.516
L371.717 129.516
L373.62 126.924
L375.522 124.331
L377.425 121.738
L379.327 119.145
L381.23 116.553
L383.133 116.553
L385.035 116.553
L386.938 119.145
L388.84 116.553
L390.743 113.96
L392.646 116.553
L394.548 116.553
L396.451 113.96
L398.353 113.96
L400.256 116.553
L402.159 119.145
L404.061 119.145
L405.964 119.145
L407.866 116.553
L409.769 119.145
L411.672 119.145
L413.574 119.145
L415.477 119.145
L417.379 116.553
L419.282 113.96
L421.185 116.553
L423.087 113.96
L424.99 111.367
L426.892 113.96
L428.795 116.553
L430.698 113.96
L432.6 111.367
L434.503 111.367
L436.405 111.367
L438.308 113.96
L440.211 111.367
L442.113 108.775
L444.016 106.182
L445.918 103.589
L447.821 100.996
L449.724 100.996
L451.626 98.4036
L453.529 95.8109
L455.431 93.2182
L457.334 93.2182
L459.237 90.6255
L461.139 88.0327
L463.042 85.44
L464.944 88.0327
L466.847 90.6255
L468.75 88.0327
L470.652 85.44
L472.555 82.8473
L474.457 85.44
L476.36 88.0327
L478.263 85.44
L480.165 82.8473
L482.068 80.2545
L483.97 77.6618
L485.873 80.2545
L487.776 77.6618
L489.678 75.0691
L491.581 72.4764
L493.483 69.8836
L495.386 67.2909
L497.288 64.6982
L499.191 62.1055
L501.094 59.5127
L502.996 59.5127
L504.899 56.92
L506.801 54.3273
L508.704 56.92
L510.607 54.3273
L512.509 51.7345
L514.412 51.7345
L516.314 51.7345
L518.217 51.7345
L520.12 51.7345
L522.022 51.7345
L523.925 51.7345
L525.827 49.1418
L527.73 46.5491
L529.633 43.9564
L531.535 41.3636
L533.438 38.7709
L535.34 36.1782
L537.243 38.7709
L539.146 38.7709
L541.048 36.1782
L542.951 33.5855
L544.853 30.9927
L546.756 30.9927
L548.659 30.9927
L550.561 28.4
L552.464 28.4
L554.366 25.8073
L556.269 23.2145
L558.172 20.6218
L560.074 23.2145" style="fill:none;stroke:#0000ff;stroke-linecap:square;"/>
   </g>
   <g id="line2d_17">
    <path clip-path="url(#p34b2455fee)" d="
M331.763 158.036
L333.665 160.629
L335.568 163.222
L337.47 165.815
L339.373 168.407
L341.275 168.407
L343.178 171
L345.081 173.593
L346.983 171
L348.886 168.407
L350.788 165.815
L352.691 165.815
L354.594 165.815
L356.496 165.815
L358.399 165.815
L360.301 165.815
L362.204 163.222
L364.107 165.815
L366.009 165.815
L367.912 165.815
L369.814 165.815
L371.717 165.815
L373.62 165.815
L375.522 165.815
L377.425 165.815
L379.327 165.815
L381.23 165.815
L383.133 163.222
L385.035 160.629
L386.938 160.629
L388.84 158.036
L390.743 155.444
L392.646 155.444
L394.548 155.444
L396.451 155.444
L398.353 155.444
L400.256 155.444
L402.159 155.444
L404.061 155.444
L405.964 155.444
L407.866 152.851
L409.769 150.258
L411.672 150.258
L413.574 150.258
L415.477 150.258
L417.379 150.258
L419.282 150.258
L421.185 152.851
L423.087 155.444
L424.99 158.036
L426.892 155.444
L428.795 155.444
L430.698 155.444
L432.6 155.444
L434.503 152.851
L436.405 155.444
L438.308 155.444
L440.211 155.444
L442.113 155.444
L444.016 158.036
L445.918 158.036
L447.821 158.036
L449.724 158.036
L451.626 158.036
L453.529 158.036
L455.431 160.629
L457.334 158.036
L459.237 155.444
L461.139 155.444
L463.042 155.444
L464.944 155.444
L466.847 155.444
L468.75 152.851
L470.652 150.258
L472.555 147.665
L474.457 147.665
L476.36 147.665
L478.263 145.073
L480.165 142.48
L482.068 139.887
L483.97 139.887
L485.873 139.887
L487.776 139.887
L489.678 139.887
L491.581 139.887
L493.483 139.887
L495.386 139.887
L497.288 139.887
L499.191 142.48
L501.094 139.887
L502.996 139.887
L504.899 142.48
L506.801 139.887
L508.704 137.295
L510.607 134.702
L512.509 137.295
L514.412 139.887
L516.314 142.48
L518.217 145.073
L520.12 147.665
L522.022 147.665
L523.925 145.073
L525.827 142.48
L527.73 139.887
L529.633 137.295
L531.535 137.295
L533.438 137.295
L535.34 137.295
L537.243 134.702
L539.146 137.295
L541.048 139.887
L542.951 142.48
L544.853 142.48
L546.756 142.48
L548.659 142.48
L550.561 139.887
L552.464 139.887
L554.366 139.887
L556.269 139.887
L558.172 137.295
L560.074 134.702" style="fill:none;stroke:#008000;stroke-linecap:square;"/>
   </g>
   <g id="line2d_18">
    <path clip-path="url(#p34b2455fee)" d="
M331.763 158.036
L333.665 155.444
L335.568 158.036
L337.47 158.036
L339.373 155.444
L341.275 152.851
L343.178 150.258
L345.081 147.665
L346.983 145.073
L348.886 142.48
L350.788 139.887
L352.691 137.295
L354.594 137.295
L356.496 137.295
L358.399 137.295
L360.301 137.295
L362.204 137.295
L364.107 137.295
L366.009 137.295
L367.912 137.295
L369.814 134.702
L371.717 132.109
L373.62 129.516
L375.522 126.924
L377.425 124.331
L379.327 121.738
L381.23 124.331
L383.133 124.331
L385.035 124.331
L386.938 126.924
L388.84 124.331
L390.743 124.331
L392.646 121.738
L394.548 119.145
L396.451 121.738
L398.353 124.331
L400.256 126.924
L402.159 124.331
L404.061 126.924
L405.964 124.331
L407.866 121.738
L409.769 124.331
L411.672 126.924
L413.574 124.331
L415.477 121.738
L417.379 119.145
L419.282 116.553
L421.185 116.553
L423.087 119.145
L424.99 116.553
L426.892 113.96
L428.795 111.367
L430.698 108.775
L432.6 106.182
L434.503 103.589
L436.405 100.996
L438.308 98.4036
L440.211 98.4036
L442.113 95.8109
L444.016 93.2182
L445.918 95.8109
L447.821 98.4036
L449.724 100.996
L451.626 100.996
L453.529 100.996
L455.431 100.996
L457.334 98.4036
L459.237 100.996
L461.139 103.589
L463.042 106.182
L464.944 106.182
L466.847 106.182
L468.75 103.589
L470.652 100.996
L472.555 98.4036
L474.457 95.8109
L476.36 95.8109
L478.263 93.2182
L480.165 90.6255
L482.068 88.0327
L483.97 88.0327
L485.873 85.44
L487.776 85.44
L489.678 85.44
L491.581 85.44
L493.483 88.0327
L495.386 90.6255
L497.288 88.0327
L499.191 85.44
L501.094 82.8473
L502.996 80.2545
L504.899 80.2545
L506.801 82.8473
L508.704 85.44
L510.607 85.44
L512.509 85.44
L514.412 85.44
L516.314 82.8473
L518.217 82.8473
L520.12 85.44
L522.022 85.44
L523.925 82.8473
L525.827 80.2545
L527.73 80.2545
L529.633 80.2545
L531.535 77.6618
L533.438 75.0691
L535.34 72.4764
L537.243 69.8836
L539.146 67.2909
L541.048 67.2909
L542.951 67.2909
L544.853 67.2909
L546.756 67.2909
L548.659 67.2909
L550.561 67.2909
L552.464 67.2909
L554.366 67.2909
L556.269 67.2909
L558.172 64.6982
L560.074 64.6982" style="fill:none;stroke:#ff0000;stroke-linecap:square;"/>
   </g>
   <g id="patch_8">
    <path d="
M331.763 28.4
L560.074 28.4" style="fill:none;stroke:#000000;stroke-linecap:square;stroke-linejoin:miter;"/>
   </g>
   <g id="patch_9">
    <path d="
M560.074 171
L560.074 28.4" style="fill:none;stroke:#000000;stroke-linecap:square;stroke-linejoin:miter;"/>
   </g>
   <g id="patch_10">
    <path d="
M331.763 171
L560.074 171" style="fill:none;stroke:#000000;stroke-linecap:square;stroke-linejoin:miter;"/>
   </g>
   <g id="patch_11">
    <path d="
M331.763 171
L331.763 28.4" style="fill:none;stroke:#000000;stroke-linecap:square;stroke-linejoin:miter;"/>
   </g>
   <g id="matplotlib.axis_3">
    <g id="xtick_5">
     <g id="line2d_19">
      <g>
       <use style="stroke:#000000;stroke-width:0.5;" x="331.7625" xlink:href="#m93b0483c22" y="171.0"/>
      </g>
     </g>
     <g id="line2d_20">
      <g>
       <use style="stroke:#000000;stroke-width:0.5;" x="331.7625" xlink:href="#m741efc42ff" y="28.4"/>
      </g>
     </g>
     <g id="text_10">
      <!-- 0 -->
      <g transform="translate(329.24296875 182.5984375)scale(0.1 -0.1)">
       <use xlink:href="#BitstreamVeraSans-Roman-30"/>
      </g>
     </g>
    </g>
    <g id="xtick_6">
     <g id="line2d_21">
      <g>
       <use style="stroke:#000000;stroke-width:0.5;" x="407.86640625" xlink:href="#m93b0483c22" y="171.0"/>
      </g>
     </g>
     <g id="line2d_22">
      <g>
       <use style="stroke:#000000;stroke-width:0.5;" x="407.86640625" xlink:href="#m741efc42ff" y="28.4"/>
      </g>
     </g>
     <g id="text_11">
      <!-- 40 -->
      <g transform="translate(402.08046875 182.5984375)scale(0.1 -0.1)">
       <use xlink:href="#BitstreamVeraSans-Roman-34"/>
       <use x="63.623046875" xlink:href="#BitstreamVeraSans-Roman-30"/>
      </g>
     </g>
    </g>
    <g id="xtick_7">
     <g id="line2d_23">
      <g>
       <use style="stroke:#000000;stroke-width:0.5;" x="483.9703125" xlink:href="#m93b0483c22" y="171.0"/>
      </g>
     </g>
     <g id="line2d_24">
      <g>
       <use style="stroke:#000000;stroke-width:0.5;" x="483.9703125" xlink:href="#m741efc42ff" y="28.4"/>
      </g>
     </g>
     <g id="text_12">
      <!-- 80 -->
      <g transform="translate(478.27890625 182.5984375)scale(0.1 -0.1)">
       <use xlink:href="#BitstreamVeraSans-Roman-38"/>
       <use x="63.623046875" xlink:href="#BitstreamVeraSans-Roman-30"/>
      </g>
     </g>
    </g>
    <g id="xtick_8">
     <g id="line2d_25">
      <g>
       <use style="stroke:#000000;stroke-width:0.5;" x="560.07421875" xlink:href="#m93b0483c22" y="171.0"/>
      </g>
     </g>
     <g id="line2d_26">
      <g>
       <use style="stroke:#000000;stroke-width:0.5;" x="560.07421875" xlink:href="#m741efc42ff" y="28.4"/>
      </g>
     </g>
     <g id="text_13">
      <!-- 120 -->
      <g transform="translate(551.41171875 182.5984375)scale(0.1 -0.1)">
       <use xlink:href="#BitstreamVeraSans-Roman-31"/>
       <use x="63.623046875" xlink:href="#BitstreamVeraSans-Roman-32"/>
       <use x="127.24609375" xlink:href="#BitstreamVeraSans-Roman-30"/>
      </g>
     </g>
    </g>
    <g id="text_14">
     <!-- time -->
     <g transform="translate(429.575390625 201.07578125)scale(0.15 -0.15)">
      <use xlink:href="#BitstreamVeraSans-Roman-74"/>
      <use x="39.208984375" xlink:href="#BitstreamVeraSans-Roman-69"/>
      <use x="66.9921875" xlink:href="#BitstreamVeraSans-Roman-6d"/>
      <use x="164.404296875" xlink:href="#BitstreamVeraSans-Roman-65"/>
     </g>
    </g>
   </g>
   <g id="matplotlib.axis_4">
    <g id="ytick_3">
     <g id="line2d_27">
      <g>
       <use style="stroke:#000000;stroke-width:0.5;" x="331.7625" xlink:href="#m728421d6d4" y="158.036363636"/>
      </g>
     </g>
     <g id="line2d_28">
      <g>
       <use style="stroke:#000000;stroke-width:0.5;" x="560.07421875" xlink:href="#mcb0005524f" y="158.036363636"/>
      </g>
     </g>
     <g id="text_15">
      <!-- 0 -->
      <g transform="translate(322.7234375 160.795738636)scale(0.1 -0.1)">
       <use xlink:href="#BitstreamVeraSans-Roman-30"/>
      </g>
     </g>
    </g>
    <g id="ytick_4">
     <g id="line2d_29">
      <g>
       <use style="stroke:#000000;stroke-width:0.5;" x="331.7625" xlink:href="#m728421d6d4" y="28.4"/>
      </g>
     </g>
     <g id="line2d_30">
      <g>
       <use style="stroke:#000000;stroke-width:0.5;" x="560.07421875" xlink:href="#mcb0005524f" y="28.4"/>
      </g>
     </g>
     <g id="text_16">
      <!-- 50 -->
      <g transform="translate(316.4734375 31.159375)scale(0.1 -0.1)">
       <use xlink:href="#BitstreamVeraSans-Roman-35"/>
       <use x="63.623046875" xlink:href="#BitstreamVeraSans-Roman-30"/>
      </g>
     </g>
    </g>
    <g id="text_17">
     <!-- position -->
     <g transform="translate(308.35390625 128.08984375)rotate(-90.0)scale(0.15 -0.15)">
      <use xlink:href="#BitstreamVeraSans-Roman-70"/>
      <use x="63.4765625" xlink:href="#BitstreamVeraSans-Roman-6f"/>
      <use x="124.658203125" xlink:href="#BitstreamVeraSans-Roman-73"/>
      <use x="176.7578125" xlink:href="#BitstreamVeraSans-Roman-69"/>
      <use x="204.541015625" xlink:href="#BitstreamVeraSans-Roman-74"/>
      <use x="243.75" xlink:href="#BitstreamVeraSans-Roman-69"/>
      <use x="271.533203125" xlink:href="#BitstreamVeraSans-Roman-6f"/>
      <use x="332.71484375" xlink:href="#BitstreamVeraSans-Roman-6e"/>
     </g>
    </g>
   </g>
   <g id="text_18">
    <!-- k = 0.3 -->
    <defs>
     <path d="
M46.5781 39.3125
Q53.9531 37.4062 57.7812 32.6875
Q61.625 27.9844 61.625 20.7031
Q61.625 9.85938 53.3125 4.21875
Q45.0156 -1.42188 29.1094 -1.42188
Q23.4844 -1.42188 17.8438 -0.515625
Q12.2031 0.390625 6.6875 2.20312
L6.6875 16.7031
Q11.9688 14.0625 17.1562 12.7188
Q22.3594 11.375 27.3906 11.375
Q34.8594 11.375 38.8438 13.9531
Q42.8281 16.5469 42.8281 21.3906
Q42.8281 26.375 38.75 28.9375
Q34.6719 31.5 26.7031 31.5
L19.1875 31.5
L19.1875 43.6094
L27.0938 43.6094
Q34.1875 43.6094 37.6406 45.8281
Q41.1094 48.0469 41.1094 52.5938
Q41.1094 56.7812 37.7344 59.0781
Q34.375 61.375 28.2188 61.375
Q23.6875 61.375 19.0469 60.3438
Q14.4062 59.3281 9.8125 57.3281
L9.8125 71.0938
Q15.375 72.6562 20.8438 73.4375
Q26.3125 74.2188 31.5938 74.2188
Q45.7969 74.2188 52.8438 69.5469
Q59.9062 64.8906 59.9062 55.5156
Q59.9062 49.125 56.5312 45.0469
Q53.1719 40.9688 46.5781 39.3125" id="BitstreamVeraSans-Bold-33"/>
    </defs>
    <g transform="translate(416.73515625 23.4)scale(0.15 -0.15)">
     <use xlink:href="#BitstreamVeraSans-Bold-6b"/>
     <use x="66.50390625" xlink:href="#BitstreamVeraSans-Bold-20"/>
     <use x="101.318359375" xlink:href="#BitstreamVeraSans-Bold-3d"/>
     <use x="185.107421875" xlink:href="#BitstreamVeraSans-Bold-20"/>
     <use x="219.921875" xlink:href="#BitstreamVeraSans-Bold-30"/>
     <use x="289.501953125" xlink:href="#BitstreamVeraSans-Bold-2e"/>
     <use x="327.490234375" xlink:href="#BitstreamVeraSans-Bold-33"/>
    </g>
   </g>
  </g>
  <g id="axes_3">
   <g id="patch_12">
    <path d="
M616.163 171
L844.474 171
L844.474 28.4
L616.163 28.4
z
" style="fill:#ffffff;"/>
   </g>
   <g id="line2d_31">
    <path clip-path="url(#pf324687477)" d="
M616.163 158.036
L618.065 160.629
L619.968 163.222
L621.87 163.222
L623.773 163.222
L625.675 160.629
L627.578 158.036
L629.481 155.444
L631.383 155.444
L633.286 158.036
L635.188 160.629
L637.091 160.629
L638.994 160.629
L640.896 160.629
L642.799 160.629
L644.701 160.629
L646.604 158.036
L648.507 155.444
L650.409 152.851
L652.312 155.444
L654.214 152.851
L656.117 150.258
L658.02 150.258
L659.922 150.258
L661.825 147.665
L663.727 145.073
L665.63 145.073
L667.533 147.665
L669.435 150.258
L671.338 152.851
L673.24 155.444
L675.143 158.036
L677.046 158.036
L678.948 160.629
L680.851 163.222
L682.753 165.815
L684.656 163.222
L686.559 165.815
L688.461 163.222
L690.364 160.629
L692.266 160.629
L694.169 160.629
L696.072 160.629
L697.974 163.222
L699.877 160.629
L701.779 163.222
L703.682 160.629
L705.585 158.036
L707.487 155.444
L709.39 152.851
L711.292 150.258
L713.195 147.665
L715.098 145.073
L717 142.48
L718.903 142.48
L720.805 142.48
L722.708 142.48
L724.611 142.48
L726.513 139.887
L728.416 137.295
L730.318 139.887
L732.221 137.295
L734.124 139.887
L736.026 139.887
L737.929 139.887
L739.831 137.295
L741.734 134.702
L743.637 132.109
L745.539 129.516
L747.442 129.516
L749.344 126.924
L751.247 124.331
L753.15 121.738
L755.052 119.145
L756.955 116.553
L758.857 113.96
L760.76 111.367
L762.663 108.775
L764.565 108.775
L766.468 111.367
L768.37 111.367
L770.273 111.367
L772.176 113.96
L774.078 113.96
L775.981 113.96
L777.883 113.96
L779.786 111.367
L781.688 108.775
L783.591 106.182
L785.494 103.589
L787.396 100.996
L789.299 98.4036
L791.201 95.8109
L793.104 95.8109
L795.007 93.2182
L796.909 93.2182
L798.812 95.8109
L800.714 95.8109
L802.617 98.4036
L804.52 100.996
L806.422 103.589
L808.325 100.996
L810.227 103.589
L812.13 106.182
L814.033 108.775
L815.935 111.367
L817.838 113.96
L819.74 116.553
L821.643 113.96
L823.546 111.367
L825.448 113.96
L827.351 113.96
L829.253 116.553
L831.156 119.145
L833.059 121.738
L834.961 121.738
L836.864 119.145
L838.766 116.553
L840.669 113.96
L842.572 111.367
L844.474 111.367" style="fill:none;stroke:#0000ff;stroke-linecap:square;"/>
   </g>
   <g id="line2d_32">
    <path clip-path="url(#pf324687477)" d="
M616.163 158.036
L618.065 160.629
L619.968 163.222
L621.87 160.629
L623.773 158.036
L625.675 155.444
L627.578 155.444
L629.481 155.444
L631.383 152.851
L633.286 150.258
L635.188 150.258
L637.091 150.258
L638.994 150.258
L640.896 150.258
L642.799 150.258
L644.701 147.665
L646.604 147.665
L648.507 147.665
L650.409 145.073
L652.312 142.48
L654.214 139.887
L656.117 142.48
L658.02 139.887
L659.922 137.295
L661.825 134.702
L663.727 132.109
L665.63 132.109
L667.533 134.702
L669.435 132.109
L671.338 129.516
L673.24 126.924
L675.143 124.331
L677.046 121.738
L678.948 119.145
L680.851 116.553
L682.753 113.96
L684.656 111.367
L686.559 108.775
L688.461 111.367
L690.364 113.96
L692.266 116.553
L694.169 119.145
L696.072 121.738
L697.974 119.145
L699.877 116.553
L701.779 113.96
L703.682 111.367
L705.585 108.775
L707.487 106.182
L709.39 108.775
L711.292 111.367
L713.195 113.96
L715.098 113.96
L717 116.553
L718.903 113.96
L720.805 111.367
L722.708 108.775
L724.611 106.182
L726.513 103.589
L728.416 100.996
L730.318 98.4036
L732.221 98.4036
L734.124 100.996
L736.026 103.589
L737.929 106.182
L739.831 106.182
L741.734 106.182
L743.637 103.589
L745.539 103.589
L747.442 100.996
L749.344 98.4036
L751.247 95.8109
L753.15 95.8109
L755.052 95.8109
L756.955 93.2182
L758.857 93.2182
L760.76 90.6255
L762.663 88.0327
L764.565 85.44
L766.468 82.8473
L768.37 80.2545
L770.273 77.6618
L772.176 77.6618
L774.078 77.6618
L775.981 77.6618
L777.883 77.6618
L779.786 77.6618
L781.688 77.6618
L783.591 77.6618
L785.494 75.0691
L787.396 72.4764
L789.299 75.0691
L791.201 77.6618
L793.104 75.0691
L795.007 75.0691
L796.909 75.0691
L798.812 75.0691
L800.714 75.0691
L802.617 72.4764
L804.52 69.8836
L806.422 67.2909
L808.325 64.6982
L810.227 62.1055
L812.13 59.5127
L814.033 62.1055
L815.935 59.5127
L817.838 56.92
L819.74 54.3273
L821.643 51.7345
L823.546 49.1418
L825.448 49.1418
L827.351 49.1418
L829.253 46.5491
L831.156 49.1418
L833.059 46.5491
L834.961 43.9564
L836.864 43.9564
L838.766 41.3636
L840.669 38.7709
L842.572 36.1782
L844.474 33.5855" style="fill:none;stroke:#008000;stroke-linecap:square;"/>
   </g>
   <g id="line2d_33">
    <path clip-path="url(#pf324687477)" d="
M616.163 158.036
L618.065 155.444
L619.968 152.851
L621.87 150.258
L623.773 150.258
L625.675 150.258
L627.578 150.258
L629.481 147.665
L631.383 150.258
L633.286 147.665
L635.188 145.073
L637.091 147.665
L638.994 150.258
L640.896 147.665
L642.799 145.073
L644.701 142.48
L646.604 139.887
L648.507 142.48
L650.409 145.073
L652.312 145.073
L654.214 145.073
L656.117 142.48
L658.02 139.887
L659.922 139.887
L661.825 139.887
L663.727 139.887
L665.63 137.295
L667.533 137.295
L669.435 134.702
L671.338 132.109
L673.24 132.109
L675.143 132.109
L677.046 132.109
L678.948 129.516
L680.851 126.924
L682.753 124.331
L684.656 121.738
L686.559 121.738
L688.461 124.331
L690.364 126.924
L692.266 129.516
L694.169 129.516
L696.072 129.516
L697.974 129.516
L699.877 132.109
L701.779 134.702
L703.682 134.702
L705.585 134.702
L707.487 134.702
L709.39 134.702
L711.292 134.702
L713.195 134.702
L715.098 134.702
L717 137.295
L718.903 134.702
L720.805 132.109
L722.708 129.516
L724.611 126.924
L726.513 124.331
L728.416 126.924
L730.318 129.516
L732.221 132.109
L734.124 129.516
L736.026 132.109
L737.929 134.702
L739.831 134.702
L741.734 132.109
L743.637 129.516
L745.539 126.924
L747.442 126.924
L749.344 126.924
L751.247 126.924
L753.15 126.924
L755.052 126.924
L756.955 126.924
L758.857 126.924
L760.76 126.924
L762.663 124.331
L764.565 124.331
L766.468 121.738
L768.37 119.145
L770.273 119.145
L772.176 121.738
L774.078 121.738
L775.981 121.738
L777.883 121.738
L779.786 121.738
L781.688 121.738
L783.591 119.145
L785.494 116.553
L787.396 116.553
L789.299 119.145
L791.201 119.145
L793.104 119.145
L795.007 116.553
L796.909 113.96
L798.812 111.367
L800.714 108.775
L802.617 106.182
L804.52 103.589
L806.422 106.182
L808.325 108.775
L810.227 111.367
L812.13 113.96
L814.033 111.367
L815.935 108.775
L817.838 106.182
L819.74 106.182
L821.643 106.182
L823.546 103.589
L825.448 100.996
L827.351 98.4036
L829.253 98.4036
L831.156 95.8109
L833.059 93.2182
L834.961 90.6255
L836.864 88.0327
L838.766 85.44
L840.669 82.8473
L842.572 82.8473
L844.474 82.8473" style="fill:none;stroke:#ff0000;stroke-linecap:square;"/>
   </g>
   <g id="patch_13">
    <path d="
M616.163 28.4
L844.474 28.4" style="fill:none;stroke:#000000;stroke-linecap:square;stroke-linejoin:miter;"/>
   </g>
   <g id="patch_14">
    <path d="
M844.474 171
L844.474 28.4" style="fill:none;stroke:#000000;stroke-linecap:square;stroke-linejoin:miter;"/>
   </g>
   <g id="patch_15">
    <path d="
M616.163 171
L844.474 171" style="fill:none;stroke:#000000;stroke-linecap:square;stroke-linejoin:miter;"/>
   </g>
   <g id="patch_16">
    <path d="
M616.163 171
L616.163 28.4" style="fill:none;stroke:#000000;stroke-linecap:square;stroke-linejoin:miter;"/>
   </g>
   <g id="matplotlib.axis_5">
    <g id="xtick_9">
     <g id="line2d_34">
      <g>
       <use style="stroke:#000000;stroke-width:0.5;" x="616.1625" xlink:href="#m93b0483c22" y="171.0"/>
      </g>
     </g>
     <g id="line2d_35">
      <g>
       <use style="stroke:#000000;stroke-width:0.5;" x="616.1625" xlink:href="#m741efc42ff" y="28.4"/>
      </g>
     </g>
     <g id="text_19">
      <!-- 0 -->
      <g transform="translate(613.64296875 182.5984375)scale(0.1 -0.1)">
       <use xlink:href="#BitstreamVeraSans-Roman-30"/>
      </g>
     </g>
    </g>
    <g id="xtick_10">
     <g id="line2d_36">
      <g>
       <use style="stroke:#000000;stroke-width:0.5;" x="692.26640625" xlink:href="#m93b0483c22" y="171.0"/>
      </g>
     </g>
     <g id="line2d_37">
      <g>
       <use style="stroke:#000000;stroke-width:0.5;" x="692.26640625" xlink:href="#m741efc42ff" y="28.4"/>
      </g>
     </g>
     <g id="text_20">
      <!-- 40 -->
      <g transform="translate(686.48046875 182.5984375)scale(0.1 -0.1)">
       <use xlink:href="#BitstreamVeraSans-Roman-34"/>
       <use x="63.623046875" xlink:href="#BitstreamVeraSans-Roman-30"/>
      </g>
     </g>
    </g>
    <g id="xtick_11">
     <g id="line2d_38">
      <g>
       <use style="stroke:#000000;stroke-width:0.5;" x="768.3703125" xlink:href="#m93b0483c22" y="171.0"/>
      </g>
     </g>
     <g id="line2d_39">
      <g>
       <use style="stroke:#000000;stroke-width:0.5;" x="768.3703125" xlink:href="#m741efc42ff" y="28.4"/>
      </g>
     </g>
     <g id="text_21">
      <!-- 80 -->
      <g transform="translate(762.67890625 182.5984375)scale(0.1 -0.1)">
       <use xlink:href="#BitstreamVeraSans-Roman-38"/>
       <use x="63.623046875" xlink:href="#BitstreamVeraSans-Roman-30"/>
      </g>
     </g>
    </g>
    <g id="xtick_12">
     <g id="line2d_40">
      <g>
       <use style="stroke:#000000;stroke-width:0.5;" x="844.47421875" xlink:href="#m93b0483c22" y="171.0"/>
      </g>
     </g>
     <g id="line2d_41">
      <g>
       <use style="stroke:#000000;stroke-width:0.5;" x="844.47421875" xlink:href="#m741efc42ff" y="28.4"/>
      </g>
     </g>
     <g id="text_22">
      <!-- 120 -->
      <g transform="translate(835.81171875 182.5984375)scale(0.1 -0.1)">
       <use xlink:href="#BitstreamVeraSans-Roman-31"/>
       <use x="63.623046875" xlink:href="#BitstreamVeraSans-Roman-32"/>
       <use x="127.24609375" xlink:href="#BitstreamVeraSans-Roman-30"/>
      </g>
     </g>
    </g>
    <g id="text_23">
     <!-- time -->
     <g transform="translate(713.975390625 201.07578125)scale(0.15 -0.15)">
      <use xlink:href="#BitstreamVeraSans-Roman-74"/>
      <use x="39.208984375" xlink:href="#BitstreamVeraSans-Roman-69"/>
      <use x="66.9921875" xlink:href="#BitstreamVeraSans-Roman-6d"/>
      <use x="164.404296875" xlink:href="#BitstreamVeraSans-Roman-65"/>
     </g>
    </g>
   </g>
   <g id="matplotlib.axis_6">
    <g id="ytick_5">
     <g id="line2d_42">
      <g>
       <use style="stroke:#000000;stroke-width:0.5;" x="616.1625" xlink:href="#m728421d6d4" y="158.036363636"/>
      </g>
     </g>
     <g id="line2d_43">
      <g>
       <use style="stroke:#000000;stroke-width:0.5;" x="844.47421875" xlink:href="#mcb0005524f" y="158.036363636"/>
      </g>
     </g>
     <g id="text_24">
      <!-- 0 -->
      <g transform="translate(607.1234375 160.795738636)scale(0.1 -0.1)">
       <use xlink:href="#BitstreamVeraSans-Roman-30"/>
      </g>
     </g>
    </g>
    <g id="ytick_6">
     <g id="line2d_44">
      <g>
       <use style="stroke:#000000;stroke-width:0.5;" x="616.1625" xlink:href="#m728421d6d4" y="28.4"/>
      </g>
     </g>
     <g id="line2d_45">
      <g>
       <use style="stroke:#000000;stroke-width:0.5;" x="844.47421875" xlink:href="#mcb0005524f" y="28.4"/>
      </g>
     </g>
     <g id="text_25">
      <!-- 50 -->
      <g transform="translate(600.8734375 31.159375)scale(0.1 -0.1)">
       <use xlink:href="#BitstreamVeraSans-Roman-35"/>
       <use x="63.623046875" xlink:href="#BitstreamVeraSans-Roman-30"/>
      </g>
     </g>
    </g>
    <g id="text_26">
     <!-- position -->
     <g transform="translate(592.75390625 128.08984375)rotate(-90.0)scale(0.15 -0.15)">
      <use xlink:href="#BitstreamVeraSans-Roman-70"/>
      <use x="63.4765625" xlink:href="#BitstreamVeraSans-Roman-6f"/>
      <use x="124.658203125" xlink:href="#BitstreamVeraSans-Roman-73"/>
      <use x="176.7578125" xlink:href="#BitstreamVeraSans-Roman-69"/>
      <use x="204.541015625" xlink:href="#BitstreamVeraSans-Roman-74"/>
      <use x="243.75" xlink:href="#BitstreamVeraSans-Roman-69"/>
      <use x="271.533203125" xlink:href="#BitstreamVeraSans-Roman-6f"/>
      <use x="332.71484375" xlink:href="#BitstreamVeraSans-Roman-6e"/>
     </g>
    </g>
   </g>
   <g id="text_27">
    <!-- k = 0.4 -->
    <defs>
     <path d="
M36.8125 57.4219
L16.2188 26.9062
L36.8125 26.9062
z

M33.6875 72.9062
L54.5938 72.9062
L54.5938 26.9062
L64.9844 26.9062
L64.9844 13.2812
L54.5938 13.2812
L54.5938 0
L36.8125 0
L36.8125 13.2812
L4.5 13.2812
L4.5 29.3906
z
" id="BitstreamVeraSans-Bold-34"/>
    </defs>
    <g transform="translate(700.883203125 23.4)scale(0.15 -0.15)">
     <use xlink:href="#BitstreamVeraSans-Bold-6b"/>
     <use x="66.50390625" xlink:href="#BitstreamVeraSans-Bold-20"/>
     <use x="101.318359375" xlink:href="#BitstreamVeraSans-Bold-3d"/>
     <use x="185.107421875" xlink:href="#BitstreamVeraSans-Bold-20"/>
     <use x="219.921875" xlink:href="#BitstreamVeraSans-Bold-30"/>
     <use x="289.501953125" xlink:href="#BitstreamVeraSans-Bold-2e"/>
     <use x="327.490234375" xlink:href="#BitstreamVeraSans-Bold-34"/>
    </g>
   </g>
  </g>
 </g>
 <defs>
  <clipPath id="p34b2455fee">
   <rect height="142.6" width="228.31171875" x="331.7625" y="28.4"/>
  </clipPath>
  <clipPath id="pf324687477">
   <rect height="142.6" width="228.31171875" x="616.1625" y="28.4"/>
  </clipPath>
  <clipPath id="p8f49bcbbc7">
   <rect height="142.6" width="228.31171875" x="47.3625" y="28.4"/>
  </clipPath>
 </defs>
</svg>
