<?xml version="1.0" encoding="utf-8" standalone="no"?>
<!DOCTYPE svg PUBLIC "-//W3C//DTD SVG 1.1//EN"
  "http://www.w3.org/Graphics/SVG/1.1/DTD/svg11.dtd">
<!-- Created with matplotlib (http://matplotlib.org/) -->
<svg height="216pt" version="1.1" viewBox="0 0 864 216" width="864pt" xmlns="http://www.w3.org/2000/svg" xmlns:xlink="http://www.w3.org/1999/xlink">
 <defs>
  <style type="text/css">
*{stroke-linecap:butt;stroke-linejoin:round;}
  </style>
 </defs>
 <g id="figure_1">
  <g id="patch_1">
   <path d="
M0 216
L864 216
L864 0
L0 0
z
" style="fill:#ffffff;"/>
  </g>
  <g id="axes_1">
   <g id="patch_2">
    <path d="
M41.0063 171
L284.4 171
L284.4 28.4
L41.0063 28.4
z
" style="fill:#ffffff;"/>
   </g>
   <g id="line2d_1">
    <path clip-path="url(#p08db764a31)" d="
M40.4971 171
L42.9514 171
L45.4057 171
L47.86 171
L50.3143 171
L52.7686 171
L55.2229 171
L57.6772 171
L60.1315 171
L62.5858 171
L65.0401 171
L67.4944 171
L69.9487 171
L72.403 171
L74.8573 171
L77.3116 171
L79.7659 171
L82.2202 171
L84.6746 171
L87.1289 171
L89.5832 171
L92.0375 169.056
L94.4918 166.463
L96.9461 145.723
L99.4004 99.7048
L101.855 66.0016
L104.309 40.7243
L106.763 23.2245
L109.218 60.1684
L111.672 133.408
L114.126 157.389
L116.581 171
L119.035 171
L121.489 171
L123.943 171
L126.398 171
L128.852 171
L131.306 171
L133.761 171
L136.215 171
L138.669 171
L141.124 171
L143.578 171
L146.032 171
L148.486 171
L150.941 171
L153.395 171
L155.849 171
L158.304 171
L160.758 171
L163.212 171
L165.667 171
L168.121 171
L170.575 171
L173.03 171
L175.484 171
L177.938 171
L180.392 171
L182.847 171
L185.301 171
L187.755 171
L190.21 171
L192.664 171
L195.118 171
L197.573 171
L200.027 171
L202.481 171
L204.936 171
L207.39 171
L209.844 171
L212.298 171
L214.753 171
L217.207 171
L219.661 171
L222.116 171
L224.57 171
L227.024 171
L229.479 171
L231.933 171
L234.387 171
L236.841 171
L239.296 171
L241.75 171
L244.204 171
L246.659 171
L249.113 171
L251.567 171
L254.022 171
L256.476 171
L258.93 171
L261.385 171
L263.839 171
L266.293 171
L268.747 171
L271.202 171
L273.656 171
L276.11 171
L278.565 171
L281.019 171
L283.473 171
L285.928 171" style="fill:none;stroke:#0000ff;stroke-linecap:square;stroke-width:2;"/>
   </g>
   <g id="line2d_2">
    <path clip-path="url(#p08db764a31)" d="
M40.4971 171
L42.9514 171
L45.4057 171
L47.86 171
L50.3143 171
L52.7686 171
L55.2229 171
L57.6772 171
L60.1315 171
L62.5858 171
L65.0401 171
L67.4944 171
L69.9487 171
L72.403 171
L74.8573 171
L77.3116 171
L79.7659 171
L82.2202 171
L84.6746 171
L87.1289 170.352
L89.5832 171
L92.0375 169.704
L94.4918 165.815
L96.9461 160.63
L99.4004 160.63
L101.855 156.093
L104.309 143.13
L106.763 129.519
L109.218 122.39
L111.672 112.668
L114.126 107.482
L116.581 101.649
L119.035 101.649
L121.489 108.779
L123.943 116.556
L126.398 128.871
L128.852 144.426
L131.306 150.26
L133.761 160.63
L136.215 166.463
L138.669 167.759
L141.124 168.407
L143.578 171
L146.032 171
L148.486 171
L150.941 171
L153.395 171
L155.849 171
L158.304 171
L160.758 171
L163.212 171
L165.667 171
L168.121 171
L170.575 171
L173.03 171
L175.484 171
L177.938 171
L180.392 171
L182.847 171
L185.301 171
L187.755 171
L190.21 171
L192.664 171
L195.118 171
L197.573 171
L200.027 171
L202.481 171
L204.936 171
L207.39 171
L209.844 171
L212.298 171
L214.753 171
L217.207 171
L219.661 171
L222.116 171
L224.57 171
L227.024 171
L229.479 171
L231.933 171
L234.387 171
L236.841 171
L239.296 171
L241.75 171
L244.204 171
L246.659 171
L249.113 171
L251.567 171
L254.022 171
L256.476 171
L258.93 171
L261.385 171
L263.839 171
L266.293 171
L268.747 171
L271.202 171
L273.656 171
L276.11 171
L278.565 171
L281.019 171
L283.473 171
L285.928 171" style="fill:none;stroke:#2a00d4;stroke-linecap:square;stroke-width:2;"/>
   </g>
   <g id="line2d_3">
    <path clip-path="url(#p08db764a31)" d="
M40.4971 171
L42.9514 171
L45.4057 171
L47.86 171
L50.3143 171
L52.7686 171
L55.2229 171
L57.6772 171
L60.1315 171
L62.5858 171
L65.0401 171
L67.4944 171
L69.9487 171
L72.403 171
L74.8573 171
L77.3116 171
L79.7659 171
L82.2202 171
L84.6746 170.352
L87.1289 169.704
L89.5832 171
L92.0375 171
L94.4918 168.407
L96.9461 168.407
L99.4004 168.407
L101.855 167.759
L104.309 159.334
L106.763 159.982
L109.218 152.852
L111.672 150.908
L114.126 143.778
L116.581 141.186
L119.035 129.519
L121.489 131.464
L123.943 119.149
L126.398 113.316
L128.852 117.205
L131.306 119.797
L133.761 123.038
L136.215 130.167
L138.669 137.945
L141.124 148.315
L143.578 148.315
L146.032 145.723
L148.486 160.63
L150.941 164.519
L153.395 167.759
L155.849 165.167
L158.304 169.056
L160.758 169.704
L163.212 171
L165.667 171
L168.121 171
L170.575 171
L173.03 171
L175.484 171
L177.938 171
L180.392 171
L182.847 171
L185.301 171
L187.755 171
L190.21 171
L192.664 171
L195.118 171
L197.573 171
L200.027 171
L202.481 171
L204.936 171
L207.39 171
L209.844 171
L212.298 171
L214.753 171
L217.207 171
L219.661 171
L222.116 171
L224.57 171
L227.024 171
L229.479 171
L231.933 171
L234.387 171
L236.841 171
L239.296 171
L241.75 171
L244.204 171
L246.659 171
L249.113 171
L251.567 171
L254.022 171
L256.476 171
L258.93 171
L261.385 171
L263.839 171
L266.293 171
L268.747 171
L271.202 171
L273.656 171
L276.11 171
L278.565 171
L281.019 171
L283.473 171
L285.928 171" style="fill:none;stroke:#5500aa;stroke-linecap:square;stroke-width:2;"/>
   </g>
   <g id="line2d_4">
    <path clip-path="url(#p08db764a31)" d="
M40.4971 171
L42.9514 171
L45.4057 171
L47.86 171
L50.3143 171
L52.7686 171
L55.2229 171
L57.6772 171
L60.1315 171
L62.5858 171
L65.0401 171
L67.4944 171
L69.9487 171
L72.403 171
L74.8573 171
L77.3116 171
L79.7659 171
L82.2202 171
L84.6746 171
L87.1289 171
L89.5832 169.704
L92.0375 171
L94.4918 171
L96.9461 169.704
L99.4004 170.352
L101.855 170.352
L104.309 166.463
L106.763 169.056
L109.218 164.519
L111.672 162.574
L114.126 152.852
L116.581 154.797
L119.035 164.519
L121.489 152.204
L123.943 148.963
L126.398 143.13
L128.852 138.593
L131.306 132.112
L133.761 132.112
L136.215 126.927
L138.669 125.63
L141.124 128.223
L143.578 123.686
L146.032 128.871
L148.486 134.056
L150.941 136.001
L153.395 141.834
L155.849 153.5
L158.304 152.204
L160.758 158.685
L163.212 158.685
L165.667 165.815
L168.121 169.704
L170.575 166.463
L173.03 168.407
L175.484 169.704
L177.938 169.056
L180.392 169.704
L182.847 169.704
L185.301 171
L187.755 171
L190.21 171
L192.664 171
L195.118 171
L197.573 171
L200.027 171
L202.481 171
L204.936 171
L207.39 171
L209.844 171
L212.298 171
L214.753 171
L217.207 171
L219.661 171
L222.116 171
L224.57 171
L227.024 171
L229.479 171
L231.933 171
L234.387 171
L236.841 171
L239.296 171
L241.75 171
L244.204 171
L246.659 171
L249.113 171
L251.567 171
L254.022 171
L256.476 171
L258.93 171
L261.385 171
L263.839 171
L266.293 171
L268.747 171
L271.202 171
L273.656 171
L276.11 171
L278.565 171
L281.019 171
L283.473 171
L285.928 171" style="fill:none;stroke:#800080;stroke-linecap:square;stroke-width:2;"/>
   </g>
   <g id="line2d_5">
    <path clip-path="url(#p08db764a31)" d="
M40.4971 171
L42.9514 171
L45.4057 171
L47.86 171
L50.3143 171
L52.7686 171
L55.2229 171
L57.6772 171
L60.1315 171
L62.5858 171
L65.0401 171
L67.4944 171
L69.9487 171
L72.403 171
L74.8573 171
L77.3116 171
L79.7659 171
L82.2202 171
L84.6746 171
L87.1289 171
L89.5832 171
L92.0375 170.352
L94.4918 171
L96.9461 171
L99.4004 171
L101.855 171
L104.309 171
L106.763 169.056
L109.218 167.759
L111.672 166.463
L114.126 166.463
L116.581 169.056
L119.035 163.87
L121.489 159.982
L123.943 159.982
L126.398 158.685
L128.852 162.574
L131.306 148.963
L133.761 150.908
L136.215 147.019
L138.669 141.834
L141.124 141.834
L143.578 136.001
L146.032 128.223
L148.486 130.815
L150.941 143.13
L153.395 129.519
L155.849 126.927
L158.304 136.001
L160.758 132.76
L163.212 147.019
L165.667 152.852
L168.121 150.908
L170.575 152.852
L173.03 158.037
L175.484 158.685
L177.938 159.334
L180.392 161.926
L182.847 163.87
L185.301 163.222
L187.755 165.167
L190.21 168.407
L192.664 170.352
L195.118 169.704
L197.573 171
L200.027 170.352
L202.481 171
L204.936 171
L207.39 171
L209.844 171
L212.298 171
L214.753 171
L217.207 171
L219.661 171
L222.116 171
L224.57 171
L227.024 171
L229.479 171
L231.933 171
L234.387 171
L236.841 171
L239.296 171
L241.75 171
L244.204 171
L246.659 171
L249.113 171
L251.567 171
L254.022 171
L256.476 171
L258.93 171
L261.385 171
L263.839 171
L266.293 171
L268.747 171
L271.202 171
L273.656 171
L276.11 171
L278.565 171
L281.019 171
L283.473 171
L285.928 171" style="fill:none;stroke:#aa0055;stroke-linecap:square;stroke-width:2;"/>
   </g>
   <g id="line2d_6">
    <path clip-path="url(#p08db764a31)" d="
M40.4971 171
L42.9514 171
L45.4057 171
L47.86 171
L50.3143 171
L52.7686 171
L55.2229 171
L57.6772 171
L60.1315 171
L62.5858 171
L65.0401 171
L67.4944 171
L69.9487 171
L72.403 171
L74.8573 171
L77.3116 171
L79.7659 171
L82.2202 171
L84.6746 171
L87.1289 171
L89.5832 171
L92.0375 171
L94.4918 171
L96.9461 171
L99.4004 171
L101.855 171
L104.309 170.352
L106.763 171
L109.218 170.352
L111.672 170.352
L114.126 169.704
L116.581 170.352
L119.035 167.759
L121.489 166.463
L123.943 165.167
L126.398 166.463
L128.852 161.278
L131.306 163.222
L133.761 163.87
L136.215 161.278
L138.669 157.389
L141.124 152.852
L143.578 143.778
L146.032 149.611
L148.486 143.13
L150.941 140.538
L153.395 148.315
L155.849 134.704
L158.304 143.778
L160.758 139.889
L163.212 137.945
L165.667 141.834
L168.121 139.889
L170.575 143.778
L173.03 132.112
L175.484 141.834
L177.938 145.723
L180.392 147.019
L182.847 159.334
L185.301 153.5
L187.755 156.741
L190.21 158.685
L192.664 161.926
L195.118 162.574
L197.573 167.759
L200.027 162.574
L202.481 167.759
L204.936 166.463
L207.39 167.759
L209.844 171
L212.298 169.704
L214.753 170.352
L217.207 171
L219.661 171
L222.116 171
L224.57 171
L227.024 171
L229.479 171
L231.933 171
L234.387 171
L236.841 171
L239.296 171
L241.75 171
L244.204 171
L246.659 171
L249.113 171
L251.567 171
L254.022 171
L256.476 171
L258.93 171
L261.385 171
L263.839 171
L266.293 171
L268.747 171
L271.202 171
L273.656 171
L276.11 171
L278.565 171
L281.019 171
L283.473 171
L285.928 171" style="fill:none;stroke:#d4002b;stroke-linecap:square;stroke-width:2;"/>
   </g>
   <g id="line2d_7">
    <path clip-path="url(#p08db764a31)" d="
M40.4971 171
L42.9514 171
L45.4057 171
L47.86 171
L50.3143 171
L52.7686 171
L55.2229 171
L57.6772 171
L60.1315 171
L62.5858 171
L65.0401 171
L67.4944 171
L69.9487 171
L72.403 171
L74.8573 171
L77.3116 171
L79.7659 171
L82.2202 171
L84.6746 171
L87.1289 171
L89.5832 171
L92.0375 171
L94.4918 171
L96.9461 171
L99.4004 171
L101.855 171
L104.309 171
L106.763 171
L109.218 171
L111.672 171
L114.126 170.352
L116.581 170.352
L119.035 171
L121.489 169.056
L123.943 169.056
L126.398 168.407
L128.852 168.407
L131.306 167.759
L133.761 165.815
L136.215 159.982
L138.669 163.87
L141.124 165.815
L143.578 158.685
L146.032 161.926
L148.486 161.278
L150.941 155.445
L153.395 153.5
L155.849 154.797
L158.304 150.908
L160.758 147.019
L163.212 145.723
L165.667 142.482
L168.121 139.889
L170.575 140.538
L173.03 144.426
L175.484 141.186
L177.938 141.186
L180.392 139.241
L182.847 137.945
L185.301 143.778
L187.755 143.13
L190.21 145.074
L192.664 148.963
L195.118 153.5
L197.573 150.908
L200.027 156.741
L202.481 158.685
L204.936 158.685
L207.39 160.63
L209.844 164.519
L212.298 167.111
L214.753 166.463
L217.207 169.704
L219.661 168.407
L222.116 169.056
L224.57 169.056
L227.024 169.056
L229.479 171
L231.933 170.352
L234.387 171
L236.841 171
L239.296 171
L241.75 171
L244.204 171
L246.659 171
L249.113 171
L251.567 171
L254.022 171
L256.476 171
L258.93 171
L261.385 171
L263.839 171
L266.293 171
L268.747 171
L271.202 171
L273.656 171
L276.11 171
L278.565 171
L281.019 171
L283.473 171
L285.928 171" style="fill:none;stroke:#ff0000;stroke-linecap:square;stroke-width:2;"/>
   </g>
   <g id="patch_3">
    <path d="
M41.0063 28.4
L284.4 28.4" style="fill:none;stroke:#000000;stroke-linecap:square;stroke-linejoin:miter;"/>
   </g>
   <g id="patch_4">
    <path d="
M284.4 171
L284.4 28.4" style="fill:none;stroke:#000000;stroke-linecap:square;stroke-linejoin:miter;"/>
   </g>
   <g id="patch_5">
    <path d="
M41.0063 171
L284.4 171" style="fill:none;stroke:#000000;stroke-linecap:square;stroke-linejoin:miter;"/>
   </g>
   <g id="patch_6">
    <path d="
M41.0063 171
L41.0063 28.4" style="fill:none;stroke:#000000;stroke-linecap:square;stroke-linejoin:miter;"/>
   </g>
   <g id="matplotlib.axis_1">
    <g id="xtick_1">
     <g id="line2d_8">
      <defs>
       <path d="
M0 0
L0 -4" id="m93b0483c22" style="stroke:#000000;stroke-width:0.5;"/>
      </defs>
      <g>
       <use style="stroke:#000000;stroke-width:0.5;" x="53.1759375" xlink:href="#m93b0483c22" y="171.0"/>
      </g>
     </g>
     <g id="line2d_9">
      <defs>
       <path d="
M0 0
L0 4" id="m741efc42ff" style="stroke:#000000;stroke-width:0.5;"/>
      </defs>
      <g>
       <use style="stroke:#000000;stroke-width:0.5;" x="53.1759375" xlink:href="#m741efc42ff" y="28.4"/>
      </g>
     </g>
     <g id="text_1">
      <!-- −20 -->
      <defs>
       <path d="
M10.5938 35.5
L73.1875 35.5
L73.1875 27.2031
L10.5938 27.2031
z
" id="BitstreamVeraSans-Roman-2212"/>
       <path d="
M19.1875 8.29688
L53.6094 8.29688
L53.6094 0
L7.32812 0
L7.32812 8.29688
Q12.9375 14.1094 22.625 23.8906
Q32.3281 33.6875 34.8125 36.5312
Q39.5469 41.8438 41.4219 45.5312
Q43.3125 49.2188 43.3125 52.7812
Q43.3125 58.5938 39.2344 62.25
Q35.1562 65.9219 28.6094 65.9219
Q23.9688 65.9219 18.8125 64.3125
Q13.6719 62.7031 7.8125 59.4219
L7.8125 69.3906
Q13.7656 71.7812 18.9375 73
Q24.125 74.2188 28.4219 74.2188
Q39.75 74.2188 46.4844 68.5469
Q53.2188 62.8906 53.2188 53.4219
Q53.2188 48.9219 51.5312 44.8906
Q49.8594 40.875 45.4062 35.4062
Q44.1875 33.9844 37.6406 27.2188
Q31.1094 20.4531 19.1875 8.29688" id="BitstreamVeraSans-Roman-32"/>
       <path d="
M31.7812 66.4062
Q24.1719 66.4062 20.3281 58.9062
Q16.5 51.4219 16.5 36.375
Q16.5 21.3906 20.3281 13.8906
Q24.1719 6.39062 31.7812 6.39062
Q39.4531 6.39062 43.2812 13.8906
Q47.125 21.3906 47.125 36.375
Q47.125 51.4219 43.2812 58.9062
Q39.4531 66.4062 31.7812 66.4062
M31.7812 74.2188
Q44.0469 74.2188 50.5156 64.5156
Q56.9844 54.8281 56.9844 36.375
Q56.9844 17.9688 50.5156 8.26562
Q44.0469 -1.42188 31.7812 -1.42188
Q19.5312 -1.42188 13.0625 8.26562
Q6.59375 17.9688 6.59375 36.375
Q6.59375 54.8281 13.0625 64.5156
Q19.5312 74.2188 31.7812 74.2188" id="BitstreamVeraSans-Roman-30"/>
      </defs>
      <g transform="translate(43.4853125 182.5984375)scale(0.1 -0.1)">
       <use xlink:href="#BitstreamVeraSans-Roman-2212"/>
       <use x="83.7890625" xlink:href="#BitstreamVeraSans-Roman-32"/>
       <use x="147.412109375" xlink:href="#BitstreamVeraSans-Roman-30"/>
      </g>
     </g>
    </g>
    <g id="xtick_2">
     <g id="line2d_10">
      <g>
       <use style="stroke:#000000;stroke-width:0.5;" x="101.8546875" xlink:href="#m93b0483c22" y="171.0"/>
      </g>
     </g>
     <g id="line2d_11">
      <g>
       <use style="stroke:#000000;stroke-width:0.5;" x="101.8546875" xlink:href="#m741efc42ff" y="28.4"/>
      </g>
     </g>
     <g id="text_2">
      <!-- 0 -->
      <g transform="translate(99.33515625 182.5984375)scale(0.1 -0.1)">
       <use xlink:href="#BitstreamVeraSans-Roman-30"/>
      </g>
     </g>
    </g>
    <g id="xtick_3">
     <g id="line2d_12">
      <g>
       <use style="stroke:#000000;stroke-width:0.5;" x="150.5334375" xlink:href="#m93b0483c22" y="171.0"/>
      </g>
     </g>
     <g id="line2d_13">
      <g>
       <use style="stroke:#000000;stroke-width:0.5;" x="150.5334375" xlink:href="#m741efc42ff" y="28.4"/>
      </g>
     </g>
     <g id="text_3">
      <!-- 20 -->
      <g transform="translate(144.869375 182.5984375)scale(0.1 -0.1)">
       <use xlink:href="#BitstreamVeraSans-Roman-32"/>
       <use x="63.623046875" xlink:href="#BitstreamVeraSans-Roman-30"/>
      </g>
     </g>
    </g>
    <g id="xtick_4">
     <g id="line2d_14">
      <g>
       <use style="stroke:#000000;stroke-width:0.5;" x="199.2121875" xlink:href="#m93b0483c22" y="171.0"/>
      </g>
     </g>
     <g id="line2d_15">
      <g>
       <use style="stroke:#000000;stroke-width:0.5;" x="199.2121875" xlink:href="#m741efc42ff" y="28.4"/>
      </g>
     </g>
     <g id="text_4">
      <!-- 40 -->
      <defs>
       <path d="
M37.7969 64.3125
L12.8906 25.3906
L37.7969 25.3906
z

M35.2031 72.9062
L47.6094 72.9062
L47.6094 25.3906
L58.0156 25.3906
L58.0156 17.1875
L47.6094 17.1875
L47.6094 0
L37.7969 0
L37.7969 17.1875
L4.89062 17.1875
L4.89062 26.7031
z
" id="BitstreamVeraSans-Roman-34"/>
      </defs>
      <g transform="translate(193.42625 182.5984375)scale(0.1 -0.1)">
       <use xlink:href="#BitstreamVeraSans-Roman-34"/>
       <use x="63.623046875" xlink:href="#BitstreamVeraSans-Roman-30"/>
      </g>
     </g>
    </g>
    <g id="xtick_5">
     <g id="line2d_16">
      <g>
       <use style="stroke:#000000;stroke-width:0.5;" x="247.8909375" xlink:href="#m93b0483c22" y="171.0"/>
      </g>
     </g>
     <g id="line2d_17">
      <g>
       <use style="stroke:#000000;stroke-width:0.5;" x="247.8909375" xlink:href="#m741efc42ff" y="28.4"/>
      </g>
     </g>
     <g id="text_5">
      <!-- 60 -->
      <defs>
       <path d="
M33.0156 40.375
Q26.375 40.375 22.4844 35.8281
Q18.6094 31.2969 18.6094 23.3906
Q18.6094 15.5312 22.4844 10.9531
Q26.375 6.39062 33.0156 6.39062
Q39.6562 6.39062 43.5312 10.9531
Q47.4062 15.5312 47.4062 23.3906
Q47.4062 31.2969 43.5312 35.8281
Q39.6562 40.375 33.0156 40.375
M52.5938 71.2969
L52.5938 62.3125
Q48.875 64.0625 45.0938 64.9844
Q41.3125 65.9219 37.5938 65.9219
Q27.8281 65.9219 22.6719 59.3281
Q17.5312 52.7344 16.7969 39.4062
Q19.6719 43.6562 24.0156 45.9219
Q28.375 48.1875 33.5938 48.1875
Q44.5781 48.1875 50.9531 41.5156
Q57.3281 34.8594 57.3281 23.3906
Q57.3281 12.1562 50.6875 5.35938
Q44.0469 -1.42188 33.0156 -1.42188
Q20.3594 -1.42188 13.6719 8.26562
Q6.98438 17.9688 6.98438 36.375
Q6.98438 53.6562 15.1875 63.9375
Q23.3906 74.2188 37.2031 74.2188
Q40.9219 74.2188 44.7031 73.4844
Q48.4844 72.75 52.5938 71.2969" id="BitstreamVeraSans-Roman-36"/>
      </defs>
      <g transform="translate(242.2096875 182.5984375)scale(0.1 -0.1)">
       <use xlink:href="#BitstreamVeraSans-Roman-36"/>
       <use x="63.623046875" xlink:href="#BitstreamVeraSans-Roman-30"/>
      </g>
     </g>
    </g>
    <g id="text_6">
     <!-- position -->
     <defs>
      <path d="
M54.8906 33.0156
L54.8906 0
L45.9062 0
L45.9062 32.7188
Q45.9062 40.4844 42.875 44.3281
Q39.8438 48.1875 33.7969 48.1875
Q26.5156 48.1875 22.3125 43.5469
Q18.1094 38.9219 18.1094 30.9062
L18.1094 0
L9.07812 0
L9.07812 54.6875
L18.1094 54.6875
L18.1094 46.1875
Q21.3438 51.125 25.7031 53.5625
Q30.0781 56 35.7969 56
Q45.2188 56 50.0469 50.1719
Q54.8906 44.3438 54.8906 33.0156" id="BitstreamVeraSans-Roman-6e"/>
      <path d="
M30.6094 48.3906
Q23.3906 48.3906 19.1875 42.75
Q14.9844 37.1094 14.9844 27.2969
Q14.9844 17.4844 19.1562 11.8438
Q23.3438 6.20312 30.6094 6.20312
Q37.7969 6.20312 41.9844 11.8594
Q46.1875 17.5312 46.1875 27.2969
Q46.1875 37.0156 41.9844 42.7031
Q37.7969 48.3906 30.6094 48.3906
M30.6094 56
Q42.3281 56 49.0156 48.375
Q55.7188 40.7656 55.7188 27.2969
Q55.7188 13.875 49.0156 6.21875
Q42.3281 -1.42188 30.6094 -1.42188
Q18.8438 -1.42188 12.1719 6.21875
Q5.51562 13.875 5.51562 27.2969
Q5.51562 40.7656 12.1719 48.375
Q18.8438 56 30.6094 56" id="BitstreamVeraSans-Roman-6f"/>
      <path d="
M9.42188 54.6875
L18.4062 54.6875
L18.4062 0
L9.42188 0
z

M9.42188 75.9844
L18.4062 75.9844
L18.4062 64.5938
L9.42188 64.5938
z
" id="BitstreamVeraSans-Roman-69"/>
      <path d="
M18.3125 70.2188
L18.3125 54.6875
L36.8125 54.6875
L36.8125 47.7031
L18.3125 47.7031
L18.3125 18.0156
Q18.3125 11.3281 20.1406 9.42188
Q21.9688 7.51562 27.5938 7.51562
L36.8125 7.51562
L36.8125 0
L27.5938 0
Q17.1875 0 13.2344 3.875
Q9.28125 7.76562 9.28125 18.0156
L9.28125 47.7031
L2.6875 47.7031
L2.6875 54.6875
L9.28125 54.6875
L9.28125 70.2188
z
" id="BitstreamVeraSans-Roman-74"/>
      <path d="
M44.2812 53.0781
L44.2812 44.5781
Q40.4844 46.5312 36.375 47.5
Q32.2812 48.4844 27.875 48.4844
Q21.1875 48.4844 17.8438 46.4375
Q14.5 44.3906 14.5 40.2812
Q14.5 37.1562 16.8906 35.375
Q19.2812 33.5938 26.5156 31.9844
L29.5938 31.2969
Q39.1562 29.25 43.1875 25.5156
Q47.2188 21.7812 47.2188 15.0938
Q47.2188 7.46875 41.1875 3.01562
Q35.1562 -1.42188 24.6094 -1.42188
Q20.2188 -1.42188 15.4531 -0.5625
Q10.6875 0.296875 5.42188 2
L5.42188 11.2812
Q10.4062 8.6875 15.2344 7.39062
Q20.0625 6.10938 24.8125 6.10938
Q31.1562 6.10938 34.5625 8.28125
Q37.9844 10.4531 37.9844 14.4062
Q37.9844 18.0625 35.5156 20.0156
Q33.0625 21.9688 24.7031 23.7812
L21.5781 24.5156
Q13.2344 26.2656 9.51562 29.9062
Q5.8125 33.5469 5.8125 39.8906
Q5.8125 47.6094 11.2812 51.7969
Q16.75 56 26.8125 56
Q31.7812 56 36.1719 55.2656
Q40.5781 54.5469 44.2812 53.0781" id="BitstreamVeraSans-Roman-73"/>
      <path d="
M18.1094 8.20312
L18.1094 -20.7969
L9.07812 -20.7969
L9.07812 54.6875
L18.1094 54.6875
L18.1094 46.3906
Q20.9531 51.2656 25.2656 53.625
Q29.5938 56 35.5938 56
Q45.5625 56 51.7812 48.0938
Q58.0156 40.1875 58.0156 27.2969
Q58.0156 14.4062 51.7812 6.48438
Q45.5625 -1.42188 35.5938 -1.42188
Q29.5938 -1.42188 25.2656 0.953125
Q20.9531 3.32812 18.1094 8.20312
M48.6875 27.2969
Q48.6875 37.2031 44.6094 42.8438
Q40.5312 48.4844 33.4062 48.4844
Q26.2656 48.4844 22.1875 42.8438
Q18.1094 37.2031 18.1094 27.2969
Q18.1094 17.3906 22.1875 11.75
Q26.2656 6.10938 33.4062 6.10938
Q40.5312 6.10938 44.6094 11.75
Q48.6875 17.3906 48.6875 27.2969" id="BitstreamVeraSans-Roman-70"/>
     </defs>
     <g transform="translate(134.31328125 201.07578125)scale(0.15 -0.15)">
      <use xlink:href="#BitstreamVeraSans-Roman-70"/>
      <use x="63.4765625" xlink:href="#BitstreamVeraSans-Roman-6f"/>
      <use x="124.658203125" xlink:href="#BitstreamVeraSans-Roman-73"/>
      <use x="176.7578125" xlink:href="#BitstreamVeraSans-Roman-69"/>
      <use x="204.541015625" xlink:href="#BitstreamVeraSans-Roman-74"/>
      <use x="243.75" xlink:href="#BitstreamVeraSans-Roman-69"/>
      <use x="271.533203125" xlink:href="#BitstreamVeraSans-Roman-6f"/>
      <use x="332.71484375" xlink:href="#BitstreamVeraSans-Roman-6e"/>
     </g>
    </g>
   </g>
   <g id="matplotlib.axis_2">
    <g id="ytick_1">
     <g id="line2d_18">
      <defs>
       <path d="
M0 0
L4 0" id="m728421d6d4" style="stroke:#000000;stroke-width:0.5;"/>
      </defs>
      <g>
       <use style="stroke:#000000;stroke-width:0.5;" x="41.00625" xlink:href="#m728421d6d4" y="171.0"/>
      </g>
     </g>
     <g id="line2d_19">
      <defs>
       <path d="
M0 0
L-4 0" id="mcb0005524f" style="stroke:#000000;stroke-width:0.5;"/>
      </defs>
      <g>
       <use style="stroke:#000000;stroke-width:0.5;" x="284.4" xlink:href="#mcb0005524f" y="171.0"/>
      </g>
     </g>
     <g id="text_7">
      <!-- 0 -->
      <g transform="translate(31.9671875 173.759375)scale(0.1 -0.1)">
       <use xlink:href="#BitstreamVeraSans-Roman-30"/>
      </g>
     </g>
    </g>
    <g id="ytick_2">
     <g id="line2d_20">
      <g>
       <use style="stroke:#000000;stroke-width:0.5;" x="41.00625" xlink:href="#m728421d6d4" y="41.3636363636"/>
      </g>
     </g>
     <g id="line2d_21">
      <g>
       <use style="stroke:#000000;stroke-width:0.5;" x="284.4" xlink:href="#mcb0005524f" y="41.3636363636"/>
      </g>
     </g>
     <g id="text_8">
      <!-- 2 -->
      <g transform="translate(32.378125 44.1230113636)scale(0.1 -0.1)">
       <use xlink:href="#BitstreamVeraSans-Roman-32"/>
      </g>
     </g>
    </g>
    <g id="text_9">
     <!-- concentration -->
     <defs>
      <path d="
M56.2031 29.5938
L56.2031 25.2031
L14.8906 25.2031
Q15.4844 15.9219 20.4844 11.0625
Q25.4844 6.20312 34.4219 6.20312
Q39.5938 6.20312 44.4531 7.46875
Q49.3125 8.73438 54.1094 11.2812
L54.1094 2.78125
Q49.2656 0.734375 44.1875 -0.34375
Q39.1094 -1.42188 33.8906 -1.42188
Q20.7969 -1.42188 13.1562 6.1875
Q5.51562 13.8125 5.51562 26.8125
Q5.51562 40.2344 12.7656 48.1094
Q20.0156 56 32.3281 56
Q43.3594 56 49.7812 48.8906
Q56.2031 41.7969 56.2031 29.5938
M47.2188 32.2344
Q47.125 39.5938 43.0938 43.9844
Q39.0625 48.3906 32.4219 48.3906
Q24.9062 48.3906 20.3906 44.1406
Q15.875 39.8906 15.1875 32.1719
z
" id="BitstreamVeraSans-Roman-65"/>
      <path d="
M34.2812 27.4844
Q23.3906 27.4844 19.1875 25
Q14.9844 22.5156 14.9844 16.5
Q14.9844 11.7188 18.1406 8.90625
Q21.2969 6.10938 26.7031 6.10938
Q34.1875 6.10938 38.7031 11.4062
Q43.2188 16.7031 43.2188 25.4844
L43.2188 27.4844
z

M52.2031 31.2031
L52.2031 0
L43.2188 0
L43.2188 8.29688
Q40.1406 3.32812 35.5469 0.953125
Q30.9531 -1.42188 24.3125 -1.42188
Q15.9219 -1.42188 10.9531 3.29688
Q6 8.01562 6 15.9219
Q6 25.1406 12.1719 29.8281
Q18.3594 34.5156 30.6094 34.5156
L43.2188 34.5156
L43.2188 35.4062
Q43.2188 41.6094 39.1406 45
Q35.0625 48.3906 27.6875 48.3906
Q23 48.3906 18.5469 47.2656
Q14.1094 46.1406 10.0156 43.8906
L10.0156 52.2031
Q14.9375 54.1094 19.5781 55.0469
Q24.2188 56 28.6094 56
Q40.4844 56 46.3438 49.8438
Q52.2031 43.7031 52.2031 31.2031" id="BitstreamVeraSans-Roman-61"/>
      <path d="
M41.1094 46.2969
Q39.5938 47.1719 37.8125 47.5781
Q36.0312 48 33.8906 48
Q26.2656 48 22.1875 43.0469
Q18.1094 38.0938 18.1094 28.8125
L18.1094 0
L9.07812 0
L9.07812 54.6875
L18.1094 54.6875
L18.1094 46.1875
Q20.9531 51.1719 25.4844 53.5781
Q30.0312 56 36.5312 56
Q37.4531 56 38.5781 55.875
Q39.7031 55.7656 41.0625 55.5156
z
" id="BitstreamVeraSans-Roman-72"/>
      <path d="
M48.7812 52.5938
L48.7812 44.1875
Q44.9688 46.2969 41.1406 47.3438
Q37.3125 48.3906 33.4062 48.3906
Q24.6562 48.3906 19.8125 42.8438
Q14.9844 37.3125 14.9844 27.2969
Q14.9844 17.2812 19.8125 11.7344
Q24.6562 6.20312 33.4062 6.20312
Q37.3125 6.20312 41.1406 7.25
Q44.9688 8.29688 48.7812 10.4062
L48.7812 2.09375
Q45.0156 0.34375 40.9844 -0.53125
Q36.9688 -1.42188 32.4219 -1.42188
Q20.0625 -1.42188 12.7812 6.34375
Q5.51562 14.1094 5.51562 27.2969
Q5.51562 40.6719 12.8594 48.3281
Q20.2188 56 33.0156 56
Q37.1562 56 41.1094 55.1406
Q45.0625 54.2969 48.7812 52.5938" id="BitstreamVeraSans-Roman-63"/>
     </defs>
     <g transform="translate(23.84765625 150.593359375)rotate(-90.0)scale(0.15 -0.15)">
      <use xlink:href="#BitstreamVeraSans-Roman-63"/>
      <use x="54.98046875" xlink:href="#BitstreamVeraSans-Roman-6f"/>
      <use x="116.162109375" xlink:href="#BitstreamVeraSans-Roman-6e"/>
      <use x="179.541015625" xlink:href="#BitstreamVeraSans-Roman-63"/>
      <use x="234.521484375" xlink:href="#BitstreamVeraSans-Roman-65"/>
      <use x="296.044921875" xlink:href="#BitstreamVeraSans-Roman-6e"/>
      <use x="359.423828125" xlink:href="#BitstreamVeraSans-Roman-74"/>
      <use x="398.6328125" xlink:href="#BitstreamVeraSans-Roman-72"/>
      <use x="439.74609375" xlink:href="#BitstreamVeraSans-Roman-61"/>
      <use x="501.025390625" xlink:href="#BitstreamVeraSans-Roman-74"/>
      <use x="540.234375" xlink:href="#BitstreamVeraSans-Roman-69"/>
      <use x="568.017578125" xlink:href="#BitstreamVeraSans-Roman-6f"/>
      <use x="629.19921875" xlink:href="#BitstreamVeraSans-Roman-6e"/>
     </g>
    </g>
   </g>
   <g id="text_10">
    <!-- k = 0.0 -->
    <defs>
     <path d="
M8.40625 75.9844
L25.875 75.9844
L25.875 34.625
L46 54.6875
L66.3125 54.6875
L39.5938 29.5938
L68.4062 0
L47.2188 0
L25.875 22.7969
L25.875 0
L8.40625 0
z
" id="BitstreamVeraSans-Bold-6b"/>
     <path d="
M10.5938 48.1875
L73.1875 48.1875
L73.1875 36.7188
L10.5938 36.7188
z

M10.5938 25.9844
L73.1875 25.9844
L73.1875 14.4062
L10.5938 14.4062
z
" id="BitstreamVeraSans-Bold-3d"/>
     <path d="
M10.2031 18.8906
L27.7812 18.8906
L27.7812 0
L10.2031 0
z
" id="BitstreamVeraSans-Bold-2e"/>
     <path d="
M46 36.5312
Q46 50.2031 43.4375 55.7812
Q40.875 61.375 34.8125 61.375
Q28.7656 61.375 26.1719 55.7812
Q23.5781 50.2031 23.5781 36.5312
Q23.5781 22.7031 26.1719 17.0312
Q28.7656 11.375 34.8125 11.375
Q40.8281 11.375 43.4062 17.0312
Q46 22.7031 46 36.5312
M64.7969 36.375
Q64.7969 18.2656 56.9844 8.42188
Q49.1719 -1.42188 34.8125 -1.42188
Q20.4062 -1.42188 12.5938 8.42188
Q4.78125 18.2656 4.78125 36.375
Q4.78125 54.5469 12.5938 64.375
Q20.4062 74.2188 34.8125 74.2188
Q49.1719 74.2188 56.9844 64.375
Q64.7969 54.5469 64.7969 36.375" id="BitstreamVeraSans-Bold-30"/>
     <path id="BitstreamVeraSans-Bold-20"/>
    </defs>
    <g transform="translate(133.28203125 23.4)scale(0.15 -0.15)">
     <use xlink:href="#BitstreamVeraSans-Bold-6b"/>
     <use x="66.50390625" xlink:href="#BitstreamVeraSans-Bold-20"/>
     <use x="101.318359375" xlink:href="#BitstreamVeraSans-Bold-3d"/>
     <use x="185.107421875" xlink:href="#BitstreamVeraSans-Bold-20"/>
     <use x="219.921875" xlink:href="#BitstreamVeraSans-Bold-30"/>
     <use x="289.501953125" xlink:href="#BitstreamVeraSans-Bold-2e"/>
     <use x="327.490234375" xlink:href="#BitstreamVeraSans-Bold-30"/>
    </g>
   </g>
  </g>
  <g id="axes_2">
   <g id="patch_7">
    <path d="
M325.406 171
L568.8 171
L568.8 28.4
L325.406 28.4
z
" style="fill:#ffffff;"/>
   </g>
   <g id="line2d_22">
    <path clip-path="url(#p145414460c)" d="
M324.897 171
L327.351 171
L329.806 171
L332.26 171
L334.714 171
L337.169 171
L339.623 171
L342.077 171
L344.531 171
L346.986 171
L349.44 171
L351.894 171
L354.349 171
L356.803 171
L359.257 171
L361.712 171
L364.166 171
L366.62 171
L369.075 171
L371.529 171
L373.983 163.87
L376.437 160.63
L378.892 145.723
L381.346 137.297
L383.8 111.371
L386.255 82.2051
L388.709 55.6314
L391.163 77.6681
L393.618 53.687
L396.072 118.501
L398.526 126.278
L400.981 171
L403.435 171
L405.889 171
L408.343 171
L410.798 171
L413.252 171
L415.706 171
L418.161 171
L420.615 171
L423.069 171
L425.524 171
L427.978 171
L430.432 171
L432.886 171
L435.341 171
L437.795 171
L440.249 171
L442.704 171
L445.158 171
L447.612 171
L450.067 171
L452.521 171
L454.975 171
L457.43 171
L459.884 171
L462.338 171
L464.792 171
L467.247 171
L469.701 171
L472.155 171
L474.61 171
L477.064 171
L479.518 171
L481.973 171
L484.427 171
L486.881 171
L489.336 171
L491.79 171
L494.244 171
L496.698 171
L499.153 171
L501.607 171
L504.061 171
L506.516 171
L508.97 171
L511.424 171
L513.879 171
L516.333 171
L518.787 171
L521.241 171
L523.696 171
L526.15 171
L528.604 171
L531.059 171
L533.513 171
L535.967 171
L538.422 171
L540.876 171
L543.33 171
L545.785 171
L548.239 171
L550.693 171
L553.147 171
L555.602 171
L558.056 171
L560.51 171
L562.965 171
L565.419 171
L567.873 171
L570.328 171" style="fill:none;stroke:#0000ff;stroke-linecap:square;stroke-width:2;"/>
   </g>
   <g id="line2d_23">
    <path clip-path="url(#p145414460c)" d="
M324.897 171
L327.351 171
L329.806 171
L332.26 171
L334.714 171
L337.169 171
L339.623 171
L342.077 171
L344.531 171
L346.986 171
L349.44 171
L351.894 171
L354.349 171
L356.803 171
L359.257 169.704
L361.712 170.352
L364.166 171
L366.62 169.056
L369.075 168.407
L371.529 167.759
L373.983 166.463
L376.437 164.519
L378.892 159.982
L381.346 154.797
L383.8 150.26
L386.255 144.426
L388.709 141.186
L391.163 136.649
L393.618 133.408
L396.072 115.908
L398.526 128.871
L400.981 117.205
L403.435 126.278
L405.889 119.149
L408.343 132.76
L410.798 139.889
L413.252 132.112
L415.706 149.611
L418.161 145.074
L420.615 157.389
L423.069 156.741
L425.524 161.926
L427.978 163.87
L430.432 169.056
L432.886 169.704
L435.341 170.352
L437.795 171
L440.249 171
L442.704 171
L445.158 171
L447.612 171
L450.067 171
L452.521 171
L454.975 171
L457.43 171
L459.884 171
L462.338 171
L464.792 171
L467.247 171
L469.701 171
L472.155 171
L474.61 171
L477.064 171
L479.518 171
L481.973 171
L484.427 171
L486.881 171
L489.336 171
L491.79 171
L494.244 171
L496.698 171
L499.153 171
L501.607 171
L504.061 171
L506.516 171
L508.97 171
L511.424 171
L513.879 171
L516.333 171
L518.787 171
L521.241 171
L523.696 171
L526.15 171
L528.604 171
L531.059 171
L533.513 171
L535.967 171
L538.422 171
L540.876 171
L543.33 171
L545.785 171
L548.239 171
L550.693 171
L553.147 171
L555.602 171
L558.056 171
L560.51 171
L562.965 171
L565.419 171
L567.873 171
L570.328 171" style="fill:none;stroke:#2a00d4;stroke-linecap:square;stroke-width:2;"/>
   </g>
   <g id="line2d_24">
    <path clip-path="url(#p145414460c)" d="
M324.897 171
L327.351 171
L329.806 171
L332.26 171
L334.714 171
L337.169 171
L339.623 171
L342.077 171
L344.531 171
L346.986 171
L349.44 171
L351.894 171
L354.349 171
L356.803 170.352
L359.257 171
L361.712 171
L364.166 170.352
L366.62 170.352
L369.075 171
L371.529 168.407
L373.983 169.704
L376.437 167.111
L378.892 167.111
L381.346 163.87
L383.8 159.982
L386.255 161.278
L388.709 162.574
L391.163 158.037
L393.618 151.556
L396.072 145.723
L398.526 143.778
L400.981 139.889
L403.435 139.889
L405.889 139.889
L408.343 135.352
L410.798 132.76
L413.252 133.408
L415.706 134.056
L418.161 137.297
L420.615 137.297
L423.069 138.593
L425.524 145.074
L427.978 141.834
L430.432 147.667
L432.886 147.667
L435.341 154.148
L437.795 159.982
L440.249 157.389
L442.704 160.63
L445.158 164.519
L447.612 169.704
L450.067 166.463
L452.521 169.704
L454.975 169.056
L457.43 169.704
L459.884 170.352
L462.338 170.352
L464.792 171
L467.247 171
L469.701 171
L472.155 171
L474.61 171
L477.064 171
L479.518 171
L481.973 171
L484.427 171
L486.881 171
L489.336 171
L491.79 171
L494.244 171
L496.698 171
L499.153 171
L501.607 171
L504.061 171
L506.516 171
L508.97 171
L511.424 171
L513.879 171
L516.333 171
L518.787 171
L521.241 171
L523.696 171
L526.15 171
L528.604 171
L531.059 171
L533.513 171
L535.967 171
L538.422 171
L540.876 171
L543.33 171
L545.785 171
L548.239 171
L550.693 171
L553.147 171
L555.602 171
L558.056 171
L560.51 171
L562.965 171
L565.419 171
L567.873 171
L570.328 171" style="fill:none;stroke:#5500aa;stroke-linecap:square;stroke-width:2;"/>
   </g>
   <g id="line2d_25">
    <path clip-path="url(#p145414460c)" d="
M324.897 171
L327.351 171
L329.806 171
L332.26 171
L334.714 171
L337.169 171
L339.623 171
L342.077 171
L344.531 171
L346.986 171
L349.44 171
L351.894 171
L354.349 171
L356.803 170.352
L359.257 171
L361.712 170.352
L364.166 171
L366.62 169.704
L369.075 170.352
L371.529 170.352
L373.983 169.704
L376.437 170.352
L378.892 169.704
L381.346 166.463
L383.8 165.815
L386.255 165.167
L388.709 165.815
L391.163 164.519
L393.618 162.574
L396.072 155.445
L398.526 159.982
L400.981 152.204
L403.435 152.204
L405.889 151.556
L408.343 153.5
L410.798 150.26
L413.252 147.019
L415.706 143.778
L418.161 141.834
L420.615 142.482
L423.069 138.593
L425.524 138.593
L427.978 135.352
L430.432 147.667
L432.886 132.76
L435.341 145.074
L437.795 142.482
L440.249 149.611
L442.704 153.5
L445.158 156.093
L447.612 148.963
L450.067 158.037
L452.521 157.389
L454.975 158.685
L457.43 160.63
L459.884 160.63
L462.338 163.87
L464.792 167.111
L467.247 165.815
L469.701 170.352
L472.155 169.056
L474.61 170.352
L477.064 169.056
L479.518 171
L481.973 171
L484.427 171
L486.881 170.352
L489.336 171
L491.79 170.352
L494.244 171
L496.698 171
L499.153 171
L501.607 171
L504.061 171
L506.516 171
L508.97 171
L511.424 171
L513.879 171
L516.333 171
L518.787 171
L521.241 171
L523.696 171
L526.15 171
L528.604 171
L531.059 171
L533.513 171
L535.967 171
L538.422 171
L540.876 171
L543.33 171
L545.785 171
L548.239 171
L550.693 171
L553.147 171
L555.602 171
L558.056 171
L560.51 171
L562.965 171
L565.419 171
L567.873 171
L570.328 171" style="fill:none;stroke:#800080;stroke-linecap:square;stroke-width:2;"/>
   </g>
   <g id="line2d_26">
    <path clip-path="url(#p145414460c)" d="
M324.897 171
L327.351 171
L329.806 171
L332.26 171
L334.714 171
L337.169 171
L339.623 171
L342.077 171
L344.531 171
L346.986 171
L349.44 171
L351.894 171
L354.349 171
L356.803 171
L359.257 171
L361.712 171
L364.166 171
L366.62 171
L369.075 170.352
L371.529 170.352
L373.983 167.759
L376.437 169.704
L378.892 171
L381.346 170.352
L383.8 169.056
L386.255 166.463
L388.709 169.056
L391.163 169.704
L393.618 168.407
L396.072 166.463
L398.526 166.463
L400.981 157.389
L403.435 159.334
L405.889 161.278
L408.343 154.797
L410.798 159.982
L413.252 152.204
L415.706 156.093
L418.161 155.445
L420.615 147.019
L423.069 156.741
L425.524 150.26
L427.978 143.778
L430.432 138.593
L432.886 145.074
L435.341 140.538
L437.795 144.426
L440.249 141.834
L442.704 148.315
L445.158 144.426
L447.612 146.371
L450.067 144.426
L452.521 148.963
L454.975 148.315
L457.43 158.685
L459.884 151.556
L462.338 159.334
L464.792 156.741
L467.247 156.741
L469.701 158.685
L472.155 158.037
L474.61 165.167
L477.064 164.519
L479.518 163.222
L481.973 166.463
L484.427 168.407
L486.881 169.056
L489.336 169.056
L491.79 169.056
L494.244 170.352
L496.698 171
L499.153 169.704
L501.607 171
L504.061 170.352
L506.516 171
L508.97 171
L511.424 171
L513.879 171
L516.333 171
L518.787 171
L521.241 171
L523.696 171
L526.15 171
L528.604 171
L531.059 171
L533.513 171
L535.967 171
L538.422 171
L540.876 171
L543.33 171
L545.785 171
L548.239 171
L550.693 171
L553.147 171
L555.602 171
L558.056 171
L560.51 171
L562.965 171
L565.419 171
L567.873 171
L570.328 171" style="fill:none;stroke:#aa0055;stroke-linecap:square;stroke-width:2;"/>
   </g>
   <g id="line2d_27">
    <path clip-path="url(#p145414460c)" d="
M324.897 171
L327.351 171
L329.806 171
L332.26 171
L334.714 171
L337.169 171
L339.623 171
L342.077 171
L344.531 171
L346.986 171
L349.44 171
L351.894 171
L354.349 171
L356.803 171
L359.257 171
L361.712 171
L364.166 171
L366.62 171
L369.075 169.704
L371.529 170.352
L373.983 171
L376.437 171
L378.892 171
L381.346 169.056
L383.8 169.704
L386.255 169.056
L388.709 170.352
L391.163 168.407
L393.618 167.111
L396.072 169.056
L398.526 169.056
L400.981 166.463
L403.435 165.167
L405.889 164.519
L408.343 165.167
L410.798 161.278
L413.252 163.222
L415.706 156.741
L418.161 161.926
L420.615 156.741
L423.069 156.741
L425.524 158.685
L427.978 152.852
L430.432 151.556
L432.886 150.26
L435.341 148.963
L437.795 154.797
L440.249 150.908
L442.704 149.611
L445.158 144.426
L447.612 147.667
L450.067 150.908
L452.521 147.019
L454.975 148.315
L457.43 141.186
L459.884 147.667
L462.338 143.13
L464.792 148.963
L467.247 156.093
L469.701 151.556
L472.155 153.5
L474.61 158.037
L477.064 155.445
L479.518 159.982
L481.973 154.797
L484.427 159.334
L486.881 161.278
L489.336 165.815
L491.79 164.519
L494.244 163.222
L496.698 167.111
L499.153 165.815
L501.607 168.407
L504.061 167.759
L506.516 170.352
L508.97 170.352
L511.424 170.352
L513.879 171
L516.333 169.056
L518.787 170.352
L521.241 171
L523.696 171
L526.15 171
L528.604 171
L531.059 171
L533.513 171
L535.967 171
L538.422 171
L540.876 171
L543.33 171
L545.785 171
L548.239 171
L550.693 171
L553.147 171
L555.602 171
L558.056 171
L560.51 171
L562.965 171
L565.419 171
L567.873 171
L570.328 171" style="fill:none;stroke:#d4002b;stroke-linecap:square;stroke-width:2;"/>
   </g>
   <g id="line2d_28">
    <path clip-path="url(#p145414460c)" d="
M324.897 171
L327.351 171
L329.806 171
L332.26 171
L334.714 171
L337.169 171
L339.623 171
L342.077 171
L344.531 171
L346.986 171
L349.44 171
L351.894 171
L354.349 171
L356.803 171
L359.257 171
L361.712 171
L364.166 170.352
L366.62 171
L369.075 170.352
L371.529 171
L373.983 170.352
L376.437 170.352
L378.892 170.352
L381.346 171
L383.8 169.704
L386.255 169.704
L388.709 171
L391.163 170.352
L393.618 169.704
L396.072 170.352
L398.526 169.056
L400.981 167.111
L403.435 169.056
L405.889 167.111
L408.343 167.759
L410.798 169.056
L413.252 165.815
L415.706 163.222
L418.161 165.167
L420.615 165.167
L423.069 161.926
L425.524 157.389
L427.978 156.093
L430.432 160.63
L432.886 152.852
L435.341 156.741
L437.795 157.389
L440.249 152.852
L442.704 152.852
L445.158 148.963
L447.612 154.148
L450.067 152.204
L452.521 149.611
L454.975 145.723
L457.43 150.26
L459.884 149.611
L462.338 147.019
L464.792 148.315
L467.247 147.667
L469.701 154.148
L472.155 154.148
L474.61 148.963
L477.064 153.5
L479.518 148.963
L481.973 157.389
L484.427 154.148
L486.881 160.63
L489.336 158.037
L491.79 155.445
L494.244 160.63
L496.698 156.093
L499.153 163.87
L501.607 165.167
L504.061 161.278
L506.516 161.926
L508.97 163.87
L511.424 165.815
L513.879 166.463
L516.333 168.407
L518.787 169.056
L521.241 169.056
L523.696 169.056
L526.15 169.704
L528.604 169.056
L531.059 171
L533.513 170.352
L535.967 171
L538.422 170.352
L540.876 171
L543.33 171
L545.785 171
L548.239 171
L550.693 171
L553.147 171
L555.602 171
L558.056 171
L560.51 171
L562.965 171
L565.419 171
L567.873 171
L570.328 171" style="fill:none;stroke:#ff0000;stroke-linecap:square;stroke-width:2;"/>
   </g>
   <g id="patch_8">
    <path d="
M325.406 28.4
L568.8 28.4" style="fill:none;stroke:#000000;stroke-linecap:square;stroke-linejoin:miter;"/>
   </g>
   <g id="patch_9">
    <path d="
M568.8 171
L568.8 28.4" style="fill:none;stroke:#000000;stroke-linecap:square;stroke-linejoin:miter;"/>
   </g>
   <g id="patch_10">
    <path d="
M325.406 171
L568.8 171" style="fill:none;stroke:#000000;stroke-linecap:square;stroke-linejoin:miter;"/>
   </g>
   <g id="patch_11">
    <path d="
M325.406 171
L325.406 28.4" style="fill:none;stroke:#000000;stroke-linecap:square;stroke-linejoin:miter;"/>
   </g>
   <g id="matplotlib.axis_3">
    <g id="xtick_6">
     <g id="line2d_29">
      <g>
       <use style="stroke:#000000;stroke-width:0.5;" x="337.5759375" xlink:href="#m93b0483c22" y="171.0"/>
      </g>
     </g>
     <g id="line2d_30">
      <g>
       <use style="stroke:#000000;stroke-width:0.5;" x="337.5759375" xlink:href="#m741efc42ff" y="28.4"/>
      </g>
     </g>
     <g id="text_11">
      <!-- −20 -->
      <g transform="translate(327.8853125 182.5984375)scale(0.1 -0.1)">
       <use xlink:href="#BitstreamVeraSans-Roman-2212"/>
       <use x="83.7890625" xlink:href="#BitstreamVeraSans-Roman-32"/>
       <use x="147.412109375" xlink:href="#BitstreamVeraSans-Roman-30"/>
      </g>
     </g>
    </g>
    <g id="xtick_7">
     <g id="line2d_31">
      <g>
       <use style="stroke:#000000;stroke-width:0.5;" x="386.2546875" xlink:href="#m93b0483c22" y="171.0"/>
      </g>
     </g>
     <g id="line2d_32">
      <g>
       <use style="stroke:#000000;stroke-width:0.5;" x="386.2546875" xlink:href="#m741efc42ff" y="28.4"/>
      </g>
     </g>
     <g id="text_12">
      <!-- 0 -->
      <g transform="translate(383.73515625 182.5984375)scale(0.1 -0.1)">
       <use xlink:href="#BitstreamVeraSans-Roman-30"/>
      </g>
     </g>
    </g>
    <g id="xtick_8">
     <g id="line2d_33">
      <g>
       <use style="stroke:#000000;stroke-width:0.5;" x="434.9334375" xlink:href="#m93b0483c22" y="171.0"/>
      </g>
     </g>
     <g id="line2d_34">
      <g>
       <use style="stroke:#000000;stroke-width:0.5;" x="434.9334375" xlink:href="#m741efc42ff" y="28.4"/>
      </g>
     </g>
     <g id="text_13">
      <!-- 20 -->
      <g transform="translate(429.269375 182.5984375)scale(0.1 -0.1)">
       <use xlink:href="#BitstreamVeraSans-Roman-32"/>
       <use x="63.623046875" xlink:href="#BitstreamVeraSans-Roman-30"/>
      </g>
     </g>
    </g>
    <g id="xtick_9">
     <g id="line2d_35">
      <g>
       <use style="stroke:#000000;stroke-width:0.5;" x="483.6121875" xlink:href="#m93b0483c22" y="171.0"/>
      </g>
     </g>
     <g id="line2d_36">
      <g>
       <use style="stroke:#000000;stroke-width:0.5;" x="483.6121875" xlink:href="#m741efc42ff" y="28.4"/>
      </g>
     </g>
     <g id="text_14">
      <!-- 40 -->
      <g transform="translate(477.82625 182.5984375)scale(0.1 -0.1)">
       <use xlink:href="#BitstreamVeraSans-Roman-34"/>
       <use x="63.623046875" xlink:href="#BitstreamVeraSans-Roman-30"/>
      </g>
     </g>
    </g>
    <g id="xtick_10">
     <g id="line2d_37">
      <g>
       <use style="stroke:#000000;stroke-width:0.5;" x="532.2909375" xlink:href="#m93b0483c22" y="171.0"/>
      </g>
     </g>
     <g id="line2d_38">
      <g>
       <use style="stroke:#000000;stroke-width:0.5;" x="532.2909375" xlink:href="#m741efc42ff" y="28.4"/>
      </g>
     </g>
     <g id="text_15">
      <!-- 60 -->
      <g transform="translate(526.6096875 182.5984375)scale(0.1 -0.1)">
       <use xlink:href="#BitstreamVeraSans-Roman-36"/>
       <use x="63.623046875" xlink:href="#BitstreamVeraSans-Roman-30"/>
      </g>
     </g>
    </g>
    <g id="text_16">
     <!-- position -->
     <g transform="translate(418.71328125 201.07578125)scale(0.15 -0.15)">
      <use xlink:href="#BitstreamVeraSans-Roman-70"/>
      <use x="63.4765625" xlink:href="#BitstreamVeraSans-Roman-6f"/>
      <use x="124.658203125" xlink:href="#BitstreamVeraSans-Roman-73"/>
      <use x="176.7578125" xlink:href="#BitstreamVeraSans-Roman-69"/>
      <use x="204.541015625" xlink:href="#BitstreamVeraSans-Roman-74"/>
      <use x="243.75" xlink:href="#BitstreamVeraSans-Roman-69"/>
      <use x="271.533203125" xlink:href="#BitstreamVeraSans-Roman-6f"/>
      <use x="332.71484375" xlink:href="#BitstreamVeraSans-Roman-6e"/>
     </g>
    </g>
   </g>
   <g id="matplotlib.axis_4">
    <g id="ytick_3">
     <g id="line2d_39">
      <g>
       <use style="stroke:#000000;stroke-width:0.5;" x="325.40625" xlink:href="#m728421d6d4" y="171.0"/>
      </g>
     </g>
     <g id="line2d_40">
      <g>
       <use style="stroke:#000000;stroke-width:0.5;" x="568.8" xlink:href="#mcb0005524f" y="171.0"/>
      </g>
     </g>
     <g id="text_17">
      <!-- 0 -->
      <g transform="translate(316.3671875 173.759375)scale(0.1 -0.1)">
       <use xlink:href="#BitstreamVeraSans-Roman-30"/>
      </g>
     </g>
    </g>
    <g id="ytick_4">
     <g id="line2d_41">
      <g>
       <use style="stroke:#000000;stroke-width:0.5;" x="325.40625" xlink:href="#m728421d6d4" y="41.3636363636"/>
      </g>
     </g>
     <g id="line2d_42">
      <g>
       <use style="stroke:#000000;stroke-width:0.5;" x="568.8" xlink:href="#mcb0005524f" y="41.3636363636"/>
      </g>
     </g>
     <g id="text_18">
      <!-- 2 -->
      <g transform="translate(316.778125 44.1230113636)scale(0.1 -0.1)">
       <use xlink:href="#BitstreamVeraSans-Roman-32"/>
      </g>
     </g>
    </g>
    <g id="text_19">
     <!-- concentration -->
     <g transform="translate(308.24765625 150.593359375)rotate(-90.0)scale(0.15 -0.15)">
      <use xlink:href="#BitstreamVeraSans-Roman-63"/>
      <use x="54.98046875" xlink:href="#BitstreamVeraSans-Roman-6f"/>
      <use x="116.162109375" xlink:href="#BitstreamVeraSans-Roman-6e"/>
      <use x="179.541015625" xlink:href="#BitstreamVeraSans-Roman-63"/>
      <use x="234.521484375" xlink:href="#BitstreamVeraSans-Roman-65"/>
      <use x="296.044921875" xlink:href="#BitstreamVeraSans-Roman-6e"/>
      <use x="359.423828125" xlink:href="#BitstreamVeraSans-Roman-74"/>
      <use x="398.6328125" xlink:href="#BitstreamVeraSans-Roman-72"/>
      <use x="439.74609375" xlink:href="#BitstreamVeraSans-Roman-61"/>
      <use x="501.025390625" xlink:href="#BitstreamVeraSans-Roman-74"/>
      <use x="540.234375" xlink:href="#BitstreamVeraSans-Roman-69"/>
      <use x="568.017578125" xlink:href="#BitstreamVeraSans-Roman-6f"/>
      <use x="629.19921875" xlink:href="#BitstreamVeraSans-Roman-6e"/>
     </g>
    </g>
   </g>
   <g id="text_20">
    <!-- k = 0.3 -->
    <defs>
     <path d="
M46.5781 39.3125
Q53.9531 37.4062 57.7812 32.6875
Q61.625 27.9844 61.625 20.7031
Q61.625 9.85938 53.3125 4.21875
Q45.0156 -1.42188 29.1094 -1.42188
Q23.4844 -1.42188 17.8438 -0.515625
Q12.2031 0.390625 6.6875 2.20312
L6.6875 16.7031
Q11.9688 14.0625 17.1562 12.7188
Q22.3594 11.375 27.3906 11.375
Q34.8594 11.375 38.8438 13.9531
Q42.8281 16.5469 42.8281 21.3906
Q42.8281 26.375 38.75 28.9375
Q34.6719 31.5 26.7031 31.5
L19.1875 31.5
L19.1875 43.6094
L27.0938 43.6094
Q34.1875 43.6094 37.6406 45.8281
Q41.1094 48.0469 41.1094 52.5938
Q41.1094 56.7812 37.7344 59.0781
Q34.375 61.375 28.2188 61.375
Q23.6875 61.375 19.0469 60.3438
Q14.4062 59.3281 9.8125 57.3281
L9.8125 71.0938
Q15.375 72.6562 20.8438 73.4375
Q26.3125 74.2188 31.5938 74.2188
Q45.7969 74.2188 52.8438 69.5469
Q59.9062 64.8906 59.9062 55.5156
Q59.9062 49.125 56.5312 45.0469
Q53.1719 40.9688 46.5781 39.3125" id="BitstreamVeraSans-Bold-33"/>
    </defs>
    <g transform="translate(417.919921875 23.4)scale(0.15 -0.15)">
     <use xlink:href="#BitstreamVeraSans-Bold-6b"/>
     <use x="66.50390625" xlink:href="#BitstreamVeraSans-Bold-20"/>
     <use x="101.318359375" xlink:href="#BitstreamVeraSans-Bold-3d"/>
     <use x="185.107421875" xlink:href="#BitstreamVeraSans-Bold-20"/>
     <use x="219.921875" xlink:href="#BitstreamVeraSans-Bold-30"/>
     <use x="289.501953125" xlink:href="#BitstreamVeraSans-Bold-2e"/>
     <use x="327.490234375" xlink:href="#BitstreamVeraSans-Bold-33"/>
    </g>
   </g>
  </g>
  <g id="axes_3">
   <g id="patch_12">
    <path d="
M609.806 171
L853.2 171
L853.2 28.4
L609.806 28.4
z
" style="fill:#ffffff;"/>
   </g>
   <g id="line2d_43">
    <path clip-path="url(#p392b408d26)" d="
M609.297 171
L611.751 171
L614.206 171
L616.66 171
L619.114 171
L621.569 171
L624.023 171
L626.477 171
L628.931 171
L631.386 171
L633.84 171
L636.294 171
L638.749 171
L641.203 171
L643.657 171
L646.112 171
L648.566 171
L651.02 171
L653.475 171
L655.929 171
L658.383 158.685
L660.837 159.982
L663.292 143.778
L665.746 141.834
L668.2 114.612
L670.655 76.3718
L673.109 69.2423
L675.563 71.1867
L678.018 69.8905
L680.472 113.316
L682.926 113.964
L685.381 171
L687.835 171
L690.289 171
L692.743 171
L695.198 171
L697.652 171
L700.106 171
L702.561 171
L705.015 171
L707.469 171
L709.924 171
L712.378 171
L714.832 171
L717.286 171
L719.741 171
L722.195 171
L724.649 171
L727.104 171
L729.558 171
L732.012 171
L734.467 171
L736.921 171
L739.375 171
L741.83 171
L744.284 171
L746.738 171
L749.192 171
L751.647 171
L754.101 171
L756.555 171
L759.01 171
L761.464 171
L763.918 171
L766.373 171
L768.827 171
L771.281 171
L773.736 171
L776.19 171
L778.644 171
L781.098 171
L783.553 171
L786.007 171
L788.461 171
L790.916 171
L793.37 171
L795.824 171
L798.279 171
L800.733 171
L803.187 171
L805.641 171
L808.096 171
L810.55 171
L813.004 171
L815.459 171
L817.913 171
L820.367 171
L822.822 171
L825.276 171
L827.73 171
L830.185 171
L832.639 171
L835.093 171
L837.547 171
L840.002 171
L842.456 171
L844.91 171
L847.365 171
L849.819 171
L852.273 171
L854.728 171" style="fill:none;stroke:#0000ff;stroke-linecap:square;stroke-width:2;"/>
   </g>
   <g id="line2d_44">
    <path clip-path="url(#p392b408d26)" d="
M609.297 171
L611.751 171
L614.206 171
L616.66 171
L619.114 171
L621.569 171
L624.023 171
L626.477 171
L628.931 170.352
L631.386 171
L633.84 171
L636.294 171
L638.749 169.704
L641.203 169.056
L643.657 171
L646.112 171
L648.566 169.704
L651.02 168.407
L653.475 165.167
L655.929 167.111
L658.383 164.519
L660.837 160.63
L663.292 158.037
L665.746 157.389
L668.2 144.426
L670.655 154.797
L673.109 148.963
L675.563 145.723
L678.018 134.704
L680.472 124.982
L682.926 117.853
L685.381 119.797
L687.835 122.39
L690.289 132.112
L692.743 128.871
L695.198 141.186
L697.652 129.519
L700.106 139.889
L702.561 152.204
L705.015 150.26
L707.469 156.093
L709.924 161.926
L712.378 163.222
L714.832 167.111
L717.286 168.407
L719.741 171
L722.195 171
L724.649 170.352
L727.104 171
L729.558 171
L732.012 171
L734.467 171
L736.921 171
L739.375 171
L741.83 171
L744.284 171
L746.738 171
L749.192 171
L751.647 171
L754.101 171
L756.555 171
L759.01 171
L761.464 171
L763.918 171
L766.373 171
L768.827 171
L771.281 171
L773.736 171
L776.19 171
L778.644 171
L781.098 171
L783.553 171
L786.007 171
L788.461 171
L790.916 171
L793.37 171
L795.824 171
L798.279 171
L800.733 171
L803.187 171
L805.641 171
L808.096 171
L810.55 171
L813.004 171
L815.459 171
L817.913 171
L820.367 171
L822.822 171
L825.276 171
L827.73 171
L830.185 171
L832.639 171
L835.093 171
L837.547 171
L840.002 171
L842.456 171
L844.91 171
L847.365 171
L849.819 171
L852.273 171
L854.728 171" style="fill:none;stroke:#2a00d4;stroke-linecap:square;stroke-width:2;"/>
   </g>
   <g id="line2d_45">
    <path clip-path="url(#p392b408d26)" d="
M609.297 171
L611.751 171
L614.206 171
L616.66 171
L619.114 171
L621.569 171
L624.023 171
L626.477 171
L628.931 169.704
L631.386 171
L633.84 171
L636.294 171
L638.749 171
L641.203 169.704
L643.657 171
L646.112 167.759
L648.566 169.704
L651.02 169.704
L653.475 170.352
L655.929 165.815
L658.383 167.759
L660.837 165.167
L663.292 160.63
L665.746 161.926
L668.2 159.334
L670.655 159.334
L673.109 155.445
L675.563 155.445
L678.018 158.685
L680.472 150.26
L682.926 149.611
L685.381 141.186
L687.835 138.593
L690.289 138.593
L692.743 140.538
L695.198 140.538
L697.652 136.649
L700.106 136.001
L702.561 141.834
L705.015 140.538
L707.469 132.76
L709.924 141.834
L712.378 149.611
L714.832 141.834
L717.286 151.556
L719.741 156.093
L722.195 154.797
L724.649 161.926
L727.104 161.926
L729.558 165.815
L732.012 165.815
L734.467 167.111
L736.921 167.111
L739.375 167.759
L741.83 168.407
L744.284 171
L746.738 170.352
L749.192 170.352
L751.647 171
L754.101 171
L756.555 171
L759.01 171
L761.464 171
L763.918 171
L766.373 171
L768.827 171
L771.281 171
L773.736 171
L776.19 171
L778.644 171
L781.098 171
L783.553 171
L786.007 171
L788.461 171
L790.916 171
L793.37 171
L795.824 171
L798.279 171
L800.733 171
L803.187 171
L805.641 171
L808.096 171
L810.55 171
L813.004 171
L815.459 171
L817.913 171
L820.367 171
L822.822 171
L825.276 171
L827.73 171
L830.185 171
L832.639 171
L835.093 171
L837.547 171
L840.002 171
L842.456 171
L844.91 171
L847.365 171
L849.819 171
L852.273 171
L854.728 171" style="fill:none;stroke:#5500aa;stroke-linecap:square;stroke-width:2;"/>
   </g>
   <g id="line2d_46">
    <path clip-path="url(#p392b408d26)" d="
M609.297 171
L611.751 171
L614.206 171
L616.66 171
L619.114 170.352
L621.569 171
L624.023 171
L626.477 170.352
L628.931 171
L631.386 171
L633.84 171
L636.294 170.352
L638.749 170.352
L641.203 171
L643.657 171
L646.112 171
L648.566 169.056
L651.02 170.352
L653.475 170.352
L655.929 169.056
L658.383 168.407
L660.837 167.111
L663.292 167.759
L665.746 166.463
L668.2 165.815
L670.655 158.685
L673.109 160.63
L675.563 161.278
L678.018 156.741
L680.472 160.63
L682.926 158.037
L685.381 158.037
L687.835 154.797
L690.289 156.741
L692.743 150.26
L695.198 153.5
L697.652 145.723
L700.106 147.667
L702.561 142.482
L705.015 141.834
L707.469 139.889
L709.924 144.426
L712.378 141.186
L714.832 139.241
L717.286 144.426
L719.741 145.074
L722.195 146.371
L724.649 148.963
L727.104 152.204
L729.558 147.667
L732.012 154.148
L734.467 155.445
L736.921 161.926
L739.375 157.389
L741.83 161.278
L744.284 163.87
L746.738 167.111
L749.192 162.574
L751.647 166.463
L754.101 165.815
L756.555 168.407
L759.01 171
L761.464 167.759
L763.918 169.704
L766.373 169.704
L768.827 171
L771.281 171
L773.736 171
L776.19 171
L778.644 171
L781.098 171
L783.553 171
L786.007 171
L788.461 171
L790.916 171
L793.37 171
L795.824 171
L798.279 171
L800.733 171
L803.187 171
L805.641 171
L808.096 171
L810.55 171
L813.004 171
L815.459 171
L817.913 171
L820.367 171
L822.822 171
L825.276 171
L827.73 171
L830.185 171
L832.639 171
L835.093 171
L837.547 171
L840.002 171
L842.456 171
L844.91 171
L847.365 171
L849.819 171
L852.273 171
L854.728 171" style="fill:none;stroke:#800080;stroke-linecap:square;stroke-width:2;"/>
   </g>
   <g id="line2d_47">
    <path clip-path="url(#p392b408d26)" d="
M609.297 171
L611.751 171
L614.206 171
L616.66 171
L619.114 171
L621.569 170.352
L624.023 171
L626.477 171
L628.931 171
L631.386 171
L633.84 170.352
L636.294 171
L638.749 171
L641.203 171
L643.657 171
L646.112 171
L648.566 171
L651.02 169.056
L653.475 171
L655.929 168.407
L658.383 169.056
L660.837 170.352
L663.292 169.056
L665.746 167.111
L668.2 167.759
L670.655 164.519
L673.109 167.759
L675.563 167.759
L678.018 163.87
L680.472 159.334
L682.926 164.519
L685.381 160.63
L687.835 165.167
L690.289 159.334
L692.743 156.741
L695.198 154.148
L697.652 157.389
L700.106 153.5
L702.561 157.389
L705.015 153.5
L707.469 145.723
L709.924 148.315
L712.378 154.797
L714.832 142.482
L717.286 139.889
L719.741 146.371
L722.195 144.426
L724.649 150.908
L727.104 150.908
L729.558 152.204
L732.012 141.186
L734.467 145.074
L736.921 148.963
L739.375 148.963
L741.83 154.148
L744.284 154.797
L746.738 161.926
L749.192 157.389
L751.647 161.278
L754.101 161.278
L756.555 160.63
L759.01 163.87
L761.464 158.037
L763.918 165.815
L766.373 165.815
L768.827 167.111
L771.281 168.407
L773.736 167.111
L776.19 166.463
L778.644 170.352
L781.098 168.407
L783.553 171
L786.007 171
L788.461 169.704
L790.916 170.352
L793.37 170.352
L795.824 170.352
L798.279 171
L800.733 171
L803.187 171
L805.641 171
L808.096 171
L810.55 171
L813.004 171
L815.459 171
L817.913 171
L820.367 171
L822.822 171
L825.276 171
L827.73 171
L830.185 171
L832.639 171
L835.093 171
L837.547 171
L840.002 171
L842.456 171
L844.91 171
L847.365 171
L849.819 171
L852.273 171
L854.728 171" style="fill:none;stroke:#aa0055;stroke-linecap:square;stroke-width:2;"/>
   </g>
   <g id="line2d_48">
    <path clip-path="url(#p392b408d26)" d="
M609.297 171
L611.751 171
L614.206 171
L616.66 171
L619.114 171
L621.569 170.352
L624.023 171
L626.477 171
L628.931 171
L631.386 171
L633.84 171
L636.294 171
L638.749 171
L641.203 171
L643.657 171
L646.112 171
L648.566 171
L651.02 168.407
L653.475 171
L655.929 169.056
L658.383 169.704
L660.837 170.352
L663.292 170.352
L665.746 169.056
L668.2 168.407
L670.655 169.704
L673.109 169.704
L675.563 166.463
L678.018 167.759
L680.472 166.463
L682.926 166.463
L685.381 167.759
L687.835 165.167
L690.289 161.278
L692.743 159.982
L695.198 160.63
L697.652 163.87
L700.106 161.278
L702.561 159.982
L705.015 159.982
L707.469 157.389
L709.924 154.797
L712.378 150.908
L714.832 148.963
L717.286 150.26
L719.741 152.204
L722.195 147.019
L724.649 154.797
L727.104 149.611
L729.558 152.852
L732.012 146.371
L734.467 147.667
L736.921 145.723
L739.375 148.963
L741.83 150.26
L744.284 153.5
L746.738 148.963
L749.192 150.26
L751.647 151.556
L754.101 154.148
L756.555 156.093
L759.01 155.445
L761.464 159.334
L763.918 161.926
L766.373 157.389
L768.827 162.574
L771.281 161.278
L773.736 164.519
L776.19 162.574
L778.644 168.407
L781.098 164.519
L783.553 165.167
L786.007 165.167
L788.461 168.407
L790.916 169.056
L793.37 169.056
L795.824 169.704
L798.279 169.704
L800.733 170.352
L803.187 168.407
L805.641 170.352
L808.096 171
L810.55 170.352
L813.004 170.352
L815.459 171
L817.913 170.352
L820.367 171
L822.822 171
L825.276 171
L827.73 171
L830.185 171
L832.639 171
L835.093 171
L837.547 171
L840.002 171
L842.456 171
L844.91 171
L847.365 171
L849.819 171
L852.273 171
L854.728 171" style="fill:none;stroke:#d4002b;stroke-linecap:square;stroke-width:2;"/>
   </g>
   <g id="line2d_49">
    <path clip-path="url(#p392b408d26)" d="
M609.297 171
L611.751 171
L614.206 171
L616.66 171
L619.114 171
L621.569 171
L624.023 171
L626.477 171
L628.931 171
L631.386 171
L633.84 171
L636.294 171
L638.749 169.704
L641.203 171
L643.657 171
L646.112 170.352
L648.566 171
L651.02 171
L653.475 171
L655.929 171
L658.383 169.704
L660.837 169.704
L663.292 169.704
L665.746 170.352
L668.2 170.352
L670.655 171
L673.109 167.111
L675.563 167.759
L678.018 169.056
L680.472 169.704
L682.926 169.056
L685.381 169.704
L687.835 164.519
L690.289 168.407
L692.743 167.111
L695.198 165.167
L697.652 165.167
L700.106 163.87
L702.561 161.926
L705.015 164.519
L707.469 158.037
L709.924 161.278
L712.378 155.445
L714.832 159.982
L717.286 158.685
L719.741 161.926
L722.195 151.556
L724.649 152.204
L727.104 154.148
L729.558 152.204
L732.012 154.797
L734.467 150.908
L736.921 150.26
L739.375 151.556
L741.83 151.556
L744.284 147.019
L746.738 150.26
L749.192 150.908
L751.647 150.26
L754.101 150.26
L756.555 152.852
L759.01 152.204
L761.464 156.741
L763.918 156.741
L766.373 156.741
L768.827 152.204
L771.281 158.685
L773.736 156.093
L776.19 159.334
L778.644 158.685
L781.098 154.148
L783.553 158.037
L786.007 162.574
L788.461 167.111
L790.916 165.815
L793.37 167.111
L795.824 163.87
L798.279 165.815
L800.733 167.111
L803.187 169.056
L805.641 169.704
L808.096 170.352
L810.55 169.056
L813.004 169.056
L815.459 169.056
L817.913 169.704
L820.367 169.704
L822.822 170.352
L825.276 170.352
L827.73 170.352
L830.185 170.352
L832.639 169.704
L835.093 171
L837.547 171
L840.002 171
L842.456 171
L844.91 171
L847.365 171
L849.819 171
L852.273 171
L854.728 171" style="fill:none;stroke:#ff0000;stroke-linecap:square;stroke-width:2;"/>
   </g>
   <g id="patch_13">
    <path d="
M609.806 28.4
L853.2 28.4" style="fill:none;stroke:#000000;stroke-linecap:square;stroke-linejoin:miter;"/>
   </g>
   <g id="patch_14">
    <path d="
M853.2 171
L853.2 28.4" style="fill:none;stroke:#000000;stroke-linecap:square;stroke-linejoin:miter;"/>
   </g>
   <g id="patch_15">
    <path d="
M609.806 171
L853.2 171" style="fill:none;stroke:#000000;stroke-linecap:square;stroke-linejoin:miter;"/>
   </g>
   <g id="patch_16">
    <path d="
M609.806 171
L609.806 28.4" style="fill:none;stroke:#000000;stroke-linecap:square;stroke-linejoin:miter;"/>
   </g>
   <g id="matplotlib.axis_5">
    <g id="xtick_11">
     <g id="line2d_50">
      <g>
       <use style="stroke:#000000;stroke-width:0.5;" x="621.9759375" xlink:href="#m93b0483c22" y="171.0"/>
      </g>
     </g>
     <g id="line2d_51">
      <g>
       <use style="stroke:#000000;stroke-width:0.5;" x="621.9759375" xlink:href="#m741efc42ff" y="28.4"/>
      </g>
     </g>
     <g id="text_21">
      <!-- −20 -->
      <g transform="translate(612.2853125 182.5984375)scale(0.1 -0.1)">
       <use xlink:href="#BitstreamVeraSans-Roman-2212"/>
       <use x="83.7890625" xlink:href="#BitstreamVeraSans-Roman-32"/>
       <use x="147.412109375" xlink:href="#BitstreamVeraSans-Roman-30"/>
      </g>
     </g>
    </g>
    <g id="xtick_12">
     <g id="line2d_52">
      <g>
       <use style="stroke:#000000;stroke-width:0.5;" x="670.6546875" xlink:href="#m93b0483c22" y="171.0"/>
      </g>
     </g>
     <g id="line2d_53">
      <g>
       <use style="stroke:#000000;stroke-width:0.5;" x="670.6546875" xlink:href="#m741efc42ff" y="28.4"/>
      </g>
     </g>
     <g id="text_22">
      <!-- 0 -->
      <g transform="translate(668.13515625 182.5984375)scale(0.1 -0.1)">
       <use xlink:href="#BitstreamVeraSans-Roman-30"/>
      </g>
     </g>
    </g>
    <g id="xtick_13">
     <g id="line2d_54">
      <g>
       <use style="stroke:#000000;stroke-width:0.5;" x="719.3334375" xlink:href="#m93b0483c22" y="171.0"/>
      </g>
     </g>
     <g id="line2d_55">
      <g>
       <use style="stroke:#000000;stroke-width:0.5;" x="719.3334375" xlink:href="#m741efc42ff" y="28.4"/>
      </g>
     </g>
     <g id="text_23">
      <!-- 20 -->
      <g transform="translate(713.669375 182.5984375)scale(0.1 -0.1)">
       <use xlink:href="#BitstreamVeraSans-Roman-32"/>
       <use x="63.623046875" xlink:href="#BitstreamVeraSans-Roman-30"/>
      </g>
     </g>
    </g>
    <g id="xtick_14">
     <g id="line2d_56">
      <g>
       <use style="stroke:#000000;stroke-width:0.5;" x="768.0121875" xlink:href="#m93b0483c22" y="171.0"/>
      </g>
     </g>
     <g id="line2d_57">
      <g>
       <use style="stroke:#000000;stroke-width:0.5;" x="768.0121875" xlink:href="#m741efc42ff" y="28.4"/>
      </g>
     </g>
     <g id="text_24">
      <!-- 40 -->
      <g transform="translate(762.22625 182.5984375)scale(0.1 -0.1)">
       <use xlink:href="#BitstreamVeraSans-Roman-34"/>
       <use x="63.623046875" xlink:href="#BitstreamVeraSans-Roman-30"/>
      </g>
     </g>
    </g>
    <g id="xtick_15">
     <g id="line2d_58">
      <g>
       <use style="stroke:#000000;stroke-width:0.5;" x="816.6909375" xlink:href="#m93b0483c22" y="171.0"/>
      </g>
     </g>
     <g id="line2d_59">
      <g>
       <use style="stroke:#000000;stroke-width:0.5;" x="816.6909375" xlink:href="#m741efc42ff" y="28.4"/>
      </g>
     </g>
     <g id="text_25">
      <!-- 60 -->
      <g transform="translate(811.0096875 182.5984375)scale(0.1 -0.1)">
       <use xlink:href="#BitstreamVeraSans-Roman-36"/>
       <use x="63.623046875" xlink:href="#BitstreamVeraSans-Roman-30"/>
      </g>
     </g>
    </g>
    <g id="text_26">
     <!-- position -->
     <g transform="translate(703.11328125 201.07578125)scale(0.15 -0.15)">
      <use xlink:href="#BitstreamVeraSans-Roman-70"/>
      <use x="63.4765625" xlink:href="#BitstreamVeraSans-Roman-6f"/>
      <use x="124.658203125" xlink:href="#BitstreamVeraSans-Roman-73"/>
      <use x="176.7578125" xlink:href="#BitstreamVeraSans-Roman-69"/>
      <use x="204.541015625" xlink:href="#BitstreamVeraSans-Roman-74"/>
      <use x="243.75" xlink:href="#BitstreamVeraSans-Roman-69"/>
      <use x="271.533203125" xlink:href="#BitstreamVeraSans-Roman-6f"/>
      <use x="332.71484375" xlink:href="#BitstreamVeraSans-Roman-6e"/>
     </g>
    </g>
   </g>
   <g id="matplotlib.axis_6">
    <g id="ytick_5">
     <g id="line2d_60">
      <g>
       <use style="stroke:#000000;stroke-width:0.5;" x="609.80625" xlink:href="#m728421d6d4" y="171.0"/>
      </g>
     </g>
     <g id="line2d_61">
      <g>
       <use style="stroke:#000000;stroke-width:0.5;" x="853.2" xlink:href="#mcb0005524f" y="171.0"/>
      </g>
     </g>
     <g id="text_27">
      <!-- 0 -->
      <g transform="translate(600.7671875 173.759375)scale(0.1 -0.1)">
       <use xlink:href="#BitstreamVeraSans-Roman-30"/>
      </g>
     </g>
    </g>
    <g id="ytick_6">
     <g id="line2d_62">
      <g>
       <use style="stroke:#000000;stroke-width:0.5;" x="609.80625" xlink:href="#m728421d6d4" y="41.3636363636"/>
      </g>
     </g>
     <g id="line2d_63">
      <g>
       <use style="stroke:#000000;stroke-width:0.5;" x="853.2" xlink:href="#mcb0005524f" y="41.3636363636"/>
      </g>
     </g>
     <g id="text_28">
      <!-- 2 -->
      <g transform="translate(601.178125 44.1230113636)scale(0.1 -0.1)">
       <use xlink:href="#BitstreamVeraSans-Roman-32"/>
      </g>
     </g>
    </g>
    <g id="text_29">
     <!-- concentration -->
     <g transform="translate(592.64765625 150.593359375)rotate(-90.0)scale(0.15 -0.15)">
      <use xlink:href="#BitstreamVeraSans-Roman-63"/>
      <use x="54.98046875" xlink:href="#BitstreamVeraSans-Roman-6f"/>
      <use x="116.162109375" xlink:href="#BitstreamVeraSans-Roman-6e"/>
      <use x="179.541015625" xlink:href="#BitstreamVeraSans-Roman-63"/>
      <use x="234.521484375" xlink:href="#BitstreamVeraSans-Roman-65"/>
      <use x="296.044921875" xlink:href="#BitstreamVeraSans-Roman-6e"/>
      <use x="359.423828125" xlink:href="#BitstreamVeraSans-Roman-74"/>
      <use x="398.6328125" xlink:href="#BitstreamVeraSans-Roman-72"/>
      <use x="439.74609375" xlink:href="#BitstreamVeraSans-Roman-61"/>
      <use x="501.025390625" xlink:href="#BitstreamVeraSans-Roman-74"/>
      <use x="540.234375" xlink:href="#BitstreamVeraSans-Roman-69"/>
      <use x="568.017578125" xlink:href="#BitstreamVeraSans-Roman-6f"/>
      <use x="629.19921875" xlink:href="#BitstreamVeraSans-Roman-6e"/>
     </g>
    </g>
   </g>
   <g id="text_30">
    <!-- k = 0.4 -->
    <defs>
     <path d="
M36.8125 57.4219
L16.2188 26.9062
L36.8125 26.9062
z

M33.6875 72.9062
L54.5938 72.9062
L54.5938 26.9062
L64.9844 26.9062
L64.9844 13.2812
L54.5938 13.2812
L54.5938 0
L36.8125 0
L36.8125 13.2812
L4.5 13.2812
L4.5 29.3906
z
" id="BitstreamVeraSans-Bold-34"/>
    </defs>
    <g transform="translate(702.06796875 23.4)scale(0.15 -0.15)">
     <use xlink:href="#BitstreamVeraSans-Bold-6b"/>
     <use x="66.50390625" xlink:href="#BitstreamVeraSans-Bold-20"/>
     <use x="101.318359375" xlink:href="#BitstreamVeraSans-Bold-3d"/>
     <use x="185.107421875" xlink:href="#BitstreamVeraSans-Bold-20"/>
     <use x="219.921875" xlink:href="#BitstreamVeraSans-Bold-30"/>
     <use x="289.501953125" xlink:href="#BitstreamVeraSans-Bold-2e"/>
     <use x="327.490234375" xlink:href="#BitstreamVeraSans-Bold-34"/>
    </g>
   </g>
  </g>
 </g>
 <defs>
  <clipPath id="p392b408d26">
   <rect height="142.6" width="243.39375" x="609.80625" y="28.4"/>
  </clipPath>
  <clipPath id="p08db764a31">
   <rect height="142.6" width="243.39375" x="41.00625" y="28.4"/>
  </clipPath>
  <clipPath id="p145414460c">
   <rect height="142.6" width="243.39375" x="325.40625" y="28.4"/>
  </clipPath>
 </defs>
</svg>
